<?xml version="1.0" encoding="utf-8"?>
<!-- Generator: Adobe Illustrator 23.0.1, SVG Export Plug-In . SVG Version: 6.00 Build 0)  -->
<svg version="1.1" id="Layer_1" xmlns="http://www.w3.org/2000/svg" xmlns:xlink="http://www.w3.org/1999/xlink" x="0px" y="0px"
	 viewBox="0 0 251.08 73.02" style="enable-background:new 0 0 251.08 73.02;" xml:space="preserve">
<style type="text/css">
	.st0{fill:#FFFFFF;}
</style>
<g id="XMLID_3223_">
	<rect id="XMLID_3297_" x="3.59" y="67.66" class="st0" width="22.07" height="1.54"/>
	<polygon id="XMLID_3296_" class="st0" points="3.59,65.14 3.59,62.78 25.47,62.78 25.56,65.14 	"/>
	<polygon id="XMLID_3295_" class="st0" points="3.59,60.22 3.59,56.94 25.29,56.94 25.38,60.22 	"/>
	<polygon id="XMLID_3294_" class="st0" points="3.59,54.39 3.59,49.65 25.06,49.65 25.2,54.39 	"/>
	<polygon id="XMLID_3293_" class="st0" points="3.59,47.18 3.59,39.88 66.68,39.88 66.68,47.18 28.76,47.18 24.42,39.88 
		24.97,47.18 	"/>
	<polygon id="XMLID_3292_" class="st0" points="3.59,37.33 3.59,28.3 40.97,28.3 46.54,37.33 46,28.3 66.68,28.3 66.68,37.33 	"/>
	<polygon id="XMLID_3291_" class="st0" points="3.59,25.76 3.59,8.16 28.89,8.16 39.33,25.76 	"/>
	<rect id="XMLID_3290_" x="46" y="8.11" class="st0" width="20.65" height="17.65"/>
	<polygon id="XMLID_3289_" class="st0" points="66.68,49.65 66.68,54.39 33.58,54.39 30.45,49.65 	"/>
	<polygon id="XMLID_3288_" class="st0" points="66.68,56.94 66.68,60.22 37.38,60.22 35.23,56.94 	"/>
	<polygon id="XMLID_3287_" class="st0" points="66.68,62.78 66.68,65.14 40.61,65.14 39.07,62.78 	"/>
	<polygon id="XMLID_3286_" class="st0" points="66.68,67.66 66.68,69.15 43.3,69.15 42.3,67.66 	"/>
	<rect id="XMLID_3285_" x="72.58" y="67.66" class="st0" width="21.57" height="1.54"/>
	<rect id="XMLID_3284_" x="72.58" y="62.73" class="st0" width="21.57" height="2.36"/>
	<rect id="XMLID_3283_" x="72.58" y="56.94" class="st0" width="21.57" height="3.23"/>
	<rect id="XMLID_3282_" x="72.58" y="49.65" class="st0" width="21.57" height="4.74"/>
	<rect id="XMLID_3281_" x="72.58" y="39.84" class="st0" width="21.57" height="7.29"/>
	<rect id="XMLID_3280_" x="72.58" y="28.3" class="st0" width="21.57" height="9.03"/>
	<rect id="XMLID_3279_" x="72.58" y="8.11" class="st0" width="21.57" height="17.65"/>
	<path id="XMLID_3278_" class="st0" d="M131.26,7.06h11.44v18.7h-11.62h-30.04C106.17,14.76,117.81,7.06,131.26,7.06"/>
	<path id="XMLID_3277_" class="st0" d="M124.18,28.3c-2.56,2.15-4.24,5.39-4.29,9.03H98.14c0.13-3.15,0.77-6.21,1.82-9.03H124.18z"
		/>
	<path id="XMLID_3276_" class="st0" d="M120.07,39.84c0.54,3,2.15,5.57,4.29,7.29H99.42c-0.69-2.33-1.13-4.79-1.23-7.29H120.07z"/>
	<path id="XMLID_3275_" class="st0" d="M142.7,49.65v4.74h-40.08c-0.92-1.51-1.74-3.05-2.36-4.74H142.7z"/>
	<path id="XMLID_3274_" class="st0" d="M142.7,56.94v3.23h-35.48c-1.05-1-1.95-2.1-2.87-3.23H142.7z"/>
	<path id="XMLID_3273_" class="st0" d="M142.7,62.78v2.36h-29.22c-1.18-0.77-2.33-1.51-3.41-2.36H142.7z"/>
	<path id="XMLID_3272_" class="st0" d="M142.7,67.66v1.33h-19.55c0,0-0.64,0.23-4.51-1.33H142.7z"/>
	<path id="XMLID_3269_" class="st0" d="M220.26,4.83c-1.28-1.51-3.15-2.18-4.42-2.18c-1.18,0-2.15,0.28-2.87,0.82
		c-0.69,0.54-1.05,1.28-1.1,2.18c-0.05,0.64,0.13,1.28,0.46,1.82c0.05,0.05,0.1,0.13,0.18,0.28l0.28,0.36h-5.83v1.95h2.51v2.69
		c0,0.13,0,0.23-0.05,0.31c-0.1,0.23-0.23,0.31-0.46,0.31c-0.05,0-0.05,0-0.1,0c-0.28-0.05-0.51-0.23-0.69-0.54
		c-0.1-0.13-0.23-0.36-0.41-0.77l-1.77,1.18c0.28,0.51,0.92,1.51,2.51,3.74c1.41,2,2.1,3,2.36,3.41l1.92-1.41
		c-0.64-0.82-1.23-1.54-1.82-2.18c-0.41-0.54-0.72-0.95-1-1.23l-0.23-0.28l0.31-0.1c0.59-0.13,1.05-0.46,1.36-0.92
		c0.31-0.41,0.46-0.82,0.46-1.33V9.98h2.77v3.19h-2.15l1.05,1.87h1.05v5.29h2.51v-3.1v-0.23v-6.98h2.41v10.31h2.51V7.83
		C221.98,7.7,221.39,6.19,220.26,4.83 M219.62,7.93c0,0.23,0,0.23-1.05,0.23h-2.59c0,0-0.46,0-0.92-0.23
		c-0.77-0.36-1.13-0.92-1.18-1.77c0-0.36,0.1-0.69,0.28-0.95c0.23-0.31,0.59-0.54,1.05-0.64c0.13,0,0.28-0.05,0.41-0.05
		c1.82,0,3.56,1.77,4.01,3.33V7.93L219.62,7.93z"/>
	<path id="XMLID_3268_" class="st0" d="M174.25,8.16h-20.19v7.98l4.93,4.06c0.13,0.13,0.31,0.28,0.46,0.41l0.05,0.05
		c0.1,0.05,0.23,0.13,0.28,0.31c0.05,0.13,0,0.31-0.1,0.46c-0.1,0.1-0.18,0.13-0.31,0.18c-0.13,0.05-0.28,0.1-0.46,0.1
		c-0.1,0-0.13,0-0.23,0l0.28,0.41c0.05,0.05,0.1,0.13,0.13,0.18c0.23,0.31,0.46,0.69,0.77,0.72c0.05,0,0.13,0.05,0.23,0.05
		c0.31,0,0.72-0.13,1.23-0.46c0.23-0.18,0.46-0.36,0.59-0.54c0.23-0.31,0.31-0.69,0.28-1.1c-0.05-0.51-0.31-0.92-0.77-1.33
		c-0.31-0.28-0.64-0.54-0.95-0.77c-0.64-0.54-2.46-2.05-2.46-2.05c-0.41-0.31-1.41-1.18-1.41-1.18v-5.47h2.87v3.69
		c0.05,0.23-0.05,0.36-0.23,0.46c-0.13,0.1-0.46,0.18-1.41,0.18l1.92,1.59c0.64,0,1.13-0.23,1.59-0.64
		c0.41-0.31,0.59-0.72,0.59-1.28v-4.06h8.39v2.36h-5.7c-0.72,0-1.05,0.31-1.05,1c0,0.13,0.13,0.59,1.23,1.87
		c1.05,1.23,1.51,1.41,1.69,1.46h0.05c0.31,0,0.51-0.13,0.64-0.41c0.1-0.18,0.13-0.36,0.13-0.54v-1.33h3.05v5.88h2.51V10.1h1.41
		V8.16H174.25z"/>
	<path id="XMLID_3267_" class="st0" d="M202.48,10.34v-0.23h1.28V8.16h-1.28V8.03c-0.1-0.1-0.23-0.23-0.31-0.31
		c-0.18-0.18-0.36-0.31-0.54-0.54c-0.1-0.1-0.18-0.18-0.28-0.31c-0.1-0.13-0.18-0.23-0.28-0.31c-0.28-0.31-0.41-0.77-0.36-1.18
		c0.05-0.41,0.28-0.77,0.64-1c0.18-0.1,0.46-0.13,0.72-0.13c0.26,0,0.59,0.05,0.87,0.13c0.13,0.05,0.28,0.1,0.46,0.13l0.1,0.05
		c0.13-1.23,0.05-1.41-0.69-1.77c-0.28-0.13-0.64-0.18-1-0.18s-0.77,0.05-1.18,0.18c-1,0.28-1.74,1.28-1.82,2.33
		c-0.05,0.46,0.13,1.05,0.36,1.41c0.1,0.13,0.72,0.87,1.13,1.28l0.36,0.41h-16.47v1.95h1.46v3.46c0,0.36-1.13,0.51-1.13,0.51h-0.05
		c-0.36,0-0.69-0.23-1-0.41c-0.13-0.1-0.28-0.18-0.41-0.23l-0.28-0.13l0.23-0.23c0.46-0.46,0.64-1.05,0.64-1.82
		c0-0.82-0.31-1.46-0.92-2c-0.64-0.54-1.41-0.82-2.36-0.82c-1,0-1.95,0.31-2.87,1c-0.1,0.05-0.13,0.13-0.23,0.18
		c0.13,0.28,0.41,0.82,0.92,2.05c0.23-0.31,0.59-0.59,0.77-0.72c0.41-0.31,0.87-0.51,1.33-0.54c0.36,0,0.64,0.13,0.82,0.41
		c0.13,0.18,0.18,0.41,0.18,0.64c0,0.28-0.1,0.59-0.23,0.82c-0.18,0.28-0.51,0.51-0.92,0.64c-0.31,0.13-0.82,0.31-1.13,0.41
		c0.18,0.36,0.51,1.05,0.64,1.36c0.1,0,0.23,0,0.41,0c0.18,0,0.41,0,0.54,0c0.05,0,0.1,0,0.1,0c0.41,0.05,1.13,0.23,1.46,0.92
		c0.23,0.54,0.18,1.41-0.28,1.82c-0.23,0.18-0.54,0.31-0.87,0.31c-0.13,0-0.28,0-0.46-0.05c-1-0.23-1.64-1-2.05-1.59
		c-0.28-0.46-0.51-0.92-0.72-1.33c-0.1-0.23-0.23-0.51-0.36-0.72c-0.59,0.28-1.23,0.51-1.82,0.77c0.54,1.46,1.46,2.77,2.56,3.74
		c0.92,0.82,1.87,1.23,2.82,1.23c1.13,0,2.05-0.28,2.69-0.87c0.69-0.64,0.95-1.54,0.87-2.77l-0.05-0.28l0.28,0.05
		c0.1,0,0.23,0.05,0.31,0.05c0.13,0,0.23,0,0.36-0.05l0.28-0.1v4.74h2.51V10.31h2.33v10.31h2.51V10.31h7.11v1.36h-3.51
		c-0.41,0-0.72,0.13-1,0.36c-0.31,0.28-0.46,0.59-0.46,1c0,0.72,0.41,1.51,1.23,2.46c0.41,0.46,0.87,0.82,1.36,1
		c0.31,0.13,0.69,0.23,1,0.23c0.23,0,0.41-0.05,0.64-0.1c0.13-0.05,0.28-0.1,0.41-0.13c0.18-0.1,0.36-0.13,0.54-0.18
		c0.1,0,0.13,0,0.18,0c0.18,0,0.28,0.1,0.31,0.13c0.1,0.1,0.1,0.18,0.13,0.28c0.13,0.54,0,1.13-0.36,1.59
		c-0.18,0.28-0.46,0.46-0.77,0.54c-0.05,0.05-0.1,0.05-0.1,0.05c-0.23,0.1-0.31,0.1-0.36,0.1c-0.13,0-0.18-0.1-0.23-0.1
		c-0.51-0.69-1-1.13-1.54-1.33c-0.23-0.1-0.46-0.13-0.72-0.13c-0.51,0-0.87,0.13-1.13,0.41c-0.26,0.28-0.41,0.59-0.46,1
		c0,0.51,0.18,0.92,0.64,1.23c0.46,0.36,1,0.54,1.59,0.54h0.36c0,0,0.1,0,0.13,0c0.1,0,0.18,0,0.23,0h0.1l0.05,0.05
		c0.36,0.36,0.72,0.69,1.05,0.95l2.56,1.77c0.59-0.64,1.33-1.54,1.36-1.59l0.05-0.05c-0.13-0.1-1.77-1-2.23-1.33l-0.36-0.23
		l0.36-0.18c0.1-0.05,0.18-0.1,0.28-0.13c1.41-0.72,2.1-1.77,2.1-3.19c0-0.64-0.1-1.41-0.64-1.77c-0.23-0.13-0.54-0.18-0.92-0.18
		c-0.51,0-1,0.1-1.51,0.28l-0.13,0.05c-0.28,0.1-0.54,0.18-0.82,0.18c-0.1,0-0.18,0-0.28-0.05c-0.36-0.1-0.64-0.41-0.82-0.69
		l-0.1-0.1c-0.13-0.13-0.46-0.72-0.46-0.77l-0.18-0.31c0,0,3.92,0,4.83,0L202.48,10.34z"/>
	<polygon id="XMLID_3266_" class="st0" points="153.83,24.94 156.74,24.94 161.94,34.05 161.94,24.94 164.48,24.94 164.48,37.97 
		161.76,37.97 156.42,28.71 156.42,37.97 153.83,37.97 	"/>
	<path id="XMLID_3263_" class="st0" d="M170.56,32.1c0.46-0.05,0.82-0.13,1-0.23c0.36-0.13,0.54-0.41,0.54-0.72
		c0-0.41-0.13-0.69-0.41-0.82c-0.28-0.13-0.69-0.23-1.23-0.23c-0.59,0-1.05,0.13-1.28,0.46c-0.18,0.23-0.31,0.51-0.36,0.87h-2.46
		c0.05-0.82,0.28-1.54,0.72-2.1c0.69-0.87,1.82-1.28,3.46-1.28c1.05,0,2,0.23,2.87,0.64c0.82,0.41,1.23,1.23,1.23,2.36v4.42
		c0,0.31,0,0.69,0,1.1c0,0.31,0.05,0.54,0.13,0.69c0.1,0.1,0.23,0.23,0.36,0.28v0.36h-2.77c-0.1-0.18-0.13-0.36-0.18-0.54
		c-0.05-0.18-0.05-0.36-0.1-0.59c-0.36,0.36-0.77,0.69-1.23,0.95c-0.54,0.31-1.18,0.46-1.87,0.46c-0.87,0-1.59-0.23-2.18-0.72
		c-0.59-0.49-0.87-1.23-0.87-2.15c0-1.18,0.46-2.05,1.41-2.56c0.51-0.28,1.28-0.51,2.23-0.64H170.56z M172.1,33.28
		c-0.18,0.1-0.31,0.18-0.51,0.23s-0.41,0.13-0.69,0.18l-0.59,0.1c-0.54,0.1-0.92,0.23-1.18,0.31c-0.41,0.23-0.59,0.59-0.59,1.1
		c0,0.41,0.13,0.72,0.36,0.92c0.23,0.18,0.54,0.28,0.92,0.28c0.54,0,1.05-0.18,1.54-0.51c0.46-0.31,0.72-0.92,0.72-1.74v-0.87H172.1
		z"/>
	<path id="XMLID_3262_" class="st0" d="M175.71,30.22v-1.77h1.36v-2.69h2.51v2.69h1.59v1.77h-1.59v5.11c0,0.41,0.05,0.64,0.13,0.72
		c0.08,0.08,0.41,0.13,0.92,0.13c0.1,0,0.13,0,0.23,0c0.1,0,0.18,0,0.28,0v1.87l-1.23,0.05c-1.18,0.05-2-0.18-2.46-0.64
		c-0.28-0.28-0.41-0.72-0.41-1.33v-5.93h-1.33V30.22z"/>
	<path id="XMLID_3259_" class="st0" d="M185.55,27.17h-2.59v-2.33h2.59V27.17z M182.96,28.3h2.59v9.67h-2.59V28.3z"/>
	<path id="XMLID_3256_" class="st0" d="M195.63,36.79c-0.82,1-2.05,1.51-3.74,1.51c-1.69,0-2.92-0.51-3.74-1.51
		c-0.82-1-1.23-2.23-1.23-3.64c0-1.41,0.41-2.59,1.23-3.6c0.82-1,2.05-1.54,3.74-1.54c1.69,0,2.92,0.51,3.74,1.54
		c0.82,1,1.23,2.23,1.23,3.6C196.86,34.59,196.45,35.79,195.63,36.79 M193.58,35.41c0.41-0.51,0.59-1.28,0.59-2.23
		c0-0.95-0.18-1.69-0.59-2.23c-0.41-0.51-0.95-0.77-1.74-0.77c-0.77,0-1.33,0.28-1.74,0.77c-0.41,0.51-0.59,1.28-0.59,2.23
		c0,0.95,0.18,1.74,0.59,2.23c0.41,0.54,1,0.77,1.74,0.77C192.58,36.18,193.22,35.92,193.58,35.41"/>
	<path id="XMLID_3255_" class="st0" d="M206.35,28.89c0.64,0.54,0.95,1.41,0.95,2.59v6.47h-2.59v-5.88c0-0.51-0.05-0.92-0.18-1.18
		c-0.28-0.51-0.72-0.72-1.41-0.72c-0.87,0-1.46,0.36-1.77,1.1c-0.18,0.36-0.28,0.87-0.28,1.46v5.24h-2.56v-9.62h2.46v1.41
		c0.31-0.51,0.64-0.87,0.92-1.1c0.51-0.36,1.18-0.59,2-0.59C204.89,28.07,205.71,28.35,206.35,28.89"/>
	<path id="XMLID_3252_" class="st0" d="M213.38,32.1c0.46-0.05,0.82-0.13,1-0.23c0.36-0.13,0.54-0.41,0.54-0.72
		c0-0.41-0.13-0.69-0.41-0.82c-0.28-0.13-0.69-0.23-1.23-0.23c-0.59,0-1.05,0.13-1.28,0.46c-0.18,0.23-0.31,0.51-0.36,0.87h-2.46
		c0.05-0.82,0.28-1.54,0.72-2.1c0.69-0.87,1.82-1.28,3.46-1.28c1.1,0,2,0.23,2.87,0.64c0.82,0.41,1.23,1.23,1.23,2.36v4.42
		c0,0.31,0,0.69,0,1.1c0,0.31,0.1,0.54,0.13,0.69c0.1,0.1,0.23,0.23,0.36,0.28v0.36h-2.77c-0.1-0.18-0.13-0.36-0.13-0.54
		c-0.05-0.18-0.05-0.36-0.1-0.59c-0.36,0.36-0.77,0.69-1.23,0.95c-0.54,0.31-1.18,0.46-1.87,0.46c-0.87,0-1.64-0.23-2.18-0.72
		c-0.59-0.51-0.87-1.23-0.87-2.15c0-1.18,0.46-2.05,1.41-2.56c0.51-0.28,1.28-0.51,2.23-0.64H213.38z M214.92,33.28
		c-0.18,0.1-0.31,0.18-0.51,0.23s-0.41,0.13-0.69,0.18l-0.59,0.1c-0.54,0.1-0.92,0.23-1.18,0.31c-0.41,0.23-0.59,0.59-0.59,1.1
		c0,0.41,0.13,0.72,0.36,0.92c0.23,0.2,0.54,0.28,0.92,0.28c0.54,0,1.05-0.18,1.54-0.51c0.46-0.31,0.72-0.92,0.72-1.74v-0.87H214.92
		z"/>
	<rect id="XMLID_3251_" x="219.52" y="24.94" class="st0" width="2.56" height="13.04"/>
	<rect id="XMLID_3250_" x="153.63" y="40.25" class="st0" width="2.74" height="13.04"/>
	<path id="XMLID_3249_" class="st0" d="M166.46,44.18c0.64,0.51,0.95,1.41,0.95,2.59v6.52h-2.59v-5.88c0-0.51-0.05-0.92-0.18-1.18
		c-0.28-0.51-0.72-0.72-1.41-0.72c-0.87,0-1.46,0.36-1.77,1.1c-0.13,0.36-0.23,0.87-0.23,1.46v5.24h-2.59v-9.62h2.46v1.41
		c0.31-0.51,0.64-0.87,0.92-1.05c0.51-0.41,1.18-0.59,1.95-0.59C164.99,43.39,165.77,43.67,166.46,44.18"/>
	<path id="XMLID_3248_" class="st0" d="M173.61,40.11c0.13,0,0.31,0.05,0.54,0.05v2.05c-0.13,0-0.36-0.05-0.72-0.05
		c-0.31,0-0.54,0.05-0.69,0.23c-0.13,0.13-0.18,0.31-0.18,0.51v0.82h1.69v1.77h-1.69v7.8H170v-7.8h-1.41v-1.77H170v-0.64
		c0-1.05,0.18-1.74,0.54-2.15c0.36-0.59,1.28-0.87,2.69-0.87C173.33,40.11,173.48,40.11,173.61,40.11"/>
	<path id="XMLID_3245_" class="st0" d="M183.6,52.11c-0.82,1-2.1,1.51-3.74,1.51c-1.69,0-2.92-0.51-3.74-1.51
		c-0.82-1-1.23-2.23-1.23-3.64c0-1.41,0.41-2.59,1.23-3.6c0.82-1,2.05-1.54,3.74-1.54s2.92,0.51,3.74,1.54
		c0.82,1,1.23,2.23,1.23,3.6C184.83,49.88,184.42,51.11,183.6,52.11 M181.54,50.7c0.41-0.51,0.59-1.28,0.59-2.23
		c0-0.95-0.18-1.69-0.59-2.23c-0.41-0.51-0.95-0.77-1.74-0.77c-0.79,0-1.33,0.28-1.74,0.77c-0.41,0.54-0.59,1.28-0.59,2.23
		c0,0.95,0.18,1.74,0.59,2.23c0.41,0.51,0.95,0.77,1.74,0.77C180.59,51.47,181.18,51.24,181.54,50.7"/>
	<path id="XMLID_3244_" class="st0" d="M191.9,43.39c0.05,0,0.1,0,0.23,0v2.59c-0.18,0-0.31-0.05-0.41-0.05c-0.13,0-0.23,0-0.31,0
		c-1.05,0-1.74,0.31-2.05,1c-0.18,0.36-0.28,0.95-0.28,1.74v4.6h-2.56V43.6h2.41v1.69c0.41-0.64,0.72-1.1,1.05-1.33
		c0.46-0.41,1.1-0.59,1.87-0.59C191.8,43.39,191.85,43.39,191.9,43.39"/>
	<path id="XMLID_3243_" class="st0" d="M205.58,43.67c0.41,0.18,0.82,0.46,1.13,0.87c0.28,0.31,0.46,0.77,0.54,1.23
		c0.05,0.31,0.1,0.77,0.1,1.41l-0.05,6.06h-2.59v-6.16c0-0.36-0.05-0.69-0.18-0.92c-0.23-0.46-0.64-0.69-1.23-0.69
		c-0.69,0-1.18,0.28-1.46,0.87c-0.13,0.31-0.18,0.69-0.18,1.1v5.83h-2.56v-5.75c0-0.59-0.05-1-0.18-1.23
		c-0.23-0.46-0.64-0.69-1.28-0.69c-0.72,0-1.23,0.23-1.46,0.69c-0.13,0.28-0.18,0.64-0.18,1.18v5.8h-2.59v-9.62h2.46v1.41
		c0.31-0.51,0.59-0.87,0.92-1.05c0.51-0.36,1.13-0.54,1.92-0.54c0.72,0,1.36,0.13,1.82,0.51c0.36,0.31,0.64,0.69,0.82,1.13
		c0.31-0.54,0.72-1,1.23-1.23c0.51-0.28,1.1-0.41,1.74-0.41C204.71,43.44,205.17,43.49,205.58,43.67"/>
	<path id="XMLID_3240_" class="st0" d="M213.38,47.41c0.46-0.05,0.82-0.13,1-0.23c0.36-0.13,0.54-0.41,0.54-0.72
		c0-0.41-0.13-0.69-0.41-0.82c-0.28-0.13-0.69-0.23-1.23-0.23c-0.59,0-1.05,0.13-1.28,0.46c-0.18,0.23-0.31,0.51-0.36,0.87h-2.46
		c0.05-0.87,0.28-1.54,0.72-2.1c0.69-0.87,1.82-1.28,3.46-1.28c1.1,0,2,0.23,2.87,0.64c0.82,0.41,1.23,1.23,1.23,2.36v4.42
		c0,0.31,0,0.69,0,1.1c0,0.31,0.1,0.54,0.13,0.69c0.1,0.13,0.23,0.23,0.36,0.28v0.36h-2.77c-0.1-0.18-0.13-0.36-0.13-0.54
		c-0.05-0.18-0.05-0.36-0.1-0.59c-0.36,0.36-0.77,0.69-1.23,0.95c-0.54,0.31-1.18,0.46-1.87,0.46c-0.87,0-1.64-0.23-2.18-0.72
		c-0.59-0.51-0.87-1.18-0.87-2.1c0-1.18,0.46-2.05,1.41-2.59c0.51-0.28,1.28-0.51,2.23-0.64h0.94V47.41z M214.92,48.6
		c-0.18,0.1-0.31,0.18-0.51,0.28c-0.18,0.05-0.41,0.1-0.69,0.18l-0.59,0.1c-0.54,0.1-0.92,0.23-1.18,0.36
		c-0.41,0.23-0.59,0.59-0.59,1.05c0,0.46,0.13,0.72,0.36,0.92c0.23,0.2,0.54,0.28,0.92,0.28c0.54,0,1.05-0.13,1.54-0.46
		c0.46-0.31,0.72-0.92,0.72-1.74V48.6H214.92z"/>
	<path id="XMLID_3239_" class="st0" d="M218.48,45.54v-1.82h1.36v-2.69h2.51v2.69h1.59v1.77h-1.59v5.11c0,0.41,0.05,0.64,0.13,0.72
		c0.1,0.1,0.41,0.13,0.92,0.13c0.1,0,0.13,0,0.23,0c0.1,0,0.18,0,0.28,0v1.87l-1.18,0.05c-1.23,0.05-2.05-0.18-2.46-0.64
		c-0.28-0.28-0.41-0.72-0.41-1.33v-5.93h-1.36v0.07H218.48z"/>
	<path id="XMLID_3236_" class="st0" d="M228.32,42.49h-2.59v-2.33h2.59V42.49z M225.77,43.62h2.59v9.67h-2.59V43.62z"/>
	<path id="XMLID_3235_" class="st0" d="M236.12,47.08c-0.05-0.36-0.18-0.69-0.36-0.95c-0.28-0.41-0.72-0.59-1.33-0.59
		c-0.87,0-1.46,0.41-1.77,1.28c-0.18,0.46-0.23,1.05-0.23,1.77c0,0.72,0.1,1.28,0.23,1.74c0.31,0.82,0.87,1.18,1.74,1.18
		c0.59,0,1-0.18,1.28-0.51c0.28-0.31,0.41-0.72,0.46-1.23h2.59c-0.05,0.77-0.31,1.51-0.82,2.18c-0.82,1.1-1.95,1.64-3.56,1.64
		c-1.54,0-2.74-0.46-3.46-1.36c-0.72-0.9-1.1-2.1-1.1-3.56c0-1.69,0.41-2.97,1.23-3.87c0.82-0.92,1.95-1.36,3.38-1.36
		c1.23,0,2.23,0.28,3,0.82c0.77,0.54,1.23,1.51,1.36,2.87h-2.64L236.12,47.08L236.12,47.08z"/>
	<path id="XMLID_3234_" class="st0" d="M242.27,50.19c0.05,0.46,0.18,0.77,0.36,0.95c0.31,0.31,0.92,0.51,1.77,0.51
		c0.51,0,0.92-0.1,1.18-0.23c0.26-0.13,0.46-0.36,0.46-0.64s-0.13-0.51-0.36-0.64c-0.23-0.13-1.13-0.41-2.69-0.77
		c-1.1-0.28-1.87-0.64-2.33-1c-0.46-0.41-0.69-1-0.69-1.74c0-0.92,0.36-1.64,1.05-2.28c0.69-0.64,1.69-0.95,2.97-0.95
		c1.23,0,2.23,0.23,2.97,0.72c0.77,0.51,1.23,1.33,1.33,2.51h-2.56c-0.05-0.31-0.13-0.59-0.28-0.77c-0.28-0.36-0.77-0.51-1.41-0.51
		c-0.54,0-0.95,0.1-1.18,0.28c-0.23,0.18-0.36,0.36-0.36,0.59c0,0.28,0.13,0.51,0.36,0.64c0.28,0.13,1.13,0.36,2.64,0.69
		c1,0.23,1.77,0.59,2.28,1.05c0.51,0.51,0.77,1.1,0.77,1.82c0,0.95-0.36,1.74-1.1,2.33c-0.72,0.59-1.82,0.92-3.33,0.92
		c-1.54,0-2.64-0.31-3.38-0.95s-1.1-1.46-1.1-2.46h2.59v-0.07H242.27z"/>
	<path id="XMLID_3233_" class="st0" d="M155.14,57.44c1.05-1.05,2.41-1.59,4.06-1.59c2.18,0,3.78,0.72,4.79,2.15
		c0.54,0.82,0.87,1.64,0.92,2.41h-2.74c-0.18-0.64-0.41-1.1-0.69-1.41c-0.51-0.54-1.23-0.87-2.18-0.87c-0.95,0-1.74,0.41-2.33,1.18
		c-0.54,0.82-0.87,1.92-0.87,3.38c0,1.46,0.31,2.56,0.92,3.28c0.59,0.72,1.36,1.1,2.28,1.1c0.95,0,1.69-0.31,2.15-0.95
		c0.28-0.31,0.51-0.82,0.69-1.51h2.74c-0.23,1.41-0.82,2.59-1.82,3.46c-0.95,0.92-2.18,1.33-3.74,1.33c-1.87,0-3.33-0.59-4.42-1.77
		c-1.05-1.23-1.59-2.87-1.59-4.97C153.32,60.45,153.91,58.71,155.14,57.44"/>
	<path id="XMLID_3230_" class="st0" d="M173.07,59.68c0.69,0.31,1.23,0.77,1.69,1.41c0.41,0.59,0.64,1.23,0.77,2
		c0.1,0.46,0.1,1.1,0.1,1.92h-7.06c0.05,0.95,0.36,1.64,1,2.05c0.41,0.23,0.87,0.36,1.41,0.36c0.59,0,1.05-0.13,1.41-0.46
		c0.18-0.18,0.36-0.41,0.51-0.69h2.59c-0.05,0.59-0.36,1.13-0.95,1.74c-0.87,0.95-2.1,1.41-3.64,1.41c-1.28,0-2.41-0.41-3.41-1.18
		c-1-0.77-1.51-2.1-1.51-3.87c0-1.69,0.46-2.97,1.33-3.83c0.92-0.92,2.05-1.33,3.46-1.33C171.61,59.22,172.38,59.4,173.07,59.68
		 M169.23,61.86c-0.36,0.36-0.59,0.87-0.69,1.51h4.38c-0.05-0.69-0.28-1.18-0.69-1.51c-0.41-0.36-0.92-0.54-1.51-0.54
		C170.1,61.32,169.59,61.5,169.23,61.86"/>
	<path id="XMLID_3229_" class="st0" d="M184.55,60.04c0.64,0.51,0.95,1.36,0.95,2.59v6.47h-2.59v-5.88c0-0.51-0.1-0.92-0.23-1.18
		c-0.23-0.51-0.72-0.72-1.41-0.72c-0.87,0-1.46,0.36-1.77,1.1c-0.18,0.36-0.23,0.87-0.23,1.46v5.24h-2.56V59.5h2.46v1.41
		c0.31-0.51,0.64-0.87,0.92-1.05c0.51-0.41,1.18-0.59,1.95-0.59C183.1,59.27,183.92,59.53,184.55,60.04"/>
	<path id="XMLID_3228_" class="st0" d="M186.7,61.4v-1.77h1.36v-2.69h2.51v2.69h1.59v1.77h-1.59v5.11c0,0.41,0.05,0.64,0.13,0.72
		c0.08,0.08,0.41,0.13,0.92,0.13c0.1,0,0.18,0,0.23,0c0.1,0,0.18,0,0.28,0v1.92l-1.18,0.05c-1.18,0.05-2-0.18-2.46-0.64
		c-0.28-0.28-0.41-0.72-0.41-1.33v-5.93h-1.36V61.4H186.7z"/>
	<path id="XMLID_3227_" class="st0" d="M199.01,59.27c0.05,0,0.1,0,0.23,0v2.59c-0.13,0-0.31-0.05-0.41-0.05c-0.13,0-0.23,0-0.28,0
		c-1.05,0-1.74,0.36-2.05,1c-0.18,0.36-0.28,0.95-0.28,1.74v4.6h-2.56v-9.67h2.41v1.69c0.41-0.64,0.72-1.1,1-1.33
		c0.46-0.41,1.1-0.59,1.87-0.59C198.96,59.27,199.01,59.27,199.01,59.27"/>
	<path id="XMLID_3224_" class="st0" d="M206.89,59.68c0.69,0.31,1.23,0.77,1.69,1.41c0.41,0.59,0.64,1.23,0.77,2
		c0.1,0.46,0.1,1.1,0.1,1.92h-7.11c0.05,0.95,0.36,1.64,1,2.05c0.36,0.23,0.87,0.36,1.41,0.36c0.59,0,1.05-0.13,1.41-0.46
		c0.18-0.18,0.36-0.41,0.51-0.69h2.59c-0.1,0.59-0.36,1.13-0.95,1.74c-0.87,0.95-2.1,1.41-3.64,1.41c-1.28,0-2.41-0.41-3.41-1.18
		c-1-0.77-1.51-2.1-1.51-3.87c0-1.69,0.46-2.97,1.36-3.83c0.87-0.92,2.05-1.33,3.46-1.33C205.43,59.22,206.22,59.4,206.89,59.68
		 M203.07,61.86c-0.36,0.36-0.59,0.87-0.69,1.51h4.38c-0.05-0.69-0.28-1.18-0.69-1.51c-0.41-0.36-0.92-0.54-1.51-0.54
		C203.94,61.32,203.43,61.5,203.07,61.86"/>
</g>
</svg>
