<svg width="1806" height="1092" viewBox="0 0 1806 1092" fill="none" xmlns="http://www.w3.org/2000/svg">
    <g clip-path="url(#clip0_1_13099)">
        <path
            d="M352.074 491.591C352.151 491.209 352.227 490.827 352.342 490.445C352.494 489.835 352.685 489.185 352.838 488.575C352.953 488.155 353.067 487.735 353.182 487.353C353.373 486.742 353.563 486.131 353.754 485.558C353.907 485.138 354.022 484.718 354.174 484.336C354.365 483.764 354.594 483.153 354.823 482.58C354.976 482.16 355.129 481.778 355.32 481.358C355.549 480.785 355.778 480.213 356.045 479.64C356.198 479.258 356.389 478.876 356.58 478.495C356.847 477.922 357.114 477.349 357.382 476.776C357.534 476.433 357.725 476.089 357.916 475.745C358.947 473.722 360.093 471.775 361.276 469.865C361.505 469.522 361.734 469.14 361.963 468.796C362.307 468.3 362.651 467.804 362.956 467.345C363.223 466.964 363.491 466.582 363.758 466.2C364.102 465.742 364.445 465.284 364.789 464.825C365.094 464.444 365.362 464.062 365.667 463.68C366.011 463.26 366.393 462.802 366.736 462.382C367.042 462 367.385 461.618 367.691 461.275C368.073 460.855 368.416 460.435 368.798 460.053C369.142 459.671 369.485 459.327 369.829 458.945C370.211 458.564 370.593 458.182 370.974 457.8C371.356 457.418 371.738 457.036 372.158 456.693C372.54 456.349 372.883 456.005 373.265 455.662C373.991 454.975 374.754 454.325 375.518 453.715C375.862 453.447 376.205 453.18 376.549 452.913C377.045 452.531 377.503 452.149 378 451.767C378.382 451.462 378.763 451.195 379.145 450.927C379.603 450.584 380.1 450.24 380.558 449.935C380.978 449.667 381.36 449.4 381.78 449.133C382.276 448.827 382.734 448.522 383.231 448.216C383.651 447.949 384.071 447.72 384.491 447.453C384.987 447.147 385.522 446.88 386.018 446.575C386.438 446.345 386.858 446.116 387.278 445.887C387.813 445.582 388.347 445.315 388.92 445.047C389.34 444.856 389.722 444.627 390.142 444.436C390.753 444.131 391.402 443.864 392.013 443.596C392.356 443.444 392.7 443.291 393.043 443.138C393.998 442.718 394.991 442.336 395.983 441.993C396.174 441.916 396.365 441.878 396.556 441.802C397.396 441.496 398.198 441.229 399.038 440.962C399.42 440.847 399.802 440.733 400.183 440.618C400.833 440.427 401.52 440.236 402.169 440.045C402.589 439.931 403.009 439.816 403.429 439.74C404.078 439.587 404.727 439.435 405.338 439.282C405.758 439.205 406.216 439.091 406.674 439.015C407.323 438.9 407.973 438.785 408.622 438.671C409.08 438.595 409.5 438.518 409.958 438.48C410.645 438.365 411.294 438.289 411.982 438.213C412.402 438.175 412.822 438.098 413.28 438.06C414.005 437.984 414.769 437.945 415.533 437.907C415.914 437.907 416.258 437.869 416.64 437.831C417.747 437.793 418.893 437.755 420.038 437.755C421.183 437.755 422.291 437.755 423.436 437.831C423.818 437.831 424.162 437.869 424.543 437.907C425.307 437.945 426.033 438.022 426.796 438.06C427.216 438.098 427.636 438.136 428.094 438.213C428.782 438.289 429.431 438.365 430.118 438.48C430.576 438.556 430.996 438.633 431.454 438.671C432.103 438.785 432.753 438.9 433.402 439.015C433.86 439.091 434.28 439.205 434.7 439.282C435.349 439.435 435.998 439.587 436.647 439.74C437.067 439.855 437.487 439.931 437.907 440.045C438.594 440.236 439.243 440.427 439.931 440.618C440.313 440.733 440.694 440.847 441.038 440.962C441.878 441.229 442.718 441.535 443.558 441.802C443.749 441.878 443.94 441.916 444.093 441.993C445.085 442.375 446.078 442.756 447.033 443.176C447.376 443.329 447.72 443.482 448.063 443.635C448.713 443.902 449.323 444.207 449.934 444.475C450.354 444.665 450.736 444.856 451.118 445.085C451.653 445.353 452.225 445.62 452.76 445.925C453.18 446.155 453.6 446.384 453.982 446.613C454.516 446.918 455.013 447.185 455.509 447.491C455.929 447.72 456.349 447.987 456.731 448.255C457.227 448.56 457.723 448.865 458.182 449.209C458.602 449.476 458.983 449.744 459.403 450.011C459.9 450.355 460.358 450.698 460.816 451.042C461.198 451.309 461.58 451.576 461.962 451.882C462.458 452.264 462.954 452.645 463.451 453.027C463.794 453.295 464.138 453.562 464.443 453.829C465.207 454.478 465.971 455.127 466.734 455.815C467.116 456.158 467.46 456.502 467.803 456.845C468.185 457.227 468.605 457.609 468.987 457.991C469.369 458.373 469.751 458.755 470.094 459.136C470.438 459.518 470.82 459.862 471.163 460.244C471.545 460.664 471.889 461.045 472.271 461.465C472.614 461.847 472.92 462.229 473.263 462.573C473.607 462.993 473.989 463.413 474.333 463.871C474.638 464.253 474.943 464.635 475.249 465.016C475.593 465.475 475.936 465.933 476.28 466.353C476.547 466.735 476.814 467.116 477.082 467.498C477.425 467.956 477.769 468.453 478.074 468.949C478.303 469.293 478.533 469.675 478.762 470.056C479.983 471.927 481.091 473.875 482.122 475.898C482.313 476.242 482.503 476.585 482.656 476.967C482.923 477.54 483.191 478.113 483.458 478.685C483.649 479.067 483.802 479.449 483.993 479.869C484.222 480.442 484.489 481.015 484.718 481.587C484.871 482.007 485.062 482.389 485.214 482.809C485.443 483.382 485.634 483.955 485.863 484.565C486.016 484.985 486.131 485.405 486.283 485.825C486.474 486.436 486.665 487.009 486.856 487.62C486.971 488.04 487.085 488.46 487.2 488.88C487.391 489.491 487.543 490.102 487.696 490.751C487.811 491.133 487.887 491.515 487.963 491.935C488.116 492.584 488.269 493.271 488.422 493.92H554.858L491.4 384.033H348.6L285.142 493.92H351.578C351.731 493.233 351.883 492.584 352.036 491.896L352.074 491.591Z"
            fill="#F19F43" />
        <path
            d="M729.464 246.273H586.664L515.264 369.944L586.664 493.615H729.464L800.864 369.944L729.464 246.273ZM658.064 439.702C619.538 439.702 588.306 408.469 588.306 369.944C588.306 331.418 619.538 300.185 658.064 300.185C696.589 300.185 727.822 331.418 727.822 369.944C727.822 408.469 696.589 439.702 658.064 439.702Z"
            fill="#F19F43" />
        <path
            d="M419.466 535.385C434.67 535.385 446.995 523.06 446.995 507.856C446.995 492.652 434.67 480.327 419.466 480.327C404.262 480.327 391.937 492.652 391.937 507.856C391.937 523.06 404.262 535.385 419.466 535.385Z"
            fill="#F19F43" />
        <path
            d="M724.385 588.458C720.987 574.102 715.183 561.807 706.936 551.651C698.689 541.495 687.654 533.591 673.756 527.94C659.858 522.289 642.599 521.144 621.943 521.144H586.625L517.821 640.309V761.46C517.821 765.278 520.914 768.333 524.694 768.333H569.52C573.338 768.333 576.392 765.24 576.392 761.46V576.393C576.392 572.613 579.409 569.558 583.189 569.52C593.536 569.444 611.94 569.825 617.552 569.825C627.556 569.825 636.032 571.2 642.981 573.949C649.93 576.698 655.39 581.051 659.438 587.007C663.485 593.002 666.387 600.715 668.143 610.26C669.9 619.767 670.816 631.336 670.816 644.891V761.46C670.816 765.278 673.909 768.333 677.689 768.333H722.514C726.332 768.333 729.387 765.24 729.387 761.46V635.689C729.387 618.584 727.707 602.853 724.309 588.496L724.385 588.458Z"
            fill="#283F81" />
        <path
            d="M1083.79 569.787L1073.63 535.844C1071.04 527.1 1062.98 521.105 1053.86 521.105H949.696C945.878 521.105 942.823 524.198 942.823 527.978V761.422C942.823 765.24 945.916 768.295 949.696 768.295H994.521C998.34 768.295 1001.39 765.202 1001.39 761.422V583.495C1001.39 575.896 1007.54 569.749 1015.14 569.749H1083.75L1083.79 569.787Z"
            fill="#283F81" />
        <path
            d="M910.445 714.229C910.063 714.344 909.643 714.458 909.261 714.573C901.014 716.825 891.583 717.971 880.931 717.971C865.429 717.971 854.471 713.618 848.018 704.913C841.565 696.207 838.32 691.396 838.32 671.045V576.927C838.32 573.109 841.412 570.055 845.192 570.055H889.369C898.494 570.055 906.551 564.06 909.147 555.316L919.303 521.144H838.32V480.365H779.711V521.144H768.981C759.856 521.144 751.838 527.138 749.203 535.882L739.047 569.825H772.8C776.618 569.825 779.672 572.918 779.672 576.698V671.542C779.672 688.342 781.123 693.535 784.025 706.631C786.927 719.689 791.929 730.838 799.031 740.04C806.132 749.242 815.754 756.267 827.858 761.116C839.961 765.965 855.043 768.371 873.141 768.371C887.994 768.371 900.9 766.844 911.896 763.789C912.66 763.56 913.423 763.369 914.149 763.14C917.089 762.3 919.112 759.589 919.112 756.535V720.949C919.112 716.405 914.798 713.084 910.407 714.305L910.445 714.229Z"
            fill="#283F81" />
        <path
            d="M1193.53 521.144H1135.64C1126.52 521.144 1118.5 527.138 1115.86 535.882L1105.71 569.825H1186.65C1195.59 570.131 1204.75 570.895 1210.86 573.3C1233.54 580.402 1236.02 594.529 1236.02 601.325V605.678H1194.21C1193.79 605.678 1193.33 605.678 1192.91 605.678C1179.02 605.678 1165.73 607.053 1152.98 609.802C1140.22 612.551 1129 617.056 1119.34 623.356C1109.68 629.656 1101.97 637.789 1096.35 647.793C1090.7 657.796 1087.88 670.053 1087.88 684.6C1087.88 699.147 1090.36 712.511 1095.4 722.858C1100.4 733.205 1107.35 744.011 1116.21 750.464C1125.07 756.916 1135.83 761.613 1148.39 764.515C1160.99 767.416 1190.39 768.524 1190.39 768.524C1190.39 768.524 1258.4 768.447 1285.81 768.409C1289.59 768.409 1292.68 765.316 1292.68 761.536V601.822C1292.68 584.411 1295.55 522.595 1193.49 521.258L1193.53 521.144ZM1236.06 654.513V719.842H1180.81C1160.84 719.842 1144.61 705.18 1144.61 687.082V686.776C1144.61 668.678 1160.8 654.016 1180.81 654.016H1236.06V654.513Z"
            fill="#283F81" />
        <path
            d="M1421.58 521.144H1363.7C1354.58 521.144 1346.56 527.138 1343.92 535.882L1333.77 569.825H1414.71C1423.65 570.131 1432.81 570.895 1438.92 573.3C1461.6 580.402 1464.08 594.529 1464.08 601.325V605.678H1422.27C1421.85 605.678 1421.39 605.678 1420.97 605.678C1407.08 605.678 1393.79 607.053 1381.04 609.802C1368.28 612.551 1357.06 617.056 1347.4 623.356C1337.74 629.656 1330.02 637.789 1324.41 647.793C1318.76 657.796 1315.94 670.053 1315.94 684.6C1315.94 699.147 1318.42 712.511 1323.46 722.858C1328.46 733.205 1335.41 744.011 1344.27 750.464C1353.12 756.916 1363.89 761.613 1376.45 764.515C1389.05 767.416 1418.45 768.524 1418.45 768.524C1418.45 768.524 1486.46 768.447 1513.87 768.409C1517.65 768.409 1520.74 765.316 1520.74 761.536V601.822C1520.74 584.411 1523.61 522.595 1421.55 521.258L1421.58 521.144ZM1464.12 654.513V719.842H1408.87C1388.9 719.842 1372.67 705.18 1372.67 687.082V686.776C1372.67 668.678 1388.86 654.016 1408.87 654.016H1464.12V654.513Z"
            fill="#283F81" />
        <path
            d="M530.88 835.724C528.742 835.724 526.642 835.647 524.542 835.533C522.442 835.418 520.266 835.113 517.975 834.616V797.084C519.769 796.74 521.716 796.511 523.855 796.32C525.993 796.129 527.94 796.053 529.773 796.053C532.216 796.053 534.507 796.244 536.569 796.587C538.631 796.931 540.425 797.542 541.915 798.382C543.404 799.222 544.549 800.367 545.389 801.742C546.229 803.155 546.649 804.873 546.649 806.896C546.649 809.989 545.16 812.433 542.182 814.227C544.626 815.144 546.306 816.442 547.222 818.007C548.138 819.573 548.558 821.405 548.558 823.429C548.558 827.476 547.069 830.531 544.129 832.593C541.151 834.655 536.76 835.647 530.918 835.647L530.88 835.724ZM526.451 811.707H530.689C533.362 811.707 535.271 811.364 536.455 810.676C537.6 809.989 538.173 808.882 538.173 807.355C538.173 805.827 537.562 804.682 536.378 804.071C535.195 803.422 533.438 803.116 531.147 803.116C530.422 803.116 529.62 803.116 528.742 803.116C527.902 803.116 527.138 803.193 526.451 803.269V811.707ZM526.451 818.351V828.355C527.1 828.431 527.787 828.469 528.513 828.507C529.238 828.545 530.078 828.545 530.956 828.545C533.553 828.545 535.653 828.164 537.256 827.438C538.86 826.713 539.662 825.3 539.662 823.315C539.662 821.52 538.975 820.26 537.638 819.496C536.302 818.733 534.393 818.351 531.873 818.351H526.413H526.451Z"
            fill="#283F81" />
        <path
            d="M585.022 834.235C583.609 834.655 581.776 835.036 579.562 835.38C577.347 835.724 574.98 835.915 572.536 835.915C570.092 835.915 567.954 835.571 566.313 834.922C564.671 834.235 563.334 833.318 562.38 832.096C561.425 830.875 560.738 829.462 560.318 827.782C559.898 826.102 559.707 824.269 559.707 822.245V805.904H568.031V821.253C568.031 823.925 568.374 825.873 569.1 827.056C569.787 828.24 571.123 828.851 573.071 828.851C573.682 828.851 574.292 828.851 574.98 828.775C575.667 828.736 576.24 828.66 576.774 828.584V805.904H585.098V834.273L585.022 834.235Z"
            fill="#283F81" />
        <path
            d="M606.976 797.389C606.976 798.916 606.48 800.1 605.487 800.978C604.494 801.856 603.349 802.276 602.012 802.276C600.676 802.276 599.492 801.856 598.538 800.978C597.583 800.1 597.049 798.916 597.049 797.389C597.049 795.862 597.545 794.678 598.538 793.8C599.531 792.922 600.676 792.502 602.012 792.502C603.349 792.502 604.532 792.922 605.487 793.8C606.442 794.678 606.976 795.862 606.976 797.389ZM606.212 835.227H597.889V805.865H606.212V835.227Z"
            fill="#283F81" />
        <path
            d="M630.726 835.8C628.32 835.8 626.335 835.495 624.846 835.036C623.357 834.578 622.135 833.891 621.257 833.013C620.378 832.135 619.806 831.065 619.462 829.844C619.157 828.584 619.004 827.209 619.004 825.644V793.304L627.328 791.967V823.964C627.328 824.689 627.366 825.376 627.48 825.987C627.595 826.598 627.824 827.095 628.129 827.476C628.435 827.896 628.893 828.202 629.504 828.469C630.115 828.736 630.917 828.889 631.909 828.965L630.726 835.838V835.8Z"
            fill="#283F81" />
        <path
            d="M667.571 834.273C666.807 834.502 665.967 834.693 665.012 834.922C664.058 835.113 663.027 835.304 661.958 835.456C660.889 835.609 659.82 835.724 658.712 835.8C657.605 835.876 656.574 835.953 655.543 835.953C653.138 835.953 650.962 835.609 649.052 834.884C647.143 834.158 645.54 833.165 644.242 831.829C642.943 830.493 641.951 828.927 641.263 827.018C640.576 825.147 640.232 823.009 640.232 820.68C640.232 818.351 640.538 816.136 641.111 814.227C641.722 812.318 642.562 810.676 643.669 809.34C644.776 808.004 646.151 806.973 647.754 806.285C649.358 805.598 651.229 805.216 653.329 805.216C654.474 805.216 655.505 805.331 656.422 805.56C657.338 805.789 658.254 806.095 659.171 806.515V793.227L667.494 791.891V834.273H667.571ZM648.747 820.298C648.747 822.856 649.32 824.918 650.465 826.484C651.611 828.049 653.329 828.813 655.62 828.813C656.345 828.813 657.032 828.813 657.682 828.736C658.331 828.698 658.827 828.622 659.247 828.545V813.425C658.712 813.082 658.063 812.815 657.223 812.585C656.383 812.356 655.543 812.242 654.665 812.242C650.732 812.242 648.747 814.915 648.747 820.298Z"
            fill="#283F81" />
        <path
            d="M713.58 812.395C715.146 809.76 716.635 807.125 718.048 804.491C719.46 801.856 720.759 799.184 721.942 796.511H731.526C729.388 800.673 727.211 804.72 724.92 808.615C722.668 812.509 720.262 816.442 717.704 820.413V835.189H708.999V820.489C706.479 816.556 704.073 812.585 701.782 808.653C699.491 804.72 697.277 800.635 695.177 796.473H705.295C706.479 799.145 707.777 801.818 709.151 804.453C710.526 807.087 711.977 809.722 713.542 812.356L713.58 812.395Z"
            fill="#283F81" />
        <path
            d="M763.331 820.489C763.331 822.78 762.988 824.918 762.339 826.827C761.651 828.736 760.697 830.378 759.437 831.753C758.177 833.127 756.649 834.158 754.893 834.922C753.137 835.685 751.151 836.029 748.937 836.029C746.722 836.029 744.813 835.647 743.057 834.922C741.3 834.196 739.773 833.127 738.513 831.753C737.253 830.378 736.26 828.775 735.535 826.827C734.848 824.918 734.466 822.818 734.466 820.489C734.466 818.16 734.809 816.098 735.535 814.189C736.26 812.28 737.253 810.676 738.551 809.34C739.849 808.004 741.377 806.973 743.133 806.209C744.889 805.445 746.837 805.102 748.899 805.102C750.96 805.102 752.946 805.484 754.74 806.209C756.535 806.935 758.024 808.004 759.284 809.34C760.544 810.676 761.537 812.28 762.262 814.189C762.949 816.098 763.331 818.198 763.331 820.489ZM754.855 820.489C754.855 817.931 754.359 815.907 753.328 814.418C752.297 812.967 750.846 812.204 748.937 812.204C747.028 812.204 745.577 812.929 744.508 814.418C743.439 815.907 742.942 817.893 742.942 820.489C742.942 823.085 743.477 825.109 744.508 826.598C745.539 828.087 747.028 828.851 748.937 828.851C750.846 828.851 752.297 828.087 753.328 826.598C754.359 825.109 754.855 823.047 754.855 820.489Z"
            fill="#283F81" />
        <path
            d="M799.833 834.235C798.42 834.655 796.588 835.036 794.373 835.38C792.159 835.724 789.791 835.915 787.348 835.915C784.904 835.915 782.766 835.571 781.124 834.922C779.482 834.235 778.146 833.318 777.191 832.096C776.237 830.875 775.549 829.462 775.129 827.782C774.709 826.102 774.519 824.269 774.519 822.245V805.904H782.842V821.253C782.842 823.925 783.186 825.873 783.911 827.056C784.599 828.24 785.935 828.851 787.882 828.851C788.493 828.851 789.104 828.851 789.791 828.775C790.479 828.736 791.051 828.66 791.586 828.584V805.904H799.909V834.273L799.833 834.235Z"
            fill="#283F81" />
        <path
            d="M830.378 813.235C829.615 813.044 828.775 812.853 827.744 812.662C826.751 812.471 825.644 812.356 824.498 812.356C823.964 812.356 823.353 812.395 822.628 812.509C821.902 812.585 821.368 812.7 820.986 812.815V835.265H812.662V807.469C814.151 806.935 815.908 806.438 817.931 805.98C819.955 805.522 822.208 805.293 824.728 805.293C825.186 805.293 825.72 805.293 826.331 805.369C826.98 805.407 827.591 805.484 828.24 805.598C828.889 805.675 829.5 805.789 830.149 805.942C830.798 806.056 831.333 806.247 831.753 806.4L830.34 813.273L830.378 813.235Z"
            fill="#283F81" />
        <path
            d="M886.2 835.227C883.718 830.798 881.007 826.445 878.105 822.093C875.204 817.778 872.111 813.693 868.827 809.875V835.227H860.236V796.549H867.338C868.56 797.771 869.934 799.298 871.424 801.055C872.913 802.849 874.44 804.758 875.967 806.782C877.494 808.805 879.06 810.905 880.587 813.082C882.115 815.258 883.527 817.358 884.902 819.344V796.511H893.569V835.189H886.238L886.2 835.227Z"
            fill="#283F81" />
        <path
            d="M905.521 820.756C905.521 818.16 905.902 815.869 906.704 813.922C907.506 811.975 908.537 810.333 909.873 809.035C911.21 807.736 912.66 806.744 914.379 806.095C916.059 805.407 917.815 805.102 919.61 805.102C923.771 805.102 927.055 806.362 929.499 808.92C931.904 811.478 933.126 815.22 933.126 820.184C933.126 820.68 933.126 821.215 933.088 821.787C933.088 822.36 933.011 822.856 932.973 823.315H914.111C914.302 825.033 915.104 826.369 916.517 827.4C917.93 828.431 919.839 828.889 922.206 828.889C923.733 828.889 925.222 828.736 926.711 828.469C928.162 828.202 929.384 827.858 930.3 827.438L931.408 834.196C930.95 834.425 930.377 834.655 929.613 834.884C928.85 835.113 928.048 835.304 927.131 835.456C926.215 835.609 925.261 835.762 924.191 835.876C923.122 835.991 922.091 836.029 921.06 836.029C918.426 836.029 916.135 835.647 914.15 834.845C912.202 834.082 910.56 833.013 909.3 831.638C908.002 830.264 907.086 828.66 906.437 826.827C905.826 824.956 905.521 822.971 905.521 820.795V820.756ZM925.07 817.587C925.07 816.862 924.917 816.175 924.726 815.525C924.535 814.838 924.191 814.265 923.771 813.731C923.351 813.196 922.817 812.776 922.168 812.433C921.519 812.089 920.717 811.936 919.724 811.936C918.731 811.936 918.006 812.089 917.319 812.395C916.631 812.7 916.097 813.12 915.639 813.655C915.18 814.189 914.837 814.762 914.608 815.449C914.379 816.136 914.188 816.824 914.073 817.549H925.07V817.587Z"
            fill="#283F81" />
        <path
            d="M956.149 814.113L961.991 805.865H970.582L960.387 820.145C962.716 822.818 964.778 825.491 966.611 828.125C968.443 830.76 969.894 833.127 970.963 835.227H962.029C961.723 834.655 961.342 833.967 960.922 833.127C960.463 832.287 959.967 831.409 959.433 830.493C958.86 829.576 958.287 828.813 957.676 828.164C957.065 827.515 956.454 826.942 955.882 826.445C955.309 826.942 954.736 827.476 954.163 828.049C953.591 828.622 953.018 829.347 952.522 830.225C952.025 831.104 951.491 831.982 950.994 832.822C950.498 833.662 950.04 834.464 949.658 835.227H941.182C941.64 834.311 942.251 833.204 943.014 831.944C943.778 830.684 944.618 829.347 945.534 828.011C946.451 826.636 947.443 825.338 948.513 824.078C949.582 822.78 950.613 821.596 951.643 820.489C949.811 817.893 948.054 815.411 946.374 813.005C944.694 810.6 943.014 808.233 941.373 805.904H950.345L956.111 814.151L956.149 814.113Z"
            fill="#283F81" />
        <path
            d="M980.203 798.573L988.527 797.236V805.904H998.53V812.815H988.527V823.124C988.527 824.88 988.832 826.255 989.443 827.324C990.054 828.355 991.276 828.889 993.147 828.889C994.025 828.889 994.941 828.813 995.896 828.622C996.85 828.469 997.691 828.24 998.492 827.935L999.676 834.425C998.683 834.845 997.538 835.189 996.316 835.495C995.094 835.8 993.567 835.953 991.811 835.953C989.558 835.953 987.649 835.647 986.16 835.036C984.671 834.425 983.487 833.585 982.571 832.478C981.692 831.371 981.043 830.035 980.7 828.469C980.356 826.904 980.165 825.185 980.165 823.276V798.611L980.203 798.573Z"
            fill="#283F81" />
        <path
            d="M1042.17 835.724C1040.03 835.724 1037.93 835.647 1035.83 835.533C1033.73 835.418 1031.56 835.113 1029.27 834.616V797.084C1031.06 796.74 1033.01 796.511 1035.15 796.32C1037.29 796.129 1039.23 796.053 1041.07 796.053C1043.51 796.053 1045.8 796.244 1047.86 796.587C1049.92 796.931 1051.72 797.542 1053.21 798.382C1054.7 799.222 1055.84 800.367 1056.68 801.742C1057.52 803.155 1057.94 804.873 1057.94 806.896C1057.94 809.989 1056.45 812.433 1053.47 814.227C1055.92 815.144 1057.6 816.442 1058.51 818.007C1059.43 819.573 1059.85 821.405 1059.85 823.429C1059.85 827.476 1058.36 830.531 1055.42 832.593C1052.44 834.655 1048.05 835.647 1042.21 835.647L1042.17 835.724ZM1037.74 811.707H1041.98C1044.65 811.707 1046.56 811.364 1047.75 810.676C1048.89 809.989 1049.47 808.882 1049.47 807.355C1049.47 805.827 1048.85 804.682 1047.67 804.071C1046.49 803.422 1044.73 803.116 1042.44 803.116C1041.71 803.116 1040.91 803.116 1040.03 803.116C1039.19 803.116 1038.43 803.193 1037.74 803.269V811.707ZM1037.74 818.351V828.355C1038.39 828.431 1039.08 828.469 1039.81 828.507C1040.53 828.545 1041.37 828.545 1042.25 828.545C1044.85 828.545 1046.95 828.164 1048.55 827.438C1050.15 826.713 1050.95 825.3 1050.95 823.315C1050.95 821.52 1050.27 820.26 1048.93 819.496C1047.59 818.733 1045.69 818.351 1043.17 818.351H1037.71H1037.74Z"
            fill="#283F81" />
        <path
            d="M1080.36 797.389C1080.36 798.916 1079.86 800.1 1078.87 800.978C1077.87 801.856 1076.73 802.276 1075.39 802.276C1074.05 802.276 1072.87 801.856 1071.92 800.978C1070.96 800.1 1070.43 798.916 1070.43 797.389C1070.43 795.862 1070.92 794.678 1071.92 793.8C1072.91 792.922 1074.05 792.502 1075.39 792.502C1076.73 792.502 1077.91 792.922 1078.87 793.8C1079.82 794.678 1080.36 795.862 1080.36 797.389ZM1079.59 835.227H1071.27V805.865H1079.59V835.227Z"
            fill="#283F81" />
        <path
            d="M1117.73 831.562C1117.73 836.373 1116.51 839.924 1114.07 842.253C1111.63 844.582 1107.85 845.727 1102.77 845.727C1100.97 845.727 1099.18 845.575 1097.42 845.269C1095.63 844.964 1093.99 844.544 1092.46 844.009L1093.91 837.022C1095.21 837.556 1096.58 837.938 1097.99 838.244C1099.41 838.549 1101.05 838.702 1102.88 838.702C1105.25 838.702 1106.97 838.167 1107.92 837.136C1108.91 836.105 1109.41 834.769 1109.41 833.127V832.058C1108.53 832.478 1107.62 832.784 1106.66 832.975C1105.71 833.165 1104.68 833.28 1103.57 833.28C1099.52 833.28 1096.39 832.096 1094.25 829.691C1092.08 827.285 1091.01 823.925 1091.01 819.611C1091.01 817.473 1091.35 815.487 1092 813.731C1092.69 811.975 1093.64 810.447 1094.94 809.187C1096.24 807.927 1097.8 806.935 1099.67 806.247C1101.55 805.56 1103.65 805.216 1105.97 805.216C1106.97 805.216 1108 805.255 1109.07 805.369C1110.14 805.445 1111.17 805.598 1112.24 805.713C1113.27 805.865 1114.26 806.056 1115.21 806.247C1116.17 806.438 1117.01 806.667 1117.73 806.896V831.562ZM1099.48 819.611C1099.48 824.269 1101.35 826.598 1105.13 826.598C1105.97 826.598 1106.78 826.484 1107.54 826.255C1108.3 826.025 1108.91 825.758 1109.45 825.491V812.204C1109.03 812.127 1108.57 812.051 1108 812.013C1107.43 811.975 1106.78 811.936 1106.05 811.936C1103.87 811.936 1102.23 812.662 1101.13 814.113C1100.06 815.564 1099.52 817.396 1099.52 819.649L1099.48 819.611Z"
            fill="#283F81" />
        <path d="M1149.58 796.549H1158.28V835.227H1149.58V796.549Z" fill="#283F81" />
        <path
            d="M1197.57 834.273C1196.81 834.502 1195.97 834.693 1195.01 834.922C1194.06 835.113 1193.03 835.304 1191.96 835.456C1190.89 835.609 1189.82 835.724 1188.71 835.8C1187.61 835.876 1186.58 835.953 1185.55 835.953C1183.14 835.953 1180.96 835.609 1179.05 834.884C1177.15 834.158 1175.54 833.165 1174.24 831.829C1172.95 830.493 1171.95 828.927 1171.27 827.018C1170.58 825.147 1170.23 823.009 1170.23 820.68C1170.23 818.351 1170.54 816.136 1171.11 814.227C1171.72 812.318 1172.56 810.676 1173.67 809.34C1174.78 808.004 1176.15 806.973 1177.76 806.285C1179.36 805.598 1181.23 805.216 1183.33 805.216C1184.48 805.216 1185.51 805.331 1186.42 805.56C1187.34 805.789 1188.26 806.095 1189.17 806.515V793.227L1197.5 791.891V834.273H1197.57ZM1178.75 820.298C1178.75 822.856 1179.32 824.918 1180.47 826.484C1181.61 828.049 1183.33 828.813 1185.62 828.813C1186.35 828.813 1187.03 828.813 1187.68 828.736C1188.33 828.698 1188.83 828.622 1189.25 828.545V813.425C1188.71 813.082 1188.07 812.815 1187.23 812.585C1186.39 812.356 1185.55 812.242 1184.67 812.242C1180.73 812.242 1178.75 814.915 1178.75 820.298Z"
            fill="#283F81" />
        <path
            d="M1209.03 820.756C1209.03 818.16 1209.41 815.869 1210.21 813.922C1211.01 811.975 1212.04 810.333 1213.38 809.035C1214.72 807.736 1216.17 806.744 1217.89 806.095C1219.57 805.407 1221.32 805.102 1223.12 805.102C1227.28 805.102 1230.56 806.362 1233.01 808.92C1235.41 811.478 1236.63 815.22 1236.63 820.184C1236.63 820.68 1236.63 821.215 1236.59 821.787C1236.59 822.36 1236.52 822.856 1236.48 823.315H1217.62C1217.81 825.033 1218.61 826.369 1220.02 827.4C1221.44 828.431 1223.35 828.889 1225.71 828.889C1227.24 828.889 1228.73 828.736 1230.22 828.469C1231.67 828.202 1232.89 827.858 1233.81 827.438L1234.91 834.196C1234.46 834.425 1233.88 834.655 1233.12 834.884C1232.36 835.113 1231.55 835.304 1230.64 835.456C1229.72 835.609 1228.77 835.762 1227.7 835.876C1226.63 835.991 1225.6 836.029 1224.57 836.029C1221.93 836.029 1219.64 835.647 1217.66 834.845C1215.71 834.082 1214.07 833.013 1212.81 831.638C1211.51 830.264 1210.59 828.66 1209.94 826.827C1209.33 824.956 1209.03 822.971 1209.03 820.795V820.756ZM1228.58 817.587C1228.58 816.862 1228.42 816.175 1228.23 815.525C1228.04 814.838 1227.7 814.265 1227.28 813.731C1226.86 813.196 1226.32 812.776 1225.67 812.433C1225.03 812.089 1224.22 811.936 1223.23 811.936C1222.24 811.936 1221.51 812.089 1220.83 812.395C1220.14 812.7 1219.6 813.12 1219.15 813.655C1218.69 814.189 1218.34 814.762 1218.11 815.449C1217.89 816.136 1217.69 816.824 1217.58 817.549H1228.58V817.587Z"
            fill="#283F81" />
        <path
            d="M1258.59 805.102C1261.03 805.102 1263.09 805.369 1264.73 805.942C1266.38 806.515 1267.67 807.316 1268.67 808.347C1269.66 809.378 1270.35 810.638 1270.77 812.127C1271.19 813.616 1271.38 815.258 1271.38 817.091V834.387C1270.19 834.655 1268.51 834.96 1266.41 835.304C1264.31 835.647 1261.72 835.838 1258.7 835.838C1256.79 835.838 1255.07 835.685 1253.55 835.342C1252.02 834.998 1250.68 834.464 1249.54 833.7C1248.43 832.936 1247.55 831.944 1246.98 830.722C1246.41 829.5 1246.1 827.973 1246.1 826.216C1246.1 824.46 1246.45 823.047 1247.13 821.864C1247.82 820.68 1248.74 819.725 1249.88 819C1251.03 818.313 1252.36 817.778 1253.85 817.473C1255.34 817.167 1256.87 817.015 1258.47 817.015C1259.54 817.015 1260.5 817.053 1261.34 817.167C1262.18 817.244 1262.86 817.396 1263.36 817.511V816.747C1263.36 815.335 1262.94 814.189 1262.06 813.349C1261.22 812.509 1259.73 812.051 1257.59 812.051C1256.18 812.051 1254.77 812.165 1253.39 812.356C1252.02 812.547 1250.84 812.853 1249.81 813.235L1248.74 806.553C1249.23 806.4 1249.84 806.247 1250.57 806.095C1251.29 805.942 1252.1 805.789 1252.94 805.636C1253.78 805.522 1254.69 805.407 1255.65 805.293C1256.6 805.178 1257.56 805.14 1258.51 805.14L1258.59 805.102ZM1259.27 829.424C1260.08 829.424 1260.88 829.424 1261.6 829.385C1262.33 829.385 1262.94 829.309 1263.4 829.233V822.933C1263.05 822.856 1262.56 822.78 1261.91 822.704C1261.22 822.627 1260.61 822.589 1260.08 822.589C1259.31 822.589 1258.55 822.627 1257.86 822.742C1257.17 822.818 1256.56 823.009 1256.07 823.276C1255.53 823.544 1255.15 823.887 1254.85 824.345C1254.54 824.804 1254.39 825.338 1254.39 826.025C1254.39 827.324 1254.81 828.24 1255.69 828.736C1256.56 829.233 1257.75 829.5 1259.27 829.5V829.424Z"
            fill="#283F81" />
        <path
            d="M1293.18 830.836C1293.18 832.478 1292.65 833.738 1291.58 834.616C1290.51 835.495 1289.32 835.953 1287.99 835.953C1286.65 835.953 1285.43 835.495 1284.4 834.616C1283.33 833.738 1282.79 832.44 1282.79 830.836C1282.79 829.233 1283.33 827.935 1284.4 827.056C1285.47 826.178 1286.65 825.72 1287.99 825.72C1289.32 825.72 1290.55 826.178 1291.58 827.056C1292.65 827.935 1293.18 829.233 1293.18 830.836ZM1292.45 806.553C1292.45 809.569 1292.34 812.395 1292.11 814.991C1291.88 817.587 1291.58 820.222 1291.23 822.933H1284.86C1284.47 820.26 1284.17 817.625 1283.94 814.991C1283.71 812.356 1283.6 809.569 1283.6 806.553V796.549H1292.45V806.553Z"
            fill="#283F81" />
        <path
            d="M487.161 521.105L474.752 542.64L425.994 627.175C423.36 631.756 416.716 631.756 414.081 627.175L352.914 521.105H285.218L386.209 696.207L311.678 825.491C309.043 830.073 312.327 835.8 317.634 835.8H365.476C370.401 835.8 374.945 833.165 377.389 828.927L554.896 521.105H487.2H487.161Z"
            fill="#283F81" />
    </g>
    <defs>
        <clipPath id="clip0_1_13099">
            <rect width="1806" height="1092" fill="white" />
        </clipPath>
    </defs>
</svg>