<svg width="1126" height="680" viewBox="0 0 1126 680" fill="none" xmlns="http://www.w3.org/2000/svg">
    <g clip-path="url(#clip0_1_10496)">
        <path
            d="M219.316 306.118C219.364 305.881 219.411 305.643 219.483 305.405C219.578 305.025 219.697 304.62 219.792 304.24C219.863 303.979 219.935 303.717 220.006 303.479C220.125 303.099 220.244 302.718 220.363 302.362C220.458 302.1 220.529 301.839 220.624 301.601C220.743 301.244 220.886 300.864 221.029 300.507C221.124 300.246 221.219 300.008 221.338 299.746C221.481 299.39 221.623 299.033 221.79 298.676C221.885 298.439 222.004 298.201 222.123 297.963C222.289 297.607 222.456 297.25 222.622 296.893C222.717 296.679 222.836 296.465 222.955 296.251C223.597 294.991 224.311 293.779 225.048 292.59C225.191 292.376 225.334 292.138 225.476 291.924C225.691 291.615 225.905 291.306 226.095 291.021C226.261 290.783 226.428 290.545 226.594 290.307C226.808 290.022 227.022 289.737 227.237 289.451C227.427 289.214 227.593 288.976 227.784 288.738C227.998 288.477 228.235 288.191 228.45 287.93C228.64 287.692 228.854 287.454 229.044 287.24C229.282 286.979 229.496 286.717 229.734 286.479C229.948 286.242 230.162 286.028 230.376 285.79C230.614 285.552 230.852 285.314 231.09 285.077C231.327 284.839 231.565 284.601 231.827 284.387C232.065 284.173 232.279 283.959 232.517 283.745C232.969 283.317 233.444 282.913 233.92 282.532C234.134 282.366 234.348 282.2 234.562 282.033C234.871 281.795 235.157 281.558 235.466 281.32C235.704 281.13 235.942 280.963 236.179 280.797C236.465 280.583 236.774 280.369 237.059 280.179C237.321 280.012 237.559 279.846 237.821 279.679C238.13 279.489 238.415 279.299 238.724 279.109C238.986 278.942 239.248 278.8 239.509 278.633C239.818 278.443 240.151 278.277 240.461 278.086C240.722 277.944 240.984 277.801 241.246 277.658C241.579 277.468 241.912 277.302 242.268 277.135C242.53 277.016 242.768 276.874 243.029 276.755C243.41 276.565 243.814 276.398 244.195 276.232C244.409 276.137 244.623 276.042 244.837 275.947C245.432 275.685 246.05 275.447 246.668 275.233C246.787 275.186 246.906 275.162 247.025 275.114C247.548 274.924 248.048 274.758 248.571 274.591C248.809 274.52 249.047 274.449 249.285 274.377C249.689 274.258 250.117 274.14 250.522 274.021C250.783 273.949 251.045 273.878 251.306 273.83C251.711 273.735 252.115 273.64 252.496 273.545C252.757 273.498 253.043 273.426 253.328 273.379C253.732 273.307 254.137 273.236 254.541 273.165C254.827 273.117 255.088 273.07 255.374 273.046C255.802 272.974 256.206 272.927 256.634 272.879C256.896 272.856 257.157 272.808 257.443 272.784C257.895 272.737 258.37 272.713 258.846 272.689C259.084 272.689 259.298 272.665 259.536 272.642C260.226 272.618 260.939 272.594 261.653 272.594C262.366 272.594 263.056 272.594 263.769 272.642C264.007 272.642 264.221 272.665 264.459 272.689C264.935 272.713 265.387 272.761 265.863 272.784C266.124 272.808 266.386 272.832 266.671 272.879C267.099 272.927 267.504 272.974 267.932 273.046C268.217 273.093 268.479 273.141 268.764 273.165C269.169 273.236 269.573 273.307 269.977 273.379C270.263 273.426 270.524 273.498 270.786 273.545C271.19 273.64 271.595 273.735 271.999 273.83C272.261 273.902 272.522 273.949 272.784 274.021C273.212 274.14 273.616 274.258 274.044 274.377C274.282 274.449 274.52 274.52 274.734 274.591C275.257 274.758 275.781 274.948 276.304 275.114C276.423 275.162 276.542 275.186 276.637 275.233C277.255 275.471 277.874 275.709 278.468 275.97C278.682 276.065 278.896 276.16 279.11 276.256C279.515 276.422 279.895 276.612 280.276 276.779C280.538 276.898 280.775 277.016 281.013 277.159C281.346 277.326 281.703 277.492 282.036 277.682C282.298 277.825 282.559 277.967 282.797 278.11C283.13 278.3 283.439 278.467 283.748 278.657C284.01 278.8 284.272 278.966 284.51 279.133C284.819 279.323 285.128 279.513 285.413 279.727C285.675 279.893 285.913 280.06 286.174 280.226C286.484 280.44 286.769 280.654 287.055 280.868C287.292 281.035 287.53 281.201 287.768 281.391C288.077 281.629 288.386 281.867 288.696 282.105C288.91 282.271 289.124 282.437 289.314 282.604C289.79 283.008 290.265 283.412 290.741 283.84C290.979 284.054 291.193 284.268 291.407 284.482C291.645 284.72 291.907 284.958 292.144 285.195C292.382 285.433 292.62 285.671 292.834 285.909C293.048 286.146 293.286 286.36 293.5 286.598C293.738 286.86 293.952 287.097 294.19 287.359C294.404 287.597 294.594 287.835 294.808 288.049C295.022 288.31 295.26 288.572 295.474 288.857C295.664 289.095 295.855 289.332 296.045 289.57C296.259 289.856 296.473 290.141 296.687 290.402C296.854 290.64 297.02 290.878 297.187 291.116C297.401 291.401 297.615 291.71 297.805 292.019C297.948 292.233 298.09 292.471 298.233 292.709C298.994 293.874 299.684 295.086 300.326 296.346C300.445 296.56 300.564 296.774 300.659 297.012C300.826 297.369 300.992 297.725 301.159 298.082C301.278 298.32 301.373 298.558 301.492 298.819C301.634 299.176 301.801 299.532 301.944 299.889C302.039 300.151 302.158 300.388 302.253 300.65C302.395 301.007 302.514 301.363 302.657 301.744C302.752 302.005 302.824 302.267 302.919 302.528C303.038 302.909 303.157 303.265 303.276 303.646C303.347 303.907 303.418 304.169 303.49 304.43C303.608 304.811 303.704 305.191 303.799 305.595C303.87 305.833 303.918 306.071 303.965 306.332C304.06 306.737 304.156 307.165 304.251 307.569H345.636L306.106 239.141H217.152L177.622 307.569H219.007C219.102 307.141 219.197 306.737 219.292 306.309L219.316 306.118Z"
            fill="#F19F43" />
        <path
            d="M454.403 153.357H365.449L320.972 230.368L365.449 307.379H454.403L498.88 230.368L454.403 153.357ZM409.926 273.807C385.927 273.807 366.472 254.358 366.472 230.368C366.472 206.378 385.927 186.929 409.926 186.929C433.925 186.929 453.38 206.378 453.38 230.368C453.38 254.358 433.925 273.807 409.926 273.807Z"
            fill="#F19F43" />
        <path
            d="M261.296 333.39C270.767 333.39 278.445 325.715 278.445 316.247C278.445 306.779 270.767 299.104 261.296 299.104C251.825 299.104 244.147 306.779 244.147 316.247C244.147 325.715 251.825 333.39 261.296 333.39Z"
            fill="#F19F43" />
        <path
            d="M451.241 366.439C449.124 357.499 445.508 349.843 440.371 343.519C435.234 337.194 428.36 332.273 419.702 328.754C411.045 325.235 400.294 324.522 387.426 324.522H365.425L322.565 398.727V474.169C322.565 476.547 324.492 478.449 326.847 478.449H354.77C357.148 478.449 359.051 476.523 359.051 474.169V358.926C359.051 356.572 360.93 354.67 363.285 354.646C369.73 354.599 381.195 354.836 384.691 354.836C390.923 354.836 396.203 355.692 400.532 357.404C404.86 359.116 408.262 361.827 410.783 365.536C413.304 369.269 415.112 374.071 416.206 380.015C417.3 385.936 417.871 393.14 417.871 401.58V474.169C417.871 476.547 419.797 478.449 422.152 478.449H450.075C452.454 478.449 454.356 476.523 454.356 474.169V395.85C454.356 385.199 453.31 375.403 451.193 366.463L451.241 366.439Z"
            fill="white" />
        <path
            d="M675.123 354.813L668.797 333.676C667.179 328.231 662.161 324.498 656.476 324.498H591.592C589.213 324.498 587.311 326.424 587.311 328.778V474.145C587.311 476.523 589.237 478.425 591.592 478.425H619.515C621.893 478.425 623.796 476.499 623.796 474.145V363.348C623.796 358.617 627.625 354.789 632.359 354.789H675.099L675.123 354.813Z"
            fill="white" />
        <path
            d="M567.141 444.758C566.904 444.83 566.642 444.901 566.404 444.972C561.267 446.375 555.392 447.088 548.756 447.088C539.1 447.088 532.273 444.378 528.254 438.957C524.234 433.536 522.213 430.54 522.213 417.867V359.259C522.213 356.881 524.139 354.979 526.494 354.979H554.012C559.697 354.979 564.715 351.246 566.333 345.802L572.659 324.522H522.213V299.129H485.703V324.522H479.02C473.336 324.522 468.341 328.255 466.7 333.699L460.373 354.837H481.398C483.777 354.837 485.68 356.762 485.68 359.116V418.177C485.68 428.638 486.583 431.872 488.391 440.027C490.199 448.158 493.315 455.101 497.738 460.831C502.162 466.561 508.156 470.936 515.696 473.956C523.235 476.975 532.63 478.473 543.904 478.473C553.156 478.473 561.195 477.522 568.045 475.62C568.521 475.477 568.997 475.358 569.448 475.216C571.28 474.693 572.54 473.005 572.54 471.103V448.943C572.54 446.114 569.853 444.045 567.118 444.806L567.141 444.758Z"
            fill="white" />
        <path
            d="M743.481 324.522H707.423C701.739 324.522 696.744 328.255 695.103 333.699L688.776 354.837H739.2C744.765 355.027 750.474 355.502 754.279 357C768.407 361.423 769.953 370.22 769.953 374.452V377.163H743.909C743.647 377.163 743.362 377.163 743.1 377.163C734.443 377.163 726.166 378.019 718.222 379.73C710.278 381.442 703.285 384.248 697.267 388.171C691.25 392.094 686.445 397.158 682.949 403.388C679.429 409.617 677.669 417.249 677.669 426.308C677.669 435.367 679.215 443.689 682.355 450.132C685.47 456.576 689.799 463.304 695.317 467.322C700.835 471.341 707.542 474.265 715.368 476.072C723.216 477.879 741.531 478.569 741.531 478.569C741.531 478.569 783.891 478.521 800.968 478.497C803.323 478.497 805.25 476.571 805.25 474.218V374.761C805.25 363.919 807.033 325.425 743.457 324.593L743.481 324.522ZM769.977 407.572V448.254H735.561C723.121 448.254 713.013 439.124 713.013 427.854V427.663C713.013 416.394 723.098 407.263 735.561 407.263H769.977V407.572Z"
            fill="white" />
        <path
            d="M885.545 324.522H849.487C843.802 324.522 838.808 328.255 837.167 333.699L830.84 354.837H881.263C886.829 355.027 892.537 355.502 896.343 357C910.471 361.423 912.017 370.22 912.017 374.452V377.163H885.973C885.711 377.163 885.426 377.163 885.164 377.163C876.506 377.163 868.229 378.019 860.285 379.73C852.341 381.442 845.349 384.248 839.331 388.171C833.313 392.094 828.509 397.158 825.013 403.388C821.492 409.617 819.732 417.249 819.732 426.308C819.732 435.367 821.278 443.689 824.418 450.132C827.534 456.576 831.863 463.304 837.381 467.322C842.899 471.341 849.606 474.265 857.431 476.072C865.28 477.879 883.594 478.569 883.594 478.569C883.594 478.569 925.955 478.521 943.032 478.497C945.387 478.497 947.313 476.571 947.313 474.218V374.761C947.313 363.919 949.097 325.425 885.521 324.593L885.545 324.522ZM912.041 407.572V448.254H877.624C865.185 448.254 855.076 439.124 855.076 427.854V427.663C855.076 416.394 865.161 407.263 877.624 407.263H912.041V407.572Z"
            fill="white" />
        <path
            d="M330.7 520.414C329.368 520.414 328.06 520.367 326.752 520.295C325.444 520.224 324.088 520.034 322.661 519.725V496.352C323.779 496.138 324.992 495.996 326.324 495.877C327.656 495.758 328.869 495.71 330.011 495.71C331.533 495.71 332.96 495.829 334.244 496.043C335.529 496.257 336.646 496.638 337.574 497.161C338.502 497.684 339.215 498.397 339.738 499.253C340.262 500.133 340.523 501.203 340.523 502.463C340.523 504.389 339.596 505.911 337.74 507.028C339.263 507.599 340.309 508.407 340.88 509.382C341.451 510.357 341.712 511.498 341.712 512.758C341.712 515.278 340.785 517.181 338.953 518.464C337.098 519.748 334.363 520.367 330.724 520.367L330.7 520.414ZM327.941 505.459H330.581C332.246 505.459 333.435 505.245 334.173 504.817C334.886 504.389 335.243 503.699 335.243 502.748C335.243 501.797 334.863 501.084 334.125 500.703C333.388 500.299 332.294 500.109 330.867 500.109C330.415 500.109 329.915 500.109 329.368 500.109C328.845 500.109 328.369 500.157 327.941 500.204V505.459ZM327.941 509.596V515.825C328.346 515.873 328.774 515.897 329.226 515.92C329.678 515.944 330.201 515.944 330.748 515.944C332.365 515.944 333.673 515.706 334.672 515.255C335.671 514.803 336.171 513.923 336.171 512.687C336.171 511.569 335.743 510.785 334.91 510.309C334.078 509.834 332.888 509.596 331.319 509.596H327.917H327.941Z"
            fill="white" />
        <path
            d="M364.426 519.487C363.546 519.748 362.405 519.986 361.025 520.2C359.646 520.414 358.171 520.533 356.649 520.533C355.127 520.533 353.795 520.319 352.772 519.915C351.749 519.487 350.917 518.916 350.322 518.155C349.728 517.394 349.299 516.515 349.038 515.468C348.776 514.422 348.657 513.281 348.657 512.021V501.845H353.842V511.403C353.842 513.067 354.056 514.28 354.508 515.017C354.936 515.754 355.769 516.134 356.982 516.134C357.362 516.134 357.743 516.134 358.171 516.087C358.599 516.063 358.956 516.015 359.289 515.968V501.845H364.474V519.51L364.426 519.487Z"
            fill="white" />
        <path
            d="M378.102 496.543C378.102 497.494 377.793 498.231 377.174 498.778C376.556 499.324 375.842 499.586 375.01 499.586C374.177 499.586 373.44 499.324 372.846 498.778C372.251 498.231 371.918 497.494 371.918 496.543C371.918 495.592 372.227 494.854 372.846 494.308C373.464 493.761 374.177 493.499 375.01 493.499C375.842 493.499 376.58 493.761 377.174 494.308C377.769 494.854 378.102 495.592 378.102 496.543ZM377.626 520.105H372.441V501.821H377.626V520.105Z"
            fill="white" />
        <path
            d="M392.897 520.461C391.398 520.461 390.161 520.271 389.234 519.986C388.306 519.701 387.545 519.273 386.998 518.726C386.451 518.179 386.094 517.513 385.88 516.752C385.69 515.968 385.595 515.112 385.595 514.137V493.999L390.78 493.167V513.091C390.78 513.543 390.804 513.971 390.875 514.351C390.946 514.731 391.089 515.04 391.279 515.278C391.469 515.54 391.755 515.73 392.135 515.896C392.516 516.063 393.015 516.158 393.634 516.205L392.897 520.485V520.461Z"
            fill="white" />
        <path
            d="M415.848 519.511C415.372 519.653 414.849 519.772 414.255 519.915C413.66 520.034 413.018 520.153 412.352 520.248C411.686 520.343 411.02 520.414 410.33 520.462C409.64 520.509 408.998 520.557 408.356 520.557C406.858 520.557 405.502 520.343 404.313 519.891C403.123 519.439 402.124 518.821 401.316 517.989C400.507 517.157 399.889 516.182 399.461 514.993C399.032 513.828 398.818 512.497 398.818 511.046C398.818 509.596 399.009 508.217 399.365 507.028C399.746 505.839 400.269 504.817 400.959 503.985C401.649 503.153 402.505 502.511 403.504 502.083C404.503 501.655 405.668 501.417 406.976 501.417C407.69 501.417 408.332 501.488 408.903 501.631C409.474 501.774 410.045 501.964 410.616 502.225V493.951L415.801 493.119V519.511H415.848ZM404.122 510.809C404.122 512.402 404.479 513.686 405.193 514.66C405.906 515.635 406.977 516.111 408.404 516.111C408.855 516.111 409.284 516.111 409.688 516.063C410.092 516.039 410.401 515.992 410.663 515.944V506.529C410.33 506.315 409.926 506.148 409.403 506.006C408.879 505.863 408.356 505.792 407.809 505.792C405.359 505.792 404.122 507.456 404.122 510.809Z"
            fill="white" />
        <path
            d="M444.508 505.887C445.483 504.246 446.411 502.606 447.291 500.965C448.171 499.325 448.98 497.66 449.717 495.996H455.687C454.355 498.588 452.999 501.108 451.572 503.533C450.169 505.958 448.67 508.407 447.077 510.88V520.081H441.654V510.927C440.084 508.479 438.586 506.006 437.159 503.557C435.732 501.108 434.352 498.564 433.044 495.972H439.347C440.084 497.637 440.893 499.301 441.749 500.941C442.605 502.582 443.509 504.223 444.484 505.863L444.508 505.887Z"
            fill="white" />
        <path
            d="M475.499 510.927C475.499 512.354 475.285 513.685 474.88 514.874C474.452 516.063 473.857 517.085 473.073 517.941C472.288 518.797 471.336 519.439 470.242 519.915C469.148 520.39 467.911 520.604 466.532 520.604C465.152 520.604 463.963 520.366 462.869 519.915C461.775 519.463 460.824 518.797 460.039 517.941C459.254 517.085 458.635 516.087 458.184 514.874C457.755 513.685 457.518 512.378 457.518 510.927C457.518 509.477 457.732 508.193 458.184 507.004C458.635 505.816 459.254 504.817 460.062 503.985C460.871 503.153 461.823 502.511 462.917 502.035C464.011 501.56 465.224 501.346 466.508 501.346C467.792 501.346 469.029 501.583 470.147 502.035C471.265 502.487 472.193 503.153 472.977 503.985C473.762 504.817 474.381 505.816 474.833 507.004C475.261 508.193 475.499 509.501 475.499 510.927ZM470.218 510.927C470.218 509.334 469.909 508.074 469.267 507.147C468.625 506.243 467.721 505.768 466.532 505.768C465.343 505.768 464.439 506.22 463.773 507.147C463.107 508.074 462.798 509.311 462.798 510.927C462.798 512.544 463.131 513.804 463.773 514.732C464.415 515.659 465.343 516.134 466.532 516.134C467.721 516.134 468.625 515.659 469.267 514.732C469.909 513.804 470.218 512.52 470.218 510.927Z"
            fill="white" />
        <path
            d="M498.239 519.487C497.359 519.748 496.217 519.986 494.838 520.2C493.458 520.414 491.984 520.533 490.461 520.533C488.939 520.533 487.607 520.319 486.584 519.915C485.562 519.487 484.729 518.916 484.135 518.155C483.54 517.394 483.112 516.515 482.85 515.469C482.589 514.422 482.47 513.281 482.47 512.021V501.845H487.655V511.403C487.655 513.067 487.869 514.28 488.321 515.017C488.749 515.754 489.581 516.134 490.794 516.134C491.175 516.134 491.555 516.134 491.984 516.087C492.412 516.063 492.768 516.015 493.101 515.968V501.845H498.286V519.51L498.239 519.487Z"
            fill="white" />
        <path
            d="M517.264 506.41C516.788 506.291 516.265 506.172 515.622 506.053C515.004 505.935 514.314 505.863 513.601 505.863C513.268 505.863 512.887 505.887 512.435 505.958C511.983 506.006 511.65 506.077 511.413 506.149V520.129H506.228V502.82C507.155 502.487 508.249 502.178 509.51 501.893C510.77 501.607 512.174 501.465 513.743 501.465C514.029 501.465 514.362 501.465 514.742 501.512C515.147 501.536 515.527 501.583 515.932 501.655C516.336 501.702 516.717 501.774 517.121 501.869C517.525 501.94 517.858 502.059 518.12 502.154L517.24 506.434L517.264 506.41Z"
            fill="white" />
        <path
            d="M552.036 520.105C550.49 517.347 548.801 514.637 546.993 511.926C545.186 509.24 543.259 506.695 541.214 504.318V520.105H535.862V496.02H540.286C541.047 496.781 541.904 497.732 542.831 498.825C543.759 499.943 544.71 501.132 545.662 502.392C546.613 503.652 547.588 504.96 548.539 506.315C549.491 507.67 550.371 508.978 551.227 510.214V495.996H556.626V520.082H552.06L552.036 520.105Z"
            fill="white" />
        <path
            d="M564.072 511.094C564.072 509.477 564.31 508.051 564.81 506.838C565.309 505.625 565.951 504.603 566.784 503.795C567.616 502.986 568.52 502.368 569.59 501.964C570.637 501.536 571.731 501.346 572.849 501.346C575.441 501.346 577.487 502.13 579.009 503.723C580.507 505.316 581.269 507.646 581.269 510.737C581.269 511.046 581.269 511.379 581.245 511.736C581.245 512.093 581.197 512.402 581.173 512.687H569.424C569.543 513.757 570.042 514.589 570.922 515.231C571.802 515.873 572.992 516.158 574.466 516.158C575.418 516.158 576.345 516.063 577.273 515.897C578.177 515.73 578.938 515.516 579.508 515.255L580.198 519.463C579.913 519.606 579.556 519.748 579.08 519.891C578.605 520.034 578.105 520.153 577.534 520.248C576.964 520.343 576.369 520.438 575.703 520.509C575.037 520.581 574.395 520.604 573.753 520.604C572.111 520.604 570.684 520.367 569.448 519.867C568.235 519.392 567.212 518.726 566.427 517.87C565.618 517.014 565.047 516.016 564.643 514.874C564.263 513.709 564.072 512.473 564.072 511.118V511.094ZM576.25 509.121C576.25 508.669 576.155 508.241 576.036 507.837C575.917 507.409 575.703 507.052 575.441 506.719C575.18 506.386 574.847 506.125 574.442 505.911C574.038 505.697 573.539 505.602 572.92 505.602C572.302 505.602 571.85 505.697 571.422 505.887C570.994 506.077 570.661 506.339 570.375 506.672C570.09 507.004 569.876 507.361 569.733 507.789C569.59 508.217 569.471 508.645 569.4 509.097H576.25V509.121Z"
            fill="white" />
        <path
            d="M595.611 506.957L599.25 501.821H604.601L598.251 510.714C599.702 512.378 600.986 514.042 602.128 515.683C603.269 517.323 604.173 518.798 604.839 520.105H599.273C599.083 519.749 598.845 519.321 598.584 518.798C598.298 518.274 597.989 517.728 597.656 517.157C597.299 516.586 596.943 516.111 596.562 515.707C596.181 515.302 595.801 514.946 595.444 514.637C595.087 514.946 594.731 515.279 594.374 515.635C594.017 515.992 593.66 516.444 593.351 516.991C593.042 517.537 592.709 518.084 592.4 518.607C592.091 519.13 591.805 519.63 591.567 520.105H586.287C586.573 519.535 586.953 518.845 587.429 518.06C587.904 517.276 588.428 516.444 588.999 515.612C589.569 514.756 590.188 513.947 590.854 513.163C591.52 512.354 592.162 511.617 592.804 510.928C591.662 509.311 590.568 507.765 589.522 506.267C588.475 504.77 587.429 503.295 586.406 501.845H591.995L595.587 506.981L595.611 506.957Z"
            fill="white" />
        <path
            d="M610.593 497.28L615.778 496.448V501.845H622.01V506.149H615.778V512.568C615.778 513.662 615.968 514.518 616.349 515.184C616.73 515.826 617.491 516.158 618.656 516.158C619.203 516.158 619.774 516.111 620.369 515.992C620.963 515.897 621.486 515.754 621.986 515.564L622.723 519.606C622.105 519.868 621.391 520.082 620.63 520.272C619.869 520.462 618.918 520.557 617.824 520.557C616.42 520.557 615.231 520.367 614.304 519.986C613.376 519.606 612.639 519.083 612.068 518.393C611.521 517.704 611.116 516.872 610.902 515.897C610.688 514.922 610.569 513.852 610.569 512.663V497.304L610.593 497.28Z"
            fill="white" />
        <path
            d="M649.195 520.415C647.863 520.415 646.555 520.367 645.247 520.296C643.939 520.224 642.583 520.034 641.156 519.725V496.353C642.274 496.139 643.487 495.996 644.819 495.877C646.151 495.758 647.364 495.711 648.506 495.711C650.028 495.711 651.455 495.83 652.739 496.044C654.024 496.258 655.141 496.638 656.069 497.161C656.997 497.684 657.71 498.398 658.233 499.253C658.757 500.133 659.018 501.203 659.018 502.463C659.018 504.389 658.091 505.911 656.236 507.028C657.758 507.599 658.804 508.407 659.375 509.382C659.946 510.357 660.208 511.498 660.208 512.759C660.208 515.279 659.28 517.181 657.449 518.465C655.593 519.749 652.858 520.367 649.219 520.367L649.195 520.415ZM646.436 505.459H649.076C650.741 505.459 651.931 505.245 652.668 504.817C653.381 504.389 653.738 503.7 653.738 502.749C653.738 501.798 653.358 501.084 652.62 500.704C651.883 500.3 650.789 500.109 649.362 500.109C648.91 500.109 648.411 500.109 647.863 500.109C647.34 500.109 646.865 500.157 646.436 500.205V505.459ZM646.436 509.596V515.826C646.841 515.873 647.269 515.897 647.721 515.921C648.173 515.945 648.696 515.945 649.243 515.945C650.86 515.945 652.168 515.707 653.167 515.255C654.166 514.803 654.666 513.924 654.666 512.687C654.666 511.57 654.238 510.785 653.405 510.31C652.573 509.834 651.384 509.596 649.814 509.596H646.413H646.436Z"
            fill="white" />
        <path
            d="M672.981 496.543C672.981 497.494 672.672 498.231 672.053 498.778C671.435 499.325 670.721 499.586 669.889 499.586C669.056 499.586 668.319 499.325 667.724 498.778C667.13 498.231 666.797 497.494 666.797 496.543C666.797 495.592 667.106 494.855 667.724 494.308C668.343 493.761 669.056 493.5 669.889 493.5C670.721 493.5 671.459 493.761 672.053 494.308C672.648 494.855 672.981 495.592 672.981 496.543ZM672.505 520.105H667.32V501.821H672.505V520.105Z"
            fill="white" />
        <path
            d="M696.268 517.823C696.268 520.819 695.507 523.03 693.985 524.48C692.463 525.931 690.108 526.644 686.945 526.644C685.827 526.644 684.709 526.549 683.615 526.359C682.497 526.168 681.474 525.907 680.523 525.574L681.427 521.223C682.235 521.556 683.092 521.793 683.972 521.984C684.852 522.174 685.874 522.269 687.016 522.269C688.491 522.269 689.561 521.936 690.156 521.294C690.774 520.652 691.083 519.82 691.083 518.798V518.132C690.536 518.393 689.965 518.584 689.371 518.703C688.776 518.821 688.134 518.893 687.444 518.893C684.923 518.893 682.973 518.156 681.641 516.658C680.285 515.16 679.619 513.068 679.619 510.381C679.619 509.049 679.833 507.813 680.238 506.719C680.666 505.626 681.26 504.675 682.069 503.89C682.878 503.105 683.853 502.487 685.018 502.059C686.184 501.631 687.492 501.417 688.943 501.417C689.561 501.417 690.203 501.441 690.869 501.512C691.535 501.56 692.177 501.655 692.843 501.726C693.485 501.821 694.104 501.94 694.698 502.059C695.293 502.178 695.816 502.321 696.268 502.463V517.823ZM684.899 510.381C684.899 513.282 686.065 514.732 688.419 514.732C688.943 514.732 689.442 514.661 689.918 514.518C690.394 514.375 690.774 514.209 691.107 514.042V505.768C690.845 505.721 690.56 505.673 690.203 505.649C689.846 505.626 689.442 505.602 688.99 505.602C687.634 505.602 686.612 506.054 685.922 506.957C685.256 507.861 684.923 509.002 684.923 510.405L684.899 510.381Z"
            fill="white" />
        <path d="M716.102 496.02H721.524V520.105H716.102V496.02Z" fill="white" />
        <path
            d="M745.998 519.511C745.522 519.654 744.999 519.773 744.404 519.916C743.809 520.034 743.167 520.153 742.501 520.248C741.835 520.343 741.169 520.415 740.48 520.462C739.79 520.51 739.148 520.557 738.505 520.557C737.007 520.557 735.651 520.343 734.462 519.892C733.273 519.44 732.274 518.822 731.465 517.99C730.657 517.157 730.038 516.183 729.61 514.994C729.182 513.829 728.968 512.497 728.968 511.047C728.968 509.597 729.158 508.218 729.515 507.029C729.895 505.84 730.419 504.818 731.108 503.985C731.798 503.153 732.654 502.511 733.653 502.083C734.652 501.655 735.818 501.417 737.126 501.417C737.839 501.417 738.482 501.489 739.052 501.631C739.623 501.774 740.194 501.964 740.765 502.226V493.952L745.95 493.12V519.511H745.998ZM734.272 510.809C734.272 512.402 734.629 513.686 735.342 514.661C736.056 515.636 737.126 516.111 738.553 516.111C739.005 516.111 739.433 516.111 739.837 516.064C740.242 516.04 740.551 515.992 740.813 515.945V506.529C740.48 506.315 740.075 506.149 739.552 506.006C739.029 505.864 738.505 505.792 737.958 505.792C735.509 505.792 734.272 507.457 734.272 510.809Z"
            fill="white" />
        <path
            d="M753.132 511.094C753.132 509.478 753.37 508.051 753.869 506.838C754.369 505.626 755.011 504.603 755.843 503.795C756.676 502.987 757.58 502.368 758.65 501.964C759.696 501.536 760.79 501.346 761.908 501.346C764.501 501.346 766.546 502.131 768.069 503.724C769.567 505.317 770.328 507.647 770.328 510.738C770.328 511.047 770.328 511.38 770.304 511.736C770.304 512.093 770.257 512.402 770.233 512.687H758.483C758.602 513.757 759.102 514.589 759.982 515.231C760.862 515.873 762.051 516.159 763.526 516.159C764.477 516.159 765.405 516.063 766.332 515.897C767.236 515.731 767.997 515.517 768.568 515.255L769.258 519.463C768.972 519.606 768.616 519.749 768.14 519.891C767.664 520.034 767.165 520.153 766.594 520.248C766.023 520.343 765.429 520.438 764.763 520.51C764.097 520.581 763.454 520.605 762.812 520.605C761.171 520.605 759.744 520.367 758.507 519.868C757.294 519.392 756.271 518.726 755.487 517.87C754.678 517.015 754.107 516.016 753.703 514.875C753.322 513.71 753.132 512.473 753.132 511.118V511.094ZM765.31 509.121C765.31 508.669 765.214 508.241 765.095 507.837C764.977 507.409 764.763 507.052 764.501 506.719C764.239 506.387 763.906 506.125 763.502 505.911C763.098 505.697 762.598 505.602 761.98 505.602C761.361 505.602 760.909 505.697 760.481 505.887C760.053 506.078 759.72 506.339 759.435 506.672C759.149 507.005 758.935 507.361 758.793 507.789C758.65 508.217 758.531 508.645 758.46 509.097H765.31V509.121Z"
            fill="white" />
        <path
            d="M784.008 501.346C785.53 501.346 786.815 501.513 787.837 501.869C788.86 502.226 789.669 502.725 790.287 503.367C790.906 504.009 791.334 504.794 791.595 505.721C791.857 506.648 791.976 507.671 791.976 508.812V519.582C791.239 519.749 790.192 519.939 788.884 520.153C787.576 520.367 785.958 520.486 784.079 520.486C782.89 520.486 781.82 520.391 780.868 520.177C779.917 519.963 779.085 519.63 778.371 519.154C777.681 518.679 777.134 518.061 776.778 517.3C776.421 516.539 776.23 515.588 776.23 514.494C776.23 513.401 776.445 512.521 776.873 511.784C777.301 511.047 777.872 510.452 778.585 510.001C779.299 509.573 780.131 509.24 781.059 509.05C781.986 508.859 782.938 508.764 783.937 508.764C784.603 508.764 785.197 508.788 785.721 508.859C786.244 508.907 786.672 509.002 786.981 509.073V508.598C786.981 507.718 786.719 507.005 786.172 506.482C785.649 505.959 784.722 505.673 783.39 505.673C782.51 505.673 781.63 505.745 780.773 505.864C779.917 505.982 779.18 506.173 778.538 506.41L777.872 502.25C778.181 502.154 778.561 502.059 779.013 501.964C779.465 501.869 779.965 501.774 780.488 501.679C781.011 501.608 781.582 501.536 782.177 501.465C782.771 501.394 783.366 501.37 783.96 501.37L784.008 501.346ZM784.436 516.492C784.936 516.492 785.435 516.492 785.887 516.468C786.339 516.468 786.719 516.42 787.005 516.373V512.45C786.791 512.402 786.482 512.354 786.077 512.307C785.649 512.259 785.269 512.236 784.936 512.236C784.46 512.236 783.984 512.259 783.556 512.331C783.128 512.378 782.747 512.497 782.438 512.664C782.105 512.83 781.867 513.044 781.677 513.329C781.487 513.615 781.392 513.947 781.392 514.375C781.392 515.184 781.653 515.754 782.2 516.064C782.747 516.373 783.485 516.539 784.436 516.539V516.492Z"
            fill="white" />
        <path
            d="M805.554 517.371C805.554 518.394 805.221 519.178 804.555 519.725C803.889 520.272 803.152 520.557 802.32 520.557C801.487 520.557 800.726 520.272 800.084 519.725C799.418 519.178 799.085 518.37 799.085 517.371C799.085 516.373 799.418 515.564 800.084 515.017C800.75 514.471 801.487 514.185 802.32 514.185C803.152 514.185 803.913 514.471 804.555 515.017C805.221 515.564 805.554 516.373 805.554 517.371ZM805.102 502.25C805.102 504.128 805.031 505.887 804.888 507.504C804.746 509.121 804.555 510.761 804.341 512.45H800.369C800.131 510.785 799.941 509.145 799.798 507.504C799.656 505.864 799.584 504.128 799.584 502.25V496.02H805.102V502.25Z"
            fill="white" />
        <path
            d="M303.467 324.498L295.737 337.908L265.364 390.549C263.723 393.402 259.584 393.402 257.943 390.549L219.84 324.498H177.67L240.58 433.536L194.153 514.043C192.512 516.896 194.557 520.462 197.863 520.462H227.665C230.733 520.462 233.564 518.822 235.086 516.183L345.661 324.498H303.491H303.467Z"
            fill="white" />
    </g>
    <defs>
        <clipPath id="clip0_1_10496">
            <rect width="1125.01" height="680" fill="white" />
        </clipPath>
    </defs>
</svg>