<svg width="2311" height="781" viewBox="0 0 2311 781" fill="none" xmlns="http://www.w3.org/2000/svg">
	<g clip-path="url(#clip0_1_10531)">
		<path
			d="M873.277 349.357C867.089 354.65 860.008 358.775 852.342 361.732C844.676 364.688 836.426 366.166 828.176 366.166C821.679 366.166 815.492 365.272 809.613 363.794C803.735 362.316 798.132 359.669 793.113 356.713C787.819 353.757 783.385 349.941 778.985 345.816C774.86 341.691 771.044 336.981 768.088 331.688C765.132 326.394 762.794 321.066 761.007 315.187C759.254 309.309 758.635 303.122 758.635 296.625C758.635 290.128 759.529 283.94 761.007 278.062C762.76 272.184 765.132 266.581 768.088 261.562C771.044 256.268 774.86 251.834 778.985 247.434C783.11 243.309 787.819 239.493 793.113 236.537C798.407 233.58 803.735 231.243 809.613 229.455C815.492 227.668 821.679 227.083 828.176 227.083C836.426 227.083 844.676 228.562 852.342 231.518C860.008 234.474 867.089 238.599 873.277 243.893L859.148 267.475C855.333 263.349 850.589 259.809 845.295 257.746C840.001 255.684 834.398 254.206 828.486 254.206C822.573 254.206 817.004 255.374 811.676 257.437C806.382 259.809 801.948 262.731 798.132 266.581C794.316 270.431 791.051 274.831 788.988 280.125C786.616 285.418 785.757 291.022 785.757 296.625C785.757 302.503 786.926 308.106 788.988 313.125C791.36 318.419 794.282 322.853 798.132 326.669C801.982 330.484 806.692 333.75 811.676 335.813C816.97 338.185 822.298 339.044 828.486 339.044C834.673 339.044 839.967 337.875 845.295 335.503C850.623 333.131 855.298 329.9 859.148 325.775L873.277 349.357Z"
			fill="white" />
		<path d="M916.04 363.21H889.227V228.527H916.04V363.21Z" fill="white" />
		<path
			d="M967.877 363.21H941.064V228.527H995C1000.02 228.527 1004.73 229.112 1009.13 230.59C1013.56 231.759 1017.96 233.821 1021.81 235.884C1025.63 238.256 1029.48 241.177 1032.71 244.443C1035.94 247.709 1038.9 251.524 1041.27 255.34C1043.64 259.465 1045.39 263.59 1046.56 268.3C1047.73 272.734 1048.63 277.718 1048.63 282.428C1048.63 287.137 1048.04 291.572 1046.87 295.972C1045.7 300.372 1043.92 304.531 1041.85 308.347C1039.79 312.162 1037.14 316.012 1033.91 319.244C1030.68 322.475 1027.42 325.431 1023.29 327.803L1038.31 362.866H1009.71L997.921 335.744L967.877 336.053V363.175V363.21ZM967.877 255.374V309.309H994.69C998.506 309.309 1001.77 308.725 1005 307.247C1008.23 305.769 1011.19 304.015 1013.56 301.369C1015.93 298.722 1018 296.075 1019.44 292.809C1020.92 289.578 1021.5 286.037 1021.5 282.187C1021.5 278.337 1020.92 275.106 1019.44 271.565C1017.96 268.334 1016.21 265.378 1013.56 263.006C1011.19 260.634 1008.27 258.571 1005 257.128C1001.74 255.684 998.231 255.065 994.69 255.065H967.877V255.374Z"
			fill="white" />
		<path
			d="M1093.14 363.21H1066.33V228.527H1120.27C1125.28 228.527 1129.99 229.112 1134.39 230.59C1138.83 231.759 1143.23 233.821 1147.08 235.884C1150.89 238.256 1154.74 241.177 1157.98 244.443C1161.21 247.709 1164.16 251.524 1166.53 255.34C1168.91 259.465 1170.66 263.59 1171.83 268.3C1173 272.734 1173.89 277.718 1173.89 282.428C1173.89 287.137 1173.31 291.572 1172.14 295.972C1170.97 300.372 1169.18 304.531 1167.12 308.347C1165.06 312.162 1162.41 316.012 1159.18 319.244C1155.95 322.475 1152.68 325.431 1148.56 327.803L1163.58 362.866H1134.98L1123.19 335.744L1093.14 336.053V363.175V363.21ZM1093.14 255.374V309.309H1119.96C1123.77 309.309 1127.04 308.725 1130.27 307.247C1133.5 305.769 1136.46 304.015 1138.83 301.369C1141.2 298.997 1143.26 296.075 1144.71 292.809C1146.18 289.578 1146.77 286.037 1146.77 282.187C1146.77 278.337 1146.18 275.106 1144.71 271.565C1143.23 268.334 1141.47 265.378 1138.83 263.006C1136.46 260.634 1133.53 258.571 1130.27 257.128C1127 255.684 1123.5 255.065 1119.96 255.065H1093.14V255.374Z"
			fill="white" />
		<path
			d="M1297.37 309.275C1297.37 316.631 1295.89 323.712 1293.24 330.209C1290.29 336.706 1286.47 342.275 1281.76 347.294C1276.74 352.003 1271.14 355.853 1264.68 358.775C1258.18 361.732 1251.13 362.9 1243.74 362.9C1236.35 362.9 1229.3 361.422 1222.81 358.775C1216.31 355.819 1210.74 352.003 1205.72 347.294C1201.01 342.584 1197.16 336.672 1194.24 330.209C1191.32 323.747 1190.12 316.666 1190.12 309.275V228.527H1216.93V309.275C1216.93 313.09 1217.51 316.356 1218.99 319.587C1220.47 322.819 1222.22 325.775 1224.87 328.147C1227.24 330.519 1230.16 332.581 1233.43 334.025C1236.69 335.469 1240.2 336.088 1244.05 336.088C1247.9 336.088 1251.13 335.503 1254.36 334.025C1257.59 332.547 1260.55 330.794 1262.92 328.147C1265.29 325.775 1267.36 322.853 1268.8 319.587C1270.28 316.356 1270.86 312.815 1270.86 309.275V228.527H1297.68V309.275H1297.37Z"
			fill="white" />
		<path
			d="M1312.97 268.884C1312.97 263.281 1314.14 257.987 1316.2 253.277C1318.27 248.259 1321.22 244.134 1324.76 240.593C1328.3 237.052 1332.7 234.096 1337.45 232.034C1342.47 229.971 1347.45 228.802 1353.05 228.802H1414.93V255.615H1353.05C1351.3 255.615 1349.51 255.924 1347.76 256.784C1346.01 257.368 1344.8 258.537 1343.64 259.74C1342.47 260.943 1341.57 262.387 1340.68 263.865C1340.09 265.618 1339.79 267.096 1339.79 269.159C1339.79 270.912 1340.09 272.699 1340.68 274.453C1341.26 276.206 1342.43 277.684 1343.64 278.887C1344.84 280.09 1346.28 280.95 1347.76 281.843C1349.51 282.428 1351.3 282.737 1353.05 282.737H1379.87C1385.47 282.737 1390.76 283.906 1395.47 285.968C1400.49 288.031 1404.62 290.987 1408.43 294.528C1411.97 298.068 1414.93 302.468 1416.99 307.487C1419.06 312.506 1420.22 317.49 1420.22 323.094C1420.22 328.697 1419.06 333.991 1416.99 338.7C1414.93 343.719 1411.97 347.844 1408.43 351.384C1404.89 354.925 1400.49 357.881 1395.47 359.944C1390.46 362.006 1385.47 363.175 1379.87 363.175H1320.05V336.362H1379.87C1381.62 336.362 1383.41 336.053 1385.16 335.469C1386.91 334.884 1388.12 333.716 1389.29 332.512C1390.45 331.309 1391.35 329.866 1392.24 328.387C1393.14 326.909 1393.14 325.156 1393.14 323.094C1393.14 321.34 1392.83 319.553 1392.24 317.8C1391.66 316.047 1390.49 314.844 1389.29 313.675C1388.08 312.506 1386.64 311.612 1385.16 310.719C1383.68 310.134 1381.93 309.825 1379.87 309.825H1353.05C1347.45 309.825 1342.16 308.656 1337.45 306.593C1332.43 304.531 1328.3 301.575 1324.76 298.034C1321.22 294.493 1318.27 290.093 1316.2 285.075C1314.14 279.781 1312.97 274.453 1312.97 268.849V268.884Z"
			fill="white" />
		<path
			d="M1599.42 349.357C1593.23 354.65 1586.15 358.775 1578.49 361.732C1570.82 364.688 1562.57 366.166 1554.32 366.166C1547.82 366.166 1541.95 365.272 1535.76 363.794C1529.88 362.041 1524.28 359.669 1519.26 356.713C1513.96 353.757 1509.53 349.941 1505.13 345.816C1501 341.691 1497.19 336.981 1494.23 331.688C1491.28 326.394 1488.94 321.066 1487.15 315.187C1485.36 309.309 1484.78 303.122 1484.78 296.625C1484.78 290.128 1485.67 283.94 1487.15 278.062C1488.9 272.184 1491.28 266.581 1494.23 261.562C1497.19 256.268 1501 251.834 1505.13 247.434C1509.25 243.309 1513.96 239.493 1519.26 236.537C1524.55 233.58 1529.88 231.243 1535.76 229.455C1541.64 227.668 1547.82 227.083 1554.32 227.083C1562.57 227.083 1570.82 228.562 1578.49 231.518C1586.15 234.474 1593.23 238.599 1599.42 243.893L1585.29 267.475C1581.48 263.349 1576.73 259.809 1571.44 257.746C1566.15 255.374 1560.54 254.206 1554.63 254.206C1548.72 254.206 1543.15 255.374 1537.82 257.437C1532.53 259.809 1528.09 262.731 1524.28 266.581C1520.46 270.396 1517.2 274.831 1515.13 280.125C1512.76 285.418 1511.9 291.022 1511.9 296.625C1511.9 302.503 1513.07 308.106 1515.13 313.125C1517.5 318.419 1520.43 322.853 1524.28 326.669C1528.09 330.484 1532.84 333.75 1537.82 335.813C1543.11 338.185 1548.72 339.044 1554.63 339.044C1560.54 339.044 1566.11 337.875 1571.44 335.503C1576.73 333.131 1581.44 329.9 1585.29 325.775L1599.42 349.357Z"
			fill="white" />
		<path d="M1709.32 363.21H1615.03V228.527H1641.84V336.088H1709.05V363.21H1709.32Z" fill="white" />
		<path
			d="M1850.5 296.315C1850.5 302.812 1849.61 309 1848.13 314.878C1846.65 320.756 1844 326.359 1841.05 331.378C1838.09 336.672 1834.55 341.107 1830.15 345.507C1826.03 349.632 1821.32 353.447 1816.02 356.404C1811 359.36 1805.4 361.697 1799.52 363.485C1793.64 365.272 1787.46 365.857 1780.96 365.857C1774.46 365.857 1768.58 364.963 1762.4 363.485C1756.52 361.732 1750.92 359.36 1745.9 356.404C1740.6 353.447 1736.17 349.632 1731.77 345.507C1727.64 341.382 1723.83 336.672 1720.87 331.378C1717.91 326.084 1715.58 320.756 1713.79 314.878C1712 309 1711.42 302.812 1711.42 296.315C1711.42 289.819 1712.31 283.631 1713.79 277.753C1715.54 271.875 1717.91 266.271 1720.87 261.253C1723.83 256.234 1727.64 251.524 1731.77 247.124C1735.89 242.999 1740.6 239.184 1745.9 236.227C1751.19 233.271 1756.52 230.934 1762.4 229.146C1768.27 227.359 1774.46 226.774 1780.96 226.774C1787.46 226.774 1793.64 227.668 1799.52 229.146C1805.4 230.899 1811 233.271 1816.02 236.227C1821.04 239.184 1825.75 242.724 1830.15 247.124C1834.28 251.249 1838.09 255.959 1841.05 261.253C1844 266.271 1846.34 271.875 1848.13 277.753C1849.61 283.94 1850.5 290.128 1850.5 296.315ZM1823.69 296.315C1823.69 290.437 1822.52 284.834 1820.46 279.815C1818.08 274.522 1815.16 270.087 1811.31 266.271C1807.46 262.456 1803.06 259.499 1797.77 257.128C1792.48 254.756 1786.87 253.896 1780.96 253.896C1775.05 253.896 1769.48 255.065 1764.15 257.128C1758.86 259.499 1754.42 262.421 1750.61 266.271C1746.79 270.121 1743.52 274.522 1741.46 279.815C1739.09 285.109 1738.23 290.712 1738.23 296.315C1738.23 302.194 1739.4 307.797 1741.46 312.816C1743.83 318.109 1746.76 322.544 1750.61 326.36C1754.46 330.175 1759.17 333.441 1764.15 335.503C1769.44 337.875 1775.05 338.735 1780.96 338.735C1786.87 338.735 1792.44 337.566 1797.77 335.503C1803.06 333.131 1807.5 330.21 1811.31 326.36C1815.13 322.509 1818.08 318.109 1820.46 312.816C1822.52 307.797 1823.69 302.194 1823.69 296.315Z"
			fill="white" />
		<path
			d="M1974.25 309.275C1974.25 316.631 1972.78 323.712 1970.13 330.209C1967.17 336.706 1963.36 342.275 1958.65 347.294C1953.63 352.003 1948.03 355.853 1941.56 358.775C1935.1 361.697 1928.02 362.9 1920.63 362.9C1913.24 362.9 1906.19 361.422 1899.69 358.775C1893.2 355.819 1887.63 352.003 1882.61 347.294C1877.9 342.584 1874.05 336.672 1871.13 330.209C1868.21 323.747 1867 316.666 1867 309.275V228.527H1893.81V309.275C1893.81 313.09 1894.4 316.356 1895.88 319.587C1897.36 322.819 1899.11 325.775 1901.76 328.147C1904.13 330.519 1907.05 332.581 1910.32 334.025C1913.55 335.503 1917.09 336.088 1920.94 336.088C1924.79 336.088 1928.02 335.503 1931.25 334.025C1934.48 332.547 1937.44 330.794 1939.81 328.147C1942.18 325.775 1944.24 322.853 1945.69 319.587C1947.17 316.356 1947.75 312.815 1947.75 309.275V228.527H1974.56V309.275H1974.25Z"
			fill="white" />
		<path
			d="M2105.39 295.697C2105.39 301.884 2104.5 307.762 2103.02 313.675C2101.54 319.278 2099.21 324.881 2096.25 329.591C2093.29 334.609 2089.75 339.009 2085.63 343.134C2081.5 347.26 2077.07 350.8 2072.08 353.756C2067.07 356.713 2061.77 359.05 2055.86 360.528C2050.26 362.006 2044.07 362.9 2037.88 362.9H1997.21V228.527H2037.88C2044.07 228.527 2049.95 229.421 2055.86 230.899C2061.46 232.377 2067.07 234.715 2072.08 237.671C2077.1 240.627 2081.5 244.168 2085.63 248.293C2089.75 252.418 2093.29 256.853 2096.25 261.837C2099.21 266.821 2101.54 272.15 2103.02 277.753C2104.5 283.631 2105.39 289.543 2105.39 295.731V295.697ZM2078.27 295.662C2078.27 290.059 2077.1 284.765 2075.04 280.056C2072.98 275.346 2070.02 270.912 2066.48 267.371C2062.94 263.831 2058.54 260.874 2053.52 258.812C2048.5 256.749 2043.52 255.581 2037.91 255.581H2024.37V336.328H2037.91C2043.52 336.328 2048.81 335.159 2053.52 333.097C2058.54 331.034 2062.66 328.078 2066.48 324.537C2070.02 320.997 2072.98 316.597 2075.04 311.578C2077.1 306.559 2078.27 301.265 2078.27 295.662Z"
			fill="white" />
		<path
			d="M873.277 348.772C867.089 354.066 860.008 358.191 852.342 361.147C844.676 364.103 836.426 365.582 828.176 365.582C821.679 365.582 815.492 364.688 809.613 363.21C803.735 361.457 798.132 359.085 793.113 356.128C787.819 353.172 783.385 349.356 778.985 345.231C774.86 341.106 771.044 336.397 768.088 331.103C765.132 325.809 762.794 320.481 761.007 314.603C759.254 308.725 758.635 302.537 758.635 296.04C758.635 289.543 759.529 283.356 761.007 277.478C762.76 271.599 765.132 265.996 768.088 260.977C771.044 255.684 774.86 251.249 778.985 246.849C783.11 242.724 787.819 238.909 793.113 235.952C798.407 232.996 803.735 230.658 809.613 228.871C815.492 227.083 821.679 226.499 828.176 226.499C836.426 226.499 844.676 227.977 852.342 230.933C860.008 233.89 867.089 238.015 873.277 243.309L859.148 266.89C855.333 262.765 850.589 259.224 845.295 257.162C840.001 255.099 834.398 253.621 828.486 253.621C822.573 253.621 817.004 254.79 811.676 256.852C806.382 259.224 801.948 262.146 798.132 265.996C794.316 269.846 791.051 274.246 788.988 279.54C786.616 284.834 785.757 290.437 785.757 296.04C785.757 301.919 786.926 307.522 788.988 312.54C791.36 317.834 794.282 322.269 798.132 326.084C801.982 329.9 806.692 333.166 811.676 335.228C816.97 337.6 822.298 338.459 828.486 338.459C834.673 338.459 839.967 337.291 845.295 334.919C850.623 332.547 855.298 329.316 859.148 325.191L873.277 348.772Z"
			fill="white" />
		<path d="M916.04 362.591H889.227V227.908H916.04V362.591Z" fill="white" />
		<path
			d="M967.877 362.591H941.064V227.908H995C1000.02 227.908 1004.73 228.493 1009.13 229.971C1013.56 231.14 1017.96 233.202 1021.81 235.265C1025.63 237.637 1029.48 240.559 1032.71 243.824C1035.94 247.09 1038.9 250.905 1041.27 254.721C1043.64 258.846 1045.39 262.971 1046.56 267.681C1047.73 272.115 1048.63 277.099 1048.63 281.809C1048.63 286.518 1048.04 290.953 1046.87 295.353C1045.7 299.753 1043.92 303.912 1041.85 307.728C1039.79 311.543 1037.14 315.394 1033.91 318.625C1030.68 321.856 1027.42 324.812 1023.29 327.184L1038.31 362.247H1009.71L997.921 335.125L967.877 335.434V362.556V362.591ZM967.877 255.065V309H994.69C998.506 309 1001.77 308.415 1005 306.937C1008.23 305.459 1011.19 303.706 1013.56 301.059C1015.93 298.687 1018 295.765 1019.44 292.5C1020.92 289.268 1021.5 285.728 1021.5 281.878C1021.5 278.028 1020.92 274.796 1019.44 271.256C1017.96 268.024 1016.21 265.068 1013.56 262.696C1011.19 260.324 1008.27 258.262 1005 256.818C1001.74 255.374 998.231 254.756 994.69 254.756H967.877V255.065Z"
			fill="white" />
		<path
			d="M1093.14 362.591H1066.33V227.908H1120.27C1125.28 227.908 1129.99 228.493 1134.39 229.971C1138.83 231.14 1143.23 233.202 1147.08 235.265C1150.89 237.637 1154.74 240.559 1157.98 243.824C1161.21 247.09 1164.16 250.905 1166.53 254.721C1168.91 258.846 1170.66 262.971 1171.83 267.681C1173 272.115 1173.89 277.099 1173.89 281.809C1173.89 286.518 1173.31 290.953 1172.14 295.353C1170.97 299.753 1169.18 303.912 1167.12 307.728C1165.06 311.543 1162.41 315.394 1159.18 318.625C1155.95 321.856 1152.68 324.812 1148.56 327.184L1163.58 362.247H1134.98L1123.19 335.125L1093.14 335.709V362.591ZM1093.14 255.031V308.965H1119.96C1123.77 308.965 1127.04 308.381 1130.27 306.903C1133.5 305.425 1136.46 303.672 1138.83 301.025C1141.2 298.653 1143.26 295.731 1144.71 292.465C1146.18 289.234 1146.77 285.693 1146.77 281.843C1146.77 277.993 1146.18 274.762 1144.71 271.221C1143.23 267.99 1141.47 265.034 1138.83 262.662C1136.46 260.29 1133.53 258.227 1130.27 256.784C1127 255.34 1123.5 254.721 1119.96 254.721H1093.14V255.031Z"
			fill="white" />
		<path
			d="M1297.37 308.965C1297.37 316.322 1295.89 323.403 1293.24 329.9C1290.29 336.397 1286.47 341.966 1281.76 346.984C1276.74 351.694 1271.14 355.544 1264.68 358.466C1258.18 361.422 1251.13 362.591 1243.74 362.591C1236.35 362.591 1229.3 361.113 1222.81 358.466C1216.31 355.509 1210.74 351.694 1205.72 346.984C1201.01 342.275 1197.16 336.362 1194.24 329.9C1191.32 323.437 1190.12 316.356 1190.12 308.965V227.908H1216.93V308.656C1216.93 312.472 1217.51 315.737 1218.99 318.969C1220.47 322.2 1222.22 325.156 1224.87 327.528C1227.24 329.9 1230.16 331.962 1233.43 333.406C1236.69 334.85 1240.2 335.469 1244.05 335.469C1247.9 335.469 1251.13 334.884 1254.36 333.406C1257.59 331.928 1260.55 330.175 1262.92 327.528C1265.29 325.156 1267.36 322.234 1268.8 318.969C1270.28 315.737 1270.86 312.197 1270.86 308.656V227.908H1297.68V308.965H1297.37Z"
			fill="white" />
		<path
			d="M1312.97 268.299C1312.97 262.696 1314.14 257.402 1316.2 252.693C1318.27 247.674 1321.22 243.549 1324.76 240.008C1328.3 236.468 1332.7 233.512 1337.45 231.449C1342.47 229.387 1347.45 228.218 1353.05 228.218H1414.93V255.03H1353.05C1351.3 255.03 1349.51 255.34 1347.76 256.199C1346.01 256.784 1344.8 257.952 1343.64 259.156C1342.47 260.359 1341.57 261.802 1340.68 263.281C1340.09 265.034 1339.79 266.512 1339.79 268.574C1339.79 270.327 1340.09 272.115 1340.68 273.868C1341.26 275.621 1342.43 277.099 1343.64 278.303C1344.84 279.506 1346.28 280.365 1347.76 281.259C1349.51 281.843 1351.3 282.153 1353.05 282.153H1379.87C1385.47 282.153 1390.76 283.321 1395.47 285.384C1400.49 287.446 1404.62 290.403 1408.43 293.943C1411.97 297.484 1414.93 301.884 1416.99 306.903C1419.06 311.922 1420.22 316.906 1420.22 322.509C1420.22 328.112 1419.06 333.406 1416.99 338.116C1414.93 343.134 1411.97 347.259 1408.43 350.8C1404.89 354.341 1400.49 357.297 1395.47 359.359C1390.46 361.422 1385.47 362.591 1379.87 362.591H1320.05V335.778H1379.87C1381.62 335.778 1383.41 335.469 1385.16 334.884C1386.91 334.3 1388.12 333.131 1389.29 331.928C1390.45 330.725 1391.35 329.281 1392.24 327.803C1393.14 326.325 1393.14 324.572 1393.14 322.509C1393.14 320.756 1392.83 318.968 1392.24 317.215C1391.66 315.462 1390.49 314.259 1389.29 313.09C1388.08 311.922 1386.64 311.028 1385.16 310.134C1383.68 309.55 1381.93 309.24 1379.87 309.24H1353.05C1347.45 309.24 1342.16 308.072 1337.45 306.009C1332.74 303.946 1328.3 300.99 1324.76 297.45C1321.22 293.909 1318.27 289.509 1316.2 284.49C1314.14 279.196 1312.97 273.868 1312.97 268.265V268.299Z"
			fill="white" />
		<path
			d="M1599.42 348.772C1593.23 354.066 1586.15 358.191 1578.49 361.147C1570.82 364.103 1562.57 365.582 1554.32 365.582C1547.82 365.582 1541.95 364.688 1535.76 363.21C1529.88 361.457 1524.28 359.085 1519.26 356.128C1513.96 353.172 1509.53 349.356 1505.13 345.231C1500.73 341.106 1497.19 336.397 1494.23 331.103C1491.28 325.809 1488.94 320.481 1487.15 314.603C1485.36 308.725 1484.78 302.537 1484.78 296.04C1484.78 289.543 1485.67 283.356 1487.15 277.478C1488.9 271.599 1491.28 265.996 1494.23 260.977C1497.19 255.684 1501 251.249 1505.13 246.849C1509.25 242.724 1513.96 238.909 1519.26 235.952C1524.55 232.996 1529.88 230.658 1535.76 228.871C1541.64 227.083 1547.82 226.499 1554.32 226.499C1562.57 226.499 1570.82 227.977 1578.49 230.933C1586.15 233.89 1593.23 238.015 1599.42 243.309L1585.29 266.89C1581.48 262.765 1576.73 259.224 1571.44 257.162C1566.15 254.79 1560.54 253.621 1554.63 253.621C1548.72 253.621 1543.15 254.79 1537.82 256.852C1532.53 259.224 1528.09 262.146 1524.28 265.996C1520.46 269.812 1517.2 274.246 1515.13 279.54C1512.76 284.834 1511.9 290.437 1511.9 296.04C1511.9 301.919 1513.07 307.522 1515.13 312.54C1517.5 317.834 1520.43 322.269 1524.28 326.084C1528.09 329.9 1532.84 333.166 1537.82 335.228C1543.11 337.6 1548.72 338.459 1554.63 338.459C1560.54 338.459 1566.11 337.291 1571.44 334.919C1576.73 332.547 1581.44 329.316 1585.29 325.191L1599.42 348.772Z"
			fill="white" />
		<path d="M1709.32 362.591H1615.03V227.908H1641.84V335.469H1709.05V362.591H1709.32Z" fill="white" />
		<path
			d="M1850.5 296.006C1850.5 302.503 1849.61 308.691 1848.13 314.569C1846.65 320.447 1844 326.05 1841.05 331.069C1838.09 336.363 1834.55 340.797 1830.15 345.197C1826.03 349.322 1821.32 353.138 1816.02 356.094C1811 359.05 1805.4 361.388 1799.52 363.176C1793.64 364.963 1787.46 365.547 1780.96 365.547C1774.46 365.547 1768.58 364.654 1762.4 363.176C1756.52 361.422 1750.92 359.05 1745.9 356.094C1740.6 353.138 1736.17 349.322 1731.77 345.197C1727.64 341.072 1723.83 336.363 1720.87 331.069C1717.91 325.775 1715.58 320.447 1713.79 314.569C1712 308.691 1711.42 302.503 1711.42 296.006C1711.42 289.509 1712.31 283.322 1713.79 277.443C1715.54 271.565 1717.91 265.962 1720.87 260.943C1723.83 255.925 1727.64 251.215 1731.77 246.815C1735.89 242.69 1740.6 238.874 1745.9 235.918C1751.19 232.962 1756.52 230.624 1762.4 228.837C1768.27 227.049 1774.46 226.465 1780.96 226.465C1787.46 226.465 1793.64 227.359 1799.52 228.837C1805.4 230.59 1811 232.962 1816.02 235.918C1821.04 238.874 1825.75 242.415 1830.15 246.815C1834.28 250.94 1838.09 255.65 1841.05 260.943C1844 265.962 1846.34 271.565 1848.13 277.443C1849.61 283.322 1850.5 289.509 1850.5 296.006ZM1823.69 296.006C1823.69 290.128 1822.52 284.525 1820.46 279.506C1818.39 274.487 1815.16 269.778 1811.31 265.962C1807.46 262.146 1803.06 259.19 1797.77 256.818C1792.48 254.446 1786.87 253.587 1780.96 253.587C1775.05 253.587 1769.48 254.756 1764.15 256.818C1758.86 259.19 1754.42 262.112 1750.61 265.962C1746.79 269.812 1743.52 274.212 1741.46 279.506C1739.4 284.8 1738.23 290.403 1738.23 296.006C1738.23 301.884 1739.4 307.488 1741.46 312.506C1743.83 317.8 1746.76 322.235 1750.61 326.05C1754.46 329.866 1759.17 333.132 1764.15 335.194C1769.44 337.566 1775.05 338.425 1780.96 338.425C1786.87 338.425 1792.44 337.257 1797.77 335.194C1803.06 332.822 1807.5 329.9 1811.31 326.05C1815.13 322.2 1818.08 317.8 1820.46 312.506C1822.52 307.213 1823.69 301.884 1823.69 296.006Z"
			fill="white" />
		<path
			d="M1974.25 308.965C1974.25 316.322 1972.78 323.403 1970.13 329.9C1967.17 336.397 1963.36 341.966 1958.65 346.984C1953.63 351.694 1948.03 355.544 1941.56 358.466C1935.1 361.388 1928.02 362.591 1920.63 362.591C1913.24 362.591 1906.19 361.113 1899.69 358.466C1893.2 355.509 1887.63 351.694 1882.61 346.984C1877.9 342.275 1874.05 336.362 1871.13 329.9C1868.21 323.437 1867 316.356 1867 308.965V227.908H1893.81V308.656C1893.81 312.472 1894.4 315.737 1895.88 318.969C1897.36 322.2 1899.11 325.156 1901.76 327.528C1904.13 329.9 1907.05 331.962 1910.32 333.406C1913.55 334.884 1917.09 335.469 1920.94 335.469C1924.79 335.469 1928.02 334.884 1931.25 333.406C1934.48 331.928 1937.44 330.175 1939.81 327.528C1942.18 325.156 1944.24 322.234 1945.69 318.969C1947.17 315.737 1947.75 312.197 1947.75 308.656V227.908H1974.56V308.965H1974.25Z"
			fill="white" />
		<path
			d="M2105.39 295.422C2105.39 301.609 2104.5 307.487 2103.02 313.4C2101.54 319.003 2099.21 324.606 2096.25 329.316C2093.29 334.334 2089.75 338.734 2085.63 342.859C2081.5 346.984 2077.07 350.525 2072.08 353.481C2067.07 356.438 2061.77 358.775 2055.86 360.253C2050.26 361.731 2044.07 362.625 2037.88 362.625H1997.21V227.943H2037.88C2044.07 227.943 2049.95 228.837 2055.86 230.315C2061.46 231.793 2067.07 234.13 2072.08 237.087C2077.1 240.043 2081.5 243.584 2085.63 247.709C2089.75 251.834 2093.29 256.268 2096.25 261.253C2099.21 266.237 2101.54 271.565 2103.02 277.168C2104.5 283.046 2105.39 289.234 2105.39 295.456V295.422ZM2078.27 295.387C2078.27 289.784 2077.1 284.49 2075.04 279.781C2072.98 275.071 2070.02 270.637 2066.48 267.096C2062.94 263.556 2058.54 260.599 2053.52 258.537C2048.5 256.474 2043.52 255.306 2037.91 255.306H2024.37V336.053H2037.91C2043.52 336.053 2048.81 334.884 2053.52 332.822C2058.54 330.759 2062.66 327.803 2066.48 324.262C2070.02 320.722 2072.98 316.322 2075.04 311.303C2077.1 306.284 2078.27 300.99 2078.27 295.387Z"
			fill="white" />
		<path d="M916.04 362.006H889.227V227.634H916.04V362.006Z" fill="white" />
		<path
			d="M967.877 362.006H941.064V227.634H995C1000.02 227.634 1004.73 228.218 1009.13 229.696C1013.53 231.174 1017.96 232.927 1021.81 234.99C1025.63 237.362 1029.48 240.284 1032.71 243.549C1035.94 246.815 1038.9 250.631 1041.27 254.446C1043.64 258.571 1045.39 262.696 1046.56 267.406C1047.73 272.115 1048.63 276.825 1048.63 281.534C1048.63 286.243 1048.04 290.678 1046.87 295.078C1045.7 299.478 1043.92 303.637 1041.85 307.453C1039.79 311.269 1037.14 315.119 1033.91 318.35C1030.68 321.581 1027.42 324.537 1023.29 326.909L1038.31 361.972H1009.71L997.921 334.85L967.877 335.159V361.972V362.006ZM967.877 254.481V308.415H994.69C998.506 308.415 1001.77 307.831 1005 306.353C1008.23 304.875 1011.19 303.122 1013.56 300.475C1015.93 298.103 1018 295.181 1019.44 291.915C1020.92 288.684 1021.5 285.143 1021.5 281.293C1021.5 277.443 1020.92 274.212 1019.44 270.671C1017.96 267.44 1016.21 264.484 1013.56 262.112C1011.19 259.74 1008.27 257.678 1005 256.234C1001.74 254.79 998.231 254.171 994.69 254.171H967.877V254.481Z"
			fill="white" />
		<path
			d="M1093.14 362.006H1066.33V227.634H1120.27C1125.28 227.634 1129.99 228.218 1134.39 229.696C1138.79 231.174 1143.23 232.927 1147.08 234.99C1150.89 237.362 1154.74 240.284 1157.98 243.549C1161.21 246.815 1164.16 250.631 1166.53 254.446C1168.91 258.571 1170.66 262.696 1171.83 267.406C1173 272.115 1173.89 276.825 1173.89 281.534C1173.89 286.243 1173.31 290.678 1172.14 295.078C1170.97 299.478 1169.18 303.637 1167.12 307.453C1165.06 311.269 1162.41 315.119 1159.18 318.35C1155.95 321.581 1152.68 324.537 1148.56 326.909L1163.58 361.972H1134.98L1123.19 334.85L1093.14 335.159V361.972V362.006ZM1093.14 254.481V308.415H1119.96C1123.77 308.415 1127.04 307.831 1130.27 306.353C1133.5 304.875 1136.46 303.122 1138.83 300.475C1141.2 298.103 1143.26 295.181 1144.71 291.915C1146.18 288.684 1146.77 285.143 1146.77 281.293C1146.77 277.443 1146.18 274.212 1144.71 270.671C1143.23 267.44 1141.47 264.484 1138.83 262.112C1136.46 259.74 1133.53 257.678 1130.27 256.234C1127 254.79 1123.5 254.171 1119.96 254.171H1093.14V254.481Z"
			fill="white" />
		<path
			d="M1297.37 308.381C1297.37 315.737 1295.89 322.819 1293.24 329.316C1290.29 335.813 1286.47 341.381 1281.76 346.4C1276.74 351.109 1271.14 354.96 1264.68 357.881C1258.18 360.838 1251.13 362.006 1243.74 362.006C1236.35 362.006 1229.3 360.528 1222.81 357.881C1216.31 354.925 1210.74 351.109 1205.72 346.4C1201.01 341.691 1197.16 335.778 1194.24 329.316C1191.32 322.853 1190.12 315.772 1190.12 308.381V227.634H1216.93V308.381C1216.93 312.197 1217.51 315.462 1218.99 318.694C1220.47 321.925 1222.22 324.881 1224.87 327.253C1227.24 329.625 1230.16 331.687 1233.43 333.131C1236.69 334.575 1240.2 335.194 1244.05 335.194C1247.9 335.194 1251.13 334.609 1254.36 333.131C1257.59 331.653 1260.55 329.9 1262.92 327.253C1265.29 324.881 1267.36 321.959 1268.8 318.694C1270.28 315.462 1270.86 311.922 1270.86 308.381V227.634H1297.68V308.381H1297.37Z"
			fill="white" />
		<path
			d="M1312.97 268.024C1312.97 262.421 1314.14 257.128 1316.2 252.418C1318.27 247.399 1321.22 243.274 1324.76 239.734C1328.3 236.193 1332.7 233.237 1337.45 231.174C1342.47 229.112 1347.45 227.943 1353.05 227.943H1414.93V254.481H1353.05C1351.3 254.481 1349.51 254.79 1347.76 255.649C1346.01 256.234 1344.8 257.403 1343.64 258.606C1342.47 259.809 1341.57 261.253 1340.68 262.731C1340.09 264.484 1339.79 265.962 1339.79 268.024C1339.79 269.778 1340.09 271.565 1340.68 273.318C1341.26 275.071 1342.43 276.55 1343.64 277.753C1344.84 278.956 1346.28 279.815 1347.76 280.709C1349.51 281.293 1351.3 281.603 1353.05 281.603H1379.87C1385.47 281.603 1390.76 282.771 1395.47 284.834C1400.49 286.897 1404.62 289.853 1408.43 293.393C1411.97 296.934 1414.93 301.334 1416.99 306.353C1419.06 311.372 1420.22 316.356 1420.22 321.959C1420.22 327.563 1419.06 332.856 1416.99 337.566C1414.93 342.585 1411.97 346.71 1408.43 350.25C1404.89 353.791 1400.49 356.747 1395.47 358.81C1390.46 360.872 1385.47 362.041 1379.87 362.041H1320.05V335.228H1379.87C1381.62 335.228 1383.41 334.919 1385.16 334.334C1386.91 333.75 1388.12 332.581 1389.29 331.378C1390.45 330.175 1391.35 328.731 1392.24 327.253C1393.14 325.775 1393.14 324.022 1393.14 321.959C1393.14 320.206 1392.83 318.419 1392.24 316.666C1391.66 314.912 1390.49 313.709 1389.29 312.541C1388.08 311.372 1386.64 310.478 1385.16 309.584C1383.68 309 1381.93 308.69 1379.87 308.69H1353.05C1347.45 308.69 1342.16 307.522 1337.45 305.459C1332.74 303.397 1328.3 300.44 1324.76 296.9C1321.22 293.359 1318.27 288.959 1316.2 283.94C1314.14 278.646 1312.97 273.628 1312.97 268.024Z"
			fill="white" />
		<path
			d="M1599.42 348.153C1593.23 353.447 1586.15 357.572 1578.49 360.529C1570.82 363.485 1562.57 364.963 1554.32 364.963C1547.82 364.963 1541.95 364.069 1535.76 362.591C1529.88 360.838 1524.28 358.466 1519.26 355.51C1513.96 352.553 1509.53 348.738 1505.13 344.613C1501 340.488 1497.19 335.778 1494.23 330.484C1491.28 325.191 1488.94 319.863 1487.15 313.984C1485.36 308.106 1484.78 301.919 1484.78 295.422C1484.78 288.925 1485.67 282.737 1487.15 276.859C1488.9 270.981 1491.28 265.378 1494.23 260.359C1497.19 255.065 1501 250.631 1505.13 246.231C1509.25 242.106 1513.96 238.29 1519.26 235.334C1524.55 232.377 1529.88 230.04 1535.76 228.252C1541.64 226.465 1547.82 225.88 1554.32 225.88C1562.57 225.88 1570.82 227.359 1578.49 230.315C1586.15 233.271 1593.23 237.396 1599.42 242.69L1585.29 266.271C1581.48 262.146 1576.73 258.606 1571.44 256.543C1566.15 254.171 1560.54 253.003 1554.63 253.003C1548.72 253.003 1543.15 254.171 1537.82 256.234C1532.53 258.606 1528.09 261.528 1524.28 265.378C1520.46 269.193 1517.2 273.628 1515.13 278.922C1512.76 284.215 1511.9 289.818 1511.9 295.422C1511.9 301.3 1513.07 306.903 1515.13 311.922C1517.5 317.216 1520.43 321.65 1524.28 325.466C1528.09 329.281 1532.84 332.547 1537.82 334.61C1543.11 336.981 1548.72 337.841 1554.63 337.841C1560.54 337.841 1566.11 336.672 1571.44 334.3C1576.73 331.928 1581.44 328.697 1585.29 324.572L1599.42 348.153Z"
			fill="white" />
		<path d="M1709.32 362.006H1615.03V227.634H1641.84V335.194H1709.05V362.006H1709.32Z" fill="white" />
		<path
			d="M1850.5 295.422C1850.5 301.919 1849.61 308.106 1848.13 313.984C1846.65 319.863 1844 325.466 1841.05 330.484C1838.09 335.778 1834.55 340.213 1830.15 344.613C1826.03 348.738 1821.32 352.553 1816.02 355.51C1811 358.466 1805.4 360.804 1799.52 362.591C1793.64 364.379 1787.46 364.963 1780.96 364.963C1774.46 364.963 1768.58 364.069 1762.4 362.591C1756.52 360.838 1750.92 358.466 1745.9 355.51C1740.6 352.553 1736.17 348.738 1731.77 344.613C1727.64 340.488 1723.83 335.778 1720.87 330.484C1717.91 325.191 1715.58 319.863 1713.79 313.984C1712 308.106 1711.42 301.919 1711.42 295.422C1711.42 288.925 1712.31 282.737 1713.79 276.859C1715.54 270.981 1717.91 265.378 1720.87 260.359C1723.83 255.34 1727.64 250.631 1731.77 246.231C1735.89 242.106 1740.6 238.29 1745.9 235.334C1751.19 232.377 1756.52 230.04 1762.4 228.252C1768.27 226.465 1774.46 225.88 1780.96 225.88C1787.46 225.88 1793.64 226.774 1799.52 228.252C1805.4 230.005 1811 232.377 1816.02 235.334C1821.04 238.29 1825.75 241.831 1830.15 246.231C1834.28 250.356 1838.09 255.065 1841.05 260.359C1844 265.378 1846.34 270.981 1848.13 276.859C1849.61 282.737 1850.5 288.925 1850.5 295.422ZM1823.69 295.422C1823.69 289.543 1822.52 283.94 1820.46 278.922C1818.39 273.903 1815.16 269.193 1811.31 265.378C1807.46 261.562 1803.06 258.606 1797.77 256.234C1792.48 253.862 1786.87 253.003 1780.96 253.003C1775.05 253.003 1769.48 254.171 1764.15 256.234C1758.86 258.606 1754.42 261.528 1750.61 265.378C1746.79 269.228 1743.52 273.628 1741.46 278.922C1739.4 284.215 1738.23 289.818 1738.23 295.422C1738.23 301.3 1739.4 306.903 1741.46 311.922C1743.83 317.216 1746.76 321.65 1750.61 325.466C1754.46 329.281 1759.17 332.547 1764.15 334.61C1769.44 336.981 1775.05 337.841 1780.96 337.841C1786.87 337.841 1792.44 336.672 1797.77 334.61C1803.06 332.238 1807.5 329.316 1811.31 325.466C1815.13 321.616 1818.08 317.216 1820.46 311.922C1822.52 306.903 1823.69 301.3 1823.69 295.422Z"
			fill="white" />
		<path
			d="M1974.25 308.381C1974.25 315.737 1972.78 322.819 1970.13 329.316C1967.17 335.813 1963.36 341.381 1958.65 346.4C1953.63 351.109 1948.03 354.96 1941.56 357.881C1935.1 360.803 1928.02 362.006 1920.63 362.006C1913.24 362.006 1906.19 360.528 1899.69 357.881C1893.2 354.925 1887.63 351.109 1882.61 346.4C1877.9 341.691 1874.05 335.778 1871.13 329.316C1868.21 322.853 1867 315.772 1867 308.381V227.634H1893.81V308.381C1893.81 312.197 1894.4 315.462 1895.88 318.694C1897.36 321.925 1899.11 324.881 1901.76 327.253C1904.13 329.625 1907.05 331.687 1910.32 333.131C1913.55 334.609 1917.09 335.194 1920.94 335.194C1924.79 335.194 1928.02 334.609 1931.25 333.131C1934.48 331.653 1937.44 329.9 1939.81 327.253C1942.18 324.881 1944.24 321.959 1945.69 318.694C1947.17 315.462 1947.75 311.922 1947.75 308.381V227.634H1974.56V308.381H1974.25Z"
			fill="white" />
		<path
			d="M2105.39 294.837C2105.39 301.025 2104.5 306.903 2103.02 312.815C2101.54 318.419 2099.21 324.022 2096.25 328.731C2093.29 333.75 2089.75 338.15 2085.63 342.275C2081.5 346.4 2077.07 349.941 2072.08 352.897C2067.07 355.853 2061.77 358.191 2055.86 359.669C2050.26 361.147 2044.07 362.041 2037.88 362.041H1997.21V227.668H2037.88C2044.07 227.668 2049.95 228.562 2055.86 230.04C2061.46 231.518 2067.07 233.856 2072.08 236.812C2077.1 239.768 2081.5 243.309 2085.63 247.434C2089.75 251.559 2093.29 255.993 2096.25 260.978C2099.21 265.996 2101.54 271.29 2103.02 276.893C2104.5 282.772 2105.39 288.684 2105.39 294.872V294.837ZM2078.27 294.803C2078.27 289.2 2077.1 283.906 2075.04 279.196C2072.98 274.487 2070.02 270.053 2066.48 266.512C2062.94 262.971 2058.54 260.015 2053.52 257.953C2048.5 255.89 2043.52 254.721 2037.91 254.721H2024.37V335.469H2037.91C2043.52 335.469 2048.81 334.3 2053.52 332.238C2058.54 330.175 2062.66 327.219 2066.48 323.678C2070.02 320.137 2072.98 315.737 2075.04 310.719C2077.1 305.7 2078.27 300.406 2078.27 294.803Z"
			fill="white" />
		<path
			d="M804.629 555.024H777.816V420.651H831.752C836.77 420.651 841.48 421.236 845.88 422.714C850.314 423.883 854.714 425.945 858.564 428.008C862.38 430.38 866.23 433.301 869.461 436.567C872.693 439.798 875.649 443.648 878.021 447.464C880.393 451.589 882.146 455.714 883.315 460.424C884.484 464.858 885.377 469.842 885.377 474.552C885.377 481.908 883.899 488.989 881.252 495.486C878.296 501.983 874.48 507.861 869.771 512.571C864.752 517.59 859.149 521.405 852.686 524.052C846.189 527.008 839.142 528.177 831.752 528.177H804.939V554.99H804.629V555.024ZM804.629 447.498V501.433H831.442C835.258 501.433 838.524 500.849 841.755 499.371C844.986 497.893 847.942 496.139 850.314 493.493C852.686 491.121 854.749 488.199 856.193 484.933C857.636 481.667 858.255 478.161 858.255 474.311C858.255 470.461 857.671 467.23 856.193 463.689C854.714 460.458 852.961 457.502 850.314 455.13C847.942 452.758 845.02 450.695 841.755 449.252C838.524 447.773 834.983 447.189 831.442 447.189H804.629V447.498Z"
			fill="white" />
		<path d="M924.291 555.025H898.646V414.739H924.565V555.025H924.291Z" fill="white" />
		<path
			d="M1040.96 555.025H1034.77L1024.77 541.172C1022.4 543.234 1019.75 545.297 1017.1 547.359C1014.46 549.112 1011.5 550.9 1008.55 552.378C1005.59 553.856 1002.36 555.025 999.401 555.609C996.17 556.503 992.904 556.778 989.673 556.778C982.592 556.778 975.82 555.609 969.632 553.237C963.445 550.865 957.841 547.359 953.407 542.925C948.697 538.49 945.157 532.921 942.51 526.424C939.863 519.928 938.385 512.296 938.385 504.012C938.385 495.727 939.863 488.99 942.51 482.493C945.157 475.996 949.007 470.427 953.407 465.683C958.116 460.974 963.41 457.433 969.632 454.786C975.82 452.139 982.592 450.97 989.673 450.97C992.904 450.97 996.17 451.28 999.401 452.139C1002.63 453.033 1005.59 454.202 1008.82 455.371C1011.78 456.849 1014.7 458.602 1017.38 460.389C1020.03 462.452 1022.67 464.514 1025.05 466.577L1035.05 454.786H1041.24V554.99H1040.96V555.025ZM1015.32 504.08C1015.32 500.54 1014.73 497.309 1013.25 493.768C1011.78 490.537 1010.02 487.58 1007.65 484.933C1005.28 482.286 1002.63 480.499 999.401 478.746C996.17 477.268 992.904 476.374 989.398 476.374C985.892 476.374 982.626 476.958 979.395 478.127C976.163 479.296 973.517 481.083 971.454 483.421C969.082 485.793 967.329 488.715 966.16 491.98C964.991 495.246 964.098 499.337 964.098 503.771C964.098 508.206 964.682 512.021 966.16 515.562C967.638 519.103 969.391 521.749 971.454 524.121C973.826 526.493 976.473 528.246 979.395 529.415C982.626 530.584 985.892 531.168 989.398 531.168C992.904 531.168 996.17 530.275 999.401 528.796C1002.63 527.318 1005.28 525.256 1007.65 522.609C1010.02 519.962 1011.78 517.315 1013.25 513.774C1014.73 510.818 1015.32 507.587 1015.32 504.046V504.08Z"
			fill="white" />
		<path
			d="M1111.12 555.025C1104.93 555.025 1099.05 553.856 1093.73 551.484C1088.4 549.112 1083.41 545.881 1079.29 541.756C1075.16 537.631 1071.93 532.921 1069.56 527.318C1067.19 522.024 1066.02 516.112 1066.02 509.924V480.155H1053.64V454.821H1066.02V414.739H1091.66V454.821H1130.58V480.465H1091.66V510.234C1091.66 512.881 1092.25 515.527 1093.14 517.899C1094.04 520.271 1095.51 522.334 1097.27 524.087C1099.02 525.84 1101.08 527.318 1103.45 528.212C1105.83 529.106 1108.47 529.69 1111.12 529.69H1130.58V555.334H1111.12V555.025Z"
			fill="white" />
		<path
			d="M1177.43 555.025H1151.79V480.19H1139.41V454.546H1151.79V449.836C1151.79 443.649 1152.96 437.77 1155.33 432.442C1157.7 427.148 1160.93 422.13 1165.06 418.314C1169.18 414.189 1173.89 410.958 1179.49 408.895C1185.1 406.833 1190.7 405.354 1196.89 405.354H1216.04V430.998H1196.89C1194.24 430.998 1191.59 431.583 1189.22 432.477C1186.85 433.37 1184.79 434.849 1183.03 436.602C1181.28 438.355 1180.08 440.417 1178.91 442.789C1178.02 445.161 1177.43 447.808 1177.43 450.455V455.164H1208.95V480.808H1177.43V555.059V555.025Z"
			fill="white" />
		<path
			d="M1316.21 504.046C1316.21 511.402 1314.73 518.483 1312.08 524.98C1309.43 531.477 1305.58 537.046 1301.18 541.79C1296.47 546.499 1291.18 550.349 1284.96 552.996C1278.77 555.643 1272 557.121 1264.92 557.121C1257.84 557.121 1251.06 555.643 1244.88 552.996C1238.69 550.349 1233.09 546.499 1228.65 541.79C1223.94 537.081 1220.4 531.477 1217.75 524.98C1215.11 518.483 1213.63 511.436 1213.63 504.046C1213.63 496.655 1215.11 489.299 1217.75 482.836C1220.4 476.374 1224.25 470.77 1228.65 466.027C1233.36 461.317 1238.66 457.467 1244.88 454.82C1251.1 452.173 1257.84 450.695 1264.92 450.695C1272 450.695 1278.77 451.864 1284.96 454.511C1291.15 457.158 1296.75 460.698 1301.18 465.408C1305.89 470.117 1309.43 475.72 1312.08 482.217C1314.73 488.714 1316.21 496.071 1316.21 504.011V504.046ZM1290.29 504.046C1290.29 499.921 1289.7 496.105 1288.22 492.839C1286.75 489.608 1284.99 486.652 1282.62 484.28C1280.25 481.908 1277.6 480.155 1274.37 478.677C1271.14 477.508 1267.87 476.614 1264.37 476.614C1260.86 476.614 1257.6 477.199 1254.36 478.677C1251.13 479.845 1248.49 481.908 1246.42 484.28C1244.05 486.652 1242.3 489.574 1241.13 492.839C1239.96 496.105 1239.07 499.921 1239.07 504.046C1239.07 507.861 1239.65 511.402 1241.13 514.943C1242.3 518.174 1244.36 521.13 1246.42 523.502C1248.8 525.874 1251.44 527.937 1254.36 529.38C1257.6 530.859 1260.86 531.443 1264.37 531.443C1267.87 531.443 1271.14 530.859 1274.37 529.38C1277.6 528.212 1280.25 526.149 1282.62 523.777C1284.99 521.405 1286.75 518.483 1288.22 515.218C1289.7 511.677 1290.29 508.136 1290.29 504.011V504.046Z"
			fill="white" />
		<path
			d="M1356.01 555.025H1330.37V454.545H1336.55L1345.11 466.336C1349.24 462.521 1353.95 459.564 1359.24 457.777C1364.54 455.714 1369.86 454.82 1375.47 454.82H1398.16V480.464H1375.47C1372.82 480.464 1370.17 481.049 1367.8 481.943C1365.43 482.836 1363.37 484.315 1361.61 486.068C1359.86 487.821 1358.38 489.883 1357.49 492.255C1356.6 494.627 1356.01 497.274 1356.01 499.921V555.025Z"
			fill="white" />
		<path
			d="M1537.52 555.024H1511.87V491.361C1511.87 489.608 1511.56 487.821 1510.98 486.342C1510.39 484.864 1509.5 483.386 1508.33 482.217C1507.16 481.049 1505.68 480.155 1504.21 479.571C1502.73 478.986 1500.97 478.677 1499.19 478.677C1497.4 478.677 1495.65 478.986 1494.17 479.571C1492.69 480.155 1491.21 481.049 1490.04 482.217C1488.87 483.386 1487.98 484.864 1487.4 486.342C1486.81 487.821 1486.5 489.574 1486.5 491.361V555.024H1460.86V491.361C1460.86 489.608 1460.55 487.821 1459.96 486.342C1459.38 484.864 1458.49 483.386 1457.32 482.217C1456.15 481.049 1454.67 480.155 1453.19 479.571C1451.71 478.986 1449.96 478.677 1448.17 478.677C1446.39 478.677 1444.63 478.986 1443.15 479.571C1441.68 480.155 1440.2 481.049 1439.03 482.217C1437.86 483.386 1436.97 484.864 1436.38 486.342C1435.8 487.821 1435.49 489.574 1435.49 491.361V555.024H1409.84V454.545H1416.03L1423.11 462.211C1426.65 459.255 1430.47 456.917 1434.9 455.13C1439.34 453.342 1443.74 452.758 1448.17 452.758C1452.88 452.758 1457.32 453.652 1462.03 455.405C1466.46 457.158 1470.28 460.114 1473.82 464.549C1475.3 462.486 1477.05 460.733 1479.11 459.255C1481.17 457.777 1483.24 456.608 1485.3 455.714C1487.67 454.82 1489.73 454.236 1492.07 453.652C1494.44 453.342 1496.78 453.067 1499.15 453.067C1504.45 453.067 1509.46 453.961 1514.17 456.023C1518.88 458.086 1523.01 460.733 1526.24 464.274C1529.78 467.814 1532.43 471.939 1534.49 476.649C1536.55 481.358 1537.45 486.377 1537.45 491.671V555.024H1537.52Z"
			fill="white" />
		<path
			d="M804.629 554.749H777.816V420.067H831.752C836.77 420.067 841.48 420.652 845.88 422.13C850.314 423.298 854.714 425.361 858.564 427.423C862.38 429.795 866.23 432.717 869.461 435.983C872.693 439.214 875.649 443.064 878.021 446.88C880.393 451.005 882.146 455.13 883.315 459.839C884.484 464.549 885.377 469.258 885.377 473.968C885.377 481.324 883.899 488.405 881.252 494.902C878.296 501.399 874.48 507.277 869.771 511.987C864.752 517.005 859.149 520.821 852.686 523.468C846.189 526.424 839.142 527.593 831.752 527.593H804.939V554.715H804.629V554.749ZM804.629 446.914V500.849H831.442C835.258 500.849 838.524 500.265 841.755 498.787C844.986 497.308 847.942 495.555 850.314 492.908C852.686 490.536 854.749 487.615 856.193 484.349C857.636 481.083 858.255 477.577 858.255 473.727C858.255 469.877 857.671 466.646 856.193 463.105C854.714 459.874 852.961 456.917 850.314 454.546C847.942 452.174 845.02 450.111 841.755 448.667C838.524 447.189 834.983 446.605 831.442 446.605H804.629V446.914Z"
			fill="white" />
		<path d="M924.291 554.75H898.646V414.189H924.565V554.75H924.291Z" fill="white" />
		<path
			d="M1040.96 554.75H1034.77L1024.77 540.896C1022.4 542.959 1019.75 545.021 1017.1 547.084C1014.46 548.837 1011.5 550.625 1008.55 552.103C1005.59 553.581 1002.36 554.75 999.401 555.334C996.17 556.228 992.904 556.503 989.673 556.503C982.592 556.503 975.82 555.334 969.632 552.962C963.445 550.59 957.841 547.084 953.407 542.65C948.697 538.215 945.157 532.646 942.51 526.149C939.863 519.652 938.385 512.021 938.385 503.737C938.385 495.452 939.863 488.715 942.51 482.218C945.157 475.721 949.007 470.152 953.407 465.408C958.116 460.699 963.41 457.158 969.632 454.511C975.82 451.864 982.592 450.695 989.673 450.695C992.904 450.695 996.17 451.005 999.401 451.864C1002.63 452.758 1005.59 453.927 1008.82 455.095C1011.78 456.574 1014.7 458.327 1017.38 460.114C1020.03 462.177 1022.67 464.239 1025.05 466.302L1035.05 454.511H1041.24V554.715H1040.96V554.75ZM1015.32 503.496C1015.32 499.955 1014.73 496.724 1013.25 493.183C1011.78 489.952 1010.02 486.996 1007.65 484.349C1005.28 481.702 1002.63 479.914 999.401 478.161C996.17 476.683 992.904 475.789 989.398 475.789C985.892 475.789 982.626 476.374 979.395 477.543C976.163 478.711 973.517 480.499 971.454 482.836C969.391 485.174 967.329 488.13 966.16 491.396C964.991 494.661 964.098 498.752 964.098 503.187C964.098 507.621 964.682 511.437 966.16 514.977C967.638 518.518 969.391 521.165 971.454 523.537C973.826 525.909 976.473 527.662 979.395 528.831C982.626 529.999 985.892 530.584 989.398 530.584C992.904 530.584 996.17 529.69 999.401 528.212C1002.63 526.734 1005.28 524.671 1007.65 522.024C1010.02 519.377 1011.78 516.73 1013.25 513.19C1014.73 510.543 1015.32 507.002 1015.32 503.462V503.496Z"
			fill="white" />
		<path
			d="M1111.12 554.75C1104.93 554.75 1099.05 553.581 1093.73 551.209C1088.4 548.837 1083.41 545.606 1079.29 541.481C1075.16 537.356 1071.93 532.646 1069.56 527.043C1067.19 521.749 1066.02 515.837 1066.02 509.649V479.88H1053.64V454.236H1066.02V414.155H1091.66V454.236H1130.58V479.88H1091.66V509.649C1091.66 512.296 1092.25 514.943 1093.14 517.315C1094.04 519.687 1095.51 521.749 1097.27 523.502C1099.02 525.256 1101.08 526.734 1103.45 527.627C1105.83 528.521 1108.47 529.106 1111.12 529.106H1130.58V554.75H1111.12Z"
			fill="white" />
		<path
			d="M1177.43 554.749H1151.79V479.914H1139.41V454.27H1151.79V449.561C1151.79 443.373 1152.96 437.495 1155.33 432.167C1157.7 426.873 1160.93 421.855 1165.06 418.039C1169.18 413.914 1173.89 410.683 1179.49 408.62C1184.79 406.248 1190.7 405.079 1196.89 405.079H1216.04V430.723H1196.89C1194.24 430.723 1191.59 431.308 1189.22 432.201C1186.85 433.095 1184.79 434.573 1183.03 436.327C1181.28 438.08 1180.08 440.142 1178.91 442.514C1178.02 444.886 1177.43 447.533 1177.43 450.18V454.889H1208.95V480.533H1177.43V554.784V554.749Z"
			fill="white" />
		<path
			d="M1316.21 503.462C1316.21 510.818 1314.73 517.899 1312.08 524.396C1309.43 530.893 1305.58 536.462 1301.18 541.206C1296.47 545.915 1291.18 549.765 1284.96 552.412C1278.77 555.059 1272 556.537 1264.92 556.537C1257.84 556.537 1251.06 555.059 1244.88 552.412C1238.69 549.765 1233.09 545.915 1228.65 541.206C1223.94 536.497 1220.4 530.893 1217.75 524.396C1215.11 517.899 1213.63 510.852 1213.63 503.462C1213.63 496.071 1215.11 488.715 1217.75 482.252C1220.4 475.789 1224.25 470.186 1228.65 465.442C1233.36 460.733 1238.66 456.883 1244.88 454.236C1251.1 451.589 1257.84 450.111 1264.92 450.111C1272 450.111 1278.77 451.28 1284.96 453.927C1291.15 456.574 1296.75 460.114 1301.18 464.824C1305.89 469.533 1309.43 475.136 1312.08 481.633C1314.73 488.13 1316.21 495.487 1316.21 503.427V503.462ZM1290.29 503.462C1290.29 499.337 1289.7 495.521 1288.22 492.255C1286.75 489.024 1284.99 486.068 1282.62 483.696C1280.25 481.324 1277.6 479.571 1274.37 478.093C1271.14 476.924 1267.87 476.03 1264.37 476.03C1260.86 476.03 1257.6 476.615 1254.36 478.093C1251.13 479.261 1248.49 481.324 1246.42 483.696C1244.05 486.068 1242.3 488.99 1241.13 492.255C1239.96 495.521 1239.07 499.337 1239.07 503.462C1239.07 507.277 1239.65 510.818 1241.13 514.359C1242.3 517.59 1244.36 520.546 1246.42 522.918C1248.8 525.29 1251.44 527.353 1254.36 528.796C1257.6 530.275 1260.86 530.859 1264.37 530.859C1267.87 530.859 1271.14 530.275 1274.37 528.796C1277.6 527.318 1280.25 525.565 1282.62 523.193C1284.99 520.821 1286.75 517.899 1288.22 514.634C1289.7 511.402 1290.29 507.552 1290.29 503.427V503.462Z"
			fill="white" />
		<path
			d="M1356.01 554.75H1330.37V454.271H1336.55L1345.11 466.061C1349.24 462.246 1353.95 459.289 1359.24 457.502C1364.54 455.439 1369.86 454.546 1375.47 454.546H1398.16V480.19H1375.47C1372.82 480.19 1370.17 480.774 1367.8 481.668C1365.43 482.561 1363.37 484.04 1361.61 485.793C1359.86 487.546 1358.38 489.608 1357.49 491.98C1356.6 494.352 1356.01 496.999 1356.01 499.646V554.75Z"
			fill="white" />
		<path
			d="M1537.52 554.75H1511.87V491.087C1511.87 489.334 1511.56 487.546 1510.98 486.068C1510.39 484.59 1509.5 483.112 1508.33 481.943C1507.16 480.774 1505.68 479.88 1504.21 479.296C1502.73 478.712 1500.97 478.402 1499.19 478.402C1497.4 478.402 1495.65 478.712 1494.17 479.296C1492.69 479.88 1491.21 480.774 1490.04 481.943C1488.87 483.112 1487.98 484.59 1487.4 486.068C1486.81 487.546 1486.5 489.299 1486.5 491.087V554.75H1460.86V491.087C1460.86 489.334 1460.55 487.546 1459.96 486.068C1459.38 484.59 1458.49 483.112 1457.32 481.943C1456.15 480.774 1454.67 479.88 1453.19 479.296C1451.71 478.712 1449.96 478.402 1448.17 478.402C1446.39 478.402 1444.63 478.712 1443.15 479.296C1441.68 479.88 1440.2 480.774 1439.03 481.943C1437.86 483.112 1436.97 484.59 1436.38 486.068C1435.8 487.546 1435.49 489.299 1435.49 491.087V554.75H1409.84V454.271H1416.03L1423.11 461.936C1426.65 458.98 1430.47 456.643 1434.9 454.855C1439.34 453.068 1443.74 452.483 1448.17 452.483C1452.88 452.483 1457.32 453.377 1462.03 455.13C1466.46 456.883 1470.28 459.839 1473.82 464.274C1475.3 462.211 1477.05 460.458 1479.11 458.98C1481.17 457.502 1483.24 456.333 1485.3 455.439C1487.67 454.546 1489.73 453.961 1492.07 453.377C1494.44 453.068 1496.78 452.793 1499.15 452.793C1504.45 452.793 1509.46 453.686 1514.17 455.749C1518.88 457.811 1523.01 460.458 1526.24 463.999C1529.78 467.54 1532.43 471.665 1534.49 476.374C1536.55 481.083 1537.45 486.102 1537.45 491.396V554.75H1537.52Z"
			fill="white" />
		<path
			d="M804.629 554.165H777.816V419.482H831.752C836.77 419.482 841.48 420.067 845.88 421.545C850.314 422.714 854.714 424.776 858.564 426.839C862.38 429.211 866.23 432.133 869.461 435.398C872.693 438.629 875.649 442.479 878.021 446.295C880.393 450.42 882.146 454.545 883.315 459.255C884.484 463.689 885.377 468.673 885.377 473.383C885.377 480.739 883.899 487.82 881.252 494.317C878.296 500.814 874.48 506.693 869.771 511.402C864.752 516.421 859.149 520.236 852.686 522.883C846.189 525.84 839.142 527.008 831.752 527.008H804.939V554.13H804.629V554.165ZM804.629 446.639V500.574H831.442C835.258 500.574 838.524 499.989 841.755 498.511C844.986 497.033 847.942 495.28 850.314 492.633C852.686 490.261 854.749 487.339 856.193 484.074C857.636 480.808 858.255 477.302 858.255 473.452C858.255 469.602 857.671 466.37 856.193 462.83C854.714 459.598 852.961 456.642 850.314 454.27C847.942 451.898 845.02 449.836 841.755 448.392C838.524 446.914 834.983 446.33 831.442 446.33H804.629V446.639Z"
			fill="white" />
		<path d="M924.29 554.164H898.646V413.604H924.564V554.164H924.29Z" fill="white" />
		<path
			d="M1040.96 554.165H1034.77L1024.77 540.311C1022.4 542.374 1019.75 544.436 1017.1 546.499C1014.46 548.252 1011.5 550.04 1008.54 551.518C1005.59 552.996 1002.36 554.165 999.399 554.749C996.168 555.643 992.902 555.918 989.671 555.918C982.59 555.918 975.818 554.749 969.63 552.377C963.443 550.005 957.839 546.499 953.405 542.065C948.695 537.63 945.155 532.061 942.508 525.564C939.861 519.067 938.383 511.436 938.383 503.152C938.383 494.867 939.861 488.13 942.508 481.633C945.155 475.136 949.005 469.567 953.405 464.823C958.114 460.114 963.408 456.573 969.63 453.926C975.818 451.279 982.59 450.11 989.671 450.11C992.902 450.11 996.168 450.42 999.399 451.279C1002.63 452.173 1005.59 453.342 1008.82 454.51C1011.77 455.989 1014.7 457.742 1017.38 459.529C1020.02 461.592 1022.67 463.654 1025.04 465.717L1035.05 453.926H1041.23V554.13H1040.96V554.165ZM1015.32 502.911C1015.32 499.37 1014.73 496.139 1013.25 492.598C1011.77 489.367 1010.02 486.411 1007.65 483.764C1005.28 481.117 1002.63 479.329 999.399 477.576C996.168 476.098 992.902 475.204 989.396 475.204C985.89 475.204 982.624 475.789 979.393 476.958C976.161 478.126 973.515 479.914 971.452 482.251C969.08 484.623 967.327 487.545 966.158 490.811C964.989 494.076 964.096 498.167 964.096 502.602C964.096 507.036 964.68 510.852 966.158 514.392C967.636 517.933 969.39 520.58 971.452 522.952C973.824 525.324 976.471 527.077 979.393 528.246C982.624 529.414 985.89 529.999 989.396 529.999C992.902 529.999 996.168 529.105 999.399 527.627C1002.63 526.149 1005.28 524.086 1007.65 521.439C1010.02 518.792 1011.77 516.145 1013.25 512.605C1014.73 509.958 1015.32 506.417 1015.32 502.877V502.911Z"
			fill="white" />
		<path
			d="M1111.12 554.164C1104.93 554.164 1099.05 552.996 1093.73 550.624C1088.4 548.252 1083.41 545.021 1079.29 540.896C1075.16 536.771 1071.93 532.061 1069.56 526.458C1067.19 521.164 1066.02 515.252 1066.02 509.064V479.295H1053.64V453.651H1066.02V413.569H1091.66V453.651H1130.58V479.295H1091.66V509.064C1091.66 511.711 1092.25 514.358 1093.14 516.73C1094.04 519.102 1095.51 521.164 1097.27 522.917C1099.02 524.67 1101.08 526.149 1103.45 527.042C1105.83 527.936 1108.47 528.52 1111.12 528.52H1130.58V554.164H1111.12Z"
			fill="white" />
		<path
			d="M1177.43 554.164H1151.79V479.329H1139.41V453.685H1151.79V448.976C1151.79 442.788 1152.96 436.91 1155.33 431.582C1157.7 426.288 1160.93 421.27 1165.06 417.454C1169.18 413.329 1173.89 410.098 1179.49 408.035C1185.1 405.973 1190.7 404.494 1196.89 404.494H1216.04V430.138H1196.89C1194.24 430.138 1191.59 430.723 1189.22 431.616C1186.85 432.51 1184.79 433.988 1183.03 435.742C1181.28 437.495 1180.08 439.557 1178.91 441.929C1178.02 444.301 1177.43 446.948 1177.43 449.595V454.304H1208.95V479.948H1177.43V554.199V554.164Z"
			fill="white" />
		<path
			d="M1316.2 502.877C1316.2 510.233 1314.72 517.314 1312.08 523.811C1309.43 530.308 1305.58 535.877 1301.18 540.621C1296.47 545.33 1291.18 549.18 1284.95 551.827C1278.77 554.474 1272 555.952 1264.91 555.952C1257.83 555.952 1251.06 554.474 1244.87 551.827C1238.69 549.18 1233.08 545.33 1228.65 540.621C1223.94 535.912 1220.4 530.308 1217.75 523.811C1215.1 517.314 1213.63 510.267 1213.63 502.877C1213.63 495.486 1215.1 488.13 1217.75 481.667C1220.4 475.205 1224.25 469.601 1228.65 464.858C1233.36 460.148 1238.65 456.298 1244.87 453.651C1251.1 451.004 1257.83 449.526 1264.91 449.526C1272 449.526 1278.77 450.695 1284.95 453.342C1291.14 455.989 1296.75 459.529 1301.18 464.239C1305.89 468.948 1309.43 474.551 1312.08 481.048C1314.72 487.82 1316.2 494.902 1316.2 502.842V502.877ZM1290.28 502.877C1290.28 498.752 1289.7 494.936 1288.22 491.67C1286.74 488.439 1284.99 485.483 1282.62 483.111C1280.25 480.739 1277.6 478.986 1274.37 477.508C1271.14 476.339 1267.87 475.445 1264.36 475.445C1260.86 475.445 1257.59 476.03 1254.36 477.508C1251.13 478.676 1248.48 480.739 1246.42 483.111C1244.05 485.483 1242.3 488.405 1241.13 491.67C1239.96 494.936 1239.06 498.752 1239.06 502.877C1239.06 506.692 1239.65 510.233 1241.13 513.774C1242.3 517.005 1244.36 519.961 1246.42 522.333C1248.79 524.705 1251.44 526.768 1254.36 528.211C1257.59 529.69 1260.86 530.274 1264.36 530.274C1267.87 530.274 1271.14 529.69 1274.37 528.211C1277.6 527.043 1280.25 524.98 1282.62 522.608C1284.99 520.236 1286.74 517.314 1288.22 514.049C1289.7 510.817 1290.28 506.967 1290.28 502.842V502.877Z"
			fill="white" />
		<path
			d="M1356.01 554.164H1330.37V453.685H1336.55L1345.11 465.476C1349.24 461.66 1353.95 458.704 1359.24 456.916C1364.54 455.129 1369.86 453.96 1375.47 453.96H1398.15V479.604H1375.47C1372.82 479.604 1370.17 480.189 1367.8 481.082C1365.43 481.976 1363.37 483.454 1361.61 485.207C1359.86 486.96 1358.38 489.023 1357.49 491.395C1356.59 493.767 1356.01 496.414 1356.01 499.061V554.164Z"
			fill="white" />
		<path
			d="M1537.51 554.164H1511.87V490.501C1511.87 488.748 1511.56 486.961 1510.98 485.482C1510.39 484.004 1509.5 482.526 1508.33 481.357C1507.16 480.189 1505.68 479.295 1504.2 478.71C1502.73 478.126 1500.97 477.817 1499.19 477.817C1497.4 477.817 1495.65 478.126 1494.17 478.71C1492.69 479.295 1491.21 480.189 1490.04 481.357C1488.87 482.526 1487.98 484.004 1487.39 485.482C1486.81 486.961 1486.5 488.714 1486.5 490.501V554.164H1460.86V490.501C1460.86 488.748 1460.55 486.961 1459.96 485.482C1459.38 484.004 1458.49 482.526 1457.32 481.357C1456.15 480.189 1454.67 479.295 1453.19 478.71C1451.71 478.126 1449.96 477.817 1448.17 477.817C1446.38 477.817 1444.63 478.126 1443.15 478.71C1441.68 479.295 1440.2 480.189 1439.03 481.357C1437.86 482.526 1436.97 484.004 1436.38 485.482C1435.8 486.961 1435.49 488.714 1435.49 490.501V554.164H1409.84V453.685H1416.03L1423.11 461.351C1426.65 458.395 1430.47 456.057 1434.9 454.27C1439.34 452.482 1443.74 451.898 1448.17 451.898C1452.88 451.898 1457.32 452.791 1462.03 454.545C1466.46 456.298 1470.28 459.254 1473.82 463.688C1475.29 461.626 1477.05 459.873 1479.11 458.395C1481.17 456.917 1483.24 455.748 1485.3 454.854C1487.67 453.96 1489.73 453.376 1492.07 452.791C1494.44 452.482 1496.78 452.207 1499.15 452.207C1504.45 452.207 1509.46 453.101 1514.17 455.163C1518.88 457.226 1523.01 459.873 1526.24 463.413C1529.78 466.954 1532.43 471.079 1534.49 475.789C1536.55 480.498 1537.45 485.517 1537.45 490.811V554.164H1537.51Z"
			fill="white" />
		<path
			d="M656.398 386.758C653.167 377.03 648.457 367.886 643.129 359.636C624.842 328.388 593.904 305.701 557.363 298.035C556.469 295.972 555.61 294.219 554.406 292.432C532.303 251.181 488.99 223.165 438.871 223.165C388.751 223.165 342.792 252.934 321.582 295.938C255.856 303.019 204.603 358.398 204.603 426.187C204.603 498.375 262.938 556.745 334.851 557.02H534.95C582.113 555.267 622.779 528.729 644.264 490.125V489.816C655.745 471.253 662.551 449.459 662.551 426.152C662.861 412.024 660.489 399.03 656.364 386.655V386.758H656.398ZM417.73 476.925C416.561 478.678 415.667 480.156 414.499 481.944C413.605 483.112 413.02 484.006 412.127 485.175C411.817 485.484 411.817 485.759 411.542 485.759L411.233 486.069C410.924 486.378 410.924 486.653 410.649 486.963C410.339 487.272 410.064 487.856 409.48 488.131C408.895 488.716 408.311 489.609 407.727 490.194L403.911 494.01L400.68 497.241L400.095 497.825L399.511 498.41C398.342 499.578 397.139 500.472 396.28 501.366L395.97 501.675C394.802 502.569 393.908 503.428 392.739 504.047L392.155 504.357H391.845C390.951 504.941 390.092 505.525 389.198 506.11C388.614 506.419 388.03 506.694 387.72 507.003C374.176 515.563 358.26 520.272 341.76 520.857H338.22C314.363 520.857 291.675 512.022 273.972 495.522C256.887 479.606 246.266 458.087 244.203 434.815C244.203 435.984 244.512 437.187 244.512 438.356C242.45 423.024 244.203 408.311 249.222 394.733C249.222 395.042 248.912 395.627 248.912 395.902C249.222 395.317 249.222 394.733 249.497 394.149C249.772 393.564 249.806 392.98 250.081 392.396C250.391 391.811 250.666 391.227 250.666 390.642C250.666 390.333 250.975 390.333 250.975 390.058C251.559 388.58 252.453 386.827 253.037 385.349C253.347 384.455 253.931 383.595 254.516 382.702C256.578 378.577 258.95 374.761 261.597 371.22C262.181 370.051 263.075 369.158 263.969 368.264C264.863 367.095 265.447 366.201 266.341 365.308C267.234 364.414 268.094 363.245 268.988 362.351L271.635 359.704C273.388 357.951 275.45 356.164 277.513 354.411C278.991 353.242 280.16 352.039 281.638 351.179C282.807 350.286 284.285 349.426 285.453 348.532C286.622 347.639 287.825 347.054 288.994 346.161C290.163 345.267 291.366 344.682 292.535 344.098C293.429 343.514 294.288 343.204 295.182 342.62C296.075 342.31 296.935 341.726 297.554 341.451C304.91 337.91 312.576 335.573 320.826 334.095C319.932 338.529 319.657 343.239 319.348 347.948V356.508C309.929 358.879 301.369 363.005 294.013 368.573C292.844 369.467 291.95 370.052 290.782 370.945C289.303 372.114 287.825 373.592 286.347 375.07C284.869 376.548 283.7 378.027 282.222 379.505C281.053 380.983 279.85 382.461 278.681 383.939C276.31 387.48 273.972 391.021 272.185 394.836C271.6 395.73 271.291 396.589 271.016 397.793V398.102C270.706 398.996 270.122 399.855 269.847 400.749C268.953 402.811 268.369 404.874 267.784 406.936C267.475 408.415 266.891 409.583 266.616 411.061C266.616 411.646 266.306 412.54 266.306 413.124C266.306 413.708 265.997 414.602 265.997 415.186V416.355V419.002C265.997 420.48 265.688 421.649 265.688 423.127V433.131C265.688 434.024 265.997 434.884 265.997 436.087C268.369 455.234 278.372 472.628 293.704 484.419C309.035 496.21 328.182 501.503 347.329 499.166C355.27 497.997 362.661 495.935 369.433 492.394C369.742 492.394 370.017 492.084 370.601 491.809C371.186 491.5 371.495 491.225 372.079 491.225C372.973 490.916 373.558 490.331 374.451 490.056C375.036 489.747 375.62 489.472 376.204 488.888C377.098 488.303 377.683 487.994 378.576 487.409C379.47 486.825 380.055 486.516 380.639 485.931C381.533 485.347 382.117 484.762 383.011 484.178C383.905 483.594 384.489 483.009 385.383 482.116C386.551 481.222 387.445 480.362 388.614 479.159C389.783 478.266 390.676 477.097 391.845 475.928C393.014 474.759 393.908 473.556 394.802 472.387C395.695 471.494 396.28 470.325 397.173 469.431C397.483 469.122 397.758 468.537 398.067 468.262C398.377 467.678 398.961 467.093 399.236 466.2C399.545 465.89 399.82 465.306 399.82 465.031C406.902 467.403 414.258 469.156 421.614 470.05C420.446 473.006 419.242 475.069 417.799 477.131L417.73 476.925ZM444.852 283.597C443.958 283.288 443.099 283.288 442.205 283.288C441.311 283.288 440.727 282.978 439.833 282.978C438.665 282.978 437.461 282.669 436.602 282.669H434.849C431.893 282.669 428.971 282.669 426.289 282.978C425.705 282.978 425.121 282.978 424.536 283.288C423.952 283.288 423.058 283.597 422.474 283.597C421.305 283.597 420.411 283.907 419.242 284.182H418.933C417.764 284.491 416.871 284.491 415.702 284.766C413.33 285.35 410.992 285.935 408.62 286.828C407.452 287.138 406.249 287.722 405.08 288.307C403.911 288.891 403.017 289.2 401.848 289.785C400.955 290.094 400.095 290.679 399.202 291.263C398.308 291.572 397.723 292.157 396.83 292.432L395.077 293.325C395.077 293.325 394.767 293.635 394.492 293.635C394.183 293.944 393.908 294.219 393.323 294.219C393.323 294.219 393.014 294.529 392.739 294.529C392.43 294.838 392.155 294.838 391.845 295.113C391.261 295.697 390.367 296.007 389.783 296.591C389.198 296.9 388.614 297.485 388.03 298.069C387.72 298.379 387.136 298.654 386.861 298.963C386.276 299.547 385.692 299.857 385.108 300.441C384.214 301.026 383.355 301.919 382.461 302.813C368.332 316.082 360.357 334.335 359.773 353.792C359.464 372.939 366.545 391.227 380.123 405.355C391.33 417.421 406.042 425.087 422.267 427.459V448.978C418.452 448.668 414.602 447.809 410.786 446.915C393.117 442.79 377.201 433.646 364.517 420.102C347.123 401.814 337.979 377.958 338.873 352.623C339.457 327.563 350.079 303.982 368.332 286.897C370.395 285.144 372.458 283.357 374.52 281.603C381.017 276.585 387.789 272.459 395.145 269.228C396.039 268.919 397.208 268.334 398.102 268.059C398.411 268.059 398.686 267.75 398.995 267.75C400.164 267.166 401.367 266.856 402.811 266.272C404.564 265.688 406.042 265.103 407.83 264.794C408.414 264.484 409.308 264.484 409.892 264.209H410.202C411.37 263.9 412.264 263.625 413.433 263.625C414.602 263.316 415.496 263.041 416.664 263.041C418.142 262.731 419.311 262.456 420.789 262.456C421.958 262.147 423.436 262.147 424.605 262.147C426.083 262.147 427.561 261.837 428.73 261.837H437.874C443.477 262.147 448.771 263.006 454.374 264.209C473.246 268.644 490.021 278.647 502.706 292.81C504.459 294.563 505.937 296.625 507.725 298.688C510.372 302.229 512.743 306.044 515.081 309.894C508 311.648 500.953 314.019 494.456 316.976C487.959 306.972 479.434 298.688 469.396 292.81H469.98C468.502 291.916 466.749 291.057 464.962 290.163C463.484 289.578 462.315 288.994 460.837 288.41C460.527 288.41 460.252 288.1 459.943 288.1C456.712 286.932 453.171 285.728 449.63 285.144C449.046 285.144 448.461 284.835 447.877 284.835C447.293 284.835 446.708 284.525 446.124 284.525C445.54 283.941 445.23 283.632 444.955 283.632H444.852V283.597ZM553.581 520.788C546.5 522.541 539.144 523.16 532.062 523.16C517.934 523.16 503.771 519.929 490.812 513.741V488.991L491.121 489.3C507.931 500.781 528.831 504.631 548.597 499.922C587.785 490.778 611.951 451.281 602.807 412.402C600.744 403.568 597.204 395.592 592.494 388.545C583.351 374.692 569.497 364.689 553.891 359.67C541.825 355.854 528.556 355.236 515.287 358.192C497.309 362.626 481.703 373.214 471.665 388.545C471.081 389.439 470.496 390.299 470.187 390.917C469.293 392.396 469.018 394.149 469.018 395.627V527.044L447.224 534.401V390.299C447.224 389.714 447.224 389.13 447.533 388.545C447.533 387.652 447.843 386.792 448.427 386.174C461.112 361.423 483.799 343.754 510.887 337.532C525.325 333.992 539.763 334.301 553.306 337.223C581.013 343.41 605.179 362.283 617.829 388.511C620.785 394.389 622.848 400.886 624.601 407.383C635.498 458.087 604.251 509.066 553.581 520.857V520.788Z"
			fill="white" />
	</g>
	<defs>
		<clipPath id="clip0_1_10531">
			<rect width="2310.03" height="780.32" fill="white" />
		</clipPath>
	</defs>
</svg>