<svg width="1658" height="292" viewBox="0 0 1658 292" fill="none" xmlns="http://www.w3.org/2000/svg">
    <path
        d="M583.364 110.442C577.969 115.055 571.795 118.65 565.112 121.226C558.429 123.803 551.236 125.091 544.043 125.091C538.378 125.091 532.984 124.312 527.859 123.024C522.734 121.736 517.849 119.429 513.473 116.853C508.858 114.277 504.992 110.951 501.155 107.357C497.559 103.762 494.232 99.6581 491.655 95.0449C489.077 90.4316 487.039 85.7885 485.481 80.666C483.953 75.5436 483.413 70.1515 483.413 64.4898C483.413 58.8281 484.192 53.4361 485.481 48.3136C487.01 43.1911 489.077 38.3083 491.655 33.9347C494.232 29.3215 497.559 25.4572 501.155 21.6229C504.752 18.0281 508.858 14.703 513.473 12.1268C518.089 9.55059 522.734 7.51359 527.859 5.95588C532.984 4.39817 538.378 3.88892 544.043 3.88892C551.236 3.88892 558.429 5.17702 565.112 7.75324C571.795 10.3294 577.969 13.9242 583.364 18.5374L571.046 39.0872C567.719 35.4924 563.583 32.407 558.968 30.6096C554.353 28.8123 549.467 27.5242 544.313 27.5242C539.158 27.5242 534.303 28.5427 529.657 30.34C525.042 32.407 521.176 34.9532 517.849 38.3083C514.522 41.6634 511.675 45.4977 509.877 50.1109C507.809 54.7242 507.06 59.607 507.06 64.4898C507.06 69.6123 508.079 74.4951 509.877 78.8686C511.945 83.4819 514.492 87.3462 517.849 90.6713C521.206 93.9964 525.311 96.8422 529.657 98.6396C534.273 100.707 538.918 101.455 544.313 101.455C549.707 101.455 554.323 100.437 558.968 98.37C563.613 96.303 567.689 93.4871 571.046 89.8924L583.364 110.442Z"
        fill="#477245" />
    <path d="M620.646 122.514H597.27V5.14709H620.646V122.514Z" fill="#477245" />
    <path
        d="M665.842 122.514H642.465V5.14709H689.488C693.864 5.14709 697.97 5.65634 701.806 6.94445C705.672 7.96295 709.508 9.76031 712.865 11.5577C716.192 13.6246 719.548 16.1709 722.366 19.0167C725.183 21.8625 727.76 25.1876 729.828 28.5127C731.896 32.1074 733.425 35.7022 734.444 39.8061C735.463 43.6704 736.242 48.0141 736.242 52.118C736.242 56.222 735.732 60.0863 734.713 63.9206C733.694 67.755 732.136 71.3797 730.338 74.7048C728.539 78.0299 726.232 81.385 723.414 84.2008C720.597 87.0167 717.75 89.5929 714.154 91.6599L727.251 122.215H702.315L692.036 98.5797L665.842 98.8493V122.485V122.514ZM665.842 28.5127V75.5136H689.218C692.545 75.5136 695.392 75.0044 698.209 73.7163C701.027 72.4282 703.604 70.9004 705.672 68.5938C707.74 66.2872 709.538 63.9806 710.797 61.1347C712.086 58.3189 712.595 55.2334 712.595 51.8784C712.595 48.5233 712.086 45.7074 710.797 42.622C709.508 39.8061 707.98 37.2299 705.672 35.1629C703.604 33.096 701.057 31.2986 698.209 30.0405C695.362 28.7823 692.305 28.2431 689.218 28.2431H665.842V28.5127Z"
        fill="#477245" />
    <path
        d="M775.054 122.514H751.677V5.14709H798.7C803.076 5.14709 807.182 5.65634 811.018 6.94445C814.884 7.96295 818.72 9.76031 822.077 11.5577C825.404 13.6246 828.76 16.1709 831.577 19.0167C834.395 21.8625 836.972 25.1876 839.04 28.5127C841.108 32.1074 842.636 35.7022 843.655 39.8061C844.674 43.6704 845.454 48.0141 845.454 52.118C845.454 56.222 844.944 60.0863 843.925 63.9206C842.906 67.755 841.348 71.3797 839.549 74.7048C837.751 78.0299 835.444 81.385 832.626 84.2008C829.809 87.0167 826.962 89.5929 823.366 91.6599L836.462 122.215H811.527L801.247 98.5797L775.054 98.8493V122.485V122.514ZM775.054 28.5127V75.5136H798.43C801.757 75.5136 804.604 75.0044 807.421 73.7163C810.239 72.4282 812.816 70.9004 814.884 68.5938C816.952 66.5268 818.75 63.9806 820.009 61.1347C821.298 58.3189 821.807 55.2334 821.807 51.8784C821.807 48.5233 821.298 45.7074 820.009 42.622C818.72 39.8061 817.192 37.2299 814.884 35.1629C812.816 33.096 810.269 31.2986 807.421 30.0405C804.574 28.7823 801.517 28.2431 798.43 28.2431H775.054V28.5127Z"
        fill="#477245" />
    <path
        d="M953.107 75.5136C953.107 81.9242 951.818 88.0951 949.51 93.7568C946.933 99.4184 943.606 104.271 939.5 108.645C935.125 112.749 930.239 116.104 924.605 118.65C918.941 121.226 912.797 122.245 906.353 122.245C899.91 122.245 893.766 120.957 888.101 118.65C882.437 116.074 877.582 112.749 873.206 108.645C869.1 104.541 865.744 99.3885 863.196 93.7568C860.649 88.1251 859.6 81.9541 859.6 75.5136V5.14709H882.976V75.5136C882.976 78.8387 883.486 81.6845 884.775 84.5004C886.063 87.3163 887.592 89.8925 889.9 91.9594C891.968 94.0264 894.515 95.8237 897.362 97.0819C900.209 98.34 903.266 98.8792 906.623 98.8792C909.98 98.8792 912.797 98.37 915.614 97.0819C918.431 95.7938 921.009 94.266 923.077 91.9594C925.145 89.8925 926.943 87.3462 928.202 84.5004C929.49 81.6845 930 78.5991 930 75.5136V5.14709H953.377V75.5136H953.107Z"
        fill="#477245" />
    <path
        d="M966.713 40.3154C966.713 35.4325 967.732 30.8193 969.53 26.7154C971.328 22.3418 973.906 18.7471 976.993 15.6616C980.08 12.5761 983.916 9.99994 988.052 8.20259C992.427 6.40523 996.773 5.38672 1001.66 5.38672H1055.6V28.7524H1001.66C1000.13 28.7524 998.571 29.022 997.043 29.7709C995.514 30.2801 994.465 31.2986 993.446 32.3471C992.427 33.3955 991.648 34.6537 990.869 35.9418C990.359 37.4696 990.09 38.7577 990.09 40.555C990.09 42.0828 990.359 43.6405 990.869 45.1682C991.378 46.696 992.397 47.9841 993.446 49.0325C994.495 50.081 995.754 50.8299 997.043 51.6088C998.571 52.118 1000.13 52.3876 1001.66 52.3876H1025.03C1029.92 52.3876 1034.54 53.4061 1038.64 55.2035C1043.02 57.0008 1046.61 59.577 1049.94 62.6625C1053.03 65.748 1055.6 69.5823 1057.4 73.9559C1059.2 78.3295 1060.22 82.6731 1060.22 87.5559C1060.22 92.4387 1059.2 97.0519 1057.4 101.156C1055.6 105.529 1053.03 109.124 1049.94 112.21C1046.85 115.295 1043.02 117.871 1038.64 119.669C1034.27 121.466 1029.92 122.485 1025.03 122.485H972.887V99.1189H1025.03C1026.56 99.1189 1028.12 98.8493 1029.65 98.34C1031.18 97.8308 1032.23 96.8123 1033.25 95.7638C1034.27 94.7154 1035.05 93.4572 1035.82 92.1691C1036.6 90.881 1036.6 89.3532 1036.6 87.5559C1036.6 86.0281 1036.33 84.4704 1035.82 82.9427C1035.31 81.4149 1034.3 80.3665 1033.25 79.348C1032.2 78.3295 1030.94 77.5506 1029.65 76.7718C1028.36 76.2625 1026.83 75.9929 1025.03 75.9929H1001.66C996.773 75.9929 992.158 74.9744 988.052 73.177C983.676 71.3797 980.08 68.8035 976.993 65.718C973.906 62.6325 971.328 58.7982 969.53 54.4246C967.732 49.8114 966.713 45.1682 966.713 40.2854V40.3154Z"
        fill="#477245" />
    <path
        d="M1216.45 110.442C1211.06 115.055 1204.89 118.65 1198.2 121.226C1191.52 123.803 1184.33 125.091 1177.13 125.091C1171.47 125.091 1166.34 124.312 1160.95 123.024C1155.82 121.496 1150.94 119.429 1146.56 116.853C1141.95 114.277 1138.08 110.951 1134.25 107.357C1130.65 103.762 1127.32 99.6581 1124.75 95.0449C1122.17 90.4316 1120.13 85.7885 1118.57 80.666C1117.01 75.5436 1116.5 70.1515 1116.5 64.4898C1116.5 58.8281 1117.28 53.4361 1118.57 48.3136C1120.1 43.1911 1122.17 38.3083 1124.75 33.9347C1127.32 29.3215 1130.65 25.4572 1134.25 21.6229C1137.84 18.0281 1141.95 14.703 1146.56 12.1268C1151.18 9.55059 1155.82 7.51359 1160.95 5.95588C1166.07 4.39817 1171.47 3.88892 1177.13 3.88892C1184.33 3.88892 1191.52 5.17702 1198.2 7.75324C1204.89 10.3294 1211.06 13.9242 1216.45 18.5374L1204.14 39.0872C1200.81 35.4924 1196.67 32.407 1192.06 30.6096C1187.44 28.5427 1182.56 27.5242 1177.4 27.5242C1172.25 27.5242 1167.39 28.5427 1162.75 30.34C1158.13 32.407 1154.27 34.9532 1150.94 38.3083C1147.61 41.6334 1144.77 45.4977 1142.97 50.1109C1140.9 54.7242 1140.15 59.607 1140.15 64.4898C1140.15 69.6123 1141.17 74.4951 1142.97 78.8686C1145.04 83.4819 1147.58 87.3462 1150.94 90.6713C1154.27 93.9964 1158.4 96.8422 1162.75 98.6396C1167.36 100.707 1172.25 101.455 1177.4 101.455C1182.56 101.455 1187.41 100.437 1192.06 98.37C1196.67 96.303 1200.78 93.4871 1204.14 89.8924L1216.45 110.442Z"
        fill="#477245" />
    <path d="M1312.27 122.514H1230.06V5.14709H1253.44V98.8792H1312.03V122.514H1312.3H1312.27Z" fill="#477245" />
    <path
        d="M1435.36 64.2201C1435.36 69.8818 1434.58 75.2739 1433.29 80.3963C1432 85.5188 1429.69 90.4016 1427.12 94.7752C1424.54 99.3884 1421.45 103.253 1417.61 107.087C1414.02 110.682 1409.91 114.007 1405.3 116.583C1400.92 119.159 1396.04 121.196 1390.91 122.754C1385.79 124.312 1380.39 124.821 1374.73 124.821C1369.06 124.821 1363.94 124.042 1358.54 122.754C1353.42 121.226 1348.53 119.159 1344.16 116.583C1339.54 114.007 1335.68 110.682 1331.84 107.087C1328.24 103.492 1324.92 99.3884 1322.34 94.7752C1319.76 90.162 1317.72 85.5188 1316.17 80.3963C1314.61 75.2739 1314.1 69.8818 1314.1 64.2201C1314.1 58.5585 1314.88 53.1664 1316.17 48.0439C1317.69 42.9215 1319.76 38.0386 1322.34 33.6651C1324.92 29.2915 1328.24 25.1875 1331.84 21.3532C1335.44 17.7585 1339.54 14.4334 1344.16 11.8571C1348.77 9.28094 1353.42 7.24394 1358.54 5.68623C1363.67 4.12852 1369.06 3.61926 1374.73 3.61926C1380.39 3.61926 1385.79 4.39812 1390.91 5.68623C1396.04 7.21398 1400.92 9.28094 1405.3 11.8571C1409.67 14.4334 1413.78 17.5188 1417.61 21.3532C1421.21 24.9479 1424.54 29.0519 1427.12 33.6651C1429.69 38.0386 1431.73 42.9215 1433.29 48.0439C1434.58 53.436 1435.36 58.8281 1435.36 64.2201ZM1411.98 64.2201C1411.98 59.0977 1410.96 54.2149 1409.16 49.8413C1407.1 45.2281 1404.55 41.3637 1401.19 38.0386C1397.83 34.7135 1394 32.1373 1389.38 30.0704C1384.77 28.0034 1379.88 27.2545 1374.73 27.2545C1369.57 27.2545 1364.72 28.273 1360.07 30.0704C1355.46 32.1373 1351.59 34.6836 1348.26 38.0386C1344.94 41.3937 1342.09 45.2281 1340.29 49.8413C1338.22 54.4545 1337.47 59.3373 1337.47 64.2201C1337.47 69.3426 1338.49 74.2254 1340.29 78.599C1342.36 83.2122 1344.91 87.0765 1348.26 90.4016C1351.62 93.7267 1355.73 96.5726 1360.07 98.3699C1364.69 100.437 1369.57 101.186 1374.73 101.186C1379.88 101.186 1384.74 100.167 1389.38 98.3699C1394 96.3029 1397.86 93.7567 1401.19 90.4016C1404.52 87.0466 1407.1 83.2122 1409.16 78.599C1410.96 74.2254 1411.98 69.3426 1411.98 64.2201Z"
        fill="#477245" />
    <path
        d="M1543.25 75.5136C1543.25 81.9242 1541.96 88.0951 1539.65 93.7568C1537.08 99.4184 1533.75 104.271 1529.64 108.645C1525.27 112.749 1520.38 116.104 1514.75 118.65C1509.11 121.196 1502.94 122.245 1496.5 122.245C1490.05 122.245 1483.91 120.957 1478.24 118.65C1472.58 116.074 1467.73 112.749 1463.35 108.645C1459.24 104.541 1455.89 99.3885 1453.34 93.7568C1450.79 88.1251 1449.74 81.9541 1449.74 75.5136V5.14709H1473.12V75.5136C1473.12 78.8387 1473.63 81.6845 1474.92 84.5004C1476.21 87.3163 1477.74 89.8925 1480.04 91.9594C1482.11 94.0264 1484.66 95.8237 1487.51 97.0819C1490.32 98.37 1493.41 98.8792 1496.77 98.8792C1500.12 98.8792 1502.94 98.37 1505.76 97.0819C1508.57 95.7938 1511.15 94.266 1513.22 91.9594C1515.29 89.8925 1517.09 87.3462 1518.35 84.5004C1519.63 81.6845 1520.14 78.5991 1520.14 75.5136V5.14709H1543.52V75.5136H1543.25Z"
        fill="#477245" />
    <path
        d="M1657.59 63.681C1657.59 69.0731 1656.81 74.1955 1655.52 79.348C1654.23 84.2308 1652.19 89.1136 1649.61 93.2176C1647.04 97.5911 1643.95 101.425 1640.35 105.02C1636.76 108.615 1632.89 111.7 1628.55 114.277C1624.17 116.853 1619.55 118.89 1614.4 120.178C1609.51 121.466 1604.12 122.245 1598.73 122.245H1563.27V5.14709H1598.73C1604.12 5.14709 1609.24 5.92593 1614.4 7.21404C1619.28 8.50215 1624.17 10.5392 1628.55 13.1154C1632.92 15.6916 1636.76 18.7771 1640.35 22.3718C1643.95 25.9665 1647.04 29.8308 1649.61 34.1744C1652.19 38.518 1654.23 43.1612 1655.52 48.044C1656.81 53.1665 1657.59 58.3189 1657.59 63.711V63.681ZM1633.94 63.681C1633.94 58.7982 1632.92 54.185 1631.12 50.081C1629.32 45.9771 1626.75 42.1127 1623.66 39.0273C1620.57 35.9418 1616.74 33.3656 1612.36 31.5682C1607.99 29.7709 1603.64 28.7524 1598.76 28.7524H1586.95V99.1189H1598.76C1603.64 99.1189 1608.26 98.1004 1612.36 96.303C1616.74 94.5057 1620.33 91.9295 1623.66 88.844C1626.75 85.7585 1629.32 81.9242 1631.12 77.5506C1632.92 73.177 1633.94 68.5638 1633.94 63.681Z"
        fill="#477245" />
    <path
        d="M583.364 109.933C577.969 114.546 571.795 118.141 565.112 120.717C558.429 123.293 551.236 124.581 544.043 124.581C538.378 124.581 532.984 123.803 527.859 122.514C522.734 120.987 517.849 118.92 513.473 116.344C508.858 113.767 504.992 110.442 501.155 106.847C497.559 103.253 494.232 99.1488 491.655 94.5356C489.077 89.9224 487.039 85.2792 485.481 80.1567C483.953 75.0343 483.413 69.6422 483.413 63.9805C483.413 58.3189 484.192 52.9268 485.481 47.8043C487.01 42.6818 489.077 37.799 491.655 33.4254C494.232 28.8122 497.559 24.9479 501.155 21.1136C504.752 17.5188 508.858 14.1937 513.473 11.6175C518.089 9.04131 522.734 7.00432 527.859 5.44661C532.984 3.8889 538.378 3.37964 544.043 3.37964C551.236 3.37964 558.429 4.66775 565.112 7.24396C571.795 9.82017 577.969 13.4149 583.364 18.0281L571.046 38.5779C567.719 34.9832 563.583 31.8977 558.968 30.1003C554.353 28.303 549.467 27.0149 544.313 27.0149C539.158 27.0149 534.303 28.0334 529.657 29.8307C525.042 31.8977 521.176 34.4439 517.849 37.799C514.522 41.1541 511.675 44.9884 509.877 49.6017C507.809 54.2149 507.06 59.0977 507.06 63.9805C507.06 69.103 508.079 73.9858 509.877 78.3594C511.945 82.9726 514.492 86.8369 517.849 90.162C521.206 93.4871 525.311 96.3329 529.657 98.1303C534.273 100.197 538.918 100.946 544.313 100.946C549.707 100.946 554.323 99.9277 558.968 97.8607C563.613 95.7937 567.689 92.9779 571.046 89.3832L583.364 109.933Z"
        fill="#477245" />
    <path d="M620.646 121.975H597.27V4.60791H620.646V121.975Z" fill="#477245" />
    <path
        d="M665.842 121.975H642.465V4.60791H689.488C693.864 4.60791 697.97 5.11716 701.806 6.40526C705.672 7.42376 709.508 9.22112 712.865 11.0185C716.192 13.0854 719.548 15.6317 722.366 18.4775C725.183 21.3233 727.76 24.6484 729.828 27.9735C731.896 31.5682 733.425 35.163 734.444 39.2669C735.463 43.1313 736.242 47.4749 736.242 51.5788C736.242 55.6828 735.732 59.5471 734.713 63.3815C733.694 67.2158 732.136 70.8405 730.338 74.1656C728.539 77.4907 726.232 80.8458 723.414 83.6617C720.597 86.4775 717.75 89.0537 714.154 91.1207L727.251 121.676H702.315L692.036 98.0405L665.842 98.3101V121.945V121.975ZM665.842 28.2432V75.244H689.218C692.545 75.244 695.392 74.7348 698.209 73.4467C701.027 72.1586 703.604 70.6308 705.672 68.3242C707.74 66.2572 709.538 63.711 710.797 60.8652C712.086 58.0493 712.595 54.9638 712.595 51.6088C712.595 48.2537 712.086 45.4379 710.797 42.3524C709.508 39.5365 707.98 36.9603 705.672 34.8934C703.604 32.8264 701.057 31.029 698.209 29.7709C695.362 28.5127 692.305 27.9735 689.218 27.9735H665.842V28.2432Z"
        fill="#477245" />
    <path
        d="M775.054 121.975H751.677V4.60791H798.7C803.076 4.60791 807.182 5.11716 811.018 6.40526C814.884 7.42376 818.72 9.22112 822.077 11.0185C825.404 13.0854 828.76 15.6317 831.577 18.4775C834.395 21.3233 836.972 24.6484 839.04 27.9735C841.108 31.5682 842.636 35.163 843.655 39.2669C844.674 43.1313 845.454 47.4749 845.454 51.5788C845.454 55.6828 844.944 59.5471 843.925 63.3815C842.906 67.2158 841.348 70.8405 839.549 74.1656C837.751 77.4907 835.444 80.8458 832.626 83.6617C829.809 86.4775 826.962 89.0537 823.366 91.1207L836.462 121.676H811.527L801.247 98.0405L775.054 98.5498V121.915V121.975ZM775.054 28.2432V75.244H798.43C801.757 75.244 804.604 74.7348 807.421 73.4467C810.239 72.1586 812.816 70.6308 814.884 68.3242C816.952 66.2572 818.75 63.711 820.009 60.8652C821.298 58.0493 821.807 54.9638 821.807 51.6088C821.807 48.2537 821.298 45.4379 820.009 42.3524C818.72 39.5365 817.192 36.9603 814.884 34.8934C812.816 32.8264 810.269 31.029 807.421 29.7709C804.574 28.5127 801.517 27.9735 798.43 27.9735H775.054V28.2432Z"
        fill="#477245" />
    <path
        d="M953.107 75.244C953.107 81.6546 951.818 87.8255 949.51 93.4872C946.933 99.1489 943.606 104.002 939.5 108.375C935.125 112.479 930.239 115.834 924.605 118.381C918.941 120.957 912.797 121.975 906.353 121.975C899.91 121.975 893.766 120.687 888.101 118.381C882.437 115.804 877.582 112.479 873.206 108.375C869.1 104.271 865.744 99.1189 863.196 93.4872C860.649 87.8555 859.6 81.6845 859.6 75.244V4.60791H882.976V74.9744C882.976 78.2995 883.486 81.1453 884.775 83.9612C886.063 86.7771 887.592 89.3533 889.9 91.4202C891.968 93.4872 894.515 95.2845 897.362 96.5427C900.209 97.8008 903.266 98.34 906.623 98.34C909.98 98.34 912.797 97.8308 915.614 96.5427C918.431 95.2546 921.009 93.7268 923.077 91.4202C925.145 89.3533 926.943 86.807 928.202 83.9612C929.49 81.1453 930 78.0599 930 74.9744V4.60791H953.377V75.244H953.107Z"
        fill="#477245" />
    <path
        d="M966.713 39.8061C966.713 34.9233 967.732 30.3101 969.53 26.2061C971.328 21.8325 973.906 18.2378 976.993 15.1523C980.08 12.0669 983.916 9.49067 988.052 7.69331C992.427 5.89595 996.773 4.87744 1001.66 4.87744H1055.6V28.2431H1001.66C1000.13 28.2431 998.571 28.5127 997.043 29.2616C995.514 29.7708 994.465 30.7893 993.446 31.8378C992.427 32.8863 991.648 34.1444 990.869 35.4325C990.359 36.9603 990.09 38.2484 990.09 40.0457C990.09 41.5735 990.359 43.1312 990.869 44.6589C991.378 46.1867 992.397 47.4748 993.446 48.5233C994.495 49.5717 995.754 50.3206 997.043 51.0995C998.571 51.6087 1000.13 51.8783 1001.66 51.8783H1025.03C1029.92 51.8783 1034.54 52.8968 1038.64 54.6942C1043.02 56.4915 1046.61 59.0678 1049.94 62.1532C1053.03 65.2387 1055.6 69.073 1057.4 73.4466C1059.2 77.8202 1060.22 82.1638 1060.22 87.0466C1060.22 91.9294 1059.2 96.5427 1057.4 100.647C1055.6 105.02 1053.03 108.615 1049.94 111.7C1046.85 114.786 1043.02 117.362 1038.64 119.159C1034.27 120.957 1029.92 121.975 1025.03 121.975H972.887V98.6096H1025.03C1026.56 98.6096 1028.12 98.34 1029.65 97.8307C1031.18 97.3215 1032.23 96.303 1033.25 95.2545C1034.27 94.2061 1035.05 92.9479 1035.82 91.6598C1036.6 90.3717 1036.6 88.844 1036.6 87.0466C1036.6 85.5189 1036.33 83.9611 1035.82 82.4334C1035.31 80.9056 1034.3 79.8572 1033.25 78.8387C1032.2 77.8202 1030.94 77.0413 1029.65 76.2625C1028.36 75.7532 1026.83 75.4836 1025.03 75.4836H1001.66C996.773 75.4836 992.158 74.4651 988.052 72.6677C983.946 70.8704 980.08 68.2942 976.993 65.2087C973.906 62.1233 971.328 58.2889 969.53 53.9153C967.732 49.3021 966.713 44.6589 966.713 39.7761V39.8061Z"
        fill="#477245" />
    <path
        d="M1216.45 109.933C1211.06 114.546 1204.89 118.141 1198.2 120.717C1191.52 123.293 1184.33 124.581 1177.13 124.581C1171.47 124.581 1166.34 123.803 1160.95 122.514C1155.82 120.987 1150.94 118.92 1146.56 116.344C1141.95 113.767 1138.08 110.442 1134.25 106.847C1130.41 103.253 1127.32 99.1488 1124.75 94.5356C1122.17 89.9224 1120.13 85.2792 1118.57 80.1567C1117.01 75.0343 1116.5 69.6422 1116.5 63.9805C1116.5 58.3189 1117.28 52.9268 1118.57 47.8043C1120.1 42.6818 1122.17 37.799 1124.75 33.4254C1127.32 28.8122 1130.65 24.9479 1134.25 21.1136C1137.84 17.5188 1141.95 14.1937 1146.56 11.6175C1151.18 9.04131 1155.82 7.00432 1160.95 5.44661C1166.07 3.8889 1171.47 3.37964 1177.13 3.37964C1184.33 3.37964 1191.52 4.66775 1198.2 7.24396C1204.89 9.82017 1211.06 13.4149 1216.45 18.0281L1204.14 38.5779C1200.81 34.9832 1196.67 31.8977 1192.06 30.1003C1187.44 28.0334 1182.56 27.0149 1177.4 27.0149C1172.25 27.0149 1167.39 28.0334 1162.75 29.8307C1158.13 31.8977 1154.27 34.4439 1150.94 37.799C1147.61 41.1241 1144.77 44.9884 1142.97 49.6017C1140.9 54.2149 1140.15 59.0977 1140.15 63.9805C1140.15 69.103 1141.17 73.9858 1142.97 78.3594C1145.04 82.9726 1147.58 86.8369 1150.94 90.162C1154.27 93.4871 1158.4 96.3329 1162.75 98.1303C1167.36 100.197 1172.25 100.946 1177.4 100.946C1182.56 100.946 1187.41 99.9277 1192.06 97.8607C1196.67 95.7937 1200.78 92.9779 1204.14 89.3832L1216.45 109.933Z"
        fill="#477245" />
    <path d="M1312.27 121.975H1230.06V4.60791H1253.44V98.34H1312.03V121.975H1312.3H1312.27Z" fill="#477245" />
    <path
        d="M1435.36 63.9506C1435.36 69.6123 1434.58 75.0044 1433.29 80.1268C1432 85.2493 1429.69 90.1321 1427.12 94.5057C1424.54 99.1189 1421.45 102.983 1417.61 106.818C1414.02 110.412 1409.91 113.737 1405.3 116.314C1400.92 118.89 1396.04 120.927 1390.91 122.485C1385.79 124.042 1380.39 124.551 1374.73 124.551C1369.06 124.551 1363.94 123.773 1358.54 122.485C1353.42 120.957 1348.53 118.89 1344.16 116.314C1339.54 113.737 1335.68 110.412 1331.84 106.818C1328.24 103.223 1324.92 99.1189 1322.34 94.5057C1319.76 89.8925 1317.72 85.2493 1316.17 80.1268C1314.61 75.0044 1314.1 69.6123 1314.1 63.9506C1314.1 58.2889 1314.88 52.8969 1316.17 47.7744C1317.69 42.6519 1319.76 37.7691 1322.34 33.3956C1324.92 29.022 1328.24 24.918 1331.84 21.0837C1335.44 17.489 1339.54 14.1638 1344.16 11.5876C1348.77 9.01141 1353.42 6.97441 1358.54 5.4167C1363.67 3.85899 1369.06 3.34973 1374.73 3.34973C1380.39 3.34973 1385.79 4.12859 1390.91 5.4167C1396.04 6.94445 1400.92 9.01141 1405.3 11.5876C1409.67 14.1638 1413.78 17.2493 1417.61 21.0837C1421.21 24.6784 1424.54 28.7823 1427.12 33.3956C1429.69 37.7691 1431.73 42.6519 1433.29 47.7744C1434.58 52.8969 1435.36 58.2889 1435.36 63.9506ZM1411.98 63.9506C1411.98 58.8282 1410.96 53.9453 1409.16 49.5718C1407.37 45.1982 1404.55 41.0942 1401.19 37.7691C1397.83 34.444 1394 31.8678 1389.38 29.8008C1384.77 27.7339 1379.88 26.985 1374.73 26.985C1369.57 26.985 1364.72 28.0035 1360.07 29.8008C1355.46 31.8678 1351.59 34.4141 1348.26 37.7691C1344.94 41.1242 1342.09 44.9585 1340.29 49.5718C1338.49 54.185 1337.47 59.0678 1337.47 63.9506C1337.47 69.0731 1338.49 73.9559 1340.29 78.3295C1342.36 82.9427 1344.91 86.807 1348.26 90.1321C1351.62 93.4572 1355.73 96.303 1360.07 98.1004C1364.69 100.167 1369.57 100.916 1374.73 100.916C1379.88 100.916 1384.74 99.8978 1389.38 98.1004C1394 96.0334 1397.86 93.4872 1401.19 90.1321C1404.52 86.777 1407.1 82.9427 1409.16 78.3295C1410.96 73.7163 1411.98 69.0731 1411.98 63.9506Z"
        fill="#477245" />
    <path
        d="M1543.25 75.244C1543.25 81.6546 1541.96 87.8255 1539.65 93.4872C1537.08 99.1489 1533.75 104.002 1529.64 108.375C1525.27 112.479 1520.38 115.834 1514.75 118.381C1509.11 120.927 1502.94 121.975 1496.5 121.975C1490.05 121.975 1483.91 120.687 1478.24 118.381C1472.58 115.804 1467.73 112.479 1463.35 108.375C1459.24 104.271 1455.89 99.1189 1453.34 93.4872C1450.79 87.8555 1449.74 81.6845 1449.74 75.244V4.60791H1473.12V74.9744C1473.12 78.2995 1473.63 81.1453 1474.92 83.9612C1476.21 86.7771 1477.74 89.3533 1480.04 91.4202C1482.11 93.4872 1484.66 95.2845 1487.51 96.5427C1490.32 97.8308 1493.41 98.34 1496.77 98.34C1500.12 98.34 1502.94 97.8308 1505.76 96.5427C1508.57 95.2546 1511.15 93.7268 1513.22 91.4202C1515.29 89.3533 1517.09 86.807 1518.35 83.9612C1519.63 81.1453 1520.14 78.0599 1520.14 74.9744V4.60791H1543.52V75.244H1543.25Z"
        fill="#477245" />
    <path
        d="M1657.59 63.4414C1657.59 68.8334 1656.81 73.9559 1655.52 79.1083C1654.23 83.9911 1652.19 88.874 1649.61 92.9779C1647.04 97.3515 1643.95 101.186 1640.35 104.781C1636.76 108.375 1632.89 111.461 1628.55 114.037C1624.17 116.613 1619.55 118.65 1614.4 119.938C1609.51 121.226 1604.12 122.005 1598.73 122.005H1563.27V4.63782H1598.73C1604.12 4.63782 1609.24 5.41668 1614.4 6.70479C1619.28 7.99289 1624.17 10.0299 1628.55 12.6061C1632.92 15.1823 1636.76 18.2678 1640.35 21.8625C1643.95 25.4572 1647.04 29.3215 1649.61 33.6651C1652.19 38.0088 1654.23 42.6519 1655.52 47.5347C1656.81 52.6572 1657.59 58.0493 1657.59 63.4713V63.4414ZM1633.94 63.4414C1633.94 58.5585 1632.92 53.9453 1631.12 49.8414C1629.32 45.7374 1626.75 41.8731 1623.66 38.7876C1620.57 35.7021 1616.74 33.1259 1612.36 31.3286C1607.99 29.5312 1603.64 28.5127 1598.76 28.5127H1586.95V98.8792H1598.76C1603.64 98.8792 1608.26 97.8607 1612.36 96.0634C1616.74 94.266 1620.33 91.6898 1623.66 88.6043C1626.75 85.5189 1629.32 81.6845 1631.12 77.311C1632.92 72.9374 1633.94 68.3242 1633.94 63.4414Z"
        fill="#477245" />
    <path d="M620.646 121.466H597.27V4.36816H620.646V121.466Z" fill="#477245" />
    <path
        d="M665.842 121.466H642.465V4.36816H689.488C693.864 4.36816 697.97 4.87741 701.806 6.16552C705.642 7.45362 709.508 8.98138 712.865 10.7787C716.192 12.8457 719.548 15.3919 722.366 18.2378C725.183 21.0836 727.76 24.4087 729.828 27.7338C731.896 31.3285 733.425 34.9232 734.444 39.0272C735.463 43.1312 736.242 47.2351 736.242 51.3391C736.242 55.4431 735.732 59.3074 734.713 63.1417C733.694 66.9761 732.136 70.6008 730.338 73.9259C728.539 77.251 726.232 80.606 723.414 83.4219C720.597 86.2378 717.75 88.814 714.154 90.8809L727.251 121.436H702.315L692.036 97.8008L665.842 98.0704V121.436V121.466ZM665.842 27.7338V74.7347H689.218C692.545 74.7347 695.392 74.2254 698.209 72.9373C701.027 71.6492 703.604 70.1215 705.672 67.8149C707.74 65.7479 709.538 63.2017 710.797 60.3558C712.086 57.54 712.595 54.4545 712.595 51.0994C712.595 47.7444 712.086 44.9285 710.797 41.8431C709.508 39.0272 707.98 36.451 705.672 34.384C703.604 32.3171 701.057 30.5197 698.209 29.2615C695.362 28.0034 692.305 27.4642 689.218 27.4642H665.842V27.7338Z"
        fill="#477245" />
    <path
        d="M775.054 121.466H751.677V4.36816H798.7C803.076 4.36816 807.182 4.87741 811.018 6.16552C814.854 7.45362 818.72 8.98138 822.077 10.7787C825.404 12.8457 828.76 15.3919 831.577 18.2378C834.395 21.0836 836.972 24.4087 839.04 27.7338C841.108 31.3285 842.636 34.9232 843.655 39.0272C844.674 43.1312 845.454 47.2351 845.454 51.3391C845.454 55.4431 844.944 59.3074 843.925 63.1417C842.906 66.9761 841.348 70.6008 839.549 73.9259C837.751 77.251 835.444 80.606 832.626 83.4219C829.809 86.2378 826.962 88.814 823.366 90.8809L836.462 121.436H811.527L801.247 97.8008L775.054 98.0704V121.436V121.466ZM775.054 27.7338V74.7347H798.43C801.757 74.7347 804.604 74.2254 807.421 72.9373C810.239 71.6492 812.816 70.1215 814.884 67.8149C816.952 65.7479 818.75 63.2017 820.009 60.3558C821.298 57.54 821.807 54.4545 821.807 51.0994C821.807 47.7444 821.298 44.9285 820.009 41.8431C818.72 39.0272 817.192 36.451 814.884 34.384C812.816 32.3171 810.269 30.5197 807.421 29.2615C804.574 28.0034 801.517 27.4642 798.43 27.4642H775.054V27.7338Z"
        fill="#477245" />
    <path
        d="M953.107 74.7347C953.107 81.1453 951.818 87.3162 949.51 92.9779C946.933 98.6395 943.606 103.492 939.5 107.866C935.125 111.97 930.239 115.325 924.605 117.871C918.941 120.447 912.797 121.466 906.353 121.466C899.91 121.466 893.766 120.178 888.101 117.871C882.437 115.295 877.582 111.97 873.206 107.866C869.1 103.762 865.744 98.6096 863.196 92.9779C860.649 87.3461 859.6 81.1752 859.6 74.7347V4.36816H882.976V74.7347C882.976 78.0598 883.486 80.9056 884.775 83.7215C886.063 86.5373 887.592 89.1135 889.9 91.1805C891.968 93.2474 894.515 95.0448 897.362 96.303C900.209 97.5611 903.266 98.1003 906.623 98.1003C909.98 98.1003 912.797 97.5911 915.614 96.303C918.431 95.0149 921.009 93.4871 923.077 91.1805C925.145 89.1135 926.943 86.5673 928.202 83.7215C929.49 80.9056 930 77.8201 930 74.7347V4.36816H953.377V74.7347H953.107Z"
        fill="#477245" />
    <path
        d="M966.713 39.5665C966.713 34.6836 967.732 30.0704 969.53 25.9665C971.328 21.5929 973.906 17.9982 976.993 14.9127C980.08 11.8272 983.916 9.25104 988.052 7.45368C992.427 5.65633 996.773 4.63782 1001.66 4.63782H1055.6V27.7638H1001.66C1000.13 27.7638 998.571 28.0334 997.043 28.7823C995.514 29.2916 994.465 30.3101 993.446 31.3585C992.427 32.407 991.648 33.6651 990.869 34.9532C990.359 36.481 990.09 37.7691 990.09 39.5665C990.09 41.0942 990.359 42.6519 990.869 44.1797C991.378 45.7074 992.397 46.9955 993.446 48.044C994.495 49.0925 995.754 49.8414 997.043 50.6202C998.571 51.1295 1000.13 51.3991 1001.66 51.3991H1025.03C1029.92 51.3991 1034.54 52.4176 1038.64 54.2149C1043.02 56.0123 1046.61 58.5885 1049.94 61.6739C1053.03 64.7594 1055.6 68.5938 1057.4 72.9673C1059.2 77.3409 1060.22 81.6845 1060.22 86.5674C1060.22 91.4502 1059.2 96.0634 1057.4 100.167C1055.6 104.541 1053.03 108.136 1049.94 111.221C1046.85 114.307 1043.02 116.883 1038.64 118.68C1034.27 120.477 1029.92 121.496 1025.03 121.496H972.887V98.1303H1025.03C1026.56 98.1303 1028.12 97.8607 1029.65 97.3515C1031.18 96.8422 1032.23 95.8237 1033.25 94.7753C1034.27 93.7268 1035.05 92.4687 1035.82 91.1805C1036.6 89.8924 1036.6 88.3647 1036.6 86.5674C1036.6 85.0396 1036.33 83.4819 1035.82 81.9541C1035.31 80.4264 1034.3 79.3779 1033.25 78.3594C1032.2 77.3409 1030.94 76.562 1029.65 75.7832C1028.36 75.2739 1026.83 75.0044 1025.03 75.0044H1001.66C996.773 75.0044 992.158 73.9858 988.052 72.1885C983.946 70.3911 980.08 67.8149 976.993 64.7295C973.906 61.644 971.328 57.8096 969.53 53.4361C967.732 48.8228 966.713 44.4493 966.713 39.5665Z"
        fill="#477245" />
    <path
        d="M1216.45 109.394C1211.06 114.007 1204.89 117.602 1198.2 120.178C1191.52 122.754 1184.33 124.042 1177.13 124.042C1171.47 124.042 1166.34 123.263 1160.95 121.975C1155.82 120.448 1150.94 118.381 1146.56 115.804C1141.95 113.228 1138.08 109.903 1134.25 106.308C1130.65 102.714 1127.32 98.6096 1124.75 93.9964C1122.17 89.3832 1120.13 84.74 1118.57 79.6175C1117.01 74.4951 1116.5 69.103 1116.5 63.4413C1116.5 57.7797 1117.28 52.3876 1118.57 47.2651C1120.1 42.1427 1122.17 37.2598 1124.75 32.8863C1127.32 28.273 1130.65 24.4087 1134.25 20.5744C1137.84 16.9797 1141.95 13.6546 1146.56 11.0783C1151.18 8.50213 1155.82 6.46513 1160.95 4.90742C1166.07 3.34971 1171.47 2.84045 1177.13 2.84045C1184.33 2.84045 1191.52 4.12856 1198.2 6.70477C1204.89 9.28099 1211.06 12.8757 1216.45 17.4889L1204.14 38.0387C1200.81 34.444 1196.67 31.3585 1192.06 29.5612C1187.44 27.4942 1182.56 26.4757 1177.4 26.4757C1172.25 26.4757 1167.39 27.4942 1162.75 29.2916C1158.13 31.3585 1154.27 33.9048 1150.94 37.2598C1147.61 40.5849 1144.77 44.4493 1142.97 49.0625C1140.9 53.6757 1140.15 58.5585 1140.15 63.4413C1140.15 68.5638 1141.17 73.4466 1142.97 77.8202C1145.04 82.4334 1147.58 86.2977 1150.94 89.6228C1154.27 92.9479 1158.4 95.7937 1162.75 97.5911C1167.36 99.6581 1172.25 100.407 1177.4 100.407C1182.56 100.407 1187.41 99.3885 1192.06 97.3215C1196.67 95.2545 1200.78 92.4387 1204.14 88.844L1216.45 109.394Z"
        fill="#477245" />
    <path d="M1312.27 121.466H1230.06V4.36816H1253.44V98.1003H1312.03V121.466H1312.3H1312.27Z" fill="#477245" />
    <path
        d="M1435.36 63.4413C1435.36 69.103 1434.58 74.4951 1433.29 79.6175C1432 84.74 1429.69 89.6228 1427.12 93.9964C1424.54 98.6096 1421.45 102.474 1417.61 106.308C1414.02 109.903 1409.91 113.228 1405.3 115.804C1400.92 118.381 1396.04 120.418 1390.91 121.975C1385.79 123.533 1380.39 124.042 1374.73 124.042C1369.06 124.042 1363.94 123.263 1358.54 121.975C1353.42 120.448 1348.53 118.381 1344.16 115.804C1339.54 113.228 1335.68 109.903 1331.84 106.308C1328.24 102.714 1324.92 98.6096 1322.34 93.9964C1319.76 89.3832 1317.72 84.74 1316.17 79.6175C1314.61 74.4951 1314.1 69.103 1314.1 63.4413C1314.1 57.7797 1314.88 52.3876 1316.17 47.2651C1317.69 42.1427 1319.76 37.2598 1322.34 32.8863C1324.92 28.5127 1328.24 24.4087 1331.84 20.5744C1335.44 16.9797 1339.54 13.6546 1344.16 11.0783C1348.77 8.50213 1353.42 6.46513 1358.54 4.90742C1363.67 3.34971 1369.06 2.84045 1374.73 2.84045C1380.39 2.84045 1385.79 3.61932 1390.91 4.90742C1396.04 6.43517 1400.92 8.50213 1405.3 11.0783C1409.67 13.6546 1413.78 16.74 1417.61 20.5744C1421.21 24.1691 1424.54 28.273 1427.12 32.8863C1429.69 37.2598 1431.73 42.1427 1433.29 47.2651C1434.58 52.3876 1435.36 57.7797 1435.36 63.4413ZM1411.98 63.4413C1411.98 58.3189 1410.96 53.436 1409.16 49.0625C1407.37 44.6889 1404.55 40.5849 1401.19 37.2598C1397.83 33.9347 1394 31.3585 1389.38 29.2916C1384.77 27.2246 1379.88 26.4757 1374.73 26.4757C1369.57 26.4757 1364.72 27.4942 1360.07 29.2916C1355.46 31.3585 1351.59 33.9048 1348.26 37.2598C1344.94 40.6149 1342.09 44.4493 1340.29 49.0625C1338.49 53.6757 1337.47 58.5585 1337.47 63.4413C1337.47 68.5638 1338.49 73.4466 1340.29 77.8202C1342.36 82.4334 1344.91 86.2977 1348.26 89.6228C1351.62 92.9479 1355.73 95.7937 1360.07 97.5911C1364.69 99.6581 1369.57 100.407 1374.73 100.407C1379.88 100.407 1384.74 99.3885 1389.38 97.5911C1394 95.5241 1397.86 92.9779 1401.19 89.6228C1404.52 86.2678 1407.1 82.4334 1409.16 77.8202C1410.96 73.4466 1411.98 68.5638 1411.98 63.4413Z"
        fill="#477245" />
    <path
        d="M1543.25 74.7347C1543.25 81.1453 1541.96 87.3162 1539.65 92.9779C1537.08 98.6395 1533.75 103.492 1529.64 107.866C1525.27 111.97 1520.38 115.325 1514.75 117.871C1509.11 120.418 1502.94 121.466 1496.5 121.466C1490.05 121.466 1483.91 120.178 1478.24 117.871C1472.58 115.295 1467.73 111.97 1463.35 107.866C1459.24 103.762 1455.89 98.6096 1453.34 92.9779C1450.79 87.3461 1449.74 81.1752 1449.74 74.7347V4.36816H1473.12V74.7347C1473.12 78.0598 1473.63 80.9056 1474.92 83.7215C1476.21 86.5373 1477.74 89.1135 1480.04 91.1805C1482.11 93.2474 1484.66 95.0448 1487.51 96.303C1490.32 97.5911 1493.41 98.1003 1496.77 98.1003C1500.12 98.1003 1502.94 97.5911 1505.76 96.303C1508.57 95.0149 1511.15 93.4871 1513.22 91.1805C1515.29 89.1135 1517.09 86.5673 1518.35 83.7215C1519.63 80.9056 1520.14 77.8201 1520.14 74.7347V4.36816H1543.52V74.7347H1543.25Z"
        fill="#477245" />
    <path
        d="M1657.59 62.9321C1657.59 68.3242 1656.81 73.4466 1655.52 78.5991C1654.23 83.4819 1652.19 88.3647 1649.61 92.4687C1647.04 96.8422 1643.95 100.677 1640.35 104.271C1636.76 107.866 1632.89 110.951 1628.55 113.528C1624.17 116.104 1619.55 118.141 1614.4 119.429C1609.51 120.717 1604.12 121.496 1598.73 121.496H1563.27V4.39819H1598.73C1604.12 4.39819 1609.24 5.17703 1614.4 6.46514C1619.28 7.75324 1624.17 9.79025 1628.55 12.3665C1632.92 14.9427 1636.76 18.0281 1640.35 21.6229C1643.95 25.2176 1647.04 29.0819 1649.61 33.4255C1652.19 37.7991 1654.23 42.4123 1655.52 47.2951C1656.81 52.4176 1657.59 57.57 1657.59 62.9621V62.9321ZM1633.94 62.9321C1633.94 58.0493 1632.92 53.4361 1631.12 49.3321C1629.32 45.2281 1626.75 41.3638 1623.66 38.2784C1620.57 35.1929 1616.74 32.6167 1612.36 30.8193C1607.99 29.022 1603.64 28.0035 1598.76 28.0035H1586.95V98.37H1598.76C1603.64 98.37 1608.26 97.3515 1612.36 95.5541C1616.74 93.7568 1620.33 91.1806 1623.66 88.0951C1626.75 85.0096 1629.32 81.1753 1631.12 76.8017C1632.92 72.4281 1633.94 67.8149 1633.94 62.9321Z"
        fill="#477245" />
    <path
        d="M523.514 289.669H500.137V172.571H547.16C551.536 172.571 555.642 173.08 559.478 174.368C563.344 175.387 567.18 177.184 570.537 178.981C573.863 181.048 577.22 183.595 580.037 186.44C582.855 189.256 585.432 192.611 587.5 195.936C589.568 199.531 591.096 203.126 592.115 207.23C593.134 211.094 593.914 215.438 593.914 219.542C593.914 225.952 592.625 232.123 590.317 237.785C587.74 243.447 584.413 248.569 580.307 252.673C575.931 257.047 571.046 260.372 565.412 262.678C559.748 265.255 553.604 266.273 547.16 266.273H523.783V289.639H523.514V289.669ZM523.514 195.936V242.937H546.89C550.217 242.937 553.064 242.428 555.881 241.14C558.699 239.852 561.276 238.324 563.344 236.018C565.412 233.951 567.21 231.404 568.469 228.559C569.728 225.713 570.267 222.657 570.267 219.302C570.267 215.947 569.758 213.131 568.469 210.046C567.18 207.23 565.652 204.654 563.344 202.587C561.276 200.52 558.729 198.722 555.881 197.464C553.064 196.176 549.977 195.667 546.89 195.667H523.514V195.936Z"
        fill="#477245" />
    <path d="M627.84 289.669H605.482V167.418H628.08V289.669H627.81H627.84Z" fill="#477245" />
    <path
        d="M729.559 289.669H724.164L715.443 277.596C713.375 279.394 711.067 281.191 708.76 282.988C706.452 284.516 703.875 286.074 701.297 287.362C698.72 288.65 695.903 289.669 693.325 290.178C690.508 290.957 687.661 291.196 684.843 291.196C678.67 291.196 672.766 290.178 667.371 288.111C661.976 286.044 657.091 282.988 653.225 279.124C649.119 275.26 646.032 270.407 643.724 264.745C641.417 259.084 640.128 252.433 640.128 245.214C640.128 237.995 641.417 232.123 643.724 226.462C646.032 220.8 649.389 215.947 653.225 211.813C657.331 207.709 661.946 204.624 667.371 202.317C672.766 200.011 678.67 198.992 684.843 198.992C687.661 198.992 690.508 199.262 693.325 200.01C696.142 200.789 698.72 201.808 701.537 202.826C704.114 204.114 706.662 205.642 708.999 207.2C711.307 208.997 713.615 210.795 715.683 212.592L724.404 202.317H729.799V289.639H729.529L729.559 289.669ZM707.201 245.244C707.201 242.159 706.692 239.343 705.403 236.257C704.114 233.441 702.586 230.865 700.518 228.559C698.45 226.252 696.142 224.694 693.325 223.166C690.508 221.878 687.661 221.1 684.604 221.1C681.547 221.1 678.7 221.609 675.882 222.627C673.065 223.646 670.757 225.203 668.959 227.24C666.891 229.307 665.363 231.854 664.344 234.699C663.325 237.545 662.546 241.11 662.546 244.974C662.546 248.839 663.055 252.164 664.344 255.249C665.633 258.335 667.161 260.641 668.959 262.708C671.027 264.775 673.335 266.303 675.882 267.322C678.7 268.34 681.547 268.849 684.604 268.849C687.661 268.849 690.508 268.07 693.325 266.782C696.142 265.494 698.45 263.697 700.518 261.39C702.586 259.084 704.114 256.777 705.403 253.692C706.692 251.115 707.201 248.299 707.201 245.214V245.244Z"
        fill="#477245" />
    <path
        d="M790.728 289.669C785.334 289.669 780.209 288.65 775.563 286.583C770.918 284.516 766.572 281.7 762.976 278.106C759.38 274.511 756.562 270.407 754.494 265.524C752.426 260.911 751.407 255.759 751.407 250.366V224.425H740.618V202.347H751.407V167.418H773.765V202.347H807.692V224.694H773.765V250.636C773.765 252.943 774.275 255.249 775.054 257.316C775.833 259.383 777.122 261.181 778.65 262.708C780.179 264.236 781.977 265.524 784.045 266.303C786.113 267.082 788.421 267.591 790.728 267.591H807.692V289.938H790.728V289.669Z"
        fill="#477245" />
    <path
        d="M848.541 289.669H826.183V224.455H815.394V202.107H826.183V198.003C826.183 192.611 827.202 187.489 829.27 182.846C831.338 178.233 834.155 173.859 837.751 170.534C841.348 166.939 845.454 164.123 850.339 162.326C855.224 160.529 860.109 159.24 865.504 159.24H882.197V181.588H865.504C863.196 181.588 860.888 182.097 858.82 182.876C856.753 183.655 854.954 184.943 853.426 186.47C851.897 187.998 850.848 189.796 849.829 191.863C849.05 193.929 848.541 196.236 848.541 198.543V202.647H876.023V224.994H848.541V289.699V289.669Z"
        fill="#477245" />
    <path
        d="M969.531 245.244C969.531 251.655 968.242 257.826 965.934 263.487C963.627 269.149 960.27 274.002 956.434 278.136C952.328 282.24 947.712 285.595 942.288 287.901C936.893 290.208 930.989 291.496 924.815 291.496C918.641 291.496 912.737 290.208 907.343 287.901C901.948 285.595 897.063 282.24 893.197 278.136C889.091 274.032 886.004 269.149 883.696 263.487C881.388 257.826 880.1 251.685 880.1 245.244C880.1 238.803 881.388 232.393 883.696 226.761C886.004 221.129 889.36 216.247 893.197 212.113C897.303 208.009 901.918 204.654 907.343 202.347C912.767 200.04 918.641 198.752 924.815 198.752C930.989 198.752 936.893 199.771 942.288 202.077C947.682 204.384 952.568 207.47 956.434 211.574C960.54 215.677 963.627 220.56 965.934 226.222C968.242 231.884 969.531 238.294 969.531 245.214V245.244ZM946.933 245.244C946.933 241.649 946.424 238.324 945.135 235.478C943.846 232.662 942.318 230.086 940.25 228.019C938.182 225.952 935.874 224.425 933.057 223.137C930.24 222.118 927.393 221.339 924.336 221.339C921.279 221.339 918.432 221.848 915.614 223.137C912.797 224.155 910.489 225.952 908.691 228.019C906.623 230.086 905.095 232.633 904.076 235.478C903.057 238.324 902.278 241.649 902.278 245.244C902.278 248.569 902.787 251.655 904.076 254.74C905.095 257.556 906.893 260.132 908.691 262.199C910.759 264.266 913.067 266.063 915.614 267.322C918.432 268.61 921.279 269.119 924.336 269.119C927.393 269.119 930.24 268.61 933.057 267.322C935.874 266.303 938.182 264.506 940.25 262.439C942.318 260.372 943.846 257.826 945.135 254.98C946.424 251.894 946.933 248.809 946.933 245.214V245.244Z"
        fill="#477245" />
    <path
        d="M1004.24 289.669H981.878V202.107H987.273L994.735 212.382C998.332 209.057 1002.44 206.481 1007.05 204.923C1011.67 203.126 1016.31 202.347 1021.2 202.347H1040.98V224.694H1021.2C1018.89 224.694 1016.58 225.203 1014.52 225.982C1012.45 226.761 1010.65 228.049 1009.12 229.577C1007.59 231.105 1006.3 232.902 1005.52 234.969C1004.75 237.036 1004.24 239.343 1004.24 241.649V289.669Z"
        fill="#477245" />
    <path
        d="M1162.48 289.669H1140.12V234.19C1140.12 232.663 1139.85 231.105 1139.34 229.817C1138.83 228.529 1138.05 227.24 1137.03 226.222C1136.02 225.203 1134.73 224.425 1133.44 223.915C1132.15 223.406 1130.62 223.137 1129.06 223.137C1127.5 223.137 1125.98 223.406 1124.69 223.915C1123.4 224.425 1122.11 225.203 1121.09 226.222C1120.07 227.24 1119.29 228.529 1118.78 229.817C1118.27 231.105 1118 232.633 1118 234.19V289.669H1095.65V234.19C1095.65 232.663 1095.38 231.105 1094.87 229.817C1094.36 228.529 1093.58 227.24 1092.56 226.222C1091.54 225.203 1090.25 224.425 1088.96 223.915C1087.67 223.406 1086.15 223.137 1084.59 223.137C1083.03 223.137 1081.5 223.406 1080.21 223.915C1078.92 224.425 1077.63 225.203 1076.61 226.222C1075.6 227.24 1074.82 228.529 1074.31 229.817C1073.8 231.105 1073.53 232.633 1073.53 234.19V289.669H1051.17V202.107H1056.56L1062.74 208.788C1065.83 206.211 1069.15 204.174 1073.02 202.617C1076.88 201.059 1080.72 200.55 1084.59 200.55C1088.69 200.55 1092.56 201.329 1096.66 202.856C1100.53 204.384 1103.86 206.96 1106.94 210.825C1108.23 209.027 1109.76 207.5 1111.56 206.211C1113.36 204.923 1115.16 203.905 1116.95 203.126C1119.02 202.347 1120.82 201.838 1122.86 201.329C1124.93 201.059 1126.96 200.819 1129.03 200.819C1133.65 200.819 1138.02 201.598 1142.13 203.396C1146.24 205.193 1149.83 207.499 1152.65 210.585C1155.74 213.67 1158.04 217.265 1159.84 221.369C1161.64 225.473 1162.42 229.847 1162.42 234.46V289.669H1162.48Z"
        fill="#477245" />
    <path
        d="M523.514 289.429H500.137V172.062H547.16C551.536 172.062 555.642 172.571 559.478 173.859C563.344 174.877 567.18 176.675 570.537 178.472C573.863 180.539 577.22 183.085 580.037 185.931C582.855 188.747 585.432 192.102 587.5 195.427C589.568 199.022 591.096 202.617 592.115 206.721C593.134 210.825 593.914 214.929 593.914 219.033C593.914 225.443 592.625 231.614 590.317 237.276C587.74 242.937 584.413 248.06 580.307 252.164C575.931 256.537 571.046 259.862 565.412 262.169C559.748 264.745 553.604 265.764 547.16 265.764H523.783V289.399H523.514V289.429ZM523.514 195.427V242.428H546.89C550.217 242.428 553.064 241.919 555.881 240.631C558.699 239.343 561.276 237.815 563.344 235.508C565.412 233.441 567.21 230.895 568.469 228.049C569.728 225.203 570.267 222.148 570.267 218.793C570.267 215.438 569.758 212.622 568.469 209.537C567.18 206.721 565.652 204.144 563.344 202.077C561.276 200.01 558.729 198.213 555.881 196.955C553.064 195.667 549.977 195.158 546.89 195.158H523.514V195.427Z"
        fill="#477245" />
    <path d="M627.84 289.429H605.482V166.939H628.08V289.429H627.81H627.84Z" fill="#477245" />
    <path
        d="M729.559 289.429H724.164L715.443 277.357C713.375 279.154 711.067 280.951 708.76 282.749C706.452 284.277 703.875 285.834 701.297 287.122C698.72 288.411 695.903 289.429 693.325 289.938C690.508 290.717 687.661 290.957 684.843 290.957C678.67 290.957 672.766 289.938 667.371 287.871C661.976 285.804 657.091 282.749 653.225 278.885C649.119 275.02 646.032 270.167 643.724 264.506C641.417 258.844 640.128 252.194 640.128 244.974C640.128 237.755 641.417 231.884 643.724 226.222C646.032 220.56 649.389 215.707 653.225 211.574C657.331 207.47 661.946 204.384 667.371 202.077C672.766 199.771 678.67 198.752 684.843 198.752C687.661 198.752 690.508 199.022 693.325 199.771C696.142 200.55 698.72 201.568 701.537 202.587C704.114 203.875 706.662 205.403 708.999 206.96C711.307 208.758 713.615 210.555 715.683 212.352L724.404 202.077H729.799V289.399H729.529L729.559 289.429ZM707.201 244.735C707.201 241.649 706.692 238.833 705.403 235.748C704.114 232.932 702.586 230.356 700.518 228.049C698.45 225.743 696.142 224.185 693.325 222.657C690.508 221.369 687.661 220.59 684.604 220.59C681.547 220.59 678.7 221.1 675.882 222.118C673.065 223.137 670.757 224.694 668.959 226.731C667.161 228.768 665.363 231.344 664.344 234.19C663.325 237.036 662.546 240.601 662.546 244.465C662.546 248.329 663.055 251.655 664.344 254.74C665.633 257.826 667.161 260.132 668.959 262.199C671.027 264.266 673.335 265.794 675.882 266.812C678.7 267.831 681.547 268.34 684.604 268.34C687.661 268.34 690.508 267.561 693.325 266.273C696.142 264.985 698.45 263.188 700.518 260.881C702.586 258.574 704.114 256.268 705.403 253.182C706.692 250.876 707.201 247.79 707.201 244.705V244.735Z"
        fill="#477245" />
    <path
        d="M790.728 289.429C785.334 289.429 780.209 288.411 775.563 286.344C770.918 284.277 766.572 281.461 762.976 277.866C759.38 274.271 756.562 270.167 754.494 265.285C752.426 260.671 751.407 255.519 751.407 250.127V224.185H740.618V201.838H751.407V166.909H773.765V201.838H807.692V224.185H773.765V250.127C773.765 252.433 774.275 254.74 775.054 256.807C775.833 258.874 777.122 260.671 778.65 262.199C780.179 263.727 781.977 265.015 784.045 265.794C786.113 266.573 788.421 267.082 790.728 267.082H807.692V289.429H790.728Z"
        fill="#477245" />
    <path
        d="M848.541 289.429H826.183V224.215H815.394V201.868H826.183V197.764C826.183 192.372 827.202 187.249 829.27 182.606C831.338 177.993 834.155 173.619 837.751 170.294C841.348 166.699 845.454 163.884 850.339 162.086C854.954 160.019 860.109 159.001 865.504 159.001H882.197V181.348H865.504C863.196 181.348 860.888 181.857 858.82 182.636C856.753 183.415 854.954 184.703 853.426 186.231C851.897 187.759 850.848 189.556 849.829 191.623C849.05 193.69 848.541 195.996 848.541 198.303V202.407H876.023V224.754H848.541V289.459V289.429Z"
        fill="#477245" />
    <path
        d="M969.531 244.735C969.531 251.145 968.242 257.316 965.934 262.978C963.627 268.64 960.27 273.492 956.434 277.626C952.328 281.73 947.712 285.085 942.288 287.392C936.893 289.699 930.989 290.987 924.815 290.987C918.641 290.987 912.737 289.699 907.343 287.392C901.948 285.085 897.063 281.73 893.197 277.626C889.091 273.522 886.004 268.64 883.696 262.978C881.388 257.316 880.1 251.175 880.1 244.735C880.1 238.294 881.388 231.884 883.696 226.252C886.004 220.62 889.36 215.737 893.197 211.603C897.303 207.499 901.918 204.144 907.343 201.838C912.767 199.531 918.641 198.243 924.815 198.243C930.989 198.243 936.893 199.262 942.288 201.568C947.682 203.875 952.568 206.96 956.434 211.064C960.54 215.168 963.627 220.051 965.934 225.713C968.242 231.374 969.531 237.785 969.531 244.705V244.735ZM946.933 244.735C946.933 241.14 946.424 237.815 945.135 234.969C943.846 232.153 942.318 229.577 940.25 227.51C938.182 225.443 935.874 223.915 933.057 222.627C930.24 221.609 927.393 220.83 924.336 220.83C921.279 220.83 918.432 221.339 915.614 222.627C912.797 223.646 910.489 225.443 908.691 227.51C906.623 229.577 905.095 232.123 904.076 234.969C903.057 237.815 902.278 241.14 902.278 244.735C902.278 248.06 902.787 251.145 904.076 254.231C905.095 257.047 906.893 259.623 908.691 261.69C910.759 263.757 913.067 265.554 915.614 266.812C918.432 268.1 921.279 268.61 924.336 268.61C927.393 268.61 930.24 268.1 933.057 266.812C935.874 265.524 938.182 263.996 940.25 261.929C942.318 259.862 943.846 257.316 945.135 254.47C946.424 251.655 946.933 248.299 946.933 244.705V244.735Z"
        fill="#477245" />
    <path
        d="M1004.24 289.429H981.878V201.868H987.273L994.735 212.143C998.332 208.818 1002.44 206.241 1007.05 204.684C1011.67 202.886 1016.31 202.107 1021.2 202.107H1040.98V224.455H1021.2C1018.89 224.455 1016.58 224.964 1014.52 225.743C1012.45 226.521 1010.65 227.81 1009.12 229.337C1007.59 230.865 1006.3 232.662 1005.52 234.729C1004.75 236.796 1004.24 239.103 1004.24 241.41V289.429Z"
        fill="#477245" />
    <path
        d="M1162.48 289.429H1140.12V233.951C1140.12 232.423 1139.85 230.865 1139.34 229.577C1138.83 228.289 1138.05 227.001 1137.03 225.982C1136.02 224.964 1134.73 224.185 1133.44 223.676C1132.15 223.166 1130.62 222.897 1129.06 222.897C1127.5 222.897 1125.98 223.166 1124.69 223.676C1123.4 224.185 1122.11 224.964 1121.09 225.982C1120.07 227.001 1119.29 228.289 1118.78 229.577C1118.27 230.865 1118 232.393 1118 233.951V289.429H1095.65V233.951C1095.65 232.423 1095.38 230.865 1094.87 229.577C1094.36 228.289 1093.58 227.001 1092.56 225.982C1091.54 224.964 1090.25 224.185 1088.96 223.676C1087.67 223.166 1086.15 222.897 1084.59 222.897C1083.03 222.897 1081.5 223.166 1080.21 223.676C1078.92 224.185 1077.63 224.964 1076.61 225.982C1075.6 227.001 1074.82 228.289 1074.31 229.577C1073.8 230.865 1073.53 232.393 1073.53 233.951V289.429H1051.17V201.868H1056.56L1062.74 208.548C1065.83 205.972 1069.15 203.935 1073.02 202.377C1076.88 200.819 1080.72 200.31 1084.59 200.31C1088.69 200.31 1092.56 201.089 1096.66 202.617C1100.53 204.144 1103.86 206.721 1106.94 210.585C1108.23 208.788 1109.76 207.26 1111.56 205.972C1113.36 204.684 1115.16 203.665 1116.95 202.886C1119.02 202.107 1120.82 201.598 1122.86 201.089C1124.93 200.819 1126.96 200.58 1129.03 200.58C1133.65 200.58 1138.02 201.359 1142.13 203.156C1146.24 204.953 1149.83 207.26 1152.65 210.345C1155.74 213.431 1158.04 217.025 1159.84 221.129C1161.64 225.233 1162.42 229.607 1162.42 234.22V289.429H1162.48Z"
        fill="#477245" />
    <path
        d="M523.514 288.92H500.137V171.552H547.16C551.536 171.552 555.642 172.062 559.478 173.35C563.344 174.368 567.18 176.166 570.537 177.963C573.863 180.03 577.22 182.576 580.037 185.422C582.855 188.238 585.432 191.593 587.5 194.918C589.568 198.513 591.096 202.107 592.115 206.211C593.134 210.076 593.914 214.419 593.914 218.523C593.914 224.934 592.625 231.105 590.317 236.766C587.74 242.428 584.413 247.551 580.307 251.655C575.931 256.028 571.046 259.353 565.412 261.66C559.748 264.236 553.604 265.255 547.16 265.255H523.783V288.89H523.514V288.92ZM523.514 195.188V242.188H546.89C550.217 242.188 553.064 241.679 555.881 240.391C558.699 239.103 561.276 237.575 563.344 235.269C565.412 233.202 567.21 230.655 568.469 227.81C569.728 224.964 570.267 221.908 570.267 218.553C570.267 215.198 569.758 212.382 568.469 209.297C567.18 206.481 565.652 203.905 563.344 201.838C561.276 199.771 558.729 197.973 555.881 196.715C553.064 195.427 549.977 194.918 546.89 194.918H523.514V195.188Z"
        fill="#477245" />
    <path d="M627.839 288.92H605.481V166.43H628.079V288.92H627.809H627.839Z" fill="#477245" />
    <path
        d="M729.559 288.92H724.164L715.443 276.847C713.375 278.645 711.067 280.442 708.76 282.24C706.452 283.767 703.875 285.325 701.297 286.613C698.72 287.901 695.903 288.92 693.325 289.429C690.508 290.208 687.661 290.448 684.843 290.448C678.67 290.448 672.766 289.429 667.371 287.362C661.976 285.295 657.091 282.24 653.225 278.375C649.119 274.511 646.032 269.658 643.724 263.996C641.417 258.335 640.128 251.684 640.128 244.465C640.128 237.246 641.417 231.374 643.724 225.713C646.032 220.051 649.389 215.198 653.225 211.064C657.331 206.96 661.946 203.875 667.371 201.568C672.766 199.262 678.67 198.243 684.843 198.243C687.661 198.243 690.508 198.513 693.325 199.262C696.142 200.04 698.72 201.059 701.537 202.077C704.114 203.366 706.662 204.893 708.999 206.451C711.307 208.248 713.615 210.046 715.683 211.843L724.404 201.568H729.799V288.89H729.529L729.559 288.92ZM707.201 244.225C707.201 241.14 706.692 238.324 705.403 235.239C704.114 232.423 702.586 229.847 700.518 227.54C698.45 225.233 696.142 223.676 693.325 222.148C690.508 220.86 687.661 220.081 684.604 220.081C681.547 220.081 678.7 220.59 675.882 221.609C673.065 222.627 670.757 224.185 668.959 226.222C666.891 228.289 665.363 230.835 664.344 233.681C663.325 236.527 662.546 240.092 662.546 243.956C662.546 247.82 663.055 251.145 664.344 254.231C665.633 257.316 667.161 259.623 668.959 261.69C671.027 263.757 673.335 265.285 675.882 266.303C678.7 267.322 681.547 267.831 684.604 267.831C687.661 267.831 690.508 267.052 693.325 265.764C696.142 264.476 698.45 262.678 700.518 260.372C702.586 258.065 704.114 255.759 705.403 252.673C706.692 250.366 707.201 247.281 707.201 244.196V244.225Z"
        fill="#477245" />
    <path
        d="M790.727 288.92C785.333 288.92 780.208 287.901 775.562 285.834C770.917 283.767 766.571 280.951 762.975 277.357C759.379 273.762 756.561 269.658 754.493 264.775C752.425 260.162 751.406 255.01 751.406 249.618V223.676H740.617V201.329H751.406V166.4H773.764V201.329H807.691V223.676H773.764V249.618C773.764 251.924 774.274 254.231 775.053 256.298C775.832 258.365 777.121 260.162 778.649 261.69C780.178 263.218 781.976 264.506 784.044 265.285C786.112 266.063 788.42 266.573 790.727 266.573H807.691V288.92H790.727Z"
        fill="#477245" />
    <path
        d="M848.541 288.92H826.183V223.706H815.394V201.359H826.183V197.255C826.183 191.863 827.202 186.74 829.27 182.097C831.338 177.484 834.155 173.11 837.751 169.785C841.348 166.19 845.454 163.374 850.339 161.577C855.224 159.78 860.109 158.492 865.504 158.492H882.197V180.839H865.504C863.196 180.839 860.888 181.348 858.82 182.127C856.753 182.906 854.954 184.194 853.426 185.722C851.897 187.249 850.848 189.047 849.829 191.114C849.05 193.181 848.541 195.487 848.541 197.794V201.898H876.023V224.245H848.541V288.95V288.92Z"
        fill="#477245" />
    <path
        d="M969.531 244.225C969.531 250.636 968.242 256.807 965.934 262.469C963.627 268.13 960.27 272.983 956.434 277.117C952.328 281.221 947.712 284.576 942.288 286.883C936.893 289.189 930.989 290.477 924.815 290.477C918.641 290.477 912.737 289.189 907.343 286.883C901.948 284.576 897.063 281.221 893.197 277.117C889.091 273.013 886.004 268.13 883.696 262.469C881.388 256.807 880.1 250.666 880.1 244.225C880.1 237.785 881.388 231.374 883.696 225.743C886.004 220.111 889.36 215.228 893.197 211.094C897.303 206.99 901.918 203.635 907.343 201.329C912.767 199.022 918.641 197.734 924.815 197.734C930.989 197.734 936.893 198.752 942.288 201.059C947.682 203.366 952.568 206.451 956.434 210.555C960.54 214.659 963.627 219.542 965.934 225.203C968.242 231.105 969.531 237.276 969.531 244.196V244.225ZM946.933 244.225C946.933 240.631 946.424 237.306 945.135 234.46C943.846 231.644 942.318 229.068 940.25 227.001C938.182 224.934 935.874 223.406 933.057 222.118C930.24 221.1 927.393 220.321 924.336 220.321C921.279 220.321 918.432 220.83 915.614 222.118C912.797 223.137 910.489 224.934 908.691 227.001C906.623 229.068 905.095 231.614 904.076 234.46C903.057 237.306 902.278 240.631 902.278 244.225C902.278 247.551 902.787 250.636 904.076 253.722C905.095 256.537 906.893 259.114 908.691 261.181C910.759 263.248 913.067 265.045 915.614 266.303C918.432 267.591 921.279 268.1 924.336 268.1C927.393 268.1 930.24 267.591 933.057 266.303C935.874 265.285 938.182 263.487 940.25 261.42C942.318 259.353 943.846 256.807 945.135 253.961C946.424 251.145 946.933 247.79 946.933 244.196V244.225Z"
        fill="#477245" />
    <path
        d="M1004.24 288.92H981.878V201.359H987.273L994.735 211.633C998.332 208.308 1002.44 205.732 1007.05 204.174C1011.67 202.617 1016.31 201.598 1021.2 201.598H1040.98V223.945H1021.2C1018.89 223.945 1016.58 224.455 1014.52 225.233C1012.45 226.012 1010.65 227.3 1009.12 228.828C1007.59 230.356 1006.3 232.153 1005.52 234.22C1004.75 236.287 1004.24 238.594 1004.24 240.9V288.92Z"
        fill="#477245" />
    <path
        d="M1162.48 288.92H1140.12V233.441C1140.12 231.914 1139.85 230.356 1139.34 229.068C1138.83 227.78 1138.05 226.492 1137.03 225.473C1136.01 224.455 1134.73 223.676 1133.44 223.166C1132.15 222.657 1130.62 222.388 1129.06 222.388C1127.5 222.388 1125.97 222.657 1124.69 223.166C1123.4 223.676 1122.11 224.455 1121.09 225.473C1120.07 226.492 1119.29 227.78 1118.78 229.068C1118.27 230.356 1118 231.884 1118 233.441V288.92H1095.64V233.441C1095.64 231.914 1095.38 230.356 1094.87 229.068C1094.36 227.78 1093.58 226.492 1092.56 225.473C1091.54 224.455 1090.25 223.676 1088.96 223.166C1087.67 222.657 1086.14 222.388 1084.59 222.388C1083.03 222.388 1081.5 222.657 1080.21 223.166C1078.92 223.676 1077.63 224.455 1076.61 225.473C1075.59 226.492 1074.82 227.78 1074.31 229.068C1073.8 230.356 1073.53 231.884 1073.53 233.441V288.92H1051.17V201.359H1056.56L1062.74 208.039C1065.82 205.463 1069.15 203.425 1073.02 201.868C1076.88 200.31 1080.72 199.801 1084.59 199.801C1088.69 199.801 1092.56 200.58 1096.66 202.107C1100.53 203.635 1103.86 206.211 1106.94 210.076C1108.23 208.278 1109.76 206.751 1111.56 205.463C1113.36 204.174 1115.16 203.156 1116.95 202.377C1119.02 201.598 1120.82 201.089 1122.86 200.58C1124.93 200.31 1126.96 200.07 1129.03 200.07C1133.65 200.07 1138.02 200.849 1142.13 202.647C1146.23 204.444 1149.83 206.751 1152.65 209.836C1155.74 212.922 1158.04 216.516 1159.84 220.62C1161.64 224.724 1162.42 229.098 1162.42 233.711V288.92H1162.48Z"
        fill="#477245" />
    <path
        d="M394.282 143.034C391.464 134.557 387.359 126.589 382.713 119.399C366.769 92.1692 339.796 72.3982 307.937 65.7181C307.158 63.9207 306.409 62.393 305.36 60.8352C286.089 24.8881 248.327 0.473999 204.63 0.473999C160.933 0.473999 120.863 26.4158 102.372 63.8907C45.0684 70.0617 0.382812 118.321 0.382812 177.394C0.382812 240.301 51.2423 291.167 113.94 291.406H288.397C329.516 289.878 364.971 266.752 383.702 233.112V232.842C393.712 216.666 399.646 197.674 399.646 177.364C399.916 165.052 397.848 153.729 394.252 142.945L394.282 143.034ZM186.168 221.609C185.149 223.137 184.37 224.425 183.351 225.982C182.572 227.001 182.062 227.78 181.283 228.798C181.013 229.068 181.013 229.307 180.774 229.307L180.504 229.577C180.234 229.847 180.234 230.086 179.994 230.356C179.725 230.626 179.485 231.135 178.975 231.374C178.466 231.884 177.956 232.663 177.447 233.172L174.12 236.497L171.303 239.313L170.794 239.822L170.284 240.331C169.265 241.35 168.216 242.129 167.467 242.908L167.197 243.177C166.178 243.956 165.399 244.705 164.38 245.244L163.87 245.514H163.601C162.822 246.023 162.072 246.532 161.293 247.041C160.784 247.311 160.274 247.551 160.004 247.82C148.196 255.279 134.32 259.383 119.934 259.893H116.847C96.0478 259.893 76.2675 252.194 60.8328 237.815C45.9376 223.945 36.6768 205.193 34.8786 184.913C34.8786 185.931 35.1483 186.98 35.1483 187.998C33.3501 174.638 34.8785 161.817 39.2542 149.984C39.2542 150.254 38.9845 150.763 38.9845 151.003C39.2542 150.493 39.2542 149.984 39.494 149.475C39.7337 148.966 39.7637 148.456 40.0035 147.947C40.2732 147.438 40.513 146.929 40.513 146.419C40.513 146.15 40.7827 146.15 40.7827 145.91C41.2922 144.622 42.0714 143.094 42.5809 141.806C42.8506 141.027 43.3601 140.278 43.8696 139.5C45.6678 135.905 47.7358 132.58 50.0435 129.494C50.553 128.476 51.3322 127.697 52.1114 126.918C52.8907 125.9 53.4002 125.121 54.1794 124.342C54.9586 123.563 55.7079 122.545 56.4871 121.766C57.2663 120.987 58.0156 120.238 58.7948 119.459C60.3233 117.931 62.1215 116.374 63.9197 114.846C65.2084 113.827 66.2274 112.779 67.5161 112.03C68.5351 111.251 69.8238 110.502 70.8428 109.723C71.8618 108.944 72.9108 108.435 73.9298 107.656C74.9488 106.878 75.9977 106.368 77.0167 105.859C77.7959 105.35 78.5452 105.08 79.3244 104.571C80.1036 104.301 80.8529 103.792 81.3924 103.552C87.806 100.467 94.4894 98.43 101.682 97.1419C100.903 101.006 100.663 105.11 100.393 109.214V116.673C92.1816 118.74 84.7191 122.335 78.3054 127.188C77.2864 127.967 76.5072 128.476 75.4882 129.255C74.1995 130.273 72.9108 131.561 71.6221 132.849C70.3333 134.137 69.3143 135.426 68.0256 136.714C67.0066 138.002 65.9577 139.29 64.9387 140.578C62.8708 143.663 60.8328 146.749 59.2743 150.074C58.7648 150.853 58.4951 151.602 58.2553 152.65V152.92C57.9856 153.699 57.4761 154.448 57.2363 155.226C56.4571 157.024 55.9476 158.821 55.4381 160.619C55.1684 161.907 54.6589 162.925 54.4192 164.213C54.4192 164.722 54.1494 165.501 54.1494 166.011C54.1494 166.52 53.8797 167.299 53.8797 167.808V168.826V171.133C53.8797 172.421 53.61 173.44 53.61 174.728V183.445C53.61 184.224 53.8797 184.973 53.8797 186.021C55.9476 202.707 64.669 217.864 78.0357 228.139C91.4024 238.414 108.096 243.027 124.789 240.99C131.712 239.972 138.156 238.174 144.06 235.089C144.33 235.089 144.57 234.819 145.079 234.58C145.589 234.31 145.858 234.07 146.368 234.07C147.147 233.801 147.657 233.292 148.436 233.052C148.945 232.782 149.455 232.543 149.964 232.033C150.743 231.524 151.253 231.255 152.032 230.745C152.811 230.236 153.321 229.967 153.83 229.457C154.61 228.948 155.119 228.439 155.898 227.93C156.678 227.42 157.187 226.911 157.966 226.132C158.985 225.353 159.765 224.604 160.784 223.556C161.803 222.777 162.582 221.759 163.601 220.74C164.62 219.722 165.399 218.673 166.178 217.655C166.957 216.876 167.467 215.857 168.246 215.078C168.516 214.809 168.756 214.3 169.025 214.06C169.295 213.551 169.805 213.041 170.044 212.263C170.314 211.993 170.554 211.484 170.554 211.244C176.728 213.311 183.141 214.839 189.555 215.618C188.536 218.194 187.487 219.991 186.228 221.789L186.168 221.609ZM209.815 53.1366C209.036 52.867 208.286 52.867 207.507 52.867C206.728 52.867 206.218 52.5974 205.439 52.5974C204.42 52.5974 203.371 52.3278 202.622 52.3278H201.094C198.516 52.3278 195.969 52.3278 193.631 52.5974C193.121 52.5974 192.612 52.5974 192.102 52.867C191.593 52.867 190.814 53.1366 190.304 53.1366C189.285 53.1366 188.506 53.4062 187.487 53.6458H187.217C186.198 53.9154 185.419 53.9154 184.4 54.1551C182.332 54.6643 180.294 55.1736 178.226 55.9524C177.207 56.222 176.158 56.7313 175.139 57.2405C174.12 57.7498 173.341 58.0194 172.322 58.5286C171.543 58.7982 170.794 59.3075 170.014 59.8168C169.235 60.0864 168.726 60.5956 167.946 60.8352L166.418 61.6141C166.418 61.6141 166.148 61.8837 165.908 61.8837C165.639 62.1533 165.399 62.3929 164.889 62.3929C164.889 62.3929 164.62 62.6626 164.38 62.6626C164.11 62.9322 163.87 62.9322 163.601 63.1718C163.091 63.6811 162.312 63.9507 161.803 64.4599C161.293 64.7295 160.784 65.2388 160.274 65.748C160.004 66.0176 159.495 66.2573 159.255 66.5269C158.746 67.0361 158.236 67.3057 157.727 67.815C156.947 68.3242 156.198 69.1031 155.419 69.8819C143.101 81.4449 136.148 97.3515 135.639 114.307C135.369 130.992 141.543 146.929 153.381 159.241C163.151 169.755 175.978 176.435 190.124 178.502V197.255C186.798 196.985 183.441 196.236 180.114 195.457C164.71 191.863 150.833 183.894 139.774 172.092C124.609 156.155 116.637 135.366 117.417 113.288C117.926 91.4502 127.187 70.9004 143.101 56.0123C144.899 54.4846 146.698 52.9269 148.496 51.3991C154.16 47.0255 160.064 43.4308 166.478 40.615C167.257 40.3454 168.276 39.8361 169.055 39.5965C169.325 39.5965 169.565 39.3269 169.835 39.3269C170.854 38.8176 171.902 38.548 173.161 38.0388C174.69 37.5295 175.978 37.0203 177.537 36.7507C178.046 36.4811 178.826 36.4811 179.335 36.2414H179.605C180.624 35.9718 181.403 35.7322 182.422 35.7322C183.441 35.4626 184.22 35.2229 185.239 35.2229C186.528 34.9533 187.547 34.7137 188.836 34.7137C189.855 34.444 191.143 34.4441 192.162 34.4441C193.451 34.4441 194.74 34.1744 195.759 34.1744H203.731C208.616 34.444 213.231 35.193 218.117 36.2414C234.57 40.1057 249.196 48.8229 260.255 61.1648C261.783 62.6925 263.072 64.4899 264.63 66.2872C266.938 69.3727 269.006 72.6978 271.044 76.0529C264.87 77.5806 258.726 79.6476 253.062 82.2238C247.398 73.5066 239.965 66.2872 231.214 61.1648H231.723C230.434 60.3859 228.906 59.637 227.347 58.8582C226.059 58.3489 225.04 57.8397 223.751 57.3304C223.481 57.3304 223.241 57.0608 222.972 57.0608C220.155 56.0423 217.068 54.9938 213.981 54.4846C213.471 54.4846 212.962 54.215 212.452 54.215C211.943 54.215 211.433 53.9454 210.924 53.9454C210.414 53.4361 210.144 53.1665 209.905 53.1665L209.815 53.1366ZM304.611 259.863C298.437 261.39 292.023 261.93 285.849 261.93C273.532 261.93 261.184 259.114 249.885 253.722V232.153L250.155 232.423C264.81 242.428 283.032 245.783 300.265 241.679C334.431 233.711 355.5 199.292 347.528 165.411C345.73 157.713 342.643 150.763 338.537 144.622C330.565 132.55 318.487 123.833 304.88 119.459C294.361 116.134 282.792 115.595 271.224 118.171C255.549 122.035 241.943 131.262 233.192 144.622C232.682 145.401 232.173 146.15 231.903 146.689C231.124 147.977 230.884 149.505 230.884 150.793V265.315L211.883 271.725V146.15C211.883 145.641 211.883 145.131 212.152 144.622C212.152 143.843 212.422 143.094 212.932 142.555C223.991 120.987 243.771 105.589 267.388 100.167C279.975 97.0819 292.563 97.3515 304.371 99.8978C328.527 105.29 349.596 121.736 360.625 144.592C363.203 149.715 365.001 155.376 366.529 161.038C376.03 205.223 348.787 249.648 304.611 259.922V259.863Z"
        fill="#477245" />
</svg>