<?xml version="1.0" encoding="utf-8"?>
<!-- Generator: Adobe Illustrator 16.0.0, SVG Export Plug-In . SVG Version: 6.00 Build 0)  -->
<!DOCTYPE svg PUBLIC "-//W3C//DTD SVG 1.1//EN" "http://www.w3.org/Graphics/SVG/1.1/DTD/svg11.dtd">
<svg version="1.1" id="Capa_1" xmlns="http://www.w3.org/2000/svg" xmlns:xlink="http://www.w3.org/1999/xlink" x="0px" y="0px"
	 width="430.113px" height="430.113px" viewBox="522 -5 430.113 430.113" enable-background="new 522 -5 430.113 430.113"
	 xml:space="preserve">
<text transform="matrix(1 0 0 1 693.6663 210.6194)" fill="#FF9E25" font-family="'MyriadPro-Regular'" font-size="129.75">IP</text>
<g>
	<path fill="#FF9E25" d="M844.301,39.121C815.717,10.671,777.708-5,737.287-5c-40.431,0-78.43,15.671-107.015,44.121
		c-52.898,52.644-59.473,151.695-14.236,211.708l121.251,174.284l121.068-174.042C903.774,190.816,897.199,91.765,844.301,39.121z
		 M845.555,241.889l-108.268,155.62L628.845,241.645c-41.031-54.451-35.149-143.902,12.596-191.417
		c25.602-25.48,59.638-39.517,95.847-39.517c36.207,0,70.246,14.037,95.854,39.517C880.887,97.742,886.767,187.194,845.555,241.889z
		"/>
</g>
</svg>
