<svg width="163" height="61" viewBox="0 0 163 61" fill="none" xmlns="http://www.w3.org/2000/svg">
    <path
        d="M128.291 53.6741C128.158 53.4732 127.991 53.3392 127.757 53.2053C127.523 53.1049 127.256 53.0379 126.889 53.0379C126.722 53.0379 126.555 53.0714 126.421 53.1049C126.287 53.1384 126.154 53.2053 126.054 53.2723C125.953 53.3393 125.853 53.4062 125.786 53.5067C125.72 53.6071 125.653 53.6741 125.619 53.7745H125.586V51.0959H124.15V57.7924H125.586V55.4821C125.586 55.3147 125.586 55.1808 125.619 55.0468C125.653 54.9129 125.686 54.779 125.753 54.6785C125.82 54.5781 125.887 54.4776 126.02 54.4107C126.12 54.3437 126.287 54.3102 126.454 54.3102C126.621 54.3102 126.788 54.3437 126.889 54.4107C126.989 54.4776 127.056 54.5781 127.122 54.712C127.156 54.8459 127.189 54.9799 127.223 55.1138C127.223 55.2477 127.223 55.3817 127.223 55.5156V57.7924H128.659V55.2477C128.659 54.9464 128.625 54.6451 128.592 54.3772C128.492 54.1093 128.425 53.875 128.291 53.6741Z"
        fill="#4D4D4D" />
    <path
        d="M122.28 53.0379V53.6741H122.246C122.179 53.6071 122.113 53.5067 122.012 53.4062C121.912 53.3058 121.812 53.2388 121.679 53.1719C121.545 53.1049 121.411 53.038 121.211 53.0045C121.044 52.971 120.844 52.9375 120.643 52.9375C120.309 52.9375 120.009 53.0045 119.775 53.1384C119.508 53.2723 119.307 53.4397 119.107 53.6741C118.94 53.9085 118.773 54.1429 118.673 54.4442C118.572 54.7455 118.539 55.0469 118.539 55.3482C118.539 55.683 118.606 56.0179 118.706 56.3192C118.806 56.6205 118.973 56.8549 119.174 57.0893C119.374 57.2902 119.608 57.4576 119.875 57.5915C120.142 57.7254 120.476 57.7589 120.81 57.7589C121.011 57.7589 121.244 57.7254 121.512 57.625C121.745 57.5246 121.946 57.3906 122.113 57.1563H122.146V57.5915C122.146 57.9263 122.046 58.1942 121.846 58.3951C121.645 58.596 121.311 58.7299 120.877 58.7299H119.007V60.0022H120.877C121.779 60.0022 122.48 59.7679 122.914 59.3326C123.348 58.8638 123.582 58.2277 123.582 57.3237V53.0379H122.28ZM122.179 55.7835C122.113 55.9174 122.046 56.0513 121.946 56.1518C121.846 56.2522 121.712 56.3527 121.578 56.4196C121.445 56.4866 121.278 56.5201 121.144 56.5201C120.977 56.5201 120.844 56.4866 120.677 56.4196C120.543 56.3527 120.409 56.2857 120.309 56.1518C120.209 56.0513 120.109 55.9174 120.075 55.7835C120.009 55.6496 119.975 55.5156 119.975 55.3482C119.975 55.1808 120.009 55.0469 120.075 54.9129C120.142 54.779 120.209 54.6451 120.309 54.5446C120.409 54.4442 120.543 54.3438 120.677 54.2768C120.81 54.2098 120.977 54.1763 121.144 54.1763C121.311 54.1763 121.445 54.2098 121.578 54.2768C121.712 54.3438 121.846 54.4107 121.946 54.5446C122.046 54.6451 122.146 54.779 122.179 54.9129C122.246 55.0469 122.28 55.1808 122.28 55.3482C122.28 55.5156 122.246 55.6496 122.179 55.7835Z"
        fill="#4D4D4D" />
    <path
        d="M118.272 55.3481C118.272 54.9798 118.205 54.645 118.105 54.3437C118.004 54.0423 117.871 53.7745 117.671 53.5736C117.47 53.3727 117.27 53.2053 117.003 53.0713C116.735 52.9709 116.435 52.9039 116.101 52.9039C115.733 52.9039 115.399 52.9709 115.099 53.0713C114.798 53.1718 114.498 53.3392 114.297 53.5736C114.063 53.7745 113.896 54.0423 113.763 54.3437C113.629 54.645 113.562 54.9798 113.562 55.3481C113.562 55.7164 113.629 56.0513 113.763 56.3526C113.896 56.6539 114.063 56.9218 114.297 57.1227C114.531 57.3236 114.798 57.491 115.099 57.6249C115.399 57.7254 115.733 57.7923 116.034 57.7923H118.105V56.7209H116.034C115.767 56.7209 115.533 56.6539 115.333 56.4865C115.132 56.3191 115.032 56.1182 114.965 55.8504H118.272V55.3481ZM114.965 54.8124C114.965 54.712 114.999 54.578 115.032 54.4776C115.065 54.3771 115.132 54.2767 115.232 54.2097C115.333 54.1428 115.433 54.0758 115.533 54.0088C115.667 53.9419 115.8 53.9419 115.967 53.9419C116.234 53.9419 116.435 54.0423 116.602 54.2097C116.769 54.3771 116.836 54.578 116.836 54.8124H114.965Z"
        fill="#4D4D4D" />
    <path
        d="M116.034 50.3593C115.333 50.3593 114.665 50.5268 114.063 50.7946C113.696 47.6808 111.024 45.2366 107.818 45.2366C104.345 45.2366 101.539 48.0491 101.539 51.5312C101.539 54.4776 103.576 56.9553 106.315 57.6584V56.1518V55.4821V53.6071C106.315 53.4062 106.348 53.2053 106.415 53.0379C106.482 52.8705 106.582 52.7031 106.682 52.5692C107.05 52.1674 107.785 52.2009 108.119 52.5692C108.252 52.7031 108.319 52.837 108.386 53.0379C108.453 53.2053 108.486 53.4062 108.486 53.6071V57.7589H109.955V57.558C109.955 56.587 109.955 55.616 109.955 54.6451C109.955 54.2098 110.056 53.741 110.49 53.5067C111.058 53.2053 111.692 53.7076 111.692 54.3772V57.7924H113.128V54.2098C113.128 53.875 113.095 53.6071 113.062 53.3393C112.995 53.1049 112.928 52.8705 112.794 52.7031C112.394 52.1004 111.492 51.8995 110.824 52.1004C110.69 52.1339 110.089 52.4687 109.889 52.7366C109.855 52.6361 109.855 52.5692 109.822 52.5022C109.688 52.1674 109.521 51.866 109.288 51.6317C109.054 51.3973 108.753 51.1964 108.386 51.0625C108.018 50.9285 107.885 50.8616 107.417 50.8616C106.95 50.8616 106.816 50.9285 106.449 51.0625C106.081 51.1964 105.814 51.3973 105.547 51.6317C105.313 51.866 105.146 52.1674 105.012 52.5022C104.879 52.837 104.846 53.2053 104.846 53.6071V55.3817C104.946 55.4821 105.079 55.5491 105.179 55.616C103.877 54.7455 103.009 53.2723 103.009 51.5647C103.009 48.8861 105.179 46.7098 107.851 46.7098C110.523 46.7098 112.694 48.8861 112.694 51.5647C113.295 51.6317 113.83 52.0334 114.097 52.5692C114.631 52.1004 115.333 51.8326 116.101 51.8326C117.036 51.8326 117.904 52.2678 118.472 52.9375C118.806 52.6026 119.274 52.3348 119.741 52.2009C118.839 51.0959 117.537 50.3593 116.034 50.3593ZM105.28 55.6495C105.246 55.616 105.213 55.616 105.179 55.5826C105.213 55.616 105.246 55.6495 105.28 55.6495Z"
        fill="#4D4D4D" />
    <path
        d="M135.873 57.6249C136.14 57.7589 136.474 57.7923 136.808 57.7923C137.008 57.7923 137.242 57.7589 137.509 57.6584C137.743 57.558 137.943 57.424 138.11 57.1897H138.144V57.6249H139.547C139.547 57.6249 139.547 57.4575 139.547 57.3571V53.2388H138.244V53.741H138.211C138.144 53.674 138.077 53.5736 137.977 53.4731C137.877 53.3727 137.776 53.3057 137.643 53.2388C137.509 53.1718 137.376 53.1048 137.175 53.0714C137.008 53.0379 136.808 53.0044 136.608 53.0044C136.274 53.0044 135.973 53.0714 135.739 53.2053C135.472 53.3392 135.272 53.5066 135.071 53.741C134.904 53.9754 134.737 54.2098 134.637 54.5111C134.537 54.8124 134.503 55.1138 134.503 55.4151C134.503 55.7499 134.57 56.0847 134.67 56.3861C134.771 56.6874 134.938 56.9218 135.138 57.1562C135.338 57.3571 135.572 57.5245 135.873 57.6249ZM136.04 54.9798C136.107 54.8459 136.173 54.712 136.274 54.6115C136.374 54.5111 136.507 54.4106 136.641 54.3437C136.775 54.2767 136.941 54.2432 137.108 54.2432C137.275 54.2432 137.409 54.2767 137.543 54.3437C137.676 54.4106 137.81 54.4776 137.91 54.6115C138.01 54.712 138.11 54.8459 138.144 54.9798C138.211 55.1138 138.244 55.2477 138.244 55.4151C138.244 55.5825 138.211 55.7164 138.144 55.8504C138.077 55.9843 138.01 56.1182 137.91 56.2187C137.81 56.3191 137.676 56.4196 137.543 56.4865C137.409 56.5535 137.242 56.587 137.108 56.587C136.941 56.587 136.808 56.5535 136.641 56.4865C136.507 56.4196 136.374 56.3526 136.274 56.2187C136.173 56.1182 136.073 55.9843 136.04 55.8504C135.973 55.7164 135.94 55.5825 135.94 55.4151C135.94 55.2477 135.973 55.1138 136.04 54.9798Z"
        fill="#4D4D4D" />
    <path
        d="M134.269 56.0848C134.203 55.8839 134.102 55.683 133.969 55.5156C133.902 55.4486 133.702 55.3817 133.601 55.3482C133.535 55.3147 133.434 55.2812 133.301 55.2812C134.403 54.4776 134.737 52.8035 133.735 51.5647C133.468 51.2299 132.933 50.895 132.533 50.7611C132.099 50.6272 131.564 50.5937 131.13 50.6941C130.763 50.7946 130.362 50.9955 130.095 51.2299C129.794 51.4642 129.594 51.7656 129.427 52.1004C129.26 52.5022 129.193 52.9374 129.193 53.3727V54.2098V55.683V57.5915H130.662V55.683V55.4486V54.2767V53.5067C130.662 53.2053 130.763 52.8035 130.963 52.5357C131.163 52.3013 131.497 52.1339 131.831 52.1674C132.266 52.2008 132.666 52.5692 132.8 52.9709C132.9 53.3392 132.833 53.9419 132.6 54.2433C132.332 54.5781 131.998 54.712 131.598 54.8125C131.431 54.8459 131.264 54.8794 131.264 54.8794C131.264 54.8794 131.264 55.6495 131.264 55.9174C131.264 55.8839 132.132 55.9843 132.232 55.9843C133.067 55.9843 132.9 57.7254 132.9 57.7254H134.47C134.436 57.6919 134.37 56.3861 134.269 56.0848Z"
        fill="#4D4D4D" />
    <path
        d="M140.114 53.1719C140.114 53.1719 140.114 57.1562 140.114 57.2567V57.4241C140.114 57.7589 140.014 58.0268 139.813 58.2277C139.613 58.4286 139.279 58.5625 138.845 58.5625H138.144V59.8348H138.845C139.747 59.8348 140.448 59.6674 140.882 59.1987C141.316 58.7634 141.517 58.0937 141.55 57.2567V57.1897V53.1719H140.114Z"
        fill="#4D4D4D" />
    <path d="M140.114 51.4977C140.114 51.4977 140.114 52.0334 140.114 52.703H141.55V51.4977H140.114Z" fill="#4D4D4D" />
    <path d="M44.3943 0.27002H0.341797V44.433H44.3943V0.27002Z" fill="#2584C6" />
    <path d="M12.0311 33.7522H7.22168V34.087H12.0311V33.7522Z" fill="white" />
    <path d="M7.22168 33.183V32.6808H11.9643L11.9977 33.183H7.22168Z" fill="white" />
    <path d="M7.22168 32.1116V31.4084H11.9309L11.9643 32.1116H7.22168Z" fill="white" />
    <path d="M7.22168 30.8392V29.8013H11.8975L11.9309 30.8392H7.22168Z" fill="white" />
    <path d="M7.22168 29.2656V27.6919H20.8482L20.9484 29.2656H12.699L11.7639 27.6919L11.8641 29.2656H7.22168Z"
        fill="white" />
    <path d="M7.22168 27.1227V25.1472H15.3709L16.5732 27.1227L16.4396 25.1472H20.9484V27.1227H7.22168Z" fill="white" />
    <path d="M7.22168 24.6116V20.7611H12.7324L15.0035 24.6116H7.22168Z" fill="white" />
    <path d="M20.9482 20.7611H16.4395V24.6116H20.9482V20.7611Z" fill="white" />
    <path d="M20.9484 29.8013V30.8392H13.7678L13.0664 29.8013H20.9484Z" fill="white" />
    <path d="M20.9482 31.4084V32.1116H14.5691L14.1016 31.4084H20.9482Z" fill="white" />
    <path d="M20.9482 32.6808V33.183H15.2705L14.9365 32.6808H20.9482Z" fill="white" />
    <path d="M20.9485 33.7522V34.087H15.872L15.6382 33.7522H20.9485Z" fill="white" />
    <path d="M26.927 33.7522H22.2178V34.087H26.927V33.7522Z" fill="white" />
    <path d="M26.927 32.6808H22.2178V33.183H26.927V32.6808Z" fill="white" />
    <path d="M26.927 31.4084H22.2178V32.1116H26.927V31.4084Z" fill="white" />
    <path d="M26.927 29.8013H22.2178V30.8392H26.927V29.8013Z" fill="white" />
    <path d="M26.927 27.6919H22.2178V29.299H26.927V27.6919Z" fill="white" />
    <path d="M26.927 25.1472H22.2178V27.1227H26.927V25.1472Z" fill="white" />
    <path d="M26.927 20.7611H22.2178V24.6116H26.927V20.7611Z" fill="white" />
    <path d="M35.0092 20.5267H37.5141V24.6116H34.9758H28.4297C29.5318 22.2008 32.0701 20.5267 35.0092 20.5267Z"
        fill="white" />
    <path
        d="M33.4727 25.1472C32.9049 25.616 32.5375 26.3191 32.5375 27.1227H27.7949C27.8283 26.453 27.9619 25.7834 28.1957 25.1472H33.4727Z"
        fill="white" />
    <path
        d="M32.5709 27.6919C32.7045 28.3281 33.0385 28.8972 33.5061 29.299H28.0621C27.8951 28.7968 27.8283 28.2611 27.7949 27.6919H32.5709Z"
        fill="white" />
    <path d="M37.4807 29.8013V30.8392H28.7637C28.5633 30.5044 28.3963 30.1696 28.2627 29.8013H37.4807Z" fill="white" />
    <path d="M37.4805 31.4084V32.1116H29.7654C29.5316 31.8772 29.3313 31.6428 29.1309 31.4084H37.4805Z" fill="white" />
    <path d="M37.4809 32.6808V33.183H31.1352C30.868 33.0156 30.6342 32.8482 30.4004 32.6808H37.4809Z" fill="white" />
    <path d="M37.4809 33.7522V34.0535H33.2393C33.2393 34.0535 33.1057 34.087 32.2373 33.7522H37.4809Z" fill="white" />
    <path
        d="M32.4375 18.5513C32.3039 18.3504 32.0033 17.9151 31.3688 17.0446C30.6674 16.0401 30.3668 15.6049 30.2666 15.3705L31.0348 14.8348C31.135 15.0357 31.1684 15.1361 31.2018 15.2031C31.302 15.337 31.4021 15.4374 31.5023 15.4374H31.5357C31.6359 15.4374 31.7027 15.3705 31.7361 15.3035C31.7361 15.27 31.7361 15.2031 31.7361 15.1696V13.9977H30.634V13.0937H33.2057L33.0721 12.9263C33.0387 12.8593 33.0053 12.8258 33.0053 12.8258C32.8717 12.558 32.8049 12.2901 32.8049 12.0223C32.8383 11.6205 32.9719 11.2857 33.3059 11.0513C33.6064 10.8169 34.0406 10.683 34.575 10.683C35.1428 10.683 35.9777 10.9843 36.5121 11.654C37.0131 12.2566 37.2803 12.9263 37.3137 13.0267V18.5513H36.2115V13.9642H35.1428V17.0446V17.145V18.5178H34.0406V16.1741H33.573L33.1055 15.337H34.0406V13.9308H32.8049V15.2366C32.8049 15.4374 32.7381 15.6383 32.6045 15.8058C32.4709 16.0066 32.2705 16.1406 32.0033 16.2075L31.8697 16.241L31.9699 16.3749C32.0701 16.5089 32.2371 16.6763 32.4041 16.9107C32.6379 17.1785 32.9051 17.5133 33.2057 17.8816L32.4375 18.5513ZM34.5082 11.4866C34.4414 11.4866 34.3746 11.4866 34.3412 11.4866C34.1408 11.52 33.9738 11.6205 33.8736 11.7544C33.8068 11.8549 33.74 12.0223 33.7734 12.1897C33.7734 12.558 33.9404 12.8258 34.3078 12.9598C34.5082 13.0602 34.7086 13.0602 34.7086 13.0602H35.8775C36.3451 13.0602 36.3451 13.0602 36.3451 12.9598C36.1113 12.2566 35.3098 11.4866 34.5082 11.4866Z"
        fill="white" />
    <path
        d="M27.3275 18.953C27.1939 18.8526 27.027 18.6852 26.86 18.5512L26.8266 18.5177H26.7932C26.7598 18.5177 26.7264 18.5177 26.693 18.5177H26.6262H26.4592C26.192 18.5177 25.9582 18.4173 25.7578 18.2834C25.5574 18.1494 25.4906 17.9486 25.4906 17.7477C25.4906 17.5468 25.5574 17.4128 25.691 17.3124C25.8246 17.1785 25.9916 17.145 26.192 17.145C26.2922 17.145 26.3924 17.1785 26.4926 17.2119C26.7264 17.3124 26.9602 17.5133 27.1939 17.8146C27.1939 17.8146 27.2273 17.8481 27.2941 17.8481C27.3275 17.8481 27.3609 17.8481 27.4611 17.8146H27.4945C27.6281 17.7477 27.7283 17.6807 27.8285 17.5468C27.9955 17.3459 28.0623 17.078 27.9955 16.8436C27.9955 16.8102 27.9621 16.7432 27.9287 16.7097C27.8953 16.6762 27.8619 16.6428 27.7951 16.6428C27.7617 16.6428 27.7617 16.6428 27.7283 16.6428C27.6281 16.6762 27.5613 16.7097 27.4945 16.7432C27.4277 16.7767 27.3943 16.7767 27.3275 16.8102C27.2273 16.8436 27.1605 16.8436 27.0604 16.8436C26.9268 16.8436 26.7598 16.8102 26.6262 16.7432C26.4258 16.6427 26.2254 16.5088 26.025 16.3079C25.6576 15.9061 25.4572 15.5378 25.4572 15.2365C25.4572 15.0691 25.524 14.9017 25.6576 14.8012C25.7912 14.7008 25.9248 14.6338 26.1252 14.6338H27.6615V14.0311H24.5221V18.6182H23.4199V14.0311H22.3846V18.6182H21.2824V16.4419L21.1488 16.5088C21.1154 16.5423 21.0486 16.5423 20.9818 16.5423C20.9484 16.5423 20.8816 16.5423 20.8482 16.5423L20.7146 16.5088V16.6428C20.748 17.1785 20.6145 17.6137 20.3139 17.8816C20.0467 18.116 19.6459 18.2499 19.1449 18.2499C18.7107 18.2499 18.31 18.049 17.8758 17.7142C17.4082 17.2789 17.0074 16.7097 16.7402 16.0401C17.0074 15.9396 17.2746 15.8057 17.5418 15.7053C17.6086 15.8057 17.642 15.9061 17.7088 16.0401C17.809 16.241 17.9092 16.4419 18.0094 16.6428C18.1764 16.9106 18.477 17.2454 18.9111 17.3459C18.9779 17.3459 19.0447 17.3794 19.1115 17.3794C19.2785 17.3794 19.4121 17.3459 19.5123 17.2454C19.7461 17.0445 19.7461 16.6762 19.6459 16.4419C19.5123 16.1405 19.1783 16.0736 19.0113 16.0401H18.9779C18.9111 16.0401 18.8443 16.0401 18.7441 16.0401C18.6773 16.0401 18.6105 16.0401 18.5771 16.0401C18.5104 15.9061 18.3768 15.6048 18.31 15.4374C18.4436 15.4039 18.6773 15.3035 18.8109 15.27C19.0113 15.203 19.1449 15.1026 19.2117 14.9686C19.2785 14.8682 19.3119 14.7343 19.3119 14.6003C19.3119 14.4999 19.2785 14.3994 19.2451 14.3325C19.1783 14.232 19.0447 14.1651 18.8777 14.1651C18.6773 14.1651 18.477 14.2655 18.2766 14.3994C18.2098 14.4664 18.0428 14.6003 17.9426 14.7343C17.7088 14.1986 17.6086 13.9642 17.5418 13.8302C17.5752 13.7968 17.6086 13.7633 17.642 13.7298C18.0428 13.4285 18.4436 13.2945 18.9111 13.2945C19.3453 13.2945 19.6793 13.4285 19.9465 13.6628C20.2137 13.8972 20.3473 14.1986 20.3473 14.5334C20.3473 14.8682 20.2471 15.1361 20.0467 15.3369L19.9465 15.4374L20.0801 15.5044C20.1469 15.5378 20.1803 15.5713 20.2471 15.6048C20.3807 15.7053 20.5477 15.8057 20.7146 15.8057H20.748C20.748 15.8057 21.249 15.7387 21.249 15.5713V13.0936C21.75 13.0936 22.752 13.0936 23.0859 13.0936H26.1252C26.1586 13.0936 26.2922 13.0936 26.2922 13.0936C26.5594 13.0936 26.8266 13.0936 27.1271 13.0936C27.2941 13.0936 27.4945 13.0936 27.6615 13.0936H27.8953L27.7283 12.9262C27.5613 12.7588 27.2607 12.424 27.2273 12.357C27.1271 12.1896 27.0604 11.9218 27.0604 11.7209C27.0938 11.2521 27.4277 10.8169 27.8619 10.6829C28.0623 10.616 28.2293 10.616 28.3963 10.616C28.5633 10.616 28.7303 10.6494 28.8305 10.7164C29.1645 10.8838 29.1979 10.9508 29.1311 11.4865H29.0977C29.0309 11.453 28.9641 11.453 28.8973 11.4195C28.7637 11.3861 28.6301 11.3526 28.4965 11.3526C28.3629 11.3526 28.2627 11.3861 28.1625 11.4195C27.9955 11.52 27.8953 11.6539 27.8619 11.8548C27.8285 12.0557 27.8953 12.2566 28.0289 12.3905C28.0623 12.424 28.0957 12.491 28.1291 12.5244C28.1625 12.5914 28.2293 12.6249 28.2627 12.6584C28.3629 12.7588 28.4297 12.8258 28.4965 12.8927C28.5299 12.9262 28.5967 12.9932 28.6301 13.0267V14.0646V15.3035C28.2293 15.3035 26.4926 15.3035 26.4926 15.3035L26.5928 15.4709C26.5928 15.5044 26.7598 15.7387 26.7932 15.8057L26.8266 15.8392C26.9268 15.9396 27.027 16.0736 27.1939 16.1405C27.2273 16.1405 27.2941 16.174 27.3275 16.174C27.4611 16.174 27.5613 16.1405 27.6949 16.0736L27.7617 16.0401C27.9621 15.9731 28.1959 15.9396 28.4297 15.9396C28.5967 15.9396 28.7303 15.9731 28.8305 16.0401C29.0977 16.174 29.1311 16.5423 29.1311 16.8102C29.1311 17.4463 28.8305 17.9151 28.1959 18.2164C28.1625 18.2499 28.1291 18.2499 28.0957 18.2834L27.9287 18.3503L28.0957 18.4508C28.2961 18.5847 29.0309 18.9865 29.0977 19.02L29.0643 19.0535C29.0643 19.0869 28.6969 19.4552 28.4631 19.7566L27.3275 18.953Z"
        fill="white" />
    <path
        d="M9.96016 19.6896C9.92676 19.6896 9.89336 19.6896 9.85996 19.6896C9.69297 19.6561 9.62617 19.4887 9.52598 19.3548C9.49258 19.3213 9.49258 19.2878 9.45918 19.2543L9.32559 19.0869C9.35898 19.0869 9.39238 19.0869 9.42578 19.0869C9.49258 19.0869 9.55937 19.0869 9.62617 19.0535C9.69297 19.02 9.72637 18.9865 9.75977 18.953C9.82656 18.886 9.82656 18.8191 9.79316 18.7521C9.75977 18.6851 9.72637 18.6517 9.69297 18.6182H9.65957C9.59277 18.5512 9.52598 18.5177 9.45918 18.4508L7.25488 16.6427V13.0936H10.7283H15.5711C15.5711 13.6628 15.5711 18.5512 15.5711 18.5512H14.4689V15.9396H13.133V16.5088C13.133 16.5758 13.0996 16.6762 13.0662 16.7432C12.9994 16.8771 12.9326 16.9441 12.7656 16.9441H12.7322C12.6654 16.9441 12.4316 16.8436 11.9975 16.3079C11.4965 15.7387 11.4631 15.5378 11.4631 15.4709C11.4631 15.1695 11.5967 15.0356 11.9307 15.0356H14.4689V13.9642H10.7617V15.7722C10.7617 16.0066 10.6615 16.174 10.4945 16.3414C10.2941 16.5088 10.0604 16.6093 9.79316 16.6093L8.9582 15.9061C9.35898 15.9061 9.52598 15.8392 9.55937 15.8057C9.62617 15.7722 9.65957 15.7052 9.65957 15.6048V13.9642H8.39043V16.3749C8.39043 16.3749 8.85801 16.7432 9.025 16.9106C9.025 16.9106 9.82656 17.5802 10.1271 17.8146C10.2607 17.9151 10.3943 18.049 10.5279 18.1494C10.7617 18.3168 10.8619 18.5177 10.8953 18.7521C10.9287 18.9195 10.8619 19.0869 10.7951 19.2543C10.7283 19.3548 10.6281 19.4218 10.5279 19.4887C10.2941 19.6226 10.0937 19.6896 9.96016 19.6896Z"
        fill="white" />
    <path d="M13.7676 13.0936H16.2391V13.9642H15.2371" fill="white" />
    <path d="M51.5415 52.3348H52.4433V57.692H51.5415V52.3348Z" fill="#4D4D4D" />
    <path
        d="M58.0543 52.3348V57.692H57.1191L54.5141 53.9085V57.692H53.6123V52.3348H54.5141L57.1191 56.1853H57.1525V52.3348H58.0543Z"
        fill="#4D4D4D" />
    <path d="M59.1899 52.3348H60.0917V57.692H59.1899V52.3348Z" fill="#4D4D4D" />
    <path d="M62.3628 53.1719H60.8599V52.3683H64.8009V53.1719H63.2645V57.7254H62.3628V53.1719Z" fill="#4D4D4D" />
    <path d="M65.5356 52.3348H66.4374V57.692H65.5356V52.3348Z" fill="#4D4D4D" />
    <path
        d="M70.6455 56.5536H68.4746L68.0738 57.692H67.1387L69.1426 52.3348H70.0443L72.0482 57.692H71.0797L70.6455 56.5536ZM70.3783 55.7835L69.5768 53.4732L68.7752 55.7835H70.3783Z"
        fill="#4D4D4D" />
    <path d="M73.1836 53.1719H71.6807V52.3683H75.6551V53.1719H74.1187V57.7254H73.217V53.1719H73.1836Z" fill="#4D4D4D" />
    <path d="M76.3901 52.3348H77.2919V57.692H76.3901V52.3348Z" fill="#4D4D4D" />
    <path d="M82.8025 52.3348L80.7986 57.692H79.9971L77.9932 52.3348H78.9617L80.3645 56.3862L81.7672 52.3348H82.8025Z"
        fill="#4D4D4D" />
    <path
        d="M83.4702 52.3348H86.8435V53.1384H84.372V54.6116H86.3425V55.4152H84.372V56.8549H86.9771V57.6585H83.4702V52.3348Z"
        fill="#4D4D4D" />
    <path
        d="M91.0186 57.558C90.6847 57.4241 90.3841 57.2232 90.1503 56.9888C89.9165 56.7544 89.7161 56.4531 89.6159 56.1183C89.4823 55.7834 89.4155 55.4151 89.4155 55.0134C89.4155 54.6116 89.4823 54.2767 89.6159 53.9084C89.7495 53.5736 89.9165 53.2723 90.1503 53.0379C90.3841 52.8035 90.6847 52.6026 91.0186 52.4687C91.3526 52.3348 91.72 52.2678 92.1208 52.2678C92.4882 52.2678 92.8556 52.3348 93.1895 52.4687C93.5235 52.6026 93.8241 52.7701 94.0579 53.0379C94.2917 53.2723 94.4921 53.5736 94.6257 53.9084C94.7593 54.2433 94.8261 54.6116 94.8261 55.0134C94.8261 55.4151 94.7593 55.7834 94.6257 56.1183C94.4921 56.4531 94.2917 56.7544 94.0579 56.9888C93.8241 57.2232 93.5235 57.4241 93.1895 57.558C92.8556 57.6919 92.4882 57.7589 92.1208 57.7589C91.7534 57.7589 91.386 57.6919 91.0186 57.558ZM92.8222 56.7879C93.0226 56.6875 93.2229 56.5535 93.3899 56.3861C93.5569 56.2187 93.6571 56.0178 93.7573 55.7834C93.8575 55.5491 93.8909 55.2812 93.8909 55.0134C93.8909 54.7455 93.8575 54.4776 93.7573 54.2433C93.6571 54.0089 93.5569 53.808 93.3899 53.6406C93.2229 53.4732 93.056 53.3392 92.8222 53.2388C92.6218 53.1384 92.388 53.1049 92.1208 53.1049C91.8536 53.1049 91.6198 53.1384 91.4194 53.2388C91.1856 53.3392 91.0186 53.4732 90.8517 53.6406C90.6847 53.808 90.5845 54.0089 90.4843 54.2433C90.3841 54.4776 90.3507 54.712 90.3507 54.9799C90.3507 55.2477 90.3841 55.4821 90.4843 55.7165C90.5845 55.9509 90.6847 56.1518 90.8517 56.3192C91.0186 56.4866 91.1856 56.6205 91.4194 56.7209C91.6532 56.8214 91.887 56.8549 92.1208 56.8549C92.388 56.9218 92.6218 56.8884 92.8222 56.7879Z"
        fill="#4D4D4D" />
    <path d="M95.6943 52.3348H99.2012V53.1384H96.5961V54.7455H98.767V55.5491H96.5961V57.6585H95.6943V52.3348Z"
        fill="#4D4D4D" />
    <path
        d="M59.8912 43.9977C58.8559 43.7634 57.8873 43.4286 56.9855 42.9598C56.0838 42.5245 55.2154 41.9219 54.4807 41.2522C53.7125 40.5491 53.0779 39.779 52.5102 38.9085C51.9758 38.0379 51.5416 37.0335 51.241 35.8951C50.9404 34.7567 50.7734 33.5513 50.7734 32.2455C50.7734 31.1071 50.907 30.0357 51.1408 28.9978C51.3746 27.9598 51.742 26.9888 52.2096 26.0848C52.6771 25.1808 53.2783 24.3437 53.9797 23.6071C54.6811 22.8705 55.4826 22.2344 56.3844 21.6986C57.2861 21.1629 58.2881 20.7611 59.4236 20.4598C60.5592 20.1585 61.7949 20.0245 63.0641 20.0245C64.8008 20.0245 66.5041 20.3928 68.2074 21.1629C69.9107 21.933 71.4137 23.0714 72.6828 24.6116L68.0404 28.596C67.7732 28.2946 67.4727 27.9933 67.1387 27.7254C66.8047 27.4576 66.4373 27.1897 66.0031 26.9553C65.5689 26.721 65.1014 26.5201 64.6004 26.3527C64.0994 26.1853 63.565 26.1183 63.0307 26.1183C62.4629 26.1183 61.8617 26.1853 61.3273 26.3527C60.7596 26.5201 60.2586 26.7544 59.791 27.1227C59.3234 27.4576 58.8893 27.8928 58.5219 28.3616C58.1545 28.8303 57.8873 29.433 57.6869 30.1027C57.4865 30.7723 57.3863 31.5089 57.3863 32.279C57.3863 33.0826 57.5199 33.8527 57.7871 34.5893C58.0543 35.3259 58.4217 35.962 58.8893 36.4977C59.3568 37.0669 59.958 37.5022 60.6928 37.8035C61.4275 38.1384 62.1957 38.3058 63.0641 38.3058C63.9992 38.3058 64.901 38.0714 65.8027 37.6361C66.7045 37.2009 67.4727 36.5982 68.0404 35.8951L72.6828 39.8794C71.5807 41.2187 70.2113 42.3236 68.5414 43.1607C66.8715 43.9977 65.0346 44.3995 63.0641 44.3995C61.9953 44.3661 60.9266 44.2656 59.8912 43.9977Z"
        fill="#2584C6" />
    <path d="M74.1855 20.3259H80.5646V38.3728H89.9496V43.9978H74.1855V20.3259Z" fill="#2584C6" />
    <path
        d="M97.3309 43.462C95.7945 42.8594 94.492 42.0223 93.4232 40.9844C92.3545 39.9129 91.5195 38.6406 90.9184 37.1339C90.3172 35.6272 90.0166 33.9866 90.0166 32.212C90.0166 30.4375 90.3172 28.7969 90.9184 27.2567C91.5195 25.75 92.3545 24.4442 93.4232 23.4062C94.492 22.3348 95.7945 21.4977 97.3309 20.9286C98.8672 20.3259 100.504 20.0245 102.307 20.0245C104.077 20.0245 105.714 20.3259 107.25 20.9286C108.753 21.5312 110.056 22.3348 111.124 23.4062C112.193 24.4777 113.028 25.75 113.629 27.2567C114.23 28.7634 114.531 30.4375 114.531 32.212C114.531 33.9866 114.23 35.6607 113.629 37.1674C113.028 38.6741 112.193 39.9799 111.124 41.0178C110.056 42.0558 108.753 42.8928 107.25 43.4955C105.747 44.0982 104.077 44.3661 102.307 44.3661C100.537 44.3661 98.8672 44.0647 97.3309 43.462ZM105.246 37.6361C106.115 37.0669 106.783 36.3303 107.25 35.3594C107.718 34.4219 107.952 33.3504 107.952 32.1786C107.952 31.0067 107.718 29.9687 107.25 28.9978C106.783 28.0603 106.115 27.2902 105.246 26.721C104.378 26.1518 103.376 25.8839 102.307 25.8839C101.205 25.8839 100.237 26.1518 99.3682 26.721C98.4998 27.2902 97.8318 28.0268 97.3309 28.9978C96.8633 29.9687 96.5961 31.0067 96.5961 32.1786C96.5961 33.3504 96.8299 34.3884 97.3309 35.3594C97.7984 36.2969 98.4998 37.0669 99.3682 37.6361C100.237 38.2053 101.205 38.4732 102.307 38.4732C103.409 38.4732 104.378 38.1719 105.246 37.6361Z"
        fill="#2584C6" />
    <path
        d="M122.113 43.6965C120.91 43.2612 119.875 42.5915 118.973 41.721C118.105 40.8505 117.437 39.779 116.936 38.4732C116.435 37.1674 116.234 35.6942 116.234 34.0536V20.3259H122.647V33.7188C122.647 34.5893 122.78 35.3594 123.014 36.0625C123.248 36.7657 123.649 37.3348 124.183 37.8036C124.718 38.2389 125.386 38.4732 126.154 38.4732C126.855 38.4732 127.456 38.3058 128.024 37.9375C128.558 37.5692 128.993 37.0335 129.327 36.2969C129.661 35.5603 129.794 34.7232 129.794 33.7188V20.3259H136.173V34.0536C136.173 36.1295 135.806 37.9375 135.038 39.4777C134.27 41.0179 133.134 42.2232 131.631 43.0603C130.128 43.9308 128.291 44.3326 126.187 44.3326C124.684 44.3661 123.315 44.1317 122.113 43.6965Z"
        fill="#2584C6" />
    <path
        d="M138.645 20.3259H147.161C148.998 20.3259 150.702 20.6273 152.204 21.1965C153.741 21.7991 155.043 22.6027 156.079 23.6407C157.147 24.6786 157.949 25.9174 158.517 27.3907C159.085 28.8639 159.385 30.471 159.385 32.2121C159.385 33.9532 159.118 35.5268 158.55 37C157.982 38.4398 157.214 39.6786 156.179 40.75C155.144 41.788 153.874 42.5915 152.338 43.1607C150.802 43.7299 149.098 44.0313 147.228 44.0313H138.611V20.3259H138.645ZM146.861 38.4063C148.03 38.4063 149.065 38.1384 149.967 37.5692C150.869 37 151.57 36.2634 152.071 35.3259C152.572 34.3884 152.806 33.3505 152.806 32.2121C152.806 31.3416 152.672 30.538 152.371 29.7679C152.071 28.9978 151.704 28.3282 151.203 27.7924C150.702 27.2232 150.134 26.788 149.432 26.4866C148.764 26.1518 148.03 26.0179 147.262 26.0179H144.757V38.4063H146.861Z"
        fill="#2584C6" />
    <path
        d="M66.2703 0.671753V17.3793H64.9344L54.4473 3.0155H54.4139V17.3793H53.1113V0.671753H54.4139L64.9344 15.1026H64.9678V0.671753H66.2703Z"
        fill="#2584C6" />
    <path
        d="M79.6297 12.9597H71.5807L69.9107 17.3793H68.4746L74.8537 0.671753H76.2564L82.7023 17.3793H81.2662L79.6297 12.9597ZM79.1621 11.6874L75.5885 2.2789H75.5551L72.0148 11.6874H79.1621Z"
        fill="#2584C6" />
    <path d="M87.2111 1.91063H82.001V0.638306H93.824V1.91063H88.5137V17.3459H87.2111V1.91063Z" fill="#2584C6" />
    <path d="M96.2622 0.671753H97.5981V17.3793H96.2622V0.671753Z" fill="#2584C6" />
    <path
        d="M105.681 16.8436C104.645 16.4084 103.777 15.8057 103.042 15.0356C102.341 14.2655 101.773 13.3615 101.372 12.3236C100.971 11.2856 100.771 10.1807 100.771 9.00883C100.771 7.83695 100.971 6.73204 101.372 5.69409C101.773 4.65614 102.341 3.75213 103.042 3.01552C103.743 2.24543 104.645 1.64275 105.681 1.20748C106.716 0.772217 107.851 0.537842 109.054 0.537842C110.189 0.537842 111.258 0.738736 112.26 1.14052C113.262 1.54231 114.13 2.1115 114.899 2.84811C115.633 3.58472 116.234 4.45525 116.669 5.52668C117.103 6.59811 117.303 7.7365 117.303 8.97534C117.303 10.2142 117.103 11.3861 116.669 12.4575C116.234 13.5289 115.667 14.4329 114.899 15.1361C114.164 15.8727 113.295 16.4419 112.26 16.8436C111.258 17.2454 110.189 17.4463 109.054 17.4463C107.851 17.4798 106.716 17.2789 105.681 16.8436ZM111.726 15.6383C112.561 15.27 113.295 14.8012 113.897 14.1651C114.498 13.5289 114.999 12.7923 115.366 11.8883C115.733 10.9843 115.9 10.0133 115.9 8.97534C115.9 7.9374 115.733 6.96641 115.366 6.0624C114.999 5.15838 114.531 4.42177 113.897 3.78561C113.295 3.18293 112.561 2.6807 111.726 2.34588C110.891 2.01105 109.989 1.81016 109.054 1.81016C108.052 1.81016 107.117 2.01106 106.248 2.37936C105.38 2.74766 104.645 3.2499 104.077 3.91954C103.476 4.5557 103.042 5.32579 102.675 6.19632C102.341 7.06686 102.174 8.00436 102.174 8.97534C102.174 9.77891 102.274 10.5155 102.474 11.2521C102.675 11.9887 102.975 12.6249 103.409 13.2276C103.81 13.8303 104.278 14.3325 104.846 14.7678C105.413 15.203 106.048 15.5378 106.749 15.8057C107.484 16.0401 108.219 16.174 109.054 16.174C109.989 16.174 110.857 16.0066 111.726 15.6383Z"
        fill="#2584C6" />
    <path
        d="M133.501 0.671753V17.3793H132.165L121.678 3.0155H121.645V17.3793H120.342V0.671753H121.645L132.165 15.1026H132.199V0.671753H133.501Z"
        fill="#2584C6" />
    <path
        d="M146.861 12.9597H138.812L137.142 17.3793H135.739L142.118 0.671753H143.521L149.967 17.3793H148.531L146.861 12.9597ZM146.393 11.6874L142.82 2.2789H142.786L139.279 11.6874H146.393Z"
        fill="#2584C6" />
    <path d="M152.204 0.671753H153.507V16.107H162.224V17.3793H152.171V0.671753H152.204Z" fill="#2584C6" />
</svg>