<svg width="135" height="60" viewBox="0 0 135 60" fill="none" xmlns="http://www.w3.org/2000/svg">
    <path
        d="M106.25 54.4973C106.139 54.3309 106.001 54.2199 105.807 54.109C105.612 54.0258 105.391 53.9703 105.085 53.9703C104.947 53.9703 104.808 53.9981 104.697 54.0258C104.586 54.0535 104.475 54.109 104.392 54.1645C104.309 54.2199 104.226 54.2754 104.17 54.3586C104.115 54.4418 104.059 54.4973 104.032 54.5805H104.004V52.3617H102.811V57.9086H104.004V55.9949C104.004 55.8563 104.004 55.7453 104.032 55.6344C104.059 55.5234 104.087 55.4125 104.143 55.3293C104.198 55.2461 104.253 55.1629 104.364 55.1074C104.448 55.052 104.586 55.0242 104.725 55.0242C104.864 55.0242 105.002 55.052 105.085 55.1074C105.169 55.1629 105.224 55.2461 105.28 55.357C105.307 55.468 105.335 55.5789 105.363 55.6898C105.363 55.8008 105.363 55.9117 105.363 56.0227V57.9086H106.555V55.8008C106.555 55.5512 106.528 55.3016 106.5 55.0797C106.417 54.8578 106.361 54.6637 106.25 54.4973Z"
        fill="white" />
    <path
        d="M101.258 53.9703V54.4973H101.23C101.175 54.4418 101.12 54.3586 101.036 54.2754C100.953 54.1922 100.87 54.1367 100.759 54.0813C100.648 54.0258 100.537 53.9703 100.371 53.9426C100.232 53.9149 100.066 53.8871 99.8992 53.8871C99.6219 53.8871 99.3723 53.9426 99.1782 54.0535C98.9563 54.1645 98.7899 54.3031 98.6235 54.4973C98.4848 54.6914 98.3461 54.8856 98.2629 55.1352C98.1797 55.3848 98.152 55.6344 98.152 55.884C98.152 56.1613 98.2074 56.4387 98.2906 56.6883C98.3739 56.9379 98.5125 57.132 98.6789 57.3262C98.8453 57.4926 99.0395 57.6313 99.2614 57.7422C99.4832 57.8531 99.7606 57.8809 100.038 57.8809C100.204 57.8809 100.398 57.8531 100.62 57.7699C100.814 57.6867 100.981 57.5758 101.12 57.3816H101.147V57.7422C101.147 58.0195 101.064 58.2414 100.898 58.4078C100.731 58.5742 100.454 58.6852 100.093 58.6852H98.5403V59.7391H100.093C100.842 59.7391 101.425 59.5449 101.785 59.1844C102.146 58.7961 102.34 58.2691 102.34 57.5203V53.9703H101.258ZM101.175 56.2445C101.12 56.3555 101.064 56.4664 100.981 56.5496C100.898 56.6328 100.787 56.716 100.676 56.7715C100.565 56.827 100.426 56.8547 100.315 56.8547C100.177 56.8547 100.066 56.827 99.927 56.7715C99.816 56.716 99.7051 56.6606 99.6219 56.5496C99.5387 56.4664 99.4555 56.3555 99.4278 56.2445C99.3723 56.1336 99.3446 56.0227 99.3446 55.884C99.3446 55.7453 99.3723 55.6344 99.4278 55.5234C99.4832 55.4125 99.5387 55.3016 99.6219 55.2184C99.7051 55.1352 99.816 55.052 99.927 54.9965C100.038 54.941 100.177 54.9133 100.315 54.9133C100.454 54.9133 100.565 54.941 100.676 54.9965C100.787 55.052 100.898 55.1074 100.981 55.2184C101.064 55.3016 101.147 55.4125 101.175 55.5234C101.23 55.6344 101.258 55.7453 101.258 55.884C101.258 56.0227 101.23 56.1336 101.175 56.2445Z"
        fill="white" />
    <path
        d="M97.9301 55.884C97.9301 55.5789 97.8746 55.3016 97.7914 55.052C97.7082 54.8023 97.5973 54.5805 97.4309 54.4141C97.2644 54.2477 97.098 54.109 96.8762 53.998C96.6543 53.9148 96.4047 53.8594 96.1273 53.8594C95.8223 53.8594 95.5449 53.9148 95.2953 53.998C95.0457 54.0812 94.7961 54.2199 94.6297 54.4141C94.4356 54.5805 94.2969 54.8023 94.1859 55.052C94.075 55.3016 94.0195 55.5789 94.0195 55.884C94.0195 56.1891 94.075 56.4664 94.1859 56.716C94.2969 56.9656 94.4356 57.1875 94.6297 57.3539C94.8238 57.5203 95.0457 57.659 95.2953 57.7699C95.5449 57.8531 95.8223 57.9086 96.0719 57.9086H97.7914V57.0211H96.0719C95.85 57.0211 95.6559 56.9656 95.4894 56.827C95.323 56.6883 95.2398 56.5219 95.1844 56.3H97.9301V55.884ZM95.1844 55.4402C95.1844 55.357 95.2121 55.2461 95.2398 55.1629C95.2676 55.0797 95.323 54.9965 95.4062 54.941C95.4895 54.8855 95.5727 54.8301 95.6559 54.7746C95.7668 54.7191 95.8777 54.7191 96.0164 54.7191C96.2383 54.7191 96.4047 54.8023 96.5434 54.941C96.682 55.0797 96.7375 55.2461 96.7375 55.4402H95.1844Z"
        fill="white" />
    <path
        d="M96.0719 51.7516C95.4895 51.7516 94.9348 51.8902 94.4355 52.1121C94.1305 49.5328 91.9117 47.5082 89.2492 47.5082C86.3648 47.5082 84.0352 49.8379 84.0352 52.7223C84.0352 55.1629 85.7269 57.2152 88.0012 57.7977V56.5496V55.9949V54.4418C88.0012 54.2754 88.0289 54.109 88.0844 53.9703C88.1398 53.8316 88.223 53.693 88.3062 53.582C88.6113 53.2492 89.2215 53.277 89.4988 53.582C89.6098 53.693 89.6652 53.8039 89.7207 53.9703C89.7762 54.109 89.8039 54.2754 89.8039 54.4418V57.8809H91.0242V57.7145C91.0242 56.9102 91.0242 56.1059 91.0242 55.3016C91.0242 54.941 91.1074 54.5527 91.468 54.3586C91.9394 54.109 92.4664 54.525 92.4664 55.0797V57.9086H93.659V54.941C93.659 54.6637 93.6313 54.4418 93.6035 54.2199C93.548 54.0258 93.4926 53.8316 93.3816 53.693C93.0488 53.1938 92.3 53.0273 91.7453 53.1938C91.6344 53.2215 91.1352 53.4988 90.9688 53.7207C90.941 53.6375 90.941 53.582 90.9133 53.5266C90.8023 53.2492 90.6637 52.9996 90.4695 52.8055C90.2754 52.6113 90.0258 52.4449 89.7207 52.334C89.4156 52.2231 89.3047 52.1676 88.9164 52.1676C88.5281 52.1676 88.4172 52.2231 88.1121 52.334C87.807 52.4449 87.5852 52.6113 87.3633 52.8055C87.1691 52.9996 87.0305 53.2492 86.9195 53.5266C86.8086 53.8039 86.7809 54.109 86.7809 54.4418V55.9117C86.8641 55.9949 86.975 56.0504 87.0582 56.1059C85.9766 55.3848 85.2555 54.1645 85.2555 52.75C85.2555 50.5313 87.0582 48.7285 89.277 48.7285C91.4957 48.7285 93.2984 50.5313 93.2984 52.75C93.7977 52.8055 94.2414 53.1383 94.4633 53.582C94.907 53.1938 95.4895 52.9719 96.1273 52.9719C96.9039 52.9719 97.625 53.3324 98.0965 53.8871C98.3738 53.6098 98.7621 53.3879 99.1504 53.277C98.4016 52.3617 97.3199 51.7516 96.0719 51.7516ZM87.1414 56.1336C87.1137 56.1059 87.0859 56.1059 87.0582 56.0781C87.0859 56.1059 87.1137 56.1336 87.1414 56.1336Z"
        fill="white" />
    <path
        d="M112.546 57.7699C112.768 57.8809 113.045 57.9086 113.323 57.9086C113.489 57.9086 113.683 57.8809 113.905 57.7977C114.099 57.7145 114.266 57.6035 114.404 57.4094H114.432V57.7699H115.597C115.597 57.7699 115.597 57.6313 115.597 57.548V54.1367H114.515V54.5527H114.487C114.432 54.4973 114.377 54.4141 114.293 54.3309C114.21 54.2477 114.127 54.1922 114.016 54.1367C113.905 54.0812 113.794 54.0258 113.628 53.998C113.489 53.9703 113.323 53.9426 113.156 53.9426C112.879 53.9426 112.629 53.998 112.435 54.109C112.213 54.2199 112.047 54.3586 111.88 54.5527C111.742 54.7469 111.603 54.941 111.52 55.1906C111.437 55.4402 111.409 55.6898 111.409 55.9395C111.409 56.2168 111.464 56.4941 111.548 56.7437C111.631 56.9934 111.769 57.1875 111.936 57.3816C112.102 57.548 112.296 57.6867 112.546 57.7699ZM112.685 55.5789C112.74 55.468 112.796 55.357 112.879 55.2738C112.962 55.1906 113.073 55.1074 113.184 55.052C113.295 54.9965 113.434 54.9687 113.572 54.9687C113.711 54.9687 113.822 54.9965 113.933 55.052C114.044 55.1074 114.155 55.1629 114.238 55.2738C114.321 55.357 114.404 55.468 114.432 55.5789C114.487 55.6898 114.515 55.8008 114.515 55.9395C114.515 56.0781 114.487 56.1891 114.432 56.3C114.377 56.4109 114.321 56.5219 114.238 56.6051C114.155 56.6883 114.044 56.7715 113.933 56.827C113.822 56.8824 113.683 56.9102 113.572 56.9102C113.434 56.9102 113.323 56.8824 113.184 56.827C113.073 56.7715 112.962 56.716 112.879 56.6051C112.796 56.5219 112.712 56.4109 112.685 56.3C112.629 56.1891 112.602 56.0781 112.602 55.9395C112.602 55.8008 112.629 55.6898 112.685 55.5789Z"
        fill="white" />
    <path
        d="M111.215 56.4941C111.159 56.3277 111.076 56.1613 110.965 56.0227C110.91 55.9672 110.743 55.9117 110.66 55.884C110.605 55.8563 110.522 55.8285 110.411 55.8285C111.326 55.1629 111.603 53.7762 110.771 52.75C110.549 52.4727 110.106 52.1953 109.773 52.0844C109.412 51.9734 108.968 51.9457 108.608 52.0289C108.303 52.1121 107.97 52.2785 107.748 52.4727C107.498 52.6668 107.332 52.9164 107.193 53.1938C107.055 53.5266 106.999 53.8871 106.999 54.2477V54.941V56.1613V57.7422H108.22V56.1613V55.9672V54.9965V54.3586C108.22 54.109 108.303 53.7762 108.469 53.5543C108.636 53.3602 108.913 53.2215 109.19 53.2492C109.551 53.277 109.884 53.582 109.995 53.9148C110.078 54.2199 110.022 54.7191 109.828 54.9688C109.606 55.2461 109.329 55.357 108.996 55.4402C108.857 55.468 108.719 55.4957 108.719 55.4957C108.719 55.4957 108.719 56.1336 108.719 56.3555C108.719 56.3277 109.44 56.4109 109.523 56.4109C110.216 56.4109 110.078 57.8531 110.078 57.8531H111.381C111.354 57.8254 111.298 56.7438 111.215 56.4941Z"
        fill="white" />
    <path
        d="M116.068 54.0813C116.068 54.0813 116.068 57.3816 116.068 57.4648V57.6035C116.068 57.8809 115.985 58.1027 115.819 58.2691C115.652 58.4355 115.375 58.5465 115.014 58.5465H114.432V59.6004H115.014C115.763 59.6004 116.346 59.4617 116.706 59.0734C117.067 58.7129 117.233 58.1582 117.261 57.4648V57.4094V54.0813H116.068Z"
        fill="white" />
    <path d="M116.068 52.6945C116.068 52.6945 116.068 53.1383 116.068 53.693H117.261V52.6945H116.068Z" fill="white" />
    <path d="M36.5816 10.2609H0V46.8426H36.5816V10.2609Z" fill="white" />
    <path d="M9.70713 37.9953H5.71338V38.2726H9.70713V37.9953Z" fill="#16235A" />
    <path d="M5.71338 37.5238V37.1078H9.65166L9.6794 37.5238H5.71338Z" fill="#16235A" />
    <path d="M5.71338 36.6363V36.0539H9.62393L9.65166 36.6363H5.71338Z" fill="#16235A" />
    <path d="M5.71338 35.5824V34.7226H9.59619L9.62393 35.5824H5.71338Z" fill="#16235A" />
    <path d="M5.71338 34.2789V32.9754H17.029L17.1122 34.2789H10.2618L9.48525 32.9754L9.56846 34.2789H5.71338Z"
        fill="#16235A" />
    <path d="M5.71338 32.5039V30.8676H12.4806L13.479 32.5039L13.3681 30.8676H17.1122V32.5039H5.71338Z" fill="#16235A" />
    <path d="M5.71338 30.4238V27.2344H10.2896L12.1755 30.4238H5.71338Z" fill="#16235A" />
    <path d="M17.1123 27.2344H13.3682V30.4238H17.1123V27.2344Z" fill="#16235A" />
    <path d="M17.1122 34.7226V35.5824H11.1493L10.5669 34.7226H17.1122Z" fill="#16235A" />
    <path d="M17.1123 36.0539V36.6363H11.815L11.4268 36.0539H17.1123Z" fill="#16235A" />
    <path d="M17.1123 37.1078V37.5238H12.3975L12.1201 37.1078H17.1123Z" fill="#16235A" />
    <path d="M17.1122 37.9953V38.2726H12.8965L12.7024 37.9953H17.1122Z" fill="#16235A" />
    <path d="M22.0766 37.9953H18.166V38.2726H22.0766V37.9953Z" fill="#16235A" />
    <path d="M22.0766 37.1078H18.166V37.5238H22.0766V37.1078Z" fill="#16235A" />
    <path d="M22.0766 36.0539H18.166V36.6363H22.0766V36.0539Z" fill="#16235A" />
    <path d="M22.0766 34.7226H18.166V35.5824H22.0766V34.7226Z" fill="#16235A" />
    <path d="M22.0766 32.9754H18.166V34.3066H22.0766V32.9754Z" fill="#16235A" />
    <path d="M22.0766 30.8676H18.166V32.5039H22.0766V30.8676Z" fill="#16235A" />
    <path d="M22.0766 27.2344H18.166V30.4238H22.0766V27.2344Z" fill="#16235A" />
    <path d="M28.7884 27.0402H30.8685V30.4238H28.7606H23.3247C24.2399 28.4269 26.3478 27.0402 28.7884 27.0402Z"
        fill="#16235A" />
    <path
        d="M27.5127 30.8676C27.0412 31.2559 26.7361 31.8383 26.7361 32.5039H22.7979C22.8256 31.9492 22.9365 31.3945 23.1307 30.8676H27.5127Z"
        fill="#16235A" />
    <path
        d="M26.7639 32.9754C26.8748 33.5023 27.1522 33.9738 27.5404 34.3066H23.0197C22.8811 33.8906 22.8256 33.4469 22.7979 32.9754H26.7639Z"
        fill="#16235A" />
    <path d="M30.8407 34.7226V35.5824H23.6021C23.4356 35.3051 23.297 35.0277 23.186 34.7226H30.8407Z" fill="#16235A" />
    <path d="M30.8408 36.0539V36.6363H24.4342C24.24 36.4422 24.0736 36.248 23.9072 36.0539H30.8408Z" fill="#16235A" />
    <path d="M30.8406 37.1078V37.5238H25.5711C25.3492 37.3851 25.1551 37.2465 24.9609 37.1078H30.8406Z"
        fill="#16235A" />
    <path d="M30.8406 37.9953V38.2449H27.3184C27.3184 38.2449 27.2074 38.2726 26.4863 37.9953H30.8406Z"
        fill="#16235A" />
    <path
        d="M26.6528 25.4039C26.5419 25.2375 26.2923 24.8769 25.7653 24.1559C25.1829 23.3238 24.9333 22.9633 24.8501 22.7691L25.488 22.3254C25.5712 22.4918 25.5989 22.575 25.6267 22.6305C25.7099 22.7414 25.7931 22.8246 25.8763 22.8246H25.904C25.9872 22.8246 26.0427 22.7691 26.0704 22.7137C26.0704 22.6859 26.0704 22.6305 26.0704 22.6027V21.632H25.1552V20.8832H27.2907L27.1798 20.7445C27.1521 20.6891 27.1243 20.6613 27.1243 20.6613C27.0134 20.4394 26.9579 20.2176 26.9579 19.9957C26.9856 19.6629 27.0966 19.3855 27.3739 19.1914C27.6235 18.9973 27.9841 18.8863 28.4278 18.8863C28.8993 18.8863 29.5927 19.1359 30.0364 19.6906C30.4524 20.1898 30.6743 20.7445 30.7021 20.8277V25.4039H29.7868V21.6043H28.8993V24.1559V24.2391V25.3762H27.9841V23.4348H27.5958L27.2075 22.7414H27.9841V21.5766H26.9579V22.6582C26.9579 22.8246 26.9024 22.991 26.7915 23.1297C26.6806 23.2961 26.5142 23.407 26.2923 23.4625L26.1813 23.4902L26.2646 23.6012C26.3478 23.7121 26.4864 23.8508 26.6251 24.0449C26.8192 24.2668 27.0411 24.5441 27.2907 24.8492L26.6528 25.4039ZM28.3724 19.5519C28.3169 19.5519 28.2614 19.5519 28.2337 19.5519C28.0673 19.5797 27.9286 19.6629 27.8454 19.7738C27.7899 19.857 27.7345 19.9957 27.7622 20.1344C27.7622 20.4394 27.9009 20.6613 28.206 20.7723C28.3724 20.8555 28.5388 20.8555 28.5388 20.8555H29.5095C29.8978 20.8555 29.8978 20.8555 29.8978 20.7723C29.7036 20.1898 29.038 19.5519 28.3724 19.5519Z"
        fill="#16235A" />
    <path
        d="M22.4095 25.7367C22.2985 25.6535 22.1599 25.5148 22.0212 25.4039L21.9935 25.3762H21.9657C21.938 25.3762 21.9103 25.3762 21.8825 25.3762H21.8271H21.6884C21.4665 25.3762 21.2724 25.293 21.106 25.182C20.9396 25.0711 20.8841 24.9047 20.8841 24.7383C20.8841 24.5719 20.9396 24.4609 21.0505 24.3777C21.1614 24.2668 21.3001 24.2391 21.4665 24.2391C21.5497 24.2391 21.6329 24.2668 21.7161 24.2945C21.9103 24.3777 22.1044 24.5441 22.2985 24.7937C22.2985 24.7937 22.3263 24.8215 22.3817 24.8215C22.4095 24.8215 22.4372 24.8215 22.5204 24.7937H22.5481C22.6591 24.7383 22.7423 24.6828 22.8255 24.5719C22.9642 24.4055 23.0196 24.1836 22.9642 23.9894C22.9642 23.9617 22.9364 23.9062 22.9087 23.8785C22.881 23.8508 22.8532 23.823 22.7978 23.823C22.77 23.823 22.77 23.823 22.7423 23.823C22.6591 23.8508 22.6036 23.8785 22.5481 23.9062C22.4927 23.934 22.4649 23.934 22.4095 23.9617C22.3263 23.9894 22.2708 23.9894 22.1876 23.9894C22.0767 23.9894 21.938 23.9617 21.8271 23.9062C21.6606 23.823 21.4942 23.7121 21.3278 23.5457C21.0228 23.2129 20.8563 22.9078 20.8563 22.6582C20.8563 22.5195 20.9118 22.3809 21.0228 22.2977C21.1337 22.2145 21.2446 22.159 21.411 22.159H22.6868V21.6598H20.0798V25.4594H19.1646V21.6598H18.3048V25.4594H17.3896V23.6566L17.2786 23.7121C17.2509 23.7398 17.1954 23.7398 17.1399 23.7398C17.1122 23.7398 17.0567 23.7398 17.029 23.7398L16.9181 23.7121V23.823C16.9458 24.2668 16.8349 24.6273 16.5853 24.8492C16.3634 25.0434 16.0306 25.1543 15.6146 25.1543C15.254 25.1543 14.9212 24.9879 14.5606 24.7105C14.1724 24.35 13.8396 23.8785 13.6177 23.3238C13.8396 23.2406 14.0614 23.1297 14.2833 23.0465C14.3388 23.1297 14.3665 23.2129 14.422 23.3238C14.5052 23.4902 14.5884 23.6566 14.6716 23.823C14.8103 24.0449 15.0599 24.3223 15.4204 24.4055C15.4759 24.4055 15.5313 24.4332 15.5868 24.4332C15.7255 24.4332 15.8364 24.4055 15.9196 24.3223C16.1138 24.1559 16.1138 23.8508 16.0306 23.6566C15.9196 23.407 15.6423 23.3516 15.5036 23.3238H15.4759C15.4204 23.3238 15.3649 23.3238 15.2817 23.3238C15.2263 23.3238 15.1708 23.3238 15.1431 23.3238C15.0876 23.2129 14.9767 22.9633 14.9212 22.8246C15.0321 22.7969 15.2263 22.7137 15.3372 22.6859C15.5036 22.6305 15.6146 22.5473 15.67 22.4363C15.7255 22.3531 15.7532 22.2422 15.7532 22.1312C15.7532 22.048 15.7255 21.9648 15.6978 21.9094C15.6423 21.8262 15.5313 21.7707 15.3927 21.7707C15.2263 21.7707 15.0599 21.8539 14.8935 21.9648C14.838 22.0203 14.6993 22.1312 14.6161 22.2422C14.422 21.7984 14.3388 21.6043 14.2833 21.4934C14.311 21.4656 14.3388 21.4379 14.3665 21.4101C14.6993 21.1605 15.0321 21.0496 15.4204 21.0496C15.781 21.0496 16.0583 21.1605 16.2802 21.3547C16.5021 21.5488 16.613 21.7984 16.613 22.0758C16.613 22.3531 16.5298 22.575 16.3634 22.7414L16.2802 22.8246L16.3911 22.8801C16.4466 22.9078 16.4743 22.9355 16.5298 22.9633C16.6407 23.0465 16.7794 23.1297 16.9181 23.1297H16.9458C16.9458 23.1297 17.3618 23.0742 17.3618 22.9355V20.8832C17.7778 20.8832 18.6099 20.8832 18.8872 20.8832H21.411C21.4388 20.8832 21.5497 20.8832 21.5497 20.8832C21.7716 20.8832 21.9935 20.8832 22.2431 20.8832C22.3817 20.8832 22.5481 20.8832 22.6868 20.8832H22.881L22.7423 20.7445C22.6036 20.6059 22.354 20.3285 22.3263 20.273C22.2431 20.1344 22.1876 19.9125 22.1876 19.7461C22.2153 19.3578 22.4927 18.9973 22.8532 18.8863C23.0196 18.8309 23.1583 18.8309 23.297 18.8309C23.4356 18.8309 23.5743 18.8586 23.6575 18.9141C23.9349 19.0527 23.9626 19.1082 23.9071 19.5519H23.8794C23.8239 19.5242 23.7685 19.5242 23.713 19.4965C23.6021 19.4687 23.4911 19.441 23.3802 19.441C23.2692 19.441 23.186 19.4687 23.1028 19.4965C22.9642 19.5797 22.881 19.6906 22.8532 19.857C22.8255 20.0234 22.881 20.1898 22.9919 20.3008C23.0196 20.3285 23.0474 20.384 23.0751 20.4117C23.1028 20.4672 23.1583 20.4949 23.186 20.5227C23.2692 20.6059 23.3247 20.6613 23.3802 20.7168C23.4079 20.7445 23.4634 20.8 23.4911 20.8277V21.6875V22.7137C23.1583 22.7137 21.7161 22.7137 21.7161 22.7137L21.7993 22.8523C21.7993 22.8801 21.938 23.0742 21.9657 23.1297L21.9935 23.1574C22.0767 23.2406 22.1599 23.3516 22.2985 23.407C22.3263 23.407 22.3817 23.4348 22.4095 23.4348C22.5204 23.4348 22.6036 23.407 22.7146 23.3516L22.77 23.3238C22.9364 23.2684 23.1306 23.2406 23.3247 23.2406C23.4634 23.2406 23.5743 23.2684 23.6575 23.3238C23.8794 23.4348 23.9071 23.7398 23.9071 23.9617C23.9071 24.4887 23.6575 24.8769 23.1306 25.1266C23.1028 25.1543 23.0751 25.1543 23.0474 25.182L22.9087 25.2375L23.0474 25.3207C23.2138 25.4316 23.8239 25.7644 23.8794 25.7922L23.8517 25.8199C23.8517 25.8477 23.5466 26.1527 23.3524 26.4023L22.4095 25.7367Z"
        fill="#16235A" />
    <path
        d="M7.98769 26.3469C7.95996 26.3469 7.93223 26.3469 7.90449 26.3469C7.76582 26.3191 7.71035 26.1805 7.62715 26.0695C7.59941 26.0418 7.59941 26.0141 7.57168 25.9863L7.46074 25.8476C7.48848 25.8476 7.51621 25.8476 7.54395 25.8476C7.59941 25.8476 7.65488 25.8476 7.71035 25.8199C7.76582 25.7922 7.79355 25.7644 7.82129 25.7367C7.87676 25.6812 7.87676 25.6258 7.84902 25.5703C7.82129 25.5148 7.79355 25.4871 7.76582 25.4594H7.73809C7.68262 25.4039 7.62715 25.3762 7.57168 25.3207L5.74121 23.823V20.8832H8.62559H12.6471C12.6471 21.3547 12.6471 25.4039 12.6471 25.4039H11.7318V23.2406H10.6225V23.7121C10.6225 23.7676 10.5947 23.8508 10.567 23.9062C10.5115 24.0172 10.4561 24.0726 10.3174 24.0726H10.2896C10.2342 24.0726 10.04 23.9894 9.67949 23.5457C9.26348 23.0742 9.23574 22.9078 9.23574 22.8523C9.23574 22.6027 9.34668 22.4918 9.62402 22.4918H11.7318V21.6043H8.65332V23.1019C8.65332 23.2961 8.57012 23.4348 8.43145 23.5734C8.26504 23.7121 8.0709 23.7953 7.84902 23.7953L7.15566 23.2129C7.48848 23.2129 7.62715 23.1574 7.65488 23.1297C7.71035 23.1019 7.73809 23.0465 7.73809 22.9633V21.6043H6.68418V23.6012C6.68418 23.6012 7.07246 23.9062 7.21113 24.0449C7.21113 24.0449 7.87676 24.5996 8.12637 24.7937C8.2373 24.8769 8.34824 24.9879 8.45918 25.0711C8.65332 25.2098 8.73652 25.3762 8.76426 25.5703C8.79199 25.709 8.73652 25.8476 8.68105 25.9863C8.62559 26.0695 8.54238 26.125 8.45918 26.1805C8.26504 26.2914 8.09863 26.3469 7.98769 26.3469Z"
        fill="#16235A" />
    <path d="M11.1494 20.8832H13.2018V21.6043H12.3697" fill="#16235A" />
    <path d="M42.5168 53.3879H43.2657V57.8254H42.5168V53.3879Z" fill="white" />
    <path
        d="M47.925 53.3879V57.8254H47.1484L44.9852 54.6914V57.8254H44.2363V53.3879H44.9852L47.1484 56.5773H47.1762V53.3879H47.925Z"
        fill="white" />
    <path d="M48.8679 53.3879H49.6167V57.8254H48.8679V53.3879Z" fill="white" />
    <path d="M51.5027 54.0813H50.2546V53.4156H53.5273V54.0813H52.2515V57.8531H51.5027V54.0813Z" fill="white" />
    <path d="M54.1375 53.3879H54.8863V57.8254H54.1375V53.3879Z" fill="white" />
    <path
        d="M58.3809 56.8824H56.5781L56.2453 57.8254H55.4688L57.1328 53.3879H57.8816L59.5457 57.8254H58.7414L58.3809 56.8824ZM58.159 56.2445L57.4934 54.3309L56.8277 56.2445H58.159Z"
        fill="white" />
    <path d="M60.4888 54.0813H59.2407V53.4156H62.5411V54.0813H61.2653V57.8531H60.5165V54.0813H60.4888Z" fill="white" />
    <path d="M63.1511 53.3879H63.9V57.8254H63.1511V53.3879Z" fill="white" />
    <path d="M68.4762 53.3879L66.8121 57.8254H66.1465L64.4824 53.3879H65.2867L66.4516 56.7437L67.6164 53.3879H68.4762Z"
        fill="white" />
    <path
        d="M69.031 53.3879H71.8322V54.0535H69.7798V55.2738H71.4162V55.9395H69.7798V57.132H71.9431V57.7977H69.031V53.3879Z"
        fill="white" />
    <path
        d="M75.2988 57.7145C75.0214 57.6035 74.7718 57.4371 74.5777 57.243C74.3835 57.0488 74.2171 56.7992 74.1339 56.5219C74.023 56.2445 73.9675 55.9395 73.9675 55.6067C73.9675 55.2738 74.023 54.9965 74.1339 54.6914C74.2449 54.4141 74.3835 54.1645 74.5777 53.9703C74.7718 53.7762 75.0214 53.6098 75.2988 53.4988C75.5761 53.3879 75.8812 53.3324 76.214 53.3324C76.5191 53.3324 76.8242 53.3879 77.1015 53.4988C77.3789 53.6098 77.6285 53.7484 77.8226 53.9703C78.0167 54.1645 78.1831 54.4141 78.2941 54.6914C78.405 54.9688 78.4605 55.2738 78.4605 55.6067C78.4605 55.9395 78.405 56.2445 78.2941 56.5219C78.1831 56.7992 78.0167 57.0488 77.8226 57.243C77.6285 57.4371 77.3789 57.6035 77.1015 57.7145C76.8242 57.8254 76.5191 57.8809 76.214 57.8809C75.9089 57.8809 75.6039 57.8254 75.2988 57.7145ZM76.7964 57.0766C76.9628 56.9934 77.1292 56.8824 77.2679 56.7438C77.4066 56.6051 77.4898 56.4387 77.573 56.2445C77.6562 56.0504 77.6839 55.8285 77.6839 55.6067C77.6839 55.3848 77.6562 55.1629 77.573 54.9688C77.4898 54.7746 77.4066 54.6082 77.2679 54.4695C77.1292 54.3309 76.9906 54.2199 76.7964 54.1367C76.63 54.0535 76.4359 54.0258 76.214 54.0258C75.9921 54.0258 75.798 54.0535 75.6316 54.1367C75.4375 54.2199 75.2988 54.3309 75.1601 54.4695C75.0214 54.6082 74.9382 54.7746 74.855 54.9688C74.7718 55.1629 74.7441 55.357 74.7441 55.5789C74.7441 55.8008 74.7718 55.9949 74.855 56.1891C74.9382 56.3832 75.0214 56.5496 75.1601 56.6883C75.2988 56.827 75.4375 56.9379 75.6316 57.0211C75.8257 57.1043 76.0199 57.132 76.214 57.132C76.4359 57.1875 76.63 57.1598 76.7964 57.0766Z"
        fill="white" />
    <path d="M79.1816 53.3879H82.0938V54.0535H79.9305V55.3848H81.7332V56.0504H79.9305V57.7977H79.1816V53.3879Z"
        fill="white" />
    <path
        d="M49.4504 46.482C48.5906 46.2879 47.7863 46.0106 47.0375 45.6223C46.2887 45.2617 45.5676 44.7625 44.9574 44.2078C44.3195 43.6254 43.7926 42.9875 43.3211 42.2664C42.8773 41.5453 42.5168 40.7133 42.2672 39.7703C42.0176 38.8273 41.8789 37.8289 41.8789 36.7473C41.8789 35.8043 41.9898 34.9168 42.184 34.057C42.3781 33.1973 42.6832 32.393 43.0715 31.6441C43.4598 30.8953 43.959 30.202 44.5414 29.5918C45.1238 28.9816 45.7895 28.4547 46.5383 28.0109C47.2871 27.5672 48.1191 27.2344 49.0621 26.9848C50.0051 26.7352 51.0313 26.6242 52.0852 26.6242C53.5273 26.6242 54.9418 26.9293 56.3562 27.5672C57.7707 28.2051 59.0188 29.148 60.0727 30.4238L56.2176 33.7242C55.9957 33.4746 55.7461 33.225 55.4688 33.0031C55.1914 32.7813 54.8863 32.5594 54.5258 32.3652C54.1652 32.1711 53.777 32.0047 53.3609 31.866C52.9449 31.7273 52.5012 31.6719 52.0574 31.6719C51.5859 31.6719 51.0867 31.7273 50.643 31.866C50.1715 32.0047 49.7555 32.1988 49.3672 32.5039C48.9789 32.7813 48.6184 33.1418 48.3133 33.5301C48.0082 33.9184 47.7863 34.4176 47.6199 34.9723C47.4535 35.527 47.3703 36.1371 47.3703 36.775C47.3703 37.4406 47.4812 38.0785 47.7031 38.6887C47.925 39.2988 48.2301 39.8258 48.6184 40.2695C49.0066 40.741 49.5059 41.1016 50.116 41.3512C50.7262 41.6285 51.3641 41.7672 52.0852 41.7672C52.8617 41.7672 53.6105 41.573 54.3594 41.2125C55.1082 40.852 55.7461 40.3527 56.2176 39.7703L60.0727 43.0707C59.1574 44.1801 58.0203 45.0953 56.6336 45.7887C55.2469 46.482 53.7215 46.8148 52.0852 46.8148C51.1977 46.7871 50.3102 46.7039 49.4504 46.482Z"
        fill="white" />
    <path d="M61.3208 26.8738H66.6181V41.8227H74.4114V46.482H61.3208V26.8738Z" fill="white" />
    <path
        d="M80.5406 46.0383C79.2648 45.5391 78.1832 44.8457 77.2957 43.9859C76.4082 43.0984 75.7148 42.0445 75.2156 40.7965C74.7164 39.5484 74.4668 38.1895 74.4668 36.7195C74.4668 35.2496 74.7164 33.8906 75.2156 32.6148C75.7148 31.3668 76.4082 30.2852 77.2957 29.4254C78.1832 28.5379 79.2648 27.8445 80.5406 27.373C81.8164 26.8738 83.1754 26.6242 84.673 26.6242C86.143 26.6242 87.502 26.8738 88.7777 27.373C90.0258 27.8723 91.1074 28.5379 91.9949 29.4254C92.8824 30.3129 93.5758 31.3668 94.075 32.6148C94.5742 33.8629 94.8238 35.2496 94.8238 36.7195C94.8238 38.1895 94.5742 39.5762 94.075 40.8242C93.5758 42.0723 92.8824 43.1539 91.9949 44.0137C91.1074 44.8734 90.0258 45.5668 88.7777 46.066C87.5297 46.5652 86.143 46.7871 84.673 46.7871C83.2031 46.7871 81.8164 46.5375 80.5406 46.0383ZM87.1137 41.2125C87.8348 40.741 88.3895 40.1309 88.7777 39.3266C89.166 38.55 89.3602 37.6625 89.3602 36.6918C89.3602 35.7211 89.166 34.8613 88.7777 34.057C88.3895 33.2805 87.8348 32.6426 87.1137 32.1711C86.3926 31.6996 85.5605 31.4777 84.673 31.4777C83.7578 31.4777 82.9535 31.6996 82.2324 32.1711C81.5113 32.6426 80.9566 33.2527 80.5406 34.057C80.1523 34.8613 79.9305 35.7211 79.9305 36.6918C79.9305 37.6625 80.1246 38.5223 80.5406 39.3266C80.9289 40.1031 81.5113 40.741 82.2324 41.2125C82.9535 41.684 83.7578 41.9059 84.673 41.9059C85.5883 41.9059 86.3926 41.6563 87.1137 41.2125Z"
        fill="white" />
    <path
        d="M101.12 46.2324C100.121 45.8719 99.2613 45.3172 98.5125 44.5961C97.7914 43.875 97.2367 42.9875 96.8207 41.9059C96.4047 40.8242 96.2383 39.6039 96.2383 38.2449V26.8738H101.563V37.9676C101.563 38.6887 101.674 39.3266 101.868 39.909C102.062 40.4914 102.395 40.9629 102.839 41.3512C103.283 41.7117 103.838 41.9059 104.475 41.9059C105.058 41.9059 105.557 41.7672 106.029 41.4621C106.472 41.157 106.833 40.7133 107.11 40.1031C107.388 39.493 107.498 38.7996 107.498 37.9676V26.8738H112.796V38.2449C112.796 39.9645 112.491 41.4621 111.853 42.7379C111.215 44.0137 110.272 45.0121 109.024 45.7055C107.776 46.4266 106.25 46.7594 104.503 46.7594C103.255 46.7871 102.118 46.593 101.12 46.2324Z"
        fill="white" />
    <path
        d="M114.848 26.8738H121.92C123.446 26.8738 124.86 27.1234 126.108 27.5949C127.384 28.0942 128.466 28.7598 129.325 29.6195C130.213 30.4793 130.879 31.5055 131.35 32.7258C131.821 33.9461 132.071 35.2774 132.071 36.7195C132.071 38.1617 131.849 39.4652 131.378 40.6856C130.906 41.8781 130.268 42.9043 129.409 43.7918C128.549 44.6516 127.495 45.3172 126.219 45.7887C124.943 46.2602 123.529 46.5098 121.976 46.5098H114.82V26.8738H114.848ZM121.671 41.8504C122.641 41.8504 123.501 41.6285 124.25 41.157C124.999 40.6856 125.581 40.0754 125.997 39.2988C126.413 38.5223 126.607 37.6625 126.607 36.7195C126.607 35.9984 126.496 35.3328 126.247 34.6949C125.997 34.057 125.692 33.5024 125.276 33.0586C124.86 32.5871 124.389 32.2266 123.806 31.977C123.252 31.6996 122.641 31.5887 122.004 31.5887H119.923V41.8504H121.671Z"
        fill="white" />
    <path
        d="M54.7477 10.5938V24.4332H53.6383L44.9297 12.5352H44.902V24.4332H43.8203V10.5938H44.902L53.6383 22.5473H53.666V10.5938H54.7477Z"
        fill="white" />
    <path
        d="M65.8414 20.7723H59.1574L57.7707 24.4332H56.5781L61.8754 10.5938H63.0402L68.393 24.4332H67.2004L65.8414 20.7723ZM65.4531 19.7184L62.4855 11.925H62.4578L59.518 19.7184H65.4531Z"
        fill="white" />
    <path d="M72.1371 11.6199H67.8105V10.566H77.6285V11.6199H73.2188V24.4055H72.1371V11.6199Z" fill="white" />
    <path d="M79.6531 10.5938H80.7625V24.4332H79.6531V10.5938Z" fill="white" />
    <path
        d="M87.4742 23.9895C86.6144 23.6289 85.8933 23.1297 85.2832 22.4918C84.7007 21.8539 84.2292 21.1051 83.8964 20.2453C83.5636 19.3856 83.3972 18.4703 83.3972 17.4996C83.3972 16.5289 83.5636 15.6137 83.8964 14.7539C84.2292 13.8941 84.7007 13.1453 85.2832 12.5352C85.8656 11.8973 86.6144 11.3981 87.4742 11.0375C88.3339 10.677 89.2769 10.4828 90.2753 10.4828C91.2183 10.4828 92.1058 10.6492 92.9378 10.982C93.7699 11.3149 94.491 11.7863 95.1289 12.3965C95.739 13.0066 96.2382 13.7277 96.5988 14.6152C96.9593 15.5027 97.1257 16.4457 97.1257 17.4719C97.1257 18.4981 96.9593 19.4688 96.5988 20.3563C96.2382 21.2438 95.7667 21.9926 95.1289 22.575C94.5187 23.1852 93.7976 23.6566 92.9378 23.9895C92.1058 24.3223 91.2183 24.4887 90.2753 24.4887C89.2769 24.5164 88.3339 24.35 87.4742 23.9895ZM92.4941 22.991C93.1874 22.6859 93.7976 22.2977 94.2968 21.7707C94.796 21.2438 95.2121 20.6336 95.5171 19.8848C95.8222 19.1359 95.9609 18.3316 95.9609 17.4719C95.9609 16.6121 95.8222 15.8078 95.5171 15.059C95.2121 14.3102 94.8238 13.7 94.2968 13.1731C93.7976 12.6738 93.1874 12.2578 92.4941 11.9805C91.8007 11.7031 91.0519 11.5367 90.2753 11.5367C89.4433 11.5367 88.6667 11.7031 87.9457 12.0082C87.2246 12.3133 86.6144 12.7293 86.1429 13.284C85.6437 13.8109 85.2831 14.4488 84.9781 15.1699C84.7007 15.891 84.5621 16.6676 84.5621 17.4719C84.5621 18.1375 84.6453 18.7477 84.8117 19.3578C84.9781 19.968 85.2277 20.4949 85.5882 20.9941C85.921 21.4934 86.3093 21.9094 86.7808 22.2699C87.2523 22.6305 87.7792 22.9078 88.3617 23.1297C88.9718 23.3238 89.582 23.4348 90.2753 23.4348C91.0519 23.4348 91.773 23.2961 92.4941 22.991Z"
        fill="white" />
    <path
        d="M110.577 10.5938V24.4332H109.468L100.759 12.5352H100.731V24.4332H99.6497V10.5938H100.731L109.468 22.5473H109.495V10.5938H110.577Z"
        fill="white" />
    <path
        d="M121.671 20.7723H114.987L113.6 24.4332H112.435L117.732 10.5938H118.897L124.25 24.4332H123.057L121.671 20.7723ZM121.282 19.7184L118.315 11.925H118.287L115.375 19.7184H121.282Z"
        fill="white" />
    <path d="M126.108 10.5938H127.19V23.3793H134.428V24.4332H126.08V10.5938H126.108Z" fill="white" />
</svg>