<svg width="166" height="42" viewBox="0 0 166 42" fill="none" xmlns="http://www.w3.org/2000/svg">
    <path
        d="M41.0704 20.7147C40.7975 19.8961 40.4006 19.1271 39.9541 18.4325C38.4161 15.8031 35.8115 13.893 32.7355 13.248C32.6611 13.0744 32.5867 12.9256 32.4874 12.7767C30.627 9.30386 26.9805 6.94727 22.7634 6.94727C18.4223 6.94727 14.6766 9.4527 12.8905 13.0744C7.35876 13.6698 3.04248 18.3333 3.04248 24.0387C3.04248 30.1163 7.95411 35.0279 14.0068 35.0527H30.8502C34.8192 34.9039 38.2425 32.6713 40.0533 29.4217V29.3969C41.0208 27.8341 41.5913 25.9984 41.5913 24.0387C41.6161 22.8481 41.4177 21.7566 41.0704 20.7147ZM20.9774 28.3054C20.8781 28.4543 20.8037 28.5783 20.7045 28.7271C20.6301 28.8263 20.5805 28.9008 20.5061 29C20.4812 29.0248 20.4812 29.0496 20.4564 29.0496L20.4316 29.0744C20.4068 29.0992 20.4068 29.124 20.382 29.1488C20.3572 29.1736 20.3324 29.2232 20.2828 29.2481C20.2332 29.2977 20.1836 29.3721 20.134 29.4217L19.8115 29.7442C19.7123 29.8434 19.6378 29.9178 19.5386 30.017C19.5138 30.0419 19.5138 30.0419 19.489 30.0667C19.4642 30.0915 19.4642 30.0915 19.4394 30.1163C19.3402 30.2155 19.2409 30.2899 19.1665 30.3643L19.1417 30.3891C19.0425 30.4636 18.9681 30.538 18.8688 30.5876L18.8192 30.6124C18.8192 30.6124 18.8192 30.6124 18.7944 30.6124C18.72 30.662 18.6456 30.7116 18.5712 30.7612C18.5216 30.786 18.4719 30.8108 18.4471 30.8356C17.306 31.555 15.9665 31.9519 14.5774 32.0015C14.4781 32.0015 14.3789 32.0015 14.2797 32.0015C12.2704 32.0015 10.3603 31.2574 8.87194 29.8682C7.43318 28.5287 6.54016 26.7178 6.36651 24.7581C6.36651 24.8574 6.39132 24.9566 6.39132 25.0558C6.21767 23.7659 6.36651 22.5256 6.78822 21.3845C6.78822 21.4093 6.76341 21.4589 6.76341 21.4837C6.78822 21.4341 6.78822 21.3845 6.81302 21.3349C6.83783 21.2853 6.83783 21.2356 6.86264 21.186C6.88744 21.1364 6.91225 21.0868 6.91225 21.0372C6.91225 21.0124 6.93706 21.0124 6.93706 20.9876C6.98667 20.8636 7.06109 20.7147 7.1107 20.5907C7.1355 20.5163 7.18512 20.4418 7.23473 20.3674C7.40837 20.0201 7.60682 19.6977 7.83008 19.4C7.87969 19.3008 7.95411 19.2263 8.02853 19.1519C8.10295 19.0527 8.15256 18.9783 8.22698 18.9039C8.3014 18.8294 8.37581 18.7302 8.45023 18.6558C8.52465 18.5814 8.59907 18.507 8.67349 18.4325C8.82233 18.2837 8.99597 18.1349 9.16961 17.986C9.29364 17.8868 9.39287 17.7876 9.5169 17.7132C9.61613 17.6387 9.74016 17.5643 9.83938 17.4899C9.93861 17.4155 10.0378 17.3659 10.1371 17.2915C10.2363 17.217 10.3355 17.1674 10.4347 17.1178C10.5091 17.0682 10.5836 17.0434 10.658 16.9938C10.7324 16.969 10.8068 16.9194 10.8564 16.8946C11.4766 16.5969 12.1216 16.3984 12.8161 16.2744C12.7417 16.6465 12.7169 17.0434 12.6921 17.4403C12.6921 17.6139 12.6921 17.7876 12.6921 17.9612C12.6921 18.0356 12.6921 18.0853 12.6921 18.1597C11.8983 18.3581 11.1789 18.7054 10.5588 19.1767C10.4595 19.2512 10.3851 19.3008 10.2859 19.3752C10.1619 19.4744 10.0378 19.5984 9.9138 19.7225C9.78977 19.8465 9.69054 19.9705 9.56651 20.0946C9.46729 20.2186 9.36806 20.3426 9.26884 20.4667C9.07039 20.7643 8.87194 21.062 8.7231 21.3845C8.67349 21.4589 8.64868 21.5333 8.62388 21.6325V21.6574C8.59907 21.7318 8.54946 21.8062 8.52465 21.8806C8.45023 22.0543 8.40062 22.2279 8.35101 22.4015C8.3262 22.5256 8.27659 22.6248 8.25178 22.7488C8.25178 22.7984 8.22698 22.8729 8.22698 22.9225C8.22698 22.9721 8.20217 23.0465 8.20217 23.0961C8.20217 23.1209 8.20217 23.1457 8.20217 23.1705C8.20217 23.1705 8.20217 23.1705 8.20217 23.1953V23.2201C8.20217 23.245 8.20217 23.2698 8.20217 23.3194C8.20217 23.3442 8.20217 23.3938 8.20217 23.4186C8.20217 23.5426 8.17737 23.6418 8.17737 23.7659C8.17737 23.7907 8.17737 23.8155 8.17737 23.8651C8.17737 23.9395 8.17737 24.0139 8.17737 24.0884C8.17737 24.138 8.17737 24.1628 8.17737 24.2124C8.17737 24.262 8.17737 24.2868 8.17737 24.3364V24.3612C8.17737 24.4108 8.17737 24.4605 8.17737 24.4853C8.17737 24.5349 8.17737 24.5845 8.17737 24.6093C8.17737 24.6837 8.20217 24.7581 8.20217 24.8574C8.40062 26.4698 9.24403 27.9333 10.534 28.9256C11.8239 29.9178 13.4363 30.3643 15.0487 30.1659C15.7185 30.0667 16.3386 29.893 16.9092 29.5953C16.934 29.5953 16.9588 29.5705 17.0084 29.5457C17.058 29.5209 17.0828 29.4961 17.1324 29.4961C17.2068 29.4713 17.2564 29.4217 17.3309 29.3969C17.3805 29.3721 17.4301 29.3473 17.4797 29.2977C17.5541 29.2481 17.6037 29.2232 17.6781 29.1736C17.7526 29.124 17.8022 29.0992 17.8518 29.0496C17.9262 29 17.9758 28.9504 18.0502 28.9008C18.1247 28.8512 18.1743 28.8015 18.2487 28.7271C18.3479 28.6527 18.4223 28.5783 18.5216 28.4791C18.6208 28.4046 18.6952 28.3054 18.7944 28.2062C18.8936 28.107 18.9681 28.0077 19.0425 27.9085C19.1169 27.8341 19.1665 27.7349 19.2409 27.6605C19.2657 27.6357 19.2905 27.586 19.3154 27.5612C19.3402 27.5116 19.3898 27.462 19.4146 27.3876C19.4394 27.3628 19.4642 27.3132 19.4642 27.2884C20.0595 27.4868 20.6797 27.6356 21.2998 27.7101C21.2006 27.9581 21.1014 28.1318 20.9774 28.3054ZM23.2595 12.0325C23.1851 12.0077 23.1107 12.0077 23.0363 12.0077C22.9619 12.0077 22.9123 11.9829 22.8378 11.9829C22.7386 11.9829 22.6394 11.9581 22.565 11.9581C22.5154 11.9581 22.4657 11.9581 22.4161 11.9581C22.1681 11.9581 21.92 11.9581 21.6967 11.9829C21.6471 11.9829 21.5975 11.9829 21.5479 12.0077C21.4983 12.0077 21.4239 12.0325 21.3743 12.0325C21.275 12.0325 21.2006 12.0574 21.1014 12.0822H21.0766C20.9774 12.107 20.903 12.107 20.8037 12.1318C20.6053 12.1814 20.4068 12.231 20.2084 12.3054C20.1091 12.3302 20.0099 12.3798 19.9107 12.4294C19.8115 12.4791 19.7371 12.5039 19.6378 12.5535C19.5634 12.5783 19.489 12.6279 19.4146 12.6775C19.3402 12.7023 19.2905 12.7519 19.2161 12.7767C19.1665 12.8015 19.1169 12.8263 19.0673 12.8512C19.0673 12.8512 19.0425 12.876 19.0177 12.876C18.9929 12.9008 18.9681 12.9256 18.9185 12.9256C18.9185 12.9256 18.8936 12.9504 18.8688 12.9504C18.844 12.9752 18.8192 12.9752 18.7944 13C18.7448 13.0496 18.6704 13.0744 18.6208 13.124C18.5712 13.1488 18.5216 13.1984 18.4719 13.248C18.4471 13.2729 18.3975 13.2977 18.3727 13.3225C18.3231 13.3721 18.2735 13.3969 18.2239 13.4465C18.1495 13.4961 18.075 13.5705 18.0006 13.6449C16.8099 14.7612 16.1402 16.2992 16.0905 17.9364C16.0657 19.5488 16.6611 21.0868 17.8022 22.2775C18.7448 23.2946 19.9851 23.9395 21.3495 24.138V25.9488C21.027 25.924 20.7045 25.8496 20.382 25.7752C18.8936 25.4279 17.5541 24.6589 16.4874 23.5178C15.0239 21.9798 14.2549 19.9705 14.3293 17.8372C14.3789 15.7287 15.2719 13.7442 16.8099 12.3054C16.9836 12.1566 17.1572 12.0077 17.3309 11.8589C17.8766 11.4372 18.4471 11.0899 19.0673 10.817C19.1417 10.7922 19.2409 10.7426 19.3154 10.7178C19.3402 10.7178 19.365 10.693 19.3898 10.693C19.489 10.6434 19.5882 10.6186 19.7123 10.569C19.8611 10.5194 19.9851 10.4698 20.134 10.4449C20.1836 10.4201 20.258 10.4201 20.3076 10.3953C20.3076 10.3953 20.3076 10.3953 20.3324 10.3953C20.4316 10.3705 20.5061 10.3457 20.6053 10.3457C20.7045 10.3209 20.7789 10.2961 20.8781 10.2961C21.0022 10.2713 21.1014 10.2465 21.2254 10.2465C21.3247 10.2217 21.4487 10.2217 21.5479 10.2217C21.6719 10.2217 21.796 10.1969 21.8952 10.1969C21.9944 10.1969 22.1185 10.1969 22.2177 10.1969C22.2921 10.1969 22.3665 10.1969 22.4409 10.1969C22.5154 10.1969 22.5898 10.1969 22.6642 10.1969C23.1355 10.2217 23.582 10.2961 24.0533 10.3953C25.6409 10.7674 27.0549 11.6108 28.1216 12.8015C28.2704 12.9504 28.3944 13.124 28.5433 13.2977C28.7665 13.5953 28.965 13.9178 29.1634 14.2403C28.5681 14.3891 27.9727 14.5876 27.427 14.8356C26.8812 13.9922 26.1619 13.2977 25.3185 12.8015H25.3681C25.244 12.7271 25.0952 12.6527 24.9464 12.5783C24.8223 12.5287 24.7231 12.4791 24.5991 12.4294C24.5743 12.4294 24.5495 12.4046 24.5247 12.4046C24.2518 12.3054 23.9541 12.2062 23.6564 12.1566C23.6068 12.1566 23.5572 12.1318 23.5076 12.1318C23.458 12.1318 23.4084 12.107 23.3588 12.107C23.3092 12.0574 23.2843 12.0325 23.2595 12.0325ZM32.413 32.0015C31.8177 32.1504 31.1975 32.2 30.6022 32.2C29.4115 32.2 28.2208 31.9271 27.1293 31.4062V29.3225L27.1541 29.3473C28.5681 30.3147 30.3293 30.6372 31.9913 30.2403C35.2906 29.4713 37.3247 26.1473 36.5557 22.8729C36.382 22.1287 36.0844 21.4589 35.6875 20.8636C34.9185 19.6977 33.7526 18.8543 32.4378 18.4325C31.4208 18.1101 30.3045 18.0605 29.1882 18.3085C27.675 18.6806 26.3603 19.5736 25.5169 20.8636C25.4673 20.938 25.4177 21.0124 25.3929 21.062C25.3185 21.186 25.2936 21.3349 25.2936 21.4589V32.5225L23.458 33.1426V21.0124C23.458 20.9628 23.458 20.9132 23.4828 20.8636C23.4828 20.7891 23.5076 20.7147 23.5572 20.6651C24.6239 18.5814 26.534 17.093 28.8161 16.5721C30.0316 16.2744 31.2471 16.2992 32.3882 16.5473C34.72 17.0682 36.7541 18.6558 37.8208 20.8636C38.0688 21.3597 38.2425 21.9054 38.3913 22.4512C39.3092 26.7178 36.6797 31.0093 32.413 32.0015Z"
        fill="#477245" />
    <path
        d="M59.2434 17.3411C58.7224 17.7876 58.1271 18.1349 57.4821 18.3829C56.8372 18.631 56.1426 18.755 55.448 18.755C54.9023 18.755 54.3813 18.6806 53.8852 18.5566C53.3891 18.4325 52.9178 18.2093 52.4961 17.9612C52.0496 17.7132 51.6775 17.3907 51.3054 17.0434C50.9581 16.6961 50.6356 16.2992 50.3875 15.8527C50.1395 15.4062 49.941 14.9597 49.7922 14.4635C49.6434 13.9674 49.5938 13.4465 49.5938 12.9008C49.5938 12.355 49.6682 11.8341 49.7922 11.338C49.941 10.8418 50.1395 10.3705 50.3875 9.94881C50.6356 9.5023 50.9581 9.13021 51.3054 8.75811C51.6527 8.41083 52.0496 8.08835 52.4961 7.84028C52.9426 7.59222 53.3891 7.39377 53.8852 7.24494C54.3813 7.0961 54.9023 7.04649 55.448 7.04649C56.1426 7.04649 56.8372 7.17052 57.4821 7.41858C58.1271 7.66664 58.7224 8.01393 59.2434 8.46044L58.0527 10.4449C57.7302 10.0977 57.3333 9.79997 56.8868 9.62633C56.4403 9.45269 55.9689 9.32866 55.4728 9.32866C54.9767 9.32866 54.5054 9.42788 54.0589 9.60153C53.6124 9.79998 53.2403 10.048 52.9178 10.3705C52.5953 10.693 52.3224 11.0651 52.1488 11.5116C51.9503 11.9581 51.8759 12.4294 51.8759 12.9008C51.8759 13.3969 51.9751 13.8682 52.1488 14.2899C52.3472 14.7364 52.5953 15.1085 52.9178 15.431C53.2403 15.7535 53.6372 16.0263 54.0589 16.2C54.5054 16.3984 54.9519 16.4728 55.4728 16.4728C55.9689 16.4728 56.4403 16.3736 56.8868 16.1752C57.3333 15.9767 57.7302 15.7039 58.0527 15.3566L59.2434 17.3411Z"
        fill="#333333" />
    <path d="M62.8404 18.5071H60.583V7.17066H62.8404V18.5071Z" fill="#333333" />
    <path
        d="M67.2066 18.5071H64.9492V7.17066H69.4888C69.9105 7.17066 70.3074 7.22027 70.6795 7.34431C71.0515 7.44353 71.4236 7.61717 71.7461 7.79082C72.0686 7.98927 72.3911 8.23733 72.664 8.5102C72.9368 8.78307 73.1849 9.10555 73.3833 9.42803C73.5818 9.77531 73.7306 10.1226 73.8298 10.5195C73.9291 10.8916 74.0035 11.3133 74.0035 11.7102C74.0035 12.1071 73.9539 12.4792 73.8546 12.8513C73.7554 13.2234 73.6066 13.5707 73.4329 13.8931C73.2593 14.2156 73.036 14.5381 72.7632 14.811C72.4903 15.0838 72.2174 15.3319 71.8701 15.5304L73.1353 18.4823H70.7291L69.7368 16.2001L67.2066 16.2249V18.5071ZM67.2066 9.42803V13.9676H69.464C69.7864 13.9676 70.0593 13.918 70.3322 13.7939C70.605 13.6699 70.8531 13.5211 71.0515 13.2978C71.25 13.0745 71.4236 12.8513 71.5477 12.5784C71.6717 12.3055 71.7213 12.0079 71.7213 11.6854C71.7213 11.3629 71.6717 11.09 71.5477 10.7924C71.4236 10.5195 71.2748 10.2714 71.0515 10.073C70.8531 9.87454 70.605 9.7009 70.3322 9.57686C70.0593 9.45283 69.7616 9.40322 69.464 9.40322H67.2066V9.42803Z"
        fill="#333333" />
    <path
        d="M77.7488 18.5071H75.4915V7.17066H80.031C80.4527 7.17066 80.8496 7.22027 81.2217 7.34431C81.5938 7.44353 81.9659 7.61717 82.2884 7.79082C82.6108 7.98927 82.9333 8.23733 83.2062 8.5102C83.4791 8.78307 83.7271 9.10555 83.9256 9.42803C84.124 9.77531 84.2729 10.1226 84.3721 10.5195C84.4713 10.8916 84.5457 11.3133 84.5457 11.7102C84.5457 12.1071 84.4961 12.4792 84.3969 12.8513C84.2977 13.2234 84.1488 13.5707 83.9752 13.8931C83.8015 14.2156 83.5783 14.5381 83.3054 14.811C83.0325 15.0838 82.7597 15.3319 82.4124 15.5304L83.6775 18.4823H81.2713L80.2791 16.2001L77.7488 16.2249V18.5071ZM77.7488 9.42803V13.9676H80.0062C80.3287 13.9676 80.6015 13.918 80.8744 13.7939C81.1473 13.6699 81.3953 13.5211 81.5938 13.2978C81.7922 13.0993 81.9659 12.8513 82.0899 12.5784C82.2139 12.3055 82.2636 12.0079 82.2636 11.6854C82.2636 11.3629 82.2139 11.09 82.0899 10.7924C81.9659 10.5195 81.817 10.2714 81.5938 10.073C81.3953 9.87454 81.1473 9.7009 80.8744 9.57686C80.6015 9.45283 80.3039 9.40322 80.0062 9.40322H77.7488V9.42803Z"
        fill="#333333" />
    <path
        d="M94.9394 13.9676C94.9394 14.5877 94.8153 15.1831 94.5921 15.7288C94.344 16.2745 94.0215 16.7459 93.6246 17.1676C93.2029 17.5645 92.7316 17.8869 92.1859 18.135C91.6402 18.3831 91.0448 18.4823 90.4246 18.4823C89.8045 18.4823 89.2091 18.3583 88.6634 18.135C88.1177 17.8869 87.6464 17.5645 87.2246 17.1676C86.8277 16.7707 86.5053 16.2745 86.2572 15.7288C86.0091 15.1831 85.9099 14.5877 85.9099 13.9676V7.17066H88.1673V13.9676C88.1673 14.29 88.2169 14.5629 88.3409 14.8358C88.465 15.1086 88.6138 15.3567 88.837 15.5552C89.0355 15.7536 89.2836 15.9273 89.5564 16.0513C89.8293 16.1753 90.127 16.2249 90.4495 16.2249C90.7719 16.2249 91.0448 16.1753 91.3177 16.0513C91.5905 15.9273 91.8386 15.7784 92.037 15.5552C92.2355 15.3567 92.4091 15.1086 92.5332 14.8358C92.6572 14.5629 92.7068 14.2652 92.7068 13.9676V7.17066H94.9642V13.9676H94.9394Z"
        fill="#333333" />
    <path
        d="M96.2546 10.5691C96.2546 10.0978 96.3539 9.65131 96.5275 9.25441C96.7012 8.83271 96.9492 8.48542 97.2469 8.18774C97.5446 7.89007 97.9167 7.64201 98.3136 7.46836C98.7353 7.29472 99.157 7.1955 99.6283 7.1955H104.838V9.45286H99.6283C99.4794 9.45286 99.3306 9.47767 99.1818 9.55209C99.0329 9.6017 98.9337 9.70092 98.8345 9.80015C98.7353 9.89937 98.6608 10.0234 98.5864 10.1474C98.5368 10.2963 98.512 10.4203 98.512 10.5939C98.512 10.7428 98.5368 10.8916 98.5864 11.0405C98.636 11.1893 98.7353 11.3133 98.8345 11.4126C98.9337 11.5118 99.0577 11.5862 99.1818 11.6606C99.3306 11.7102 99.4794 11.735 99.6283 11.735H101.886C102.357 11.735 102.803 11.8343 103.2 12.0079C103.622 12.1815 103.969 12.4296 104.292 12.7273C104.59 13.025 104.838 13.397 105.011 13.8188C105.185 14.2405 105.284 14.6622 105.284 15.1335C105.284 15.6048 105.185 16.0513 105.011 16.4482C104.838 16.8699 104.59 17.2172 104.292 17.5149C103.994 17.8126 103.622 18.0606 103.2 18.2343C102.779 18.4079 102.357 18.5071 101.886 18.5071H96.85V16.2498H101.886C102.034 16.2498 102.183 16.225 102.332 16.1753C102.481 16.1257 102.58 16.0265 102.679 15.9273C102.779 15.8281 102.853 15.704 102.928 15.58C103.002 15.456 103.002 15.3071 103.002 15.1335C103.002 14.9846 102.977 14.8358 102.928 14.687C102.878 14.5381 102.779 14.4389 102.679 14.3397C102.58 14.2405 102.456 14.166 102.332 14.0916C102.208 14.042 102.059 14.0172 101.886 14.0172H99.6283C99.157 14.0172 98.7105 13.918 98.3136 13.7443C97.8918 13.5707 97.5446 13.3226 97.2469 13.025C96.9492 12.7273 96.7012 12.3552 96.5275 11.9335C96.3539 11.487 96.2546 11.0405 96.2546 10.5691Z"
        fill="#333333" />
    <path
        d="M120.366 17.3411C119.845 17.7876 119.25 18.1349 118.605 18.3829C117.96 18.631 117.265 18.755 116.571 18.755C116.025 18.755 115.529 18.6806 115.008 18.5566C114.512 18.4077 114.041 18.2093 113.619 17.9612C113.172 17.7132 112.8 17.3907 112.428 17.0434C112.081 16.6961 111.758 16.2992 111.51 15.8527C111.262 15.4062 111.064 14.9597 110.915 14.4635C110.766 13.9674 110.717 13.4465 110.717 12.9008C110.717 12.355 110.791 11.8341 110.915 11.338C111.064 10.8418 111.262 10.3705 111.51 9.94881C111.758 9.5023 112.081 9.13021 112.428 8.75811C112.775 8.41083 113.172 8.08835 113.619 7.84028C114.065 7.59222 114.512 7.39377 115.008 7.24494C115.504 7.0961 116.025 7.04649 116.571 7.04649C117.265 7.04649 117.96 7.17052 118.605 7.41858C119.25 7.66664 119.845 8.01393 120.366 8.46044L119.175 10.4449C118.853 10.0977 118.456 9.79997 118.01 9.62633C117.563 9.42788 117.092 9.32866 116.596 9.32866C116.1 9.32866 115.628 9.42788 115.182 9.60153C114.735 9.79998 114.363 10.048 114.041 10.3705C113.718 10.693 113.445 11.0651 113.272 11.5116C113.073 11.9581 112.999 12.4294 112.999 12.9008C112.999 13.3969 113.098 13.8682 113.272 14.2899C113.47 14.7364 113.718 15.1085 114.041 15.431C114.363 15.7535 114.76 16.0263 115.182 16.2C115.628 16.3984 116.1 16.4728 116.596 16.4728C117.092 16.4728 117.563 16.3736 118.01 16.1752C118.456 15.9767 118.853 15.7039 119.175 15.3566L120.366 17.3411Z"
        fill="#333333" />
    <path d="M129.619 18.5071H121.681V7.17066H123.938V16.2249H129.594V18.5071H129.619Z" fill="#333333" />
    <path
        d="M141.501 12.8759C141.501 13.4217 141.427 13.9426 141.303 14.4387C141.179 14.9348 140.955 15.4062 140.707 15.8279C140.459 16.2744 140.161 16.6465 139.789 17.0186C139.442 17.3658 139.045 17.6883 138.599 17.9364C138.177 18.1844 137.706 18.3829 137.21 18.5317C136.713 18.6806 136.192 18.7302 135.647 18.7302C135.101 18.7302 134.605 18.6558 134.084 18.5317C133.588 18.3829 133.117 18.1844 132.695 17.9364C132.248 17.6883 131.876 17.3658 131.504 17.0186C131.157 16.6713 130.834 16.2744 130.586 15.8279C130.338 15.3813 130.14 14.9348 129.991 14.4387C129.842 13.9426 129.792 13.4217 129.792 12.8759C129.792 12.3302 129.867 11.8093 129.991 11.3131C130.14 10.817 130.338 10.3457 130.586 9.92398C130.834 9.50227 131.157 9.10537 131.504 8.73328C131.851 8.38599 132.248 8.06351 132.695 7.81545C133.141 7.56739 133.588 7.36894 134.084 7.2201C134.58 7.07126 135.101 7.02165 135.647 7.02165C136.192 7.02165 136.713 7.09607 137.21 7.2201C137.706 7.36894 138.177 7.56739 138.599 7.81545C139.02 8.06351 139.417 8.36119 139.789 8.73328C140.137 9.08057 140.459 9.47747 140.707 9.92398C140.955 10.3457 141.154 10.817 141.303 11.3131C141.427 11.8341 141.501 12.355 141.501 12.8759ZM139.244 12.8759C139.244 12.3798 139.144 11.9085 138.971 11.4868C138.772 11.0403 138.524 10.6682 138.202 10.3457C137.879 10.0232 137.507 9.77514 137.061 9.57669C136.614 9.37824 136.143 9.30382 135.647 9.30382C135.151 9.30382 134.679 9.40305 134.233 9.57669C133.786 9.77514 133.414 10.0232 133.092 10.3457C132.769 10.6682 132.496 11.0403 132.323 11.4868C132.124 11.9333 132.05 12.4046 132.05 12.8759C132.05 13.372 132.149 13.8434 132.323 14.2651C132.521 14.7116 132.769 15.0837 133.092 15.4062C133.414 15.7286 133.811 16.0015 134.233 16.1751C134.679 16.3736 135.151 16.448 135.647 16.448C136.143 16.448 136.614 16.3488 137.061 16.1751C137.507 15.9767 137.879 15.7286 138.202 15.4062C138.524 15.0837 138.772 14.7116 138.971 14.2651C139.144 13.8434 139.244 13.372 139.244 12.8759Z"
        fill="#333333" />
    <path
        d="M151.919 13.9676C151.919 14.5877 151.795 15.1831 151.572 15.7288C151.324 16.2745 151.002 16.7459 150.605 17.1676C150.183 17.5645 149.712 17.8869 149.166 18.135C148.62 18.3831 148.025 18.4823 147.405 18.4823C146.784 18.4823 146.189 18.3583 145.643 18.135C145.098 17.8869 144.626 17.5645 144.205 17.1676C143.808 16.7707 143.485 16.2745 143.237 15.7288C142.989 15.1831 142.89 14.5877 142.89 13.9676V7.17066H145.147V13.9676C145.147 14.29 145.197 14.5629 145.321 14.8358C145.445 15.1086 145.594 15.3567 145.817 15.5552C146.015 15.7536 146.264 15.9273 146.536 16.0513C146.809 16.1753 147.107 16.2249 147.429 16.2249C147.752 16.2249 148.025 16.1753 148.298 16.0513C148.571 15.9273 148.819 15.7784 149.017 15.5552C149.215 15.3567 149.389 15.1086 149.513 14.8358C149.637 14.5629 149.687 14.2652 149.687 13.9676V7.17066H151.944V13.9676H151.919Z"
        fill="#333333" />
    <path
        d="M162.958 12.8265C162.958 13.3474 162.884 13.8435 162.76 14.3397C162.636 14.811 162.437 15.2823 162.189 15.6792C161.941 16.1009 161.644 16.473 161.296 16.8203C160.949 17.1676 160.577 17.4652 160.155 17.7133C159.734 17.9614 159.287 18.1598 158.791 18.2838C158.32 18.4079 157.799 18.4823 157.278 18.4823H153.854V7.17066H157.278C157.799 7.17066 158.295 7.24508 158.791 7.36911C159.262 7.49314 159.734 7.69159 160.155 7.93965C160.577 8.18772 160.949 8.48539 161.296 8.83268C161.644 9.17996 161.941 9.55206 162.189 9.97376C162.437 10.3955 162.636 10.842 162.76 11.3133C162.884 11.8094 162.958 12.3055 162.958 12.8265ZM160.676 12.8265C160.676 12.3552 160.577 11.9086 160.403 11.5117C160.23 11.1148 159.982 10.7428 159.684 10.4451C159.386 10.1474 159.014 9.89934 158.592 9.7257C158.171 9.55206 157.749 9.45283 157.278 9.45283H156.137V16.2497H157.278C157.749 16.2497 158.196 16.1505 158.592 15.9769C159.014 15.8032 159.361 15.5552 159.684 15.2575C159.982 14.9598 160.23 14.5877 160.403 14.166C160.577 13.7443 160.676 13.2978 160.676 12.8265Z"
        fill="#333333" />
    <path
        d="M59.2434 17.2914C58.7224 17.7379 58.1271 18.0852 57.4821 18.3333C56.8372 18.5813 56.1426 18.7053 55.448 18.7053C54.9023 18.7053 54.3813 18.6309 53.8852 18.5069C53.3891 18.3581 52.9178 18.1596 52.4961 17.9116C52.0496 17.6635 51.6775 17.341 51.3054 16.9937C50.9581 16.6464 50.6356 16.2495 50.3875 15.803C50.1395 15.3565 49.941 14.91 49.7922 14.4139C49.6434 13.9178 49.5938 13.3968 49.5938 12.8511C49.5938 12.3053 49.6682 11.7844 49.7922 11.2883C49.941 10.7922 50.1395 10.3209 50.3875 9.89915C50.6356 9.45263 50.9581 9.08054 51.3054 8.70845C51.6527 8.36116 52.0496 8.03868 52.4961 7.79062C52.9426 7.54256 53.3891 7.34411 53.8852 7.19527C54.3813 7.04643 54.9023 6.99682 55.448 6.99682C56.1426 6.99682 56.8372 7.12085 57.4821 7.36891C58.1271 7.61697 58.7224 7.96426 59.2434 8.41077L58.0527 10.3953C57.7302 10.048 57.3333 9.75031 56.8868 9.57666C56.4403 9.40302 55.9689 9.27899 55.4728 9.27899C54.9767 9.27899 54.5054 9.37821 54.0589 9.55186C53.6124 9.75031 53.2403 9.99837 52.9178 10.3209C52.5953 10.6433 52.3224 11.0154 52.1488 11.4619C51.9503 11.9084 51.8759 12.3798 51.8759 12.8511C51.8759 13.3472 51.9751 13.8185 52.1488 14.2402C52.3472 14.6867 52.5953 15.0588 52.9178 15.3813C53.2403 15.7038 53.6372 15.9767 54.0589 16.1503C54.5054 16.3488 54.9519 16.4232 55.4728 16.4232C55.9689 16.4232 56.4403 16.324 56.8868 16.1255C57.3333 15.9271 57.7302 15.6542 58.0527 15.3069L59.2434 17.2914Z"
        fill="#333333" />
    <path d="M62.8404 18.4574H60.583V7.12099H62.8404V18.4574Z" fill="#333333" />
    <path
        d="M67.2066 18.4574H64.9492V7.12099H69.4888C69.9105 7.12099 70.3074 7.17061 70.6795 7.29464C71.0515 7.39386 71.4236 7.56751 71.7461 7.74115C72.0686 7.9396 72.3911 8.18766 72.664 8.46053C72.9368 8.7334 73.1849 9.05588 73.3833 9.37836C73.5818 9.72565 73.7306 10.0729 73.8298 10.4698C73.9291 10.8419 74.0035 11.2636 74.0035 11.6605C74.0035 12.0574 73.9539 12.4295 73.8546 12.8016C73.7554 13.1737 73.6066 13.521 73.4329 13.8435C73.2593 14.166 73.036 14.4884 72.7632 14.7613C72.4903 15.0342 72.2174 15.2822 71.8701 15.4807L73.1353 18.4326H70.7291L69.7368 16.1505L67.2066 16.1753V18.4574ZM67.2066 9.40317V13.9427H69.464C69.7864 13.9427 70.0593 13.8931 70.3322 13.7691C70.605 13.645 70.8531 13.4962 71.0515 13.2729C71.25 13.0745 71.4236 12.8264 71.5477 12.5536C71.6717 12.2807 71.7213 11.983 71.7213 11.6605C71.7213 11.3381 71.6717 11.0652 71.5477 10.7675C71.4236 10.4946 71.2748 10.2466 71.0515 10.0481C70.8531 9.84968 70.605 9.67603 70.3322 9.552C70.0593 9.42797 69.7616 9.37836 69.464 9.37836H67.2066V9.40317Z"
        fill="#333333" />
    <path
        d="M77.7488 18.4574H75.4915V7.12099H80.031C80.4527 7.12099 80.8496 7.17061 81.2217 7.29464C81.5938 7.39386 81.9659 7.56751 82.2884 7.74115C82.6108 7.9396 82.9333 8.18766 83.2062 8.46053C83.4791 8.7334 83.7271 9.05588 83.9256 9.37836C84.124 9.72565 84.2729 10.0729 84.3721 10.4698C84.4713 10.8419 84.5457 11.2636 84.5457 11.6605C84.5457 12.0574 84.4961 12.4295 84.3969 12.8016C84.2977 13.1737 84.1488 13.521 83.9752 13.8435C83.8015 14.166 83.5783 14.4884 83.3054 14.7613C83.0325 15.0342 82.7597 15.2822 82.4124 15.4807L83.6775 18.4326H81.2713L80.2791 16.1505L77.7488 16.2001V18.4574ZM77.7488 9.40317V13.9427H80.0062C80.3287 13.9427 80.6015 13.8931 80.8744 13.7691C81.1473 13.645 81.3953 13.4962 81.5938 13.2729C81.7922 13.0745 81.9659 12.8264 82.0899 12.5536C82.2139 12.2807 82.2636 11.983 82.2636 11.6605C82.2636 11.3381 82.2139 11.0652 82.0899 10.7675C81.9659 10.4946 81.817 10.2466 81.5938 10.0481C81.3953 9.84968 81.1473 9.67603 80.8744 9.552C80.6015 9.42797 80.3039 9.37836 80.0062 9.37836H77.7488V9.40317Z"
        fill="#333333" />
    <path
        d="M94.9394 13.9427C94.9394 14.5629 94.8153 15.1582 94.5921 15.7039C94.344 16.2497 94.0215 16.721 93.6246 17.1427C93.2029 17.5396 92.7316 17.8621 92.1859 18.1101C91.6402 18.3582 91.0448 18.4574 90.4246 18.4574C89.8045 18.4574 89.2091 18.3334 88.6634 18.1101C88.1177 17.8621 87.6464 17.5396 87.2246 17.1427C86.8277 16.7458 86.5053 16.2497 86.2572 15.7039C86.0091 15.1582 85.9099 14.5629 85.9099 13.9427V7.12099H88.1673V13.9179C88.1673 14.2404 88.2169 14.5132 88.3409 14.7861C88.465 15.059 88.6138 15.307 88.837 15.5055C89.0355 15.7039 89.2836 15.8776 89.5564 16.0016C89.8293 16.1256 90.127 16.1753 90.4495 16.1753C90.7719 16.1753 91.0448 16.1256 91.3177 16.0016C91.5905 15.8776 91.8386 15.7287 92.037 15.5055C92.2355 15.307 92.4091 15.059 92.5332 14.7861C92.6572 14.5132 92.7068 14.2156 92.7068 13.9179V7.12099H94.9642V13.9427H94.9394Z"
        fill="#333333" />
    <path
        d="M96.2546 10.5195C96.2546 10.0482 96.3539 9.60164 96.5275 9.20474C96.7012 8.78304 96.9492 8.43575 97.2469 8.13808C97.5446 7.8404 97.9167 7.59234 98.3136 7.4187C98.7353 7.24505 99.157 7.14583 99.6283 7.14583H104.838V9.40319H99.6283C99.4794 9.40319 99.3306 9.428 99.1818 9.50242C99.0329 9.55203 98.9337 9.65125 98.8345 9.75048C98.7353 9.8497 98.6608 9.97374 98.5864 10.0978C98.5368 10.2466 98.512 10.3706 98.512 10.5443C98.512 10.6931 98.5368 10.842 98.5864 10.9908C98.636 11.1396 98.7353 11.2637 98.8345 11.3629C98.9337 11.4621 99.0577 11.5365 99.1818 11.6109C99.3306 11.6606 99.4794 11.6854 99.6283 11.6854H101.886C102.357 11.6854 102.803 11.7846 103.2 11.9582C103.622 12.1319 103.969 12.3799 104.292 12.6776C104.59 12.9753 104.838 13.3474 105.011 13.7691C105.185 14.1908 105.284 14.6125 105.284 15.0838C105.284 15.5551 105.185 16.0016 105.011 16.3985C104.838 16.8203 104.59 17.1675 104.292 17.4652C103.994 17.7629 103.622 18.0109 103.2 18.1846C102.779 18.3582 102.357 18.4575 101.886 18.4575H96.85V16.2001H101.886C102.034 16.2001 102.183 16.1753 102.332 16.1257C102.481 16.0761 102.58 15.9768 102.679 15.8776C102.779 15.7784 102.853 15.6544 102.928 15.5303C103.002 15.4063 103.002 15.2575 103.002 15.0838C103.002 14.935 102.977 14.7861 102.928 14.6373C102.878 14.4885 102.779 14.3892 102.679 14.29C102.58 14.1908 102.456 14.1164 102.332 14.042C102.208 13.9923 102.059 13.9675 101.886 13.9675H99.6283C99.157 13.9675 98.7105 13.8683 98.3136 13.6947C97.9167 13.521 97.5446 13.273 97.2469 12.9753C96.9492 12.6776 96.7012 12.3055 96.5275 11.8838C96.3539 11.4373 96.2546 10.9908 96.2546 10.5195Z"
        fill="#333333" />
    <path
        d="M120.366 17.2914C119.845 17.7379 119.25 18.0852 118.605 18.3333C117.96 18.5813 117.265 18.7053 116.571 18.7053C116.025 18.7053 115.529 18.6309 115.008 18.5069C114.512 18.3581 114.041 18.1596 113.619 17.9116C113.172 17.6635 112.8 17.341 112.428 16.9937C112.056 16.6464 111.758 16.2495 111.51 15.803C111.262 15.3565 111.064 14.91 110.915 14.4139C110.766 13.9178 110.717 13.3968 110.717 12.8511C110.717 12.3053 110.791 11.7844 110.915 11.2883C111.064 10.7922 111.262 10.3209 111.51 9.89915C111.758 9.45263 112.081 9.08054 112.428 8.70845C112.775 8.36116 113.172 8.03868 113.619 7.79062C114.065 7.54256 114.512 7.34411 115.008 7.19527C115.504 7.04643 116.025 6.99682 116.571 6.99682C117.265 6.99682 117.96 7.12085 118.605 7.36891C119.25 7.61697 119.845 7.96426 120.366 8.41077L119.175 10.3953C118.853 10.048 118.456 9.75031 118.01 9.57666C117.563 9.37822 117.092 9.27899 116.596 9.27899C116.1 9.27899 115.628 9.37821 115.182 9.55186C114.735 9.75031 114.363 9.99837 114.041 10.3209C113.718 10.6433 113.445 11.0154 113.272 11.4619C113.073 11.9084 112.999 12.3798 112.999 12.8511C112.999 13.3472 113.098 13.8185 113.272 14.2402C113.47 14.6867 113.718 15.0588 114.041 15.3813C114.363 15.7038 114.76 15.9767 115.182 16.1503C115.628 16.3488 116.1 16.4232 116.596 16.4232C117.092 16.4232 117.563 16.324 118.01 16.1255C118.456 15.9271 118.853 15.6542 119.175 15.3069L120.366 17.2914Z"
        fill="#333333" />
    <path d="M129.619 18.4574H121.681V7.12099H123.938V16.1753H129.594V18.4574H129.619Z" fill="#333333" />
    <path
        d="M141.501 12.8511C141.501 13.3968 141.427 13.9178 141.303 14.4139C141.179 14.91 140.955 15.3813 140.707 15.803C140.459 16.2495 140.161 16.6216 139.789 16.9937C139.442 17.341 139.045 17.6635 138.599 17.9116C138.177 18.1596 137.706 18.3581 137.21 18.5069C136.713 18.6557 136.192 18.7053 135.647 18.7053C135.101 18.7053 134.605 18.6309 134.084 18.5069C133.588 18.3581 133.117 18.1596 132.695 17.9116C132.248 17.6635 131.876 17.341 131.504 16.9937C131.157 16.6464 130.834 16.2495 130.586 15.803C130.338 15.3565 130.14 14.91 129.991 14.4139C129.842 13.9178 129.792 13.3968 129.792 12.8511C129.792 12.3053 129.867 11.7844 129.991 11.2883C130.14 10.7922 130.338 10.3209 130.586 9.89915C130.834 9.47744 131.157 9.08054 131.504 8.70845C131.851 8.36116 132.248 8.03868 132.695 7.79062C133.141 7.54256 133.588 7.34411 134.084 7.19527C134.58 7.04643 135.101 6.99682 135.647 6.99682C136.192 6.99682 136.713 7.07124 137.21 7.19527C137.706 7.34411 138.177 7.54256 138.599 7.79062C139.02 8.03868 139.417 8.33635 139.789 8.70845C140.137 9.05573 140.459 9.45263 140.707 9.89915C140.955 10.3209 141.154 10.7922 141.303 11.2883C141.427 11.7844 141.501 12.3053 141.501 12.8511ZM139.244 12.8511C139.244 12.355 139.144 11.8836 138.971 11.4619C138.797 11.0402 138.524 10.6433 138.202 10.3209C137.879 9.99837 137.507 9.75031 137.061 9.55186C136.614 9.35341 136.143 9.27899 135.647 9.27899C135.151 9.27899 134.679 9.37821 134.233 9.55186C133.786 9.75031 133.414 9.99837 133.092 10.3209C132.769 10.6433 132.496 11.0154 132.323 11.4619C132.149 11.9084 132.05 12.3798 132.05 12.8511C132.05 13.3472 132.149 13.8185 132.323 14.2402C132.521 14.6867 132.769 15.0588 133.092 15.3813C133.414 15.7038 133.811 15.9767 134.233 16.1503C134.679 16.3488 135.151 16.4232 135.647 16.4232C136.143 16.4232 136.614 16.324 137.061 16.1503C137.507 15.9519 137.879 15.7038 138.202 15.3813C138.524 15.0588 138.772 14.6867 138.971 14.2402C139.144 13.7937 139.244 13.3472 139.244 12.8511Z"
        fill="#333333" />
    <path
        d="M151.919 13.9427C151.919 14.5629 151.795 15.1582 151.572 15.7039C151.324 16.2497 151.002 16.721 150.605 17.1427C150.183 17.5396 149.712 17.8621 149.166 18.1101C148.62 18.3582 148.025 18.4574 147.405 18.4574C146.784 18.4574 146.189 18.3334 145.643 18.1101C145.098 17.8621 144.626 17.5396 144.205 17.1427C143.808 16.7458 143.485 16.2497 143.237 15.7039C142.989 15.1582 142.89 14.5629 142.89 13.9427V7.12099H145.147V13.9179C145.147 14.2404 145.197 14.5132 145.321 14.7861C145.445 15.059 145.594 15.307 145.817 15.5055C146.015 15.7039 146.264 15.8776 146.536 16.0016C146.809 16.1256 147.107 16.1753 147.429 16.1753C147.752 16.1753 148.025 16.1256 148.298 16.0016C148.571 15.8776 148.819 15.7287 149.017 15.5055C149.215 15.307 149.389 15.059 149.513 14.7861C149.637 14.5132 149.687 14.2156 149.687 13.9179V7.12099H151.944V13.9427H151.919Z"
        fill="#333333" />
    <path
        d="M162.958 12.8016C162.958 13.3225 162.884 13.8187 162.76 14.3148C162.636 14.7861 162.437 15.2574 162.189 15.6543C161.941 16.076 161.644 16.4481 161.296 16.7954C160.949 17.1427 160.577 17.4404 160.155 17.6884C159.734 17.9365 159.287 18.135 158.791 18.259C158.32 18.383 157.799 18.4574 157.278 18.4574H153.854V7.12099H157.278C157.799 7.12099 158.295 7.19541 158.791 7.31944C159.262 7.44348 159.734 7.64193 160.155 7.88999C160.577 8.13805 160.949 8.43572 161.296 8.78301C161.644 9.1303 161.941 9.50239 162.189 9.9241C162.437 10.3458 162.636 10.7923 162.76 11.2636C162.884 11.7598 162.958 12.2807 162.958 12.8016ZM160.676 12.8016C160.676 12.3303 160.577 11.8838 160.403 11.4869C160.23 11.09 159.982 10.7179 159.684 10.4202C159.386 10.1225 159.014 9.87448 158.592 9.70084C158.171 9.5272 157.749 9.42797 157.278 9.42797H156.137V16.2249H157.278C157.749 16.2249 158.196 16.1256 158.592 15.952C159.014 15.7784 159.361 15.5303 159.684 15.2326C159.982 14.935 160.23 14.5629 160.403 14.1412C160.577 13.7194 160.676 13.2729 160.676 12.8016Z"
        fill="#333333" />
    <path d="M62.8404 18.4078H60.583V7.09616H62.8404V18.4078Z" fill="#333333" />
    <path
        d="M67.2066 18.4078H64.9492V7.09616H69.4888C69.9105 7.09616 70.3074 7.14577 70.6795 7.2698C71.0515 7.39384 71.4236 7.54267 71.7461 7.71632C72.0686 7.91477 72.3911 8.16283 72.664 8.4357C72.9368 8.70856 73.1849 9.03105 73.3833 9.35353C73.5818 9.70081 73.7306 10.0481 73.8298 10.445C73.9291 10.8419 74.0035 11.2388 74.0035 11.6357C74.0035 12.0326 73.9539 12.4047 73.8546 12.7768C73.7554 13.1489 73.6066 13.4962 73.4329 13.8186C73.2593 14.1411 73.036 14.4636 72.7632 14.7365C72.4903 15.0093 72.2174 15.2574 71.8701 15.4559L73.1353 18.4078H70.7291L69.7368 16.1256L67.2066 16.1504V18.4078ZM67.2066 9.35353V13.8931H69.464C69.7864 13.8931 70.0593 13.8434 70.3322 13.7194C70.605 13.5954 70.8531 13.4465 71.0515 13.2233C71.25 13.0248 71.4236 12.7768 71.5477 12.5039C71.6717 12.231 71.7213 11.9334 71.7213 11.6109C71.7213 11.2884 71.6717 11.0155 71.5477 10.7179C71.4236 10.445 71.2748 10.1969 71.0515 9.99849C70.8531 9.80004 70.605 9.62639 70.3322 9.50236C70.0593 9.37833 69.7616 9.32872 69.464 9.32872H67.2066V9.35353Z"
        fill="#333333" />
    <path
        d="M77.7488 18.4078H75.4915V7.09616H80.031C80.4527 7.09616 80.8496 7.14577 81.2217 7.2698C81.5938 7.39384 81.9659 7.54267 82.2884 7.71632C82.6108 7.91477 82.9333 8.16283 83.2062 8.4357C83.4791 8.70856 83.7271 9.03105 83.9256 9.35353C84.124 9.70081 84.2729 10.0481 84.3721 10.445C84.4713 10.8419 84.5457 11.2388 84.5457 11.6357C84.5457 12.0326 84.4961 12.4047 84.3969 12.7768C84.2977 13.1489 84.1488 13.4962 83.9752 13.8186C83.8015 14.1411 83.5783 14.4636 83.3054 14.7365C83.0325 15.0093 82.7597 15.2574 82.4124 15.4559L83.6775 18.4078H81.2713L80.2791 16.1256L77.7488 16.1504V18.4078ZM77.7488 9.35353V13.8931H80.0062C80.3287 13.8931 80.6015 13.8434 80.8744 13.7194C81.1473 13.5954 81.3953 13.4465 81.5938 13.2233C81.7922 13.0248 81.9659 12.7768 82.0899 12.5039C82.2139 12.231 82.2636 11.9334 82.2636 11.6109C82.2636 11.2884 82.2139 11.0155 82.0899 10.7179C81.9659 10.445 81.817 10.1969 81.5938 9.99849C81.3953 9.80004 81.1473 9.62639 80.8744 9.50236C80.6015 9.37833 80.3039 9.32872 80.0062 9.32872H77.7488V9.35353Z"
        fill="#333333" />
    <path
        d="M94.9394 13.8931C94.9394 14.5132 94.8153 15.1086 94.5921 15.6543C94.344 16.2 94.0215 16.6714 93.6246 17.0931C93.2029 17.49 92.7316 17.8124 92.1859 18.0605C91.6402 18.3086 91.0448 18.4078 90.4246 18.4078C89.8045 18.4078 89.2091 18.2838 88.6634 18.0605C88.1177 17.8124 87.6464 17.49 87.2246 17.0931C86.8277 16.6962 86.5053 16.2 86.2572 15.6543C86.0091 15.1086 85.9099 14.5132 85.9099 13.8931V7.09616H88.1673V13.8931C88.1673 14.2155 88.2169 14.4884 88.3409 14.7613C88.465 15.0341 88.6138 15.2822 88.837 15.4807C89.0355 15.6791 89.2836 15.8528 89.5564 15.9768C89.8293 16.1008 90.127 16.1504 90.4495 16.1504C90.7719 16.1504 91.0448 16.1008 91.3177 15.9768C91.5905 15.8528 91.8386 15.7039 92.037 15.4807C92.2355 15.2822 92.4091 15.0341 92.5332 14.7613C92.6572 14.4884 92.7068 14.1907 92.7068 13.8931V7.09616H94.9642V13.8931H94.9394Z"
        fill="#333333" />
    <path
        d="M96.2546 10.4946C96.2546 10.0233 96.3539 9.57681 96.5275 9.17991C96.7012 8.7582 96.9492 8.41092 97.2469 8.11324C97.5446 7.81557 97.9167 7.56751 98.3136 7.39386C98.7353 7.22022 99.157 7.12099 99.6283 7.12099H104.838V9.35355H99.6283C99.4794 9.35355 99.3306 9.37836 99.1818 9.45278C99.0329 9.50239 98.9337 9.60162 98.8345 9.70084C98.7353 9.80007 98.6608 9.9241 98.5864 10.0481C98.5368 10.197 98.512 10.321 98.512 10.4946C98.512 10.6435 98.5368 10.7923 98.5864 10.9412C98.636 11.09 98.7353 11.214 98.8345 11.3132C98.9337 11.4125 99.0577 11.4869 99.1818 11.5613C99.3306 11.6109 99.4794 11.6357 99.6283 11.6357H101.886C102.357 11.6357 102.803 11.7349 103.2 11.9086C103.622 12.0822 103.969 12.3303 104.292 12.628C104.59 12.9256 104.838 13.2977 105.011 13.7194C105.185 14.1412 105.284 14.5629 105.284 15.0342C105.284 15.5055 105.185 15.952 105.011 16.3489C104.838 16.7706 104.59 17.1179 104.292 17.4156C103.994 17.7132 103.622 17.9613 103.2 18.135C102.779 18.3086 102.357 18.4078 101.886 18.4078H96.85V16.1505H101.886C102.034 16.1505 102.183 16.1256 102.332 16.076C102.481 16.0264 102.58 15.9272 102.679 15.828C102.779 15.7287 102.853 15.6047 102.928 15.4807C103.002 15.3567 103.002 15.2078 103.002 15.0342C103.002 14.8853 102.977 14.7365 102.928 14.5877C102.878 14.4388 102.779 14.3396 102.679 14.2404C102.58 14.1412 102.456 14.0667 102.332 13.9923C102.208 13.9427 102.059 13.9179 101.886 13.9179H99.6283C99.157 13.9179 98.7105 13.8187 98.3136 13.645C97.9167 13.4714 97.5446 13.2233 97.2469 12.9256C96.9492 12.628 96.7012 12.2559 96.5275 11.8342C96.3539 11.3877 96.2546 10.966 96.2546 10.4946Z"
        fill="#333333" />
    <path
        d="M120.366 17.2417C119.845 17.6882 119.25 18.0355 118.605 18.2836C117.96 18.5317 117.265 18.6557 116.571 18.6557C116.025 18.6557 115.529 18.5813 115.008 18.4572C114.512 18.3084 114.041 18.1099 113.619 17.8619C113.172 17.6138 112.8 17.2913 112.428 16.9441C112.081 16.5968 111.758 16.1999 111.51 15.7534C111.262 15.3068 111.064 14.8603 110.915 14.3642C110.766 13.8681 110.717 13.3472 110.717 12.8014C110.717 12.2557 110.791 11.7347 110.915 11.2386C111.064 10.7425 111.262 10.2712 111.51 9.84948C111.758 9.40297 112.081 9.03087 112.428 8.65878C112.775 8.31149 113.172 7.98901 113.619 7.74095C114.065 7.49289 114.512 7.29444 115.008 7.1456C115.504 6.99676 116.025 6.94715 116.571 6.94715C117.265 6.94715 117.96 7.07118 118.605 7.31924C119.25 7.56731 119.845 7.91459 120.366 8.36111L119.175 10.3456C118.853 9.99832 118.456 9.70064 118.01 9.527C117.563 9.32855 117.092 9.22932 116.596 9.22932C116.1 9.22932 115.628 9.32855 115.182 9.50219C114.735 9.70064 114.363 9.9487 114.041 10.2712C113.718 10.5937 113.445 10.9658 113.272 11.4123C113.073 11.8588 112.999 12.3301 112.999 12.8014C112.999 13.2975 113.098 13.7689 113.272 14.1906C113.47 14.6371 113.718 15.0092 114.041 15.3316C114.363 15.6541 114.76 15.927 115.182 16.1006C115.628 16.2991 116.1 16.3735 116.596 16.3735C117.092 16.3735 117.563 16.2743 118.01 16.0758C118.456 15.8774 118.853 15.6045 119.175 15.2572L120.366 17.2417Z"
        fill="#333333" />
    <path d="M129.619 18.4078H121.681V7.09616H123.938V16.1504H129.594V18.4078H129.619Z" fill="#333333" />
    <path
        d="M141.501 12.8014C141.501 13.3472 141.427 13.8681 141.303 14.3642C141.179 14.8603 140.955 15.3317 140.707 15.7534C140.459 16.1999 140.161 16.572 139.789 16.9441C139.442 17.2913 139.045 17.6138 138.599 17.8619C138.177 18.1099 137.706 18.3084 137.21 18.4572C136.713 18.6061 136.192 18.6557 135.647 18.6557C135.101 18.6557 134.605 18.5813 134.084 18.4572C133.588 18.3084 133.117 18.1099 132.695 17.8619C132.248 17.6138 131.876 17.2913 131.504 16.9441C131.157 16.5968 130.834 16.1999 130.586 15.7534C130.338 15.3068 130.14 14.8603 129.991 14.3642C129.842 13.8681 129.792 13.3472 129.792 12.8014C129.792 12.2557 129.867 11.7347 129.991 11.2386C130.14 10.7425 130.338 10.2712 130.586 9.84948C130.834 9.42777 131.157 9.03087 131.504 8.65878C131.851 8.31149 132.248 7.98901 132.695 7.74095C133.141 7.49289 133.588 7.29444 134.084 7.1456C134.58 6.99676 135.101 6.94715 135.647 6.94715C136.192 6.94715 136.713 7.02157 137.21 7.1456C137.706 7.29444 138.177 7.49289 138.599 7.74095C139.02 7.98901 139.417 8.28669 139.789 8.65878C140.137 9.00607 140.459 9.40297 140.707 9.84948C140.955 10.2712 141.154 10.7425 141.303 11.2386C141.427 11.7347 141.501 12.2557 141.501 12.8014ZM139.244 12.8014C139.244 12.3053 139.144 11.834 138.971 11.4123C138.797 10.9906 138.524 10.5937 138.202 10.2712C137.879 9.9487 137.507 9.70064 137.061 9.50219C136.614 9.30374 136.143 9.22932 135.647 9.22932C135.151 9.22932 134.679 9.32855 134.233 9.50219C133.786 9.70064 133.414 9.9487 133.092 10.2712C132.769 10.5937 132.496 10.9658 132.323 11.4123C132.149 11.8588 132.05 12.3301 132.05 12.8014C132.05 13.2975 132.149 13.7689 132.323 14.1906C132.521 14.6371 132.769 15.0092 133.092 15.3316C133.414 15.6541 133.811 15.927 134.233 16.1006C134.679 16.2991 135.151 16.3735 135.647 16.3735C136.143 16.3735 136.614 16.2743 137.061 16.1006C137.507 15.9022 137.879 15.6541 138.202 15.3316C138.524 15.0092 138.772 14.6371 138.971 14.1906C139.144 13.7689 139.244 13.2975 139.244 12.8014Z"
        fill="#333333" />
    <path
        d="M151.919 13.8931C151.919 14.5132 151.795 15.1086 151.572 15.6543C151.324 16.2 151.002 16.6714 150.605 17.0931C150.183 17.49 149.712 17.8124 149.166 18.0605C148.62 18.3086 148.025 18.4078 147.405 18.4078C146.784 18.4078 146.189 18.2838 145.643 18.0605C145.098 17.8124 144.626 17.49 144.205 17.0931C143.808 16.6962 143.485 16.2 143.237 15.6543C142.989 15.1086 142.89 14.5132 142.89 13.8931V7.09616H145.147V13.8931C145.147 14.2155 145.197 14.4884 145.321 14.7613C145.445 15.0341 145.594 15.2822 145.817 15.4807C146.015 15.6791 146.264 15.8528 146.536 15.9768C146.809 16.1008 147.107 16.1504 147.429 16.1504C147.752 16.1504 148.025 16.1008 148.298 15.9768C148.571 15.8528 148.819 15.7039 149.017 15.4807C149.215 15.2822 149.389 15.0341 149.513 14.7613C149.637 14.4884 149.687 14.1907 149.687 13.8931V7.09616H151.944V13.8931H151.919Z"
        fill="#333333" />
    <path
        d="M162.958 12.752C162.958 13.2729 162.884 13.769 162.76 14.2652C162.636 14.7365 162.437 15.2078 162.189 15.6047C161.941 16.0264 161.644 16.3985 161.296 16.7458C160.949 17.0931 160.577 17.3907 160.155 17.6388C159.734 17.8869 159.287 18.0853 158.791 18.2093C158.32 18.3334 157.799 18.4078 157.278 18.4078H153.854V7.09616H157.278C157.799 7.09616 158.295 7.17058 158.791 7.29461C159.262 7.41864 159.734 7.61709 160.155 7.86515C160.577 8.11322 160.949 8.41089 161.296 8.75818C161.644 9.10546 161.941 9.47756 162.189 9.89926C162.437 10.321 162.636 10.7675 162.76 11.2388C162.884 11.7349 162.958 12.231 162.958 12.752ZM160.676 12.752C160.676 12.2807 160.577 11.8341 160.403 11.4372C160.23 11.0403 159.982 10.6683 159.684 10.3706C159.386 10.0729 159.014 9.82484 158.592 9.6512C158.171 9.47756 157.749 9.37833 157.278 9.37833H156.137V16.1752H157.278C157.749 16.1752 158.196 16.076 158.592 15.9024C159.014 15.7287 159.361 15.4807 159.684 15.183C159.982 14.8853 160.23 14.5132 160.403 14.0915C160.577 13.6698 160.676 13.2233 160.676 12.752Z"
        fill="#333333" />
    <path
        d="M53.4637 34.6568H51.2063V23.3452H55.7458C56.1675 23.3452 56.5644 23.3948 56.9365 23.5188C57.3086 23.6181 57.6807 23.7917 58.0032 23.9654C58.3257 24.1638 58.6482 24.4119 58.921 24.6847C59.1939 24.9576 59.442 25.2801 59.6404 25.6026C59.8389 25.9499 59.9877 26.2971 60.0869 26.694C60.1861 27.0661 60.2606 27.4878 60.2606 27.8847C60.2606 28.5049 60.1365 29.1002 59.9133 29.646C59.6652 30.1917 59.3427 30.6878 58.9458 31.0847C58.5241 31.5064 58.0528 31.8289 57.5071 32.0522C56.9613 32.3002 56.366 32.3995 55.7458 32.3995H53.4885V34.6568H53.4637ZM53.4637 25.6026V30.1421H55.721C56.0435 30.1421 56.3164 30.0925 56.5892 29.9685C56.8621 29.8444 57.1102 29.6956 57.3086 29.4723C57.5071 29.2739 57.6807 29.0258 57.8048 28.753C57.9288 28.4801 57.9784 28.1824 57.9784 27.8599C57.9784 27.5375 57.9288 27.2646 57.8048 26.9669C57.6807 26.694 57.5319 26.446 57.3086 26.2475C57.1102 26.0491 56.8621 25.8754 56.5892 25.7514C56.3164 25.6274 56.0187 25.5778 55.721 25.5778H53.4637V25.6026Z"
        fill="#333333" />
    <path d="M63.5353 34.6563H61.3772V22.8485H63.5601V34.6563H63.5353Z" fill="#333333" />
    <path
        d="M73.3581 34.6566H72.8372L71.9938 33.4907C71.7954 33.6644 71.5721 33.838 71.3488 34.0117C71.1256 34.1605 70.8775 34.3094 70.6295 34.4334C70.3814 34.5574 70.1085 34.6566 69.8605 34.7063C69.5876 34.7807 69.3147 34.8055 69.0419 34.8055C68.4465 34.8055 67.876 34.7063 67.355 34.5078C66.8341 34.3094 66.3628 34.0117 65.9907 33.6396C65.5938 33.2675 65.2961 32.7962 65.0729 32.2504C64.8496 31.7047 64.7256 31.0597 64.7256 30.3652C64.7256 29.6954 64.8496 29.1 65.0729 28.5543C65.2961 28.0086 65.6186 27.5373 65.9907 27.1404C66.3876 26.7435 66.8341 26.4458 67.355 26.2225C67.876 25.9993 68.4465 25.9 69.0419 25.9C69.3147 25.9 69.5876 25.9249 69.8605 25.9993C70.1333 26.0737 70.3814 26.1729 70.6543 26.2721C70.9023 26.3962 71.1504 26.545 71.3736 26.6938C71.5969 26.8675 71.8202 27.0411 72.0186 27.2148L72.862 26.2225H73.383V34.6566H73.3581ZM71.2 30.3652C71.2 30.0675 71.1504 29.7946 71.0264 29.4969C70.9023 29.2241 70.7535 28.976 70.555 28.7528C70.3566 28.5295 70.1333 28.3807 69.8605 28.2318C69.5876 28.1078 69.3147 28.0334 69.0171 28.0334C68.7194 28.0334 68.4465 28.083 68.1736 28.1822C67.9008 28.2814 67.6775 28.4303 67.5039 28.6287C67.3054 28.8272 67.1566 29.0752 67.0574 29.3481C66.9581 29.621 66.8837 29.9683 66.8837 30.3404C66.8837 30.7125 66.9333 31.0349 67.0574 31.3326C67.1814 31.6303 67.3302 31.8535 67.5039 32.052C67.7023 32.2504 67.9256 32.3993 68.1736 32.4985C68.4465 32.5977 68.7194 32.6473 69.0171 32.6473C69.3147 32.6473 69.5876 32.5729 69.8605 32.4489C70.1333 32.3249 70.3566 32.1512 70.555 31.928C70.7535 31.7047 70.9023 31.4814 71.0264 31.1838C71.1504 30.9357 71.2 30.6628 71.2 30.3652Z"
        fill="#333333" />
    <path
        d="M79.2623 34.6563C78.7413 34.6563 78.2452 34.557 77.7987 34.3586C77.3522 34.1602 76.9305 33.8873 76.5832 33.54C76.2359 33.1927 75.963 32.7958 75.7646 32.3245C75.5661 31.878 75.4669 31.3819 75.4669 30.8609V28.3555H74.425V26.2222H75.4669V22.8485H77.625V26.2222H80.8995V28.3803H77.625V30.8857C77.625 31.109 77.6747 31.3322 77.7491 31.5307C77.8235 31.7291 77.9475 31.9028 78.0964 32.0516C78.2452 32.2005 78.4188 32.3245 78.6173 32.3989C78.8157 32.4733 79.039 32.5229 79.2623 32.5229H80.8995V34.6811H79.2623V34.6563Z"
        fill="#333333" />
    <path
        d="M84.8436 34.6564H82.6854V28.3556H81.6436V26.1975H82.6854V25.8006C82.6854 25.2797 82.7846 24.7835 82.9831 24.337C83.1815 23.8905 83.4544 23.4688 83.8017 23.1463C84.149 22.799 84.5459 22.5262 85.0172 22.3525C85.4885 22.1789 85.9598 22.0548 86.4808 22.0548H88.0932V24.213H86.4808C86.2575 24.213 86.0343 24.2626 85.8358 24.337C85.6374 24.4114 85.4637 24.5355 85.3149 24.6843C85.166 24.8331 85.0668 25.0068 84.9676 25.2052C84.8932 25.4037 84.8436 25.6269 84.8436 25.8502V26.2471H87.4978V28.4052H84.8436V34.6564Z"
        fill="#333333" />
    <path
        d="M96.5271 30.3651C96.5271 30.9853 96.4031 31.5806 96.1798 32.1264C95.9565 32.6721 95.6341 33.1434 95.262 33.5403C94.8651 33.9372 94.4186 34.2597 93.8976 34.483C93.3767 34.7062 92.8062 34.8303 92.2108 34.8303C91.6155 34.8303 91.0449 34.7062 90.524 34.483C90.0031 34.2597 89.5317 33.9372 89.1596 33.5403C88.7628 33.1434 88.4651 32.6721 88.2418 32.1264C88.0186 31.5806 87.8945 30.9853 87.8945 30.3651C87.8945 29.7202 88.0186 29.1248 88.2418 28.5791C88.4651 28.0334 88.7876 27.562 89.1596 27.1651C89.5565 26.7682 90.0031 26.4458 90.524 26.2225C91.0449 25.9992 91.6155 25.8752 92.2108 25.8752C92.8062 25.8752 93.3767 25.9744 93.8976 26.1977C94.4186 26.421 94.8899 26.7186 95.262 27.1155C95.6589 27.5124 95.9565 27.9837 96.1798 28.5295C96.4031 29.0752 96.5271 29.6954 96.5271 30.3651ZM94.3441 30.3651C94.3441 30.0179 94.2945 29.6954 94.1705 29.4225C94.0465 29.1496 93.8976 28.9016 93.6992 28.7031C93.5007 28.5047 93.2775 28.3558 93.0046 28.2318C92.7317 28.1326 92.4589 28.0582 92.1612 28.0582C91.8635 28.0582 91.5907 28.1078 91.3178 28.2318C91.0449 28.331 90.8217 28.5047 90.648 28.7031C90.4496 28.9016 90.3007 29.1496 90.2015 29.4225C90.1023 29.6954 90.0279 30.0179 90.0279 30.3651C90.0279 30.6876 90.0775 30.9853 90.2015 31.283C90.3007 31.5558 90.4744 31.8039 90.648 32.0023C90.8465 32.2008 91.0697 32.3744 91.3178 32.4985C91.5907 32.6225 91.8635 32.6721 92.1612 32.6721C92.4589 32.6721 92.7317 32.6225 93.0046 32.4985C93.2775 32.3992 93.5007 32.2256 93.6992 32.0272C93.8976 31.8287 94.0465 31.5806 94.1705 31.3078C94.2945 31.0101 94.3441 30.7124 94.3441 30.3651Z"
        fill="#333333" />
    <path
        d="M99.8764 34.6559H97.7183V26.197H98.2392L98.9586 27.1893C99.3059 26.8668 99.7028 26.6187 100.149 26.4699C100.596 26.2963 101.042 26.2218 101.514 26.2218H103.424V28.38H101.514C101.29 28.38 101.067 28.4296 100.869 28.504C100.67 28.5784 100.497 28.7025 100.348 28.8513C100.199 29.0001 100.075 29.1738 100 29.3722C99.926 29.5707 99.8764 29.7939 99.8764 30.0172V34.6559Z"
        fill="#333333" />
    <path
        d="M115.157 34.6568H112.999V29.2987C112.999 29.1498 112.974 29.001 112.924 28.877C112.875 28.7529 112.8 28.6289 112.701 28.5297C112.602 28.4305 112.478 28.356 112.354 28.3064C112.23 28.2568 112.081 28.232 111.932 28.232C111.783 28.232 111.634 28.2568 111.51 28.3064C111.386 28.356 111.262 28.4305 111.163 28.5297C111.064 28.6289 110.989 28.7529 110.94 28.877C110.89 29.001 110.865 29.1498 110.865 29.2987V34.6568H108.707V29.2987C108.707 29.1498 108.682 29.001 108.633 28.877C108.583 28.7529 108.509 28.6289 108.41 28.5297C108.31 28.4305 108.186 28.356 108.062 28.3064C107.938 28.2568 107.789 28.232 107.641 28.232C107.492 28.232 107.343 28.2568 107.219 28.3064C107.095 28.356 106.971 28.4305 106.872 28.5297C106.772 28.6289 106.698 28.7529 106.648 28.877C106.599 29.001 106.574 29.1498 106.574 29.2987V34.6568H104.416V26.1979H104.937L105.532 26.8429C105.83 26.5948 106.152 26.3963 106.524 26.2475C106.896 26.0987 107.268 26.0491 107.641 26.0491C108.037 26.0491 108.41 26.1235 108.806 26.2723C109.179 26.4211 109.501 26.6692 109.799 27.0413C109.923 26.8677 110.072 26.7188 110.245 26.5948C110.419 26.4708 110.593 26.3715 110.766 26.2971C110.965 26.2227 111.138 26.1731 111.337 26.1235C111.535 26.0987 111.734 26.0739 111.932 26.0739C112.379 26.0739 112.8 26.1483 113.197 26.3219C113.594 26.4956 113.941 26.7188 114.214 27.0165C114.512 27.3142 114.735 27.6615 114.909 28.0584C115.082 28.4553 115.157 28.877 115.157 29.3235V34.6568Z"
        fill="#333333" />
    <path
        d="M53.4639 34.6305H51.2065V23.294H55.7461C56.1678 23.294 56.5647 23.3436 56.9368 23.4677C57.3089 23.5669 57.681 23.7405 58.0034 23.9142C58.3259 24.1126 58.6484 24.3607 58.9213 24.6336C59.1941 24.9064 59.4422 25.2289 59.6407 25.5514C59.8391 25.8987 59.9879 26.246 60.0872 26.6429C60.1864 27.0398 60.2608 27.4367 60.2608 27.8336C60.2608 28.4537 60.1368 29.0491 59.9135 29.5948C59.6655 30.1405 59.343 30.6367 58.9461 31.0336C58.5244 31.4553 58.0531 31.7777 57.5073 32.001C56.9616 32.2491 56.3662 32.3483 55.7461 32.3483H53.4887V34.6305H53.4639ZM53.4639 25.5514V30.0909H55.7213C56.0438 30.0909 56.3166 30.0413 56.5895 29.9173C56.8624 29.7933 57.1104 29.6444 57.3089 29.4212C57.5073 29.2227 57.681 28.9746 57.805 28.7018C57.929 28.4289 57.9786 28.1312 57.9786 27.8088C57.9786 27.4863 57.929 27.2134 57.805 26.9157C57.681 26.6429 57.5321 26.3948 57.3089 26.1963C57.1104 25.9979 56.8624 25.8243 56.5895 25.7002C56.3166 25.5762 56.0189 25.5266 55.7213 25.5266H53.4639V25.5514Z"
        fill="#333333" />
    <path d="M63.5349 34.6299H61.3767V22.7973H63.5597V34.6299H63.5349Z" fill="#333333" />
    <path
        d="M73.3584 34.6303H72.8375L71.994 33.4644C71.7956 33.638 71.5723 33.8117 71.3491 33.9853C71.1258 34.1342 70.8778 34.283 70.6297 34.407C70.3816 34.5311 70.1088 34.6303 69.8607 34.6799C69.5879 34.7543 69.315 34.7791 69.0421 34.7791C68.4468 34.7791 67.8762 34.6799 67.3553 34.4815C66.8344 34.283 66.363 33.9853 65.9909 33.6132C65.594 33.2411 65.2964 32.7698 65.0731 32.2241C64.8499 31.6784 64.7258 31.0334 64.7258 30.3388C64.7258 29.6691 64.8499 29.0737 65.0731 28.528C65.2964 27.9822 65.6189 27.5109 65.9909 27.114C66.3878 26.7171 66.8344 26.4194 67.3553 26.1962C67.8762 25.9729 68.4468 25.8737 69.0421 25.8737C69.315 25.8737 69.5879 25.8985 69.8607 25.9729C70.1336 26.0473 70.3816 26.1466 70.6545 26.2458C70.9026 26.3698 71.1506 26.5187 71.3739 26.6675C71.5971 26.8411 71.8204 27.0148 72.0189 27.1884L72.8623 26.1962H73.3832V34.6303H73.3584ZM71.2003 30.314C71.2003 30.0163 71.1506 29.7435 71.0266 29.4458C70.9026 29.1729 70.7537 28.9249 70.5553 28.7016C70.3568 28.4784 70.1336 28.3295 69.8607 28.1807C69.5879 28.0566 69.315 27.9822 69.0173 27.9822C68.7196 27.9822 68.4468 28.0318 68.1739 28.1311C67.901 28.2303 67.6778 28.3791 67.5041 28.5776C67.3305 28.776 67.1568 29.0241 67.0576 29.297C66.9584 29.5698 66.884 29.9171 66.884 30.2892C66.884 30.6613 66.9336 30.9838 67.0576 31.2815C67.1816 31.5791 67.3305 31.8024 67.5041 32.0008C67.7026 32.1993 67.9258 32.3481 68.1739 32.4473C68.4468 32.5466 68.7196 32.5962 69.0173 32.5962C69.315 32.5962 69.5879 32.5218 69.8607 32.3977C70.1336 32.2737 70.3568 32.1001 70.5553 31.8768C70.7537 31.6536 70.9026 31.4303 71.0266 31.1326C71.1506 30.9094 71.2003 30.6117 71.2003 30.314Z"
        fill="#333333" />
    <path
        d="M79.2625 34.6299C78.7416 34.6299 78.2455 34.5307 77.7989 34.3322C77.3524 34.1338 76.9307 33.8609 76.5834 33.5136C76.2361 33.1663 75.9633 32.7694 75.7648 32.2981C75.5664 31.8516 75.4671 31.3555 75.4671 30.8345V28.3291H74.4253V26.171H75.4671V22.7973H77.6253V26.171H80.8997V28.3291H77.6253V30.8345C77.6253 31.0578 77.6749 31.2811 77.7493 31.4795C77.8237 31.678 77.9478 31.8516 78.0966 32.0004C78.2454 32.1493 78.4191 32.2733 78.6175 32.3477C78.816 32.4221 79.0392 32.4718 79.2625 32.4718H80.8997V34.6299H79.2625Z"
        fill="#333333" />
    <path
        d="M84.8438 34.6301H82.6857V28.3293H81.6438V26.1711H82.6857V25.7742C82.6857 25.2533 82.7849 24.7572 82.9833 24.3107C83.1818 23.8642 83.4546 23.4425 83.8019 23.12C84.1492 22.7727 84.5461 22.4998 85.0174 22.3262C85.4639 22.1277 85.9601 22.0285 86.481 22.0285H88.0934V24.1866H86.481C86.2578 24.1866 86.0345 24.2363 85.836 24.3107C85.6376 24.3851 85.464 24.5091 85.3151 24.658C85.1663 24.8068 85.0671 24.9804 84.9678 25.1789C84.8934 25.3773 84.8438 25.6006 84.8438 25.8239V26.2208H87.4981V28.3789H84.8438V34.6301Z"
        fill="#333333" />
    <path
        d="M96.5273 30.314C96.5273 30.9341 96.4033 31.5295 96.18 32.0752C95.9568 32.6209 95.6343 33.0923 95.2622 33.4892C94.8653 33.8861 94.4188 34.2085 93.8979 34.4318C93.377 34.655 92.8064 34.7791 92.2111 34.7791C91.6157 34.7791 91.0452 34.655 90.5242 34.4318C90.0033 34.2085 89.532 33.8861 89.1599 33.4892C88.763 33.0923 88.4653 32.6209 88.2421 32.0752C88.0188 31.5295 87.8948 30.9341 87.8948 30.314C87.8948 29.669 88.0188 29.0736 88.2421 28.5279C88.4653 27.9822 88.7878 27.5109 89.1599 27.114C89.5568 26.7171 90.0033 26.3946 90.5242 26.1713C91.0452 25.9481 91.6157 25.824 92.2111 25.824C92.8064 25.824 93.377 25.9233 93.8979 26.1465C94.4188 26.3698 94.8901 26.6674 95.2622 27.0643C95.6591 27.4612 95.9568 27.9326 96.18 28.4783C96.4033 29.024 96.5273 29.6442 96.5273 30.314ZM94.3444 30.314C94.3444 29.9667 94.2948 29.6442 94.1708 29.3713C94.0467 29.0985 93.8979 28.8504 93.6994 28.6519C93.501 28.4535 93.2777 28.3047 93.0049 28.1806C92.732 28.0814 92.4591 28.007 92.1614 28.007C91.8638 28.007 91.5909 28.0566 91.318 28.1806C91.0452 28.2799 90.8219 28.4535 90.6483 28.6519C90.4498 28.8504 90.301 29.0985 90.2018 29.3713C90.1025 29.6442 90.0281 29.9667 90.0281 30.314C90.0281 30.6364 90.0777 30.9341 90.2018 31.2318C90.301 31.5047 90.4746 31.7527 90.6483 31.9512C90.8467 32.1496 91.07 32.3233 91.318 32.4473C91.5909 32.5713 91.8638 32.6209 92.1614 32.6209C92.4591 32.6209 92.732 32.5713 93.0049 32.4473C93.2777 32.3233 93.501 32.1744 93.6994 31.976C93.8979 31.7775 94.0467 31.5295 94.1708 31.2566C94.2948 30.9837 94.3444 30.6612 94.3444 30.314Z"
        fill="#333333" />
    <path
        d="M99.8764 34.6306H97.7183V26.1717H98.2392L98.9586 27.164C99.3059 26.8415 99.7028 26.5934 100.149 26.4446C100.596 26.2709 101.042 26.1965 101.514 26.1965H103.424V28.3547H101.514C101.29 28.3547 101.067 28.4043 100.869 28.4787C100.67 28.5531 100.497 28.6771 100.348 28.826C100.199 28.9748 100.075 29.1485 100 29.3469C99.926 29.5454 99.8764 29.7686 99.8764 29.9919V34.6306Z"
        fill="#333333" />
    <path
        d="M115.157 34.6305H112.999V29.2723C112.999 29.1235 112.974 28.9747 112.924 28.8506C112.875 28.7266 112.8 28.6026 112.701 28.5033C112.602 28.4041 112.478 28.3297 112.354 28.2801C112.23 28.2305 112.081 28.2057 111.932 28.2057C111.783 28.2057 111.634 28.2305 111.51 28.2801C111.386 28.3297 111.262 28.4041 111.163 28.5033C111.064 28.6026 110.989 28.7266 110.94 28.8506C110.89 28.9747 110.865 29.1235 110.865 29.2723V34.6305H108.707V29.2723C108.707 29.1235 108.682 28.9747 108.633 28.8506C108.583 28.7266 108.509 28.6026 108.41 28.5033C108.31 28.4041 108.186 28.3297 108.062 28.2801C107.938 28.2305 107.789 28.2057 107.641 28.2057C107.492 28.2057 107.343 28.2305 107.219 28.2801C107.095 28.3297 106.971 28.4041 106.872 28.5033C106.772 28.6026 106.698 28.7266 106.648 28.8506C106.599 28.9747 106.574 29.1235 106.574 29.2723V34.6305H104.416V26.1716H104.937L105.532 26.8165C105.83 26.5685 106.152 26.37 106.524 26.2212C106.896 26.0723 107.268 26.0227 107.641 26.0227C108.037 26.0227 108.41 26.0971 108.806 26.246C109.179 26.3948 109.501 26.6429 109.799 27.015C109.923 26.8413 110.072 26.6925 110.245 26.5685C110.419 26.4444 110.593 26.3452 110.766 26.2708C110.965 26.1964 111.138 26.1467 111.337 26.0971C111.535 26.0723 111.734 26.0475 111.932 26.0475C112.379 26.0475 112.8 26.1219 113.197 26.2956C113.594 26.4692 113.941 26.6925 114.214 26.9902C114.512 27.2878 114.735 27.6351 114.909 28.032C115.082 28.4289 115.157 28.8506 115.157 29.2971V34.6305Z"
        fill="#333333" />
    <path
        d="M53.4637 34.5812H51.2063V23.2448H55.7458C56.1675 23.2448 56.5644 23.2944 56.9365 23.4184C57.3086 23.5176 57.6807 23.6913 58.0032 23.8649C58.3257 24.0634 58.6482 24.3114 58.921 24.5843C59.1939 24.8572 59.442 25.1796 59.6404 25.5021C59.8389 25.8494 59.9877 26.1967 60.0869 26.5936C60.1861 26.9657 60.2606 27.3874 60.2606 27.7843C60.2606 28.4044 60.1365 28.9998 59.9133 29.5455C59.6652 30.0913 59.3427 30.5874 58.9458 30.9843C58.5241 31.406 58.0528 31.7285 57.5071 31.9517C56.9613 32.1998 56.366 32.299 55.7458 32.299H53.4885V34.5812H53.4637ZM53.4637 25.5269V30.0665H55.721C56.0435 30.0665 56.3164 30.0168 56.5892 29.8928C56.8621 29.7688 57.1102 29.6199 57.3086 29.3967C57.5071 29.1982 57.6807 28.9502 57.8048 28.6773C57.9288 28.4044 57.9784 28.1068 57.9784 27.7843C57.9784 27.4618 57.9288 27.1889 57.8048 26.8913C57.6807 26.6184 57.5319 26.3703 57.3086 26.1719C57.1102 25.9734 56.8621 25.7998 56.5892 25.6758C56.3164 25.5517 56.0187 25.5021 55.721 25.5021H53.4637V25.5269Z"
        fill="#333333" />
    <path d="M63.5349 34.5817H61.3767V22.7491H63.5597V34.5817H63.5349Z" fill="#333333" />
    <path
        d="M73.3581 34.581H72.8372L71.9938 33.4151C71.7954 33.5888 71.5721 33.7624 71.3488 33.9361C71.1256 34.0849 70.8775 34.2337 70.6295 34.3578C70.3814 34.4818 70.1085 34.581 69.8605 34.6306C69.5876 34.7051 69.3147 34.7299 69.0419 34.7299C68.4465 34.7299 67.876 34.6306 67.355 34.4322C66.8341 34.2337 66.3628 33.9361 65.9907 33.564C65.5938 33.1919 65.2961 32.7206 65.0729 32.1748C64.8496 31.6291 64.7256 30.9841 64.7256 30.2895C64.7256 29.6198 64.8496 29.0244 65.0729 28.4787C65.2961 27.933 65.6186 27.4616 65.9907 27.0647C66.3876 26.6678 66.8341 26.3702 67.355 26.1469C67.876 25.9237 68.4465 25.8244 69.0419 25.8244C69.3147 25.8244 69.5876 25.8492 69.8605 25.9237C70.1333 25.9981 70.3814 26.0973 70.6543 26.1965C70.9023 26.3206 71.1504 26.4694 71.3736 26.6182C71.5969 26.7919 71.8202 26.9655 72.0186 27.1392L72.862 26.1469H73.383V34.581H73.3581ZM71.2 30.2647C71.2 29.9671 71.1504 29.6942 71.0264 29.3965C70.9023 29.1237 70.7535 28.8756 70.555 28.6523C70.3566 28.4291 70.1333 28.2802 69.8605 28.1314C69.5876 28.0074 69.3147 27.933 69.0171 27.933C68.7194 27.933 68.4465 27.9826 68.1736 28.0818C67.9008 28.181 67.6775 28.3299 67.5039 28.5283C67.3054 28.7268 67.1566 28.9748 67.0574 29.2477C66.9581 29.5206 66.8837 29.8678 66.8837 30.2399C66.8837 30.612 66.9333 30.9345 67.0574 31.2322C67.1814 31.5299 67.3302 31.7531 67.5039 31.9516C67.7023 32.15 67.9256 32.2989 68.1736 32.3981C68.4465 32.4973 68.7194 32.5469 69.0171 32.5469C69.3147 32.5469 69.5876 32.4725 69.8605 32.3485C70.1333 32.2244 70.3566 32.0508 70.555 31.8275C70.7535 31.6043 70.9023 31.381 71.0264 31.0833C71.1504 30.8601 71.2 30.5624 71.2 30.2647Z"
        fill="#333333" />
    <path
        d="M79.2623 34.5817C78.7413 34.5817 78.2452 34.4824 77.7987 34.284C77.3522 34.0855 76.9305 33.8127 76.5832 33.4654C76.2359 33.1181 75.963 32.7212 75.7646 32.2499C75.5661 31.8034 75.4669 31.3072 75.4669 30.7863V28.2809H74.425V26.1227H75.4669V22.7491H77.625V26.1227H80.8995V28.2809H77.625V30.7863C77.625 31.0096 77.6747 31.2328 77.7491 31.4313C77.8235 31.6297 77.9475 31.8034 78.0964 31.9522C78.2452 32.101 78.4188 32.2251 78.6173 32.2995C78.8157 32.3739 79.039 32.4235 79.2623 32.4235H80.8995V34.5817H79.2623Z"
        fill="#333333" />
    <path
        d="M84.8436 34.5808H82.6854V28.28H81.6436V26.1219H82.6854V25.725C82.6854 25.204 82.7846 24.7079 82.9831 24.2614C83.1815 23.8149 83.4544 23.3932 83.8017 23.0707C84.149 22.7234 84.5459 22.4505 85.0172 22.2769C85.4885 22.1033 85.9598 21.9792 86.4808 21.9792H88.0932V24.1374H86.4808C86.2575 24.1374 86.0343 24.187 85.8358 24.2614C85.6374 24.3358 85.4637 24.4599 85.3149 24.6087C85.166 24.7575 85.0668 24.9312 84.9676 25.1296C84.8932 25.3281 84.8436 25.5513 84.8436 25.7746V26.1715H87.4978V28.3296H84.8436V34.5808Z"
        fill="#333333" />
    <path
        d="M96.5271 30.2647C96.5271 30.8848 96.4031 31.4802 96.1798 32.0259C95.9565 32.5717 95.6341 33.043 95.262 33.4399C94.8651 33.8368 94.4186 34.1593 93.8976 34.3825C93.3767 34.6058 92.8062 34.7298 92.2108 34.7298C91.6155 34.7298 91.0449 34.6058 90.524 34.3825C90.0031 34.1593 89.5317 33.8368 89.1596 33.4399C88.7628 33.043 88.4651 32.5717 88.2418 32.0259C88.0186 31.4802 87.8945 30.8848 87.8945 30.2647C87.8945 29.6197 88.0186 29.0244 88.2418 28.4786C88.4651 27.9329 88.7876 27.4616 89.1596 27.0647C89.5565 26.6678 90.0031 26.3453 90.524 26.1221C91.0449 25.8988 91.6155 25.7748 92.2108 25.7748C92.8062 25.7748 93.3767 25.874 93.8976 26.0972C94.4186 26.3205 94.8899 26.6182 95.262 27.0151C95.6589 27.412 95.9565 27.8833 96.1798 28.429C96.4031 28.9996 96.5271 29.5949 96.5271 30.2647ZM94.3441 30.2647C94.3441 29.9174 94.2945 29.5949 94.1705 29.3221C94.0465 29.0492 93.8976 28.8011 93.6992 28.6027C93.5007 28.4042 93.2775 28.2554 93.0046 28.1314C92.7317 28.0321 92.4589 27.9577 92.1612 27.9577C91.8635 27.9577 91.5907 28.0073 91.3178 28.1314C91.0449 28.2306 90.8217 28.4042 90.648 28.6027C90.4496 28.8011 90.3007 29.0492 90.2015 29.3221C90.1023 29.5949 90.0279 29.9174 90.0279 30.2647C90.0279 30.5872 90.0775 30.8848 90.2015 31.1825C90.3007 31.4554 90.4744 31.7035 90.648 31.9019C90.8465 32.1004 91.0697 32.274 91.3178 32.398C91.5907 32.5221 91.8635 32.5717 92.1612 32.5717C92.4589 32.5717 92.7317 32.5221 93.0046 32.398C93.2775 32.2988 93.5007 32.1252 93.6992 31.9267C93.8976 31.7283 94.0465 31.4802 94.1705 31.2073C94.2945 30.9345 94.3441 30.612 94.3441 30.2647Z"
        fill="#333333" />
    <path
        d="M99.8764 34.5814H97.7183V26.1224H98.2392L98.9586 27.1147C99.3059 26.7922 99.7028 26.5441 100.149 26.3953C100.596 26.2465 101.042 26.1472 101.514 26.1472H103.424V28.3054H101.514C101.29 28.3054 101.067 28.355 100.869 28.4294C100.67 28.5038 100.497 28.6279 100.348 28.7767C100.199 28.9255 100.075 29.0992 100 29.2976C99.926 29.4961 99.8764 29.7193 99.8764 29.9426V34.5814Z"
        fill="#333333" />
    <path
        d="M115.157 34.5812H112.999V29.2231C112.999 29.0742 112.974 28.9254 112.924 28.8014C112.875 28.6773 112.8 28.5533 112.701 28.4541C112.602 28.3548 112.478 28.2804 112.354 28.2308C112.23 28.1812 112.081 28.1564 111.932 28.1564C111.783 28.1564 111.634 28.1812 111.51 28.2308C111.386 28.2804 111.262 28.3548 111.163 28.4541C111.064 28.5533 110.989 28.6773 110.94 28.8014C110.89 28.9254 110.865 29.0742 110.865 29.2231V34.5812H108.707V29.2231C108.707 29.0742 108.682 28.9254 108.633 28.8014C108.583 28.6773 108.509 28.5533 108.41 28.4541C108.31 28.3548 108.186 28.2804 108.062 28.2308C107.938 28.1812 107.789 28.1564 107.641 28.1564C107.492 28.1564 107.343 28.1812 107.219 28.2308C107.095 28.2804 106.971 28.3548 106.872 28.4541C106.772 28.5533 106.698 28.6773 106.648 28.8014C106.599 28.9254 106.574 29.0742 106.574 29.2231V34.5812H104.416V26.1223H104.937L105.532 26.7672C105.83 26.5192 106.152 26.3207 106.524 26.1719C106.896 26.0231 107.268 25.9734 107.641 25.9734C108.037 25.9734 108.41 26.0479 108.806 26.1967C109.179 26.3455 109.501 26.5936 109.799 26.9657C109.923 26.792 110.072 26.6432 110.245 26.5192C110.419 26.3951 110.593 26.2959 110.766 26.2215C110.965 26.1471 111.138 26.0975 111.337 26.0479C111.535 26.0231 111.734 25.9982 111.932 25.9982C112.379 25.9982 112.8 26.0727 113.197 26.2463C113.594 26.42 113.941 26.6432 114.214 26.9409C114.512 27.2386 114.735 27.5858 114.909 27.9827C115.082 28.3796 115.157 28.8013 115.157 29.2479V34.5812Z"
        fill="#333333" />
</svg>