<svg width="32" height="24" viewBox="0 0 32 24" fill="none" xmlns="http://www.w3.org/2000/svg">
    <path
        d="M31.5659 11.7656C31.3394 11.0869 31.0099 10.4492 30.6393 9.87331C29.3626 7.69303 27.2006 6.10924 24.6473 5.57445C24.5855 5.43047 24.5238 5.30706 24.4414 5.18365C22.8971 2.30403 19.8702 0.349998 16.3698 0.349998C12.7664 0.349998 9.65714 2.42744 8.17459 5.43047C3.58282 5.92412 0 9.79104 0 14.5218C0 19.5612 4.077 23.6338 9.10118 23.6543H23.0824C26.377 23.5309 29.2185 21.6798 30.7216 18.9853V18.9647C31.5247 17.6689 31.9983 16.1468 31.9983 14.5218C32.0189 13.5345 31.8541 12.6295 31.5659 11.7656ZM14.8872 18.0597C14.8049 18.1831 14.7431 18.2859 14.6607 18.4093C14.599 18.4916 14.5578 18.5533 14.496 18.6356C14.4754 18.6562 14.4754 18.6767 14.4548 18.6767L14.4342 18.6973C14.4136 18.7179 14.4136 18.7384 14.393 18.759C14.3725 18.7796 14.3519 18.8207 14.3107 18.8413C14.2695 18.8824 14.2283 18.9441 14.1871 18.9853L13.9195 19.2526C13.8371 19.3349 13.7753 19.3966 13.693 19.4789C13.6724 19.4995 13.6724 19.4995 13.6518 19.52C13.6312 19.5406 13.6312 19.5406 13.6106 19.5612C13.5282 19.6434 13.4459 19.7052 13.3841 19.7669L13.3635 19.7874C13.2811 19.8491 13.2194 19.9108 13.137 19.952L13.0958 19.9725C13.0958 19.9725 13.0958 19.9725 13.0752 19.9725C13.0135 20.0137 12.9517 20.0548 12.8899 20.096C12.8487 20.1165 12.8075 20.1371 12.787 20.1577C11.8398 20.7542 10.7279 21.0833 9.57477 21.1244C9.49241 21.1244 9.41005 21.1244 9.32768 21.1244C7.65982 21.1244 6.07432 20.5073 4.83886 19.3555C3.64459 18.2448 2.90332 16.7433 2.75918 15.1183C2.75918 15.2006 2.77977 15.2829 2.77977 15.3652C2.63564 14.2956 2.75918 13.2671 3.10923 12.321C3.10923 12.3416 3.08864 12.3827 3.08864 12.4033C3.10923 12.3621 3.10923 12.321 3.12982 12.2799C3.15041 12.2387 3.15041 12.1976 3.171 12.1564C3.19159 12.1153 3.21218 12.0742 3.21218 12.033C3.21218 12.0125 3.23277 12.0125 3.23277 11.9919C3.27395 11.889 3.33573 11.7656 3.37691 11.6628C3.3975 11.6011 3.43868 11.5394 3.47986 11.4777C3.624 11.1897 3.78873 10.9223 3.97405 10.6755C4.01523 10.5932 4.077 10.5315 4.13877 10.4698C4.20055 10.3875 4.24173 10.3258 4.3035 10.2641C4.36527 10.2024 4.42705 10.1201 4.48882 10.0584C4.55059 9.99672 4.61236 9.93502 4.67414 9.87331C4.79768 9.7499 4.94182 9.62649 5.08595 9.50307C5.18891 9.4208 5.27127 9.33853 5.37423 9.27682C5.45659 9.21511 5.55955 9.15341 5.64191 9.0917C5.72427 9.02999 5.80664 8.98886 5.889 8.92715C5.97136 8.86544 6.05373 8.82431 6.13609 8.78317C6.19786 8.74203 6.25964 8.72146 6.32141 8.68033C6.38318 8.65976 6.44495 8.61862 6.48614 8.59805C7.00091 8.35123 7.53627 8.18668 8.11282 8.08383C8.05105 8.39236 8.03045 8.72146 8.00986 9.05056C8.00986 9.19454 8.00986 9.33853 8.00986 9.48251C8.00986 9.54421 8.00986 9.58535 8.00986 9.64705C7.35095 9.8116 6.75382 10.0996 6.23905 10.4904C6.15668 10.5521 6.09491 10.5932 6.01255 10.6549C5.90959 10.7372 5.80664 10.84 5.70368 10.9429C5.60073 11.0457 5.51836 11.1486 5.41541 11.2514C5.33305 11.3543 5.25068 11.4571 5.16832 11.5599C5.00359 11.8068 4.83886 12.0536 4.71532 12.321C4.67414 12.3827 4.65355 12.4444 4.63295 12.5267V12.5472C4.61236 12.6089 4.57118 12.6707 4.55059 12.7324C4.48882 12.8763 4.44764 13.0203 4.40646 13.1643C4.38586 13.2671 4.34468 13.3494 4.32409 13.4523C4.32409 13.4934 4.3035 13.5551 4.3035 13.5962C4.3035 13.6374 4.28291 13.6991 4.28291 13.7402C4.28291 13.7608 4.28291 13.7814 4.28291 13.8019C4.28291 13.8019 4.28291 13.8019 4.28291 13.8225V13.8431C4.28291 13.8636 4.28291 13.8842 4.28291 13.9253C4.28291 13.9459 4.28291 13.9871 4.28291 14.0076C4.28291 14.1105 4.26232 14.1927 4.26232 14.2956C4.26232 14.3162 4.26232 14.3367 4.26232 14.3779C4.26232 14.4396 4.26232 14.5013 4.26232 14.563C4.26232 14.6041 4.26232 14.6247 4.26232 14.6658C4.26232 14.707 4.26232 14.7275 4.26232 14.7687V14.7892C4.26232 14.8304 4.26232 14.8715 4.26232 14.8921C4.26232 14.9332 4.26232 14.9744 4.26232 14.9949C4.26232 15.0566 4.28291 15.1183 4.28291 15.2006C4.44764 16.5376 5.14773 17.7511 6.21845 18.5739C7.28918 19.3966 8.62759 19.7669 9.966 19.6023C10.522 19.52 11.0367 19.3761 11.5103 19.1292C11.5309 19.1292 11.5515 19.1087 11.5927 19.0881C11.6339 19.0675 11.6545 19.047 11.6956 19.047C11.7574 19.0264 11.7986 18.9853 11.8604 18.9647C11.9015 18.9441 11.9427 18.9235 11.9839 18.8824C12.0457 18.8413 12.0869 18.8207 12.1486 18.7796C12.2104 18.7384 12.2516 18.7179 12.2928 18.6767C12.3545 18.6356 12.3957 18.5944 12.4575 18.5533C12.5193 18.5122 12.5605 18.471 12.6222 18.4093C12.7046 18.3476 12.7664 18.2859 12.8487 18.2036C12.9311 18.1419 12.9929 18.0597 13.0752 17.9774C13.1576 17.8951 13.2194 17.8128 13.2811 17.7306C13.3429 17.6689 13.3841 17.5866 13.4459 17.5249C13.4665 17.5043 13.487 17.4632 13.5076 17.4426C13.5282 17.4015 13.5694 17.3603 13.59 17.2986C13.6106 17.278 13.6312 17.2369 13.6312 17.2163C14.1254 17.3809 14.6401 17.5043 15.1549 17.566C15.0725 17.7717 14.9902 17.9157 14.8872 18.0597ZM16.7816 4.56658C16.7198 4.54602 16.658 4.54602 16.5963 4.54602C16.5345 4.54602 16.4933 4.52545 16.4315 4.52545C16.3492 4.52545 16.2668 4.50488 16.205 4.50488C16.1639 4.50488 16.1227 4.50488 16.0815 4.50488C15.8756 4.50488 15.6697 4.50488 15.4844 4.52545C15.4432 4.52545 15.402 4.52545 15.3608 4.54602C15.3196 4.54602 15.2579 4.56658 15.2167 4.56658C15.1343 4.56658 15.0725 4.58715 14.9902 4.60772H14.9696C14.8872 4.62829 14.8255 4.62829 14.7431 4.64886C14.5784 4.69 14.4136 4.73113 14.2489 4.79284C14.1665 4.81341 14.0842 4.85455 14.0018 4.89568C13.9195 4.93682 13.8577 4.95739 13.7753 4.99853C13.7135 5.0191 13.6518 5.06023 13.59 5.10137C13.5282 5.12194 13.487 5.16308 13.4253 5.18365C13.3841 5.20421 13.3429 5.22478 13.3017 5.24535C13.3017 5.24535 13.2811 5.26592 13.2605 5.26592C13.24 5.28649 13.2194 5.30706 13.1782 5.30706C13.1782 5.30706 13.1576 5.32763 13.137 5.32763C13.1164 5.3482 13.0958 5.3482 13.0752 5.36876C13.034 5.4099 12.9723 5.43047 12.9311 5.47161C12.8899 5.49218 12.8487 5.53331 12.8075 5.57445C12.787 5.59502 12.7458 5.61559 12.7252 5.63616C12.684 5.67729 12.6428 5.69786 12.6016 5.739C12.5399 5.78014 12.4781 5.84184 12.4163 5.90355C11.428 6.82914 10.872 8.1044 10.8308 9.46194C10.8102 10.7989 11.3044 12.0742 12.2516 13.0615C13.034 13.9048 14.0636 14.4396 15.1961 14.6041V16.1056C14.9284 16.0851 14.6607 16.0234 14.393 15.9616C13.1576 15.6737 12.0457 15.0361 11.1603 14.0899C9.94541 12.8146 9.30709 11.1486 9.36886 9.37966C9.41005 7.63132 10.1513 5.98583 11.428 4.79284C11.5721 4.66943 11.7162 4.54602 11.8604 4.4226C12.3134 4.07294 12.787 3.78497 13.3017 3.55872C13.3635 3.53815 13.4459 3.49701 13.5076 3.47644C13.5282 3.47644 13.5488 3.45587 13.5694 3.45587C13.6518 3.41474 13.7341 3.39417 13.8371 3.35303C13.9606 3.31189 14.0636 3.27076 14.1871 3.25019C14.2283 3.22962 14.2901 3.22962 14.3313 3.20905C14.3313 3.20905 14.3313 3.20905 14.3519 3.20905C14.4342 3.18848 14.496 3.16791 14.5784 3.16791C14.6607 3.14734 14.7225 3.12677 14.8049 3.12677C14.9078 3.10621 14.9902 3.08564 15.0931 3.08564C15.1755 3.06507 15.2785 3.06507 15.3608 3.06507C15.4638 3.06507 15.5667 3.0445 15.6491 3.0445C15.7315 3.0445 15.8344 3.0445 15.9168 3.0445C15.9785 3.0445 16.0403 3.0445 16.1021 3.0445C16.1639 3.0445 16.2256 3.0445 16.2874 3.0445C16.6786 3.06507 17.0493 3.12677 17.4405 3.20905C18.7583 3.51758 19.932 4.21692 20.8174 5.20421C20.941 5.32763 21.0439 5.47161 21.1675 5.61559C21.3528 5.86241 21.5175 6.12981 21.6822 6.3972C21.188 6.52061 20.6939 6.68516 20.2409 6.89085C19.7879 6.19151 19.1907 5.61559 18.4906 5.20421H18.5318C18.4289 5.14251 18.3053 5.0808 18.1818 5.0191C18.0788 4.97796 17.9965 4.93682 17.8935 4.89568C17.8729 4.89568 17.8523 4.87512 17.8317 4.87512C17.6052 4.79284 17.3581 4.71057 17.111 4.66943C17.0699 4.66943 17.0287 4.64886 16.9875 4.64886C16.9463 4.64886 16.9051 4.62829 16.864 4.62829C16.8228 4.58715 16.8022 4.56658 16.7816 4.56658ZM24.3796 21.1244C23.8855 21.2478 23.3707 21.2889 22.8765 21.2889C21.8881 21.2889 20.8998 21.0627 19.9938 20.6307V18.903L20.0144 18.9235C21.188 19.7257 22.65 19.9931 24.0296 19.664C26.7682 19.0264 28.4566 16.2702 27.8183 13.5551C27.6742 12.938 27.4271 12.3827 27.0976 11.889C26.4593 10.9223 25.4915 10.223 24.4002 9.87331C23.556 9.60592 22.6294 9.56478 21.7028 9.77047C20.4468 10.079 19.3555 10.8195 18.6554 11.889C18.6142 11.9508 18.573 12.0125 18.5524 12.0536C18.4906 12.1564 18.47 12.2799 18.47 12.3827V21.5563L16.9463 22.0706V12.0125C16.9463 11.9713 16.9463 11.9302 16.9669 11.889C16.9669 11.8273 16.9875 11.7656 17.0287 11.7245C17.9141 9.99672 19.4996 8.7626 21.394 8.33066C22.4029 8.08383 23.4119 8.1044 24.359 8.31009C26.2946 8.74203 27.983 10.0584 28.8685 11.889C29.0744 12.3004 29.2185 12.7529 29.342 13.2054C30.1039 16.7433 27.9213 20.3016 24.3796 21.1244Z"
        fill="#477245" />
</svg>