<svg width="510" height="247" viewBox="0 0 510 247" fill="none" xmlns="http://www.w3.org/2000/svg">
    <g clip-path="url(#clip0_252_23690)">
        <path
            d="M27.56 101.07C27.6 100.91 27.63 100.75 27.67 100.6C27.73 100.34 27.81 100.08 27.88 99.83C27.93 99.66 27.97 99.49 28.02 99.32C28.09 99.07 28.17 98.82 28.26 98.58C28.32 98.41 28.37 98.24 28.43 98.07C28.52 97.83 28.6 97.59 28.69 97.35C28.75 97.18 28.82 97.02 28.89 96.85C28.99 96.61 29.08 96.37 29.19 96.14C29.26 95.98 29.33 95.82 29.41 95.66C29.52 95.42 29.63 95.19 29.74 94.95C29.81 94.81 29.89 94.67 29.96 94.52C30.39 93.69 30.85 92.88 31.35 92.09C31.44 91.94 31.53 91.8 31.63 91.65C31.77 91.45 31.91 91.25 32.05 91.05C32.16 90.89 32.27 90.74 32.38 90.58C32.52 90.39 32.66 90.2 32.81 90.02C32.93 89.86 33.05 89.71 33.18 89.55C33.33 89.37 33.47 89.19 33.62 89.01C33.75 88.86 33.88 88.7 34.02 88.55C34.17 88.38 34.32 88.21 34.48 88.04C34.62 87.89 34.77 87.74 34.91 87.59C35.06 87.43 35.22 87.27 35.38 87.11C35.54 86.95 35.7 86.8 35.86 86.65C36.01 86.51 36.16 86.36 36.32 86.22C36.63 85.94 36.94 85.67 37.25 85.41C37.39 85.3 37.53 85.19 37.67 85.07C37.87 84.91 38.07 84.75 38.27 84.6C38.43 84.48 38.59 84.37 38.75 84.25C38.94 84.11 39.14 83.97 39.33 83.84C39.5 83.73 39.66 83.62 39.83 83.51C40.03 83.38 40.23 83.25 40.43 83.13C40.6 83.02 40.77 82.92 40.94 82.82C41.15 82.7 41.36 82.58 41.57 82.46C41.74 82.36 41.91 82.27 42.08 82.18C42.3 82.06 42.53 81.95 42.75 81.83C42.92 81.75 43.08 81.66 43.25 81.58C43.5 81.46 43.76 81.34 44.02 81.23C44.16 81.17 44.3 81.1 44.45 81.04C44.85 80.87 45.26 80.71 45.67 80.56C45.75 80.53 45.83 80.51 45.9 80.48C46.24 80.36 46.58 80.24 46.93 80.13C47.08 80.08 47.24 80.04 47.4 79.99C47.67 79.91 47.95 79.83 48.22 79.76C48.39 79.71 48.57 79.67 48.74 79.63C49 79.57 49.27 79.5 49.53 79.45C49.71 79.41 49.89 79.38 50.07 79.34C50.34 79.29 50.6 79.24 50.87 79.2C51.05 79.17 51.24 79.14 51.42 79.11C51.7 79.07 51.97 79.04 52.25 79C52.43 78.98 52.6 78.96 52.78 78.94C53.09 78.91 53.4 78.89 53.71 78.87C53.86 78.87 54.01 78.85 54.17 78.84C54.63 78.82 55.1 78.8 55.57 78.8C56.04 78.8 56.5 78.81 56.97 78.84C57.12 78.84 57.27 78.86 57.42 78.87C57.73 78.89 58.04 78.91 58.35 78.94C58.53 78.96 58.7 78.98 58.88 79C59.16 79.03 59.44 79.07 59.72 79.11C59.9 79.14 60.09 79.17 60.27 79.2C60.54 79.24 60.81 79.29 61.07 79.34C61.25 79.38 61.43 79.41 61.61 79.45C61.88 79.51 62.14 79.57 62.41 79.63C62.58 79.67 62.76 79.71 62.93 79.76C63.21 79.83 63.48 79.91 63.76 79.99C63.91 80.04 64.07 80.08 64.22 80.13C64.57 80.24 64.91 80.36 65.26 80.48C65.33 80.51 65.41 80.53 65.48 80.56C65.89 80.71 66.3 80.87 66.7 81.04C66.84 81.1 66.98 81.16 67.12 81.23C67.38 81.34 67.64 81.46 67.9 81.58C68.07 81.66 68.23 81.74 68.39 81.82C68.62 81.93 68.84 82.05 69.07 82.17C69.24 82.26 69.41 82.36 69.58 82.45C69.79 82.57 70 82.69 70.21 82.81C70.38 82.91 70.55 83.01 70.72 83.12C70.92 83.25 71.12 83.38 71.32 83.51C71.49 83.62 71.65 83.73 71.82 83.84C72.02 83.98 72.21 84.12 72.41 84.26C72.57 84.37 72.73 84.49 72.88 84.61C73.09 84.77 73.29 84.93 73.49 85.09C73.63 85.2 73.77 85.31 73.9 85.42C74.22 85.68 74.53 85.95 74.84 86.23C74.99 86.37 75.14 86.51 75.29 86.65C75.45 86.81 75.62 86.96 75.78 87.12C75.94 87.27 76.09 87.43 76.24 87.59C76.39 87.74 76.53 87.89 76.68 88.05C76.83 88.22 76.98 88.38 77.13 88.55C77.27 88.7 77.4 88.86 77.53 89.01C77.68 89.19 77.82 89.36 77.97 89.54C78.1 89.7 78.22 89.85 78.34 90.01C78.48 90.19 78.62 90.38 78.76 90.57C78.87 90.73 78.99 90.89 79.1 91.04C79.24 91.24 79.38 91.43 79.51 91.63C79.61 91.78 79.7 91.93 79.8 92.08C80.3 92.86 80.76 93.66 81.18 94.49C81.25 94.64 81.33 94.78 81.4 94.93C81.51 95.16 81.62 95.4 81.73 95.63C81.8 95.79 81.88 95.95 81.95 96.11C82.05 96.34 82.15 96.58 82.24 96.82C82.31 96.99 82.38 97.16 82.44 97.33C82.53 97.57 82.62 97.81 82.7 98.05C82.76 98.22 82.82 98.39 82.87 98.56C82.95 98.81 83.03 99.05 83.1 99.3C83.15 99.47 83.2 99.64 83.25 99.81C83.32 100.06 83.39 100.32 83.46 100.58C83.5 100.74 83.53 100.9 83.57 101.06C83.63 101.33 83.7 101.61 83.75 101.88H111.13L84.99 56.6H26.14L0 101.9H27.37C27.43 101.62 27.49 101.35 27.56 101.07Z"
            fill="#F29F43" />
        <path
            d="M183.04 0H124.21L94.8 50.95L124.21 101.9H183.04L212.45 50.95L183.04 0ZM153.63 79.69C137.76 79.69 124.89 66.82 124.89 50.95C124.89 35.08 137.76 22.21 153.63 22.21C169.5 22.21 182.37 35.08 182.37 50.95C182.37 66.82 169.5 79.69 153.63 79.69Z"
            fill="#F29F43" />
        <path
            d="M55.31 119.12C61.5729 119.12 66.65 114.043 66.65 107.78C66.65 101.517 61.5729 96.4399 55.31 96.4399C49.0471 96.4399 43.97 101.517 43.97 107.78C43.97 114.043 49.0471 119.12 55.31 119.12Z"
            fill="#F29F43" />
        <path
            d="M180.95 140.98C179.55 135.06 177.16 130.01 173.77 125.82C170.38 121.63 165.82 118.37 160.1 116.04C154.38 113.71 147.26 113.23 138.75 113.23H124.21L95.86 162.33V212.24C95.86 213.81 97.13 215.07 98.69 215.07H117.16C118.73 215.07 119.99 213.8 119.99 212.24V136C119.99 134.45 121.24 133.18 122.79 133.17C127.05 133.14 134.63 133.3 136.94 133.3C141.06 133.3 144.55 133.87 147.41 135C150.27 136.13 152.53 137.93 154.19 140.39C155.85 142.85 157.05 146.05 157.78 149.97C158.51 153.89 158.88 158.65 158.88 164.23V212.26C158.88 213.83 160.15 215.09 161.71 215.09H180.18C181.75 215.09 183.01 213.82 183.01 212.26V160.44C183.01 153.39 182.31 146.91 180.92 140.99L180.95 140.98Z"
            fill="white" />
        <path
            d="M329.03 133.28L324.85 119.3C323.77 115.7 320.46 113.23 316.7 113.23H273.79C272.22 113.23 270.96 114.5 270.96 116.06V212.24C270.96 213.81 272.23 215.07 273.79 215.07H292.26C293.83 215.07 295.09 213.8 295.09 212.24V138.94C295.09 135.81 297.63 133.27 300.76 133.27H329.03V133.28Z"
            fill="white" />
        <path
            d="M257.61 192.81C257.45 192.85 257.29 192.9 257.12 192.94C253.73 193.87 249.84 194.34 245.45 194.34C239.07 194.34 234.54 192.54 231.88 188.95C229.22 185.36 227.89 183.37 227.89 175V136.22C227.89 134.65 229.16 133.39 230.72 133.39H248.92C252.68 133.39 256 130.92 257.07 127.31L261.26 113.24H227.89V96.4399H203.75V113.24H199.34C195.58 113.24 192.27 115.71 191.19 119.31L187.01 133.29H200.92C202.49 133.29 203.75 134.56 203.75 136.12V175.2C203.75 182.12 204.35 184.27 205.55 189.65C206.75 195.04 208.81 199.62 211.73 203.42C214.65 207.21 218.61 210.1 223.6 212.1C228.59 214.1 234.8 215.09 242.25 215.09C248.37 215.09 253.69 214.46 258.21 213.2C258.52 213.11 258.83 213.02 259.14 212.94C260.36 212.59 261.19 211.48 261.19 210.21V195.55C261.19 193.68 259.41 192.32 257.6 192.82L257.61 192.81Z"
            fill="white" />
        <path
            d="M374.24 113.25L350.4 113.24C346.64 113.24 343.33 115.71 342.25 119.31L338.07 133.29H371.43C375.12 133.41 378.89 133.74 381.41 134.72C390.75 137.65 391.78 143.47 391.78 146.26V148.05H374.56C374.38 148.06 374.2 148.05 374.02 148.05C368.3 148.05 362.81 148.62 357.56 149.75C352.31 150.88 347.68 152.74 343.69 155.34C339.7 157.94 336.54 161.29 334.21 165.42C331.88 169.54 330.72 174.6 330.72 180.58C330.72 186.56 331.75 192.09 333.81 196.34C335.87 200.6 338.73 205.05 342.39 207.71C346.05 210.37 350.47 212.3 355.66 213.5C360.85 214.7 372.96 215.15 372.96 215.15C372.96 215.15 400.97 215.11 412.28 215.1C413.84 215.1 415.11 213.83 415.11 212.27V146.47C415.11 139.29 416.29 113.83 374.24 113.27V113.25ZM391.77 168.21V195.13H369C360.77 195.13 354.09 189.09 354.09 181.63V181.51C354.09 174.05 360.76 168.01 369 168.01H391.77V168.21Z"
            fill="white" />
        <path
            d="M468.2 113.25L444.36 113.24C440.6 113.24 437.29 115.71 436.21 119.31L432.03 133.29H465.39C469.08 133.41 472.85 133.74 475.37 134.72C484.71 137.65 485.74 143.47 485.74 146.26V148.05H468.52C468.34 148.06 468.16 148.05 467.98 148.05C462.26 148.05 456.77 148.62 451.52 149.75C446.27 150.88 441.64 152.74 437.65 155.34C433.66 157.94 430.5 161.29 428.17 165.42C425.84 169.54 424.68 174.6 424.68 180.58C424.68 186.56 425.71 192.09 427.77 196.34C429.83 200.6 432.69 205.05 436.35 207.71C440.01 210.37 444.43 212.3 449.62 213.5C454.81 214.7 466.92 215.15 466.92 215.15C466.92 215.15 494.93 215.11 506.24 215.1C507.8 215.1 509.07 213.83 509.07 212.27V146.47C509.07 139.29 510.25 113.83 468.2 113.27V113.25ZM485.73 168.21V195.13H462.96C454.73 195.13 448.05 189.09 448.05 181.63V181.51C448.05 174.05 454.72 168.01 462.96 168.01H485.73V168.21Z"
            fill="white" />
        <path
            d="M101.22 242.86C100.35 242.86 99.47 242.83 98.61 242.78C97.74 242.73 96.84 242.6 95.91 242.4V226.94C96.65 226.8 97.45 226.7 98.33 226.63C99.21 226.56 100.02 226.53 100.77 226.53C101.78 226.53 102.71 226.6 103.56 226.75C104.41 226.9 105.14 227.14 105.76 227.5C106.37 227.85 106.85 228.32 107.2 228.89C107.55 229.47 107.72 230.17 107.72 231.02C107.72 232.29 107.11 233.3 105.88 234.03C106.89 234.41 107.58 234.94 107.95 235.59C108.32 236.24 108.5 236.99 108.5 237.82C108.5 239.49 107.89 240.75 106.67 241.59C105.45 242.43 103.64 242.85 101.23 242.85L101.22 242.86ZM99.4 232.97H101.15C102.25 232.97 103.04 232.83 103.52 232.54C103.99 232.26 104.23 231.8 104.23 231.17C104.23 230.54 103.98 230.07 103.49 229.81C103 229.55 102.28 229.42 101.33 229.42C101.02 229.42 100.69 229.42 100.34 229.43C99.99 229.43 99.67 229.46 99.4 229.49V232.96V232.97ZM99.4 235.71V239.83C99.66 239.86 99.94 239.88 100.25 239.9C100.56 239.92 100.89 239.92 101.26 239.92C102.33 239.92 103.2 239.77 103.86 239.46C104.52 239.15 104.85 238.59 104.85 237.76C104.85 237.02 104.57 236.5 104.02 236.18C103.47 235.86 102.68 235.71 101.65 235.71H99.4Z"
            fill="white" />
        <path
            d="M123.53 242.24C122.95 242.41 122.2 242.57 121.28 242.71C120.36 242.85 119.39 242.93 118.38 242.93C117.37 242.93 116.5 242.79 115.82 242.52C115.14 242.24 114.6 241.86 114.2 241.36C113.8 240.86 113.52 240.27 113.35 239.58C113.18 238.89 113.1 238.13 113.1 237.3V230.56H116.53V236.88C116.53 237.98 116.68 238.78 116.97 239.27C117.26 239.76 117.8 240.01 118.6 240.01C118.85 240.01 119.11 240 119.38 239.97C119.66 239.95 119.9 239.92 120.12 239.89V230.55H123.55V242.23L123.53 242.24Z"
            fill="white" />
        <path
            d="M132.57 227.06C132.57 227.69 132.37 228.18 131.96 228.54C131.55 228.9 131.08 229.08 130.52 229.08C129.96 229.08 129.49 228.9 129.08 228.54C128.67 228.18 128.47 227.69 128.47 227.06C128.47 226.43 128.67 225.94 129.08 225.58C129.49 225.22 129.97 225.04 130.52 225.04C131.07 225.04 131.55 225.22 131.96 225.58C132.37 225.94 132.57 226.43 132.57 227.06ZM132.25 242.65H128.82V230.55H132.25V242.65Z"
            fill="white" />
        <path
            d="M142.37 242.89C141.37 242.87 140.56 242.77 139.94 242.57C139.32 242.37 138.83 242.09 138.47 241.73C138.11 241.37 137.86 240.93 137.73 240.42C137.6 239.91 137.53 239.33 137.53 238.68V225.36L140.96 224.81V237.99C140.96 238.3 140.98 238.57 141.03 238.82C141.08 239.07 141.16 239.27 141.29 239.44C141.42 239.61 141.61 239.75 141.85 239.85C142.09 239.95 142.43 240.03 142.84 240.06L142.36 242.89H142.37Z"
            fill="white" />
        <path
            d="M157.55 242.27C157.24 242.36 156.89 242.45 156.49 242.53C156.09 242.61 155.67 242.69 155.24 242.75C154.8 242.81 154.36 242.86 153.91 242.9C153.46 242.94 153.02 242.96 152.61 242.96C151.61 242.96 150.72 242.81 149.94 242.52C149.16 242.23 148.5 241.81 147.96 241.27C147.42 240.73 147.01 240.07 146.73 239.29C146.45 238.52 146.3 237.65 146.3 236.68C146.3 235.71 146.42 234.81 146.67 234.02C146.92 233.23 147.27 232.56 147.73 232.01C148.19 231.46 148.75 231.04 149.42 230.75C150.09 230.46 150.85 230.31 151.71 230.31C152.18 230.31 152.61 230.36 152.99 230.45C153.37 230.54 153.74 230.67 154.13 230.84V225.37L157.56 224.82V242.28L157.55 242.27ZM149.8 236.52C149.8 237.58 150.04 238.43 150.51 239.07C150.98 239.71 151.69 240.04 152.63 240.04C152.94 240.04 153.22 240.03 153.48 240.01C153.74 239.99 153.96 239.96 154.12 239.93V233.7C153.9 233.56 153.62 233.45 153.28 233.35C152.94 233.26 152.59 233.21 152.23 233.21C150.61 233.21 149.79 234.31 149.79 236.52H149.8Z"
            fill="white" />
        <path
            d="M176.49 233.25C177.13 232.16 177.75 231.08 178.33 229.99C178.91 228.9 179.45 227.81 179.94 226.71H183.9C183.03 228.43 182.12 230.09 181.19 231.7C180.25 233.31 179.27 234.93 178.22 236.55V242.64H174.63V236.59C173.59 234.97 172.59 233.34 171.65 231.71C170.71 230.09 169.8 228.41 168.92 226.7H173.08C173.57 227.8 174.1 228.9 174.66 229.98C175.23 231.06 175.83 232.15 176.47 233.24L176.49 233.25Z"
            fill="white" />
        <path
            d="M196.99 236.58C196.99 237.53 196.85 238.4 196.58 239.19C196.3 239.98 195.91 240.65 195.38 241.21C194.86 241.77 194.23 242.2 193.5 242.51C192.77 242.82 191.96 242.97 191.05 242.97C190.14 242.97 189.35 242.82 188.62 242.51C187.89 242.2 187.27 241.77 186.75 241.21C186.23 240.65 185.82 239.98 185.53 239.19C185.24 238.4 185.09 237.53 185.09 236.58C185.09 235.63 185.24 234.76 185.54 233.98C185.84 233.2 186.25 232.53 186.78 231.98C187.31 231.43 187.94 231 188.67 230.69C189.4 230.38 190.19 230.23 191.05 230.23C191.91 230.23 192.72 230.38 193.45 230.69C194.18 231 194.8 231.43 195.32 231.98C195.84 232.53 196.25 233.2 196.54 233.98C196.83 234.76 196.98 235.63 196.98 236.58H196.99ZM193.49 236.58C193.49 235.52 193.28 234.69 192.86 234.08C192.44 233.47 191.84 233.17 191.05 233.17C190.26 233.17 189.66 233.47 189.23 234.08C188.8 234.69 188.59 235.52 188.59 236.58C188.59 237.64 188.8 238.48 189.23 239.1C189.66 239.72 190.27 240.03 191.05 240.03C191.83 240.03 192.43 239.72 192.86 239.1C193.28 238.48 193.49 237.64 193.49 236.58Z"
            fill="white" />
        <path
            d="M212.03 242.24C211.45 242.41 210.7 242.57 209.78 242.71C208.86 242.85 207.89 242.93 206.88 242.93C205.87 242.93 205 242.79 204.32 242.52C203.64 242.24 203.1 241.86 202.7 241.36C202.3 240.86 202.02 240.27 201.85 239.58C201.68 238.89 201.6 238.13 201.6 237.3V230.56H205.03V236.88C205.03 237.98 205.18 238.78 205.47 239.27C205.76 239.76 206.3 240.01 207.1 240.01C207.35 240.01 207.61 240 207.88 239.97C208.16 239.95 208.4 239.92 208.62 239.89V230.55H212.05V242.23L212.03 242.24Z"
            fill="white" />
        <path
            d="M224.61 233.59C224.3 233.51 223.94 233.43 223.53 233.35C223.12 233.27 222.67 233.22 222.2 233.22C221.99 233.22 221.73 233.24 221.43 233.28C221.13 233.32 220.9 233.36 220.75 233.41V242.66H217.32V231.21C217.93 231 218.66 230.79 219.49 230.6C220.32 230.41 221.26 230.31 222.28 230.31C222.46 230.31 222.69 230.32 222.95 230.34C223.21 230.36 223.47 230.39 223.73 230.43C223.99 230.47 224.25 230.51 224.51 230.57C224.77 230.62 224.99 230.69 225.18 230.77L224.61 233.6V233.59Z"
            fill="white" />
        <path
            d="M247.61 242.66C246.58 240.84 245.47 239.03 244.28 237.25C243.08 235.47 241.81 233.79 240.46 232.21V242.65H236.92V226.71H239.84C240.35 227.22 240.91 227.84 241.52 228.57C242.13 229.31 242.76 230.09 243.39 230.93C244.03 231.77 244.66 232.63 245.29 233.53C245.92 234.43 246.51 235.29 247.06 236.12V226.71H250.62V242.65H247.61V242.66Z"
            fill="white" />
        <path
            d="M255.57 236.7C255.57 235.63 255.73 234.69 256.06 233.88C256.39 233.07 256.82 232.4 257.36 231.87C257.9 231.34 258.51 230.93 259.21 230.65C259.91 230.37 260.62 230.24 261.36 230.24C263.08 230.24 264.43 230.77 265.43 231.82C266.43 232.87 266.93 234.42 266.93 236.45C266.93 236.65 266.93 236.87 266.91 237.11C266.89 237.35 266.88 237.56 266.86 237.74H259.09C259.17 238.45 259.5 239 260.08 239.42C260.66 239.84 261.44 240.04 262.43 240.04C263.06 240.04 263.68 239.98 264.28 239.87C264.89 239.76 265.38 239.61 265.76 239.45L266.22 242.23C266.04 242.32 265.79 242.41 265.48 242.51C265.17 242.6 264.83 242.68 264.46 242.75C264.08 242.82 263.68 242.88 263.25 242.92C262.82 242.96 262.39 242.99 261.96 242.99C260.87 242.99 259.92 242.83 259.12 242.51C258.31 242.19 257.65 241.75 257.12 241.19C256.59 240.63 256.2 239.97 255.95 239.2C255.7 238.43 255.57 237.61 255.57 236.72V236.7ZM263.62 235.39C263.6 235.1 263.55 234.81 263.47 234.54C263.39 234.26 263.26 234.02 263.08 233.8C262.9 233.59 262.68 233.41 262.41 233.27C262.14 233.13 261.81 233.06 261.41 233.06C261.01 233.06 260.7 233.13 260.42 233.26C260.14 233.39 259.91 233.56 259.73 233.78C259.55 233.99 259.4 234.24 259.3 234.53C259.2 234.81 259.13 235.1 259.08 235.39H263.61H263.62Z"
            fill="white" />
        <path
            d="M276.44 233.95L278.84 230.56H282.38L278.18 236.44C279.14 237.55 280 238.64 280.74 239.73C281.48 240.82 282.09 241.8 282.54 242.65H278.87C278.75 242.42 278.59 242.13 278.41 241.79C278.23 241.44 278.02 241.08 277.79 240.71C277.56 240.33 277.32 240.02 277.07 239.75C276.82 239.49 276.57 239.25 276.33 239.04C276.1 239.24 275.86 239.46 275.62 239.7C275.38 239.94 275.15 240.24 274.94 240.6C274.73 240.96 274.51 241.32 274.31 241.67C274.1 242.02 273.92 242.35 273.76 242.66H270.27C270.46 242.28 270.72 241.83 271.03 241.31C271.34 240.79 271.69 240.24 272.07 239.69C272.45 239.13 272.86 238.59 273.29 238.06C273.73 237.53 274.16 237.04 274.58 236.58C273.83 235.51 273.1 234.48 272.41 233.5C271.72 232.51 271.03 231.54 270.35 230.58H274.05L276.43 233.97L276.44 233.95Z"
            fill="white" />
        <path
            d="M286.34 227.54L289.77 226.99V230.56H293.89V233.41H289.77V237.66C289.77 238.38 289.9 238.96 290.15 239.39C290.4 239.82 290.91 240.03 291.68 240.03C292.05 240.03 292.43 240 292.82 239.93C293.21 239.86 293.57 239.77 293.89 239.64L294.37 242.31C293.96 242.48 293.5 242.62 292.99 242.75C292.48 242.87 291.86 242.93 291.13 242.93C290.19 242.93 289.42 242.8 288.81 242.55C288.2 242.3 287.71 241.94 287.34 241.49C286.97 241.04 286.72 240.49 286.57 239.85C286.42 239.21 286.35 238.49 286.35 237.71V227.54H286.34Z"
            fill="white" />
        <path
            d="M311.87 242.86C311 242.86 310.12 242.83 309.26 242.78C308.39 242.73 307.49 242.6 306.56 242.4V226.94C307.3 226.8 308.1 226.7 308.98 226.63C309.86 226.56 310.67 226.53 311.42 226.53C312.43 226.53 313.36 226.6 314.21 226.75C315.06 226.9 315.79 227.14 316.41 227.5C317.02 227.85 317.5 228.32 317.85 228.89C318.2 229.47 318.37 230.17 318.37 231.02C318.37 232.29 317.76 233.3 316.53 234.03C317.54 234.41 318.23 234.94 318.6 235.59C318.97 236.24 319.15 236.99 319.15 237.82C319.15 239.49 318.54 240.75 317.32 241.59C316.1 242.43 314.29 242.85 311.88 242.85L311.87 242.86ZM310.05 232.97H311.8C312.9 232.97 313.69 232.83 314.17 232.54C314.64 232.26 314.88 231.8 314.88 231.17C314.88 230.54 314.63 230.07 314.14 229.81C313.65 229.55 312.93 229.42 311.98 229.42C311.67 229.42 311.34 229.42 310.99 229.43C310.64 229.43 310.32 229.46 310.05 229.49V232.96V232.97ZM310.05 235.71V239.83C310.31 239.86 310.59 239.88 310.9 239.9C311.21 239.92 311.54 239.92 311.91 239.92C312.98 239.92 313.85 239.77 314.51 239.46C315.17 239.15 315.5 238.59 315.5 237.76C315.5 237.02 315.22 236.5 314.67 236.18C314.12 235.86 313.33 235.71 312.3 235.71H310.05Z"
            fill="white" />
        <path
            d="M327.6 227.06C327.6 227.69 327.4 228.18 326.99 228.54C326.58 228.9 326.11 229.08 325.55 229.08C324.99 229.08 324.52 228.9 324.11 228.54C323.7 228.18 323.5 227.69 323.5 227.06C323.5 226.43 323.7 225.94 324.11 225.58C324.52 225.22 325 225.04 325.55 225.04C326.1 225.04 326.58 225.22 326.99 225.58C327.4 225.94 327.6 226.43 327.6 227.06ZM327.28 242.65H323.85V230.55H327.28V242.65Z"
            fill="white" />
        <path
            d="M343.01 241.14C343.01 243.12 342.51 244.59 341.5 245.54C340.5 246.5 338.94 246.98 336.84 246.98C336.1 246.98 335.37 246.91 334.63 246.78C333.89 246.65 333.21 246.48 332.58 246.26L333.18 243.38C333.72 243.59 334.28 243.76 334.87 243.89C335.46 244.01 336.13 244.07 336.88 244.07C337.86 244.07 338.56 243.86 338.96 243.43C339.37 243 339.57 242.45 339.57 241.77V241.33C339.2 241.5 338.82 241.62 338.43 241.71C338.04 241.79 337.61 241.84 337.15 241.84C335.48 241.84 334.2 241.34 333.31 240.36C332.42 239.37 331.98 237.99 331.98 236.21C331.98 235.32 332.12 234.51 332.39 233.78C332.67 233.05 333.07 232.43 333.6 231.9C334.13 231.38 334.78 230.98 335.54 230.69C336.31 230.41 337.17 230.26 338.14 230.26C338.55 230.26 338.98 230.28 339.42 230.32C339.86 230.36 340.29 230.41 340.72 230.47C341.15 230.53 341.56 230.6 341.95 230.69C342.34 230.77 342.69 230.86 343 230.95V241.12L343.01 241.14ZM335.49 236.22C335.49 238.14 336.26 239.1 337.81 239.1C338.16 239.1 338.49 239.05 338.8 238.96C339.11 238.87 339.37 238.76 339.58 238.64V233.17C339.41 233.14 339.21 233.11 338.98 233.09C338.75 233.07 338.48 233.05 338.17 233.05C337.27 233.05 336.59 233.35 336.15 233.95C335.7 234.55 335.48 235.31 335.48 236.23L335.49 236.22Z"
            fill="white" />
        <path d="M356.12 226.72H359.71V242.66H356.12V226.72Z" fill="white" />
        <path
            d="M375.9 242.27C375.59 242.36 375.24 242.45 374.84 242.53C374.44 242.61 374.02 242.69 373.59 242.75C373.15 242.81 372.71 242.86 372.26 242.9C371.81 242.94 371.37 242.96 370.96 242.96C369.96 242.96 369.07 242.81 368.29 242.52C367.51 242.23 366.85 241.81 366.31 241.27C365.77 240.73 365.36 240.07 365.08 239.29C364.8 238.52 364.65 237.65 364.65 236.68C364.65 235.71 364.77 234.81 365.02 234.02C365.27 233.23 365.62 232.56 366.08 232.01C366.54 231.46 367.1 231.04 367.77 230.75C368.44 230.46 369.2 230.31 370.06 230.31C370.53 230.31 370.96 230.36 371.34 230.45C371.72 230.54 372.09 230.67 372.48 230.84V225.37L375.91 224.82V242.28L375.9 242.27ZM368.15 236.52C368.15 237.58 368.39 238.43 368.86 239.07C369.33 239.71 370.04 240.04 370.98 240.04C371.29 240.04 371.57 240.03 371.83 240.01C372.09 239.99 372.31 239.96 372.47 239.93V233.7C372.25 233.56 371.97 233.45 371.63 233.35C371.29 233.26 370.94 233.21 370.58 233.21C368.96 233.21 368.14 234.31 368.14 236.52H368.15Z"
            fill="white" />
        <path
            d="M380.62 236.7C380.62 235.63 380.78 234.69 381.11 233.88C381.44 233.07 381.87 232.4 382.41 231.87C382.95 231.34 383.56 230.93 384.26 230.65C384.96 230.37 385.67 230.24 386.41 230.24C388.13 230.24 389.48 230.77 390.48 231.82C391.48 232.87 391.98 234.42 391.98 236.45C391.98 236.65 391.98 236.87 391.96 237.11C391.94 237.35 391.93 237.56 391.91 237.74H384.14C384.22 238.45 384.55 239 385.13 239.42C385.71 239.84 386.49 240.04 387.48 240.04C388.11 240.04 388.73 239.98 389.33 239.87C389.94 239.76 390.43 239.61 390.81 239.45L391.27 242.23C391.09 242.32 390.84 242.41 390.53 242.51C390.22 242.6 389.88 242.68 389.51 242.75C389.13 242.82 388.73 242.88 388.3 242.92C387.87 242.96 387.44 242.99 387.01 242.99C385.92 242.99 384.97 242.83 384.17 242.51C383.36 242.19 382.7 241.75 382.17 241.19C381.64 240.63 381.25 239.97 381 239.2C380.75 238.43 380.62 237.61 380.62 236.72V236.7ZM388.67 235.39C388.65 235.1 388.6 234.81 388.52 234.54C388.44 234.26 388.31 234.02 388.13 233.8C387.95 233.59 387.73 233.41 387.46 233.27C387.19 233.13 386.86 233.06 386.46 233.06C386.06 233.06 385.75 233.13 385.47 233.26C385.19 233.39 384.96 233.56 384.78 233.78C384.6 233.99 384.45 234.24 384.35 234.53C384.25 234.81 384.18 235.1 384.13 235.39H388.66H388.67Z"
            fill="white" />
        <path
            d="M401.04 230.24C402.05 230.24 402.9 230.36 403.57 230.58C404.24 230.81 404.78 231.14 405.19 231.57C405.6 232 405.88 232.52 406.05 233.13C406.22 233.74 406.3 234.43 406.3 235.18V242.31C405.81 242.42 405.13 242.54 404.25 242.69C403.37 242.84 402.32 242.91 401.08 242.91C400.3 242.91 399.59 242.84 398.95 242.7C398.31 242.56 397.77 242.34 397.31 242.02C396.85 241.71 396.5 241.3 396.25 240.79C396 240.28 395.88 239.66 395.88 238.93C395.88 238.2 396.02 237.63 396.31 237.14C396.59 236.65 396.97 236.26 397.45 235.97C397.92 235.68 398.47 235.47 399.08 235.34C399.69 235.21 400.33 235.14 400.99 235.14C401.43 235.14 401.83 235.16 402.17 235.2C402.51 235.24 402.79 235.29 403.01 235.35V235.03C403.01 234.45 402.83 233.98 402.48 233.63C402.13 233.28 401.51 233.1 400.64 233.1C400.06 233.1 399.48 233.14 398.91 233.23C398.34 233.32 397.85 233.43 397.44 233.59L397 230.83C397.2 230.77 397.45 230.7 397.75 230.63C398.05 230.56 398.37 230.5 398.73 230.45C399.08 230.4 399.45 230.35 399.85 230.31C400.25 230.27 400.64 230.25 401.03 230.25L401.04 230.24ZM401.32 240.27C401.66 240.27 401.98 240.27 402.29 240.25C402.6 240.24 402.84 240.21 403.03 240.18V237.58C402.89 237.55 402.69 237.52 402.41 237.49C402.13 237.46 401.88 237.44 401.65 237.44C401.33 237.44 401.03 237.46 400.74 237.5C400.46 237.54 400.21 237.61 399.99 237.72C399.78 237.83 399.61 237.97 399.48 238.16C399.36 238.34 399.3 238.57 399.3 238.85C399.3 239.39 399.48 239.76 399.84 239.97C400.2 240.18 400.7 240.28 401.32 240.28V240.27Z"
            fill="white" />
        <path
            d="M415.3 240.84C415.3 241.51 415.08 242.04 414.64 242.4C414.2 242.77 413.71 242.95 413.16 242.95C412.61 242.95 412.11 242.77 411.68 242.4C411.24 242.03 411.02 241.51 411.02 240.84C411.02 240.17 411.24 239.64 411.68 239.28C412.12 238.91 412.61 238.73 413.16 238.73C413.71 238.73 414.21 238.91 414.64 239.28C415.08 239.65 415.3 240.17 415.3 240.84ZM415 230.84C415 232.08 414.95 233.24 414.86 234.31C414.77 235.38 414.65 236.47 414.49 237.58H411.87C411.72 236.48 411.59 235.39 411.49 234.31C411.39 233.23 411.34 232.08 411.34 230.84V226.72H415V230.84Z"
            fill="white" />
        <path
            d="M83.21 113.24L78.1 122.11L58.01 156.95C56.92 158.84 54.19 158.84 53.1 156.95L27.9 113.24H0L41.61 185.39L10.9 238.65C9.81 240.54 11.17 242.9 13.36 242.9H33.07C35.1 242.9 36.97 241.82 37.98 240.06L111.11 113.24H83.21Z"
            fill="white" />
    </g>
    <defs>
        <clipPath id="clip0_252_23690">
            <rect width="509.08" height="246.98" fill="white" />
        </clipPath>
    </defs>
</svg>